<?xml version="1.0" encoding="UTF-8"?>
<svg id="_圖層_1" data-name="圖層 1" xmlns="http://www.w3.org/2000/svg" viewBox="0 0 1200 1200">
  <defs>
    <style>
      .cls-1 {
        fill: #f70070;
      }

      .cls-2 {
        fill: #f9f9f9;
      }

      .cls-3 {
        fill: #050505;
      }

      .cls-4 {
        fill: #ececec;
      }

      .cls-5 {
        fill: #080808;
      }
    </style>
  </defs>
  <path class="cls-4" d="m423.12,483.64c-3.09-.46-5.82-1.82-8-3.8-.07.07-.14.13-.22.2,1.97,1.27,3.79,3.14,5.94,3.63.72.17,1.49.12,2.28-.03Z"/>
  <path class="cls-4" d="m512.8,451.31c-6.4-1.29-12.62-4.59-17.95-8.95-.52,1.64-.84,3.35-1.33,5-5.84,19.82-17.91,32.78-39.27,35.11-2.22.24-4.66-1.51-7-2.33.43-.25.86-.54,1.28-.83-2.77.1-5.57-.22-8.09-.8-.87-.2-1.72-.47-2.54-.79-1.57,1.91-3.57,3.47-5.81,4.54-4.07,5.64-10.21,7.54-15.75,5.46-5.07-1.9-7.08-5.87-6-11.94-.96-.61-2-1.15-2.89-1.88-12.54-10.19-18.61-23.75-21.42-39.01-8.59,3.02-20.04,3.1-28.88,1.15.17.34.33.69.49,1.03,1.43,2.99,1.8,6.46,2.97,9.6,8.93,23.96,25.17,41.79,46.64,55.15,2.41,1.5,2.96,2.77,1.87,5.69-4.2,11.31-8.74,22.58-11.7,34.24-3.9,15.35-4.79,31.07-1.15,47.11,24.3-1.01,48.42-2.02,72.89-3.03,0-1.31.07-1.82-.01-2.3-3.73-21.58-3.52-43.14.27-64.7.83-4.7,2.61-7.95,7.23-10.52,22.25-12.41,37.59-30.16,41.46-56.3,0-.04.03-.09.03-.13-1.76-.02-3.55-.2-5.36-.56Z"/>
  <g>
    <path class="cls-5" d="m1048.31,493.33c-1.72-12.54-7.65-22.39-21.38-25.42-7.81-1.72-15.05-.79-22.73,4.14,1.03-11.74-3.17-19.93-12.49-25.56-9.38-5.68-18.69-4.04-27.86.59-2.93-9.3-4.92-18.1-15.02-20.95-9.02-2.54-17.5-1.4-25.53,4.28-1.36-3.38-2.14-6.3-3.62-8.81-10.09-17.2-37.04-20.59-51.21-6.59-6.73,6.65-10.38,15-13.68,23.65-8.9,23.34-24.09,41.06-46.52,52.63-21.44,11.07-44.09,18.74-67.13,25.53-4.98,1.47-8.83,1.16-12.95-2-12.25-9.43-30.14-6.48-39.38,4.51-.46.55-1.05,1.13-1.7,1.34-7.34,2.43-11.02,9.69-7.74,16.4,1.88,3.84.7,5.66-2.32,8.19-10.65,8.95-22.09,17.31-31.18,27.69-35.43,40.4-62.45,85.45-72.92,139.08-1.29,6.62-3.18,13.11-4.93,20.19-1.99-14.33-3.36-28.03-5.87-41.52-6.82-36.58-19.16-71.13-40.31-102.04-12.37-18.06-27.04-33.85-47.42-43.3-1.01-.47-1.88-2.64-1.76-3.93.55-6.18,1.6-12.32,2.21-18.5.45-4.53,2.4-7.4,6.53-9.83,22.5-13.24,38.19-31.58,42.17-58.34.21-1.4,1.59-2.81,2.75-3.84,6.87-6.13,13.01-12.59,14.67-22.24,1.4-8.11.26-10.4-7.6-12.77-1.88-9.39-2.4-9.87-10.4-9.65-2.11-9.21-3.44-9.61-13.67-4.1-5.86-5.52-10.28-4.85-13.89,2.64-1.56,3.24-2.04,7.02-2.87,10.59-.36,1.55-.37,3.18-.57,5.1-1.34-.33-2.14-.74-2.89-.67-2.68.25-6.5-.28-7.71,1.24-1.52,1.91-2.01,6.06-.94,8.28,1.75,3.6,5.24,6.32,7.75,9.6,1.03,1.34,2.36,3.44,1.98,4.73-2.93,10.01-8.23,18.58-17.12,25.53.74-3.13,1.47-5.67,1.93-8.25,1.87-10.59-2.43-18.88-9.72-26.12-1.79-1.78-3.57-3.77-4.7-5.99-1.6-3.14-3.61-4.99-7.29-4.9-10.43.26-14.7-5.74-11.11-15.52.23-.62.77-1.17.84-1.79.14-1.21.05-2.45.06-3.67-1.35,0-2.92-.43-3.99.12-2.51,1.27-4.92,2.84-7.1,4.62-2.8,2.29-5.34,4.9-8.54,7.88-1.17-3.8-2.15-7.02-3.42-11.16-15.97,16.82-20.26,36.15-15.71,58.26-1.92-1.57-3.64-3.05-4.34-4.91-3-7.97-5.58-16.1-8.57-24.08-1.83-4.86-1.11-8.7,2.33-12.76,3.43-4.05,4.29-9.15,1.51-14.12-2.68-4.8-7.18-3.92-11.35-2.99-1.09-4.53-1.63-8.94-3.21-12.94-3.07-7.74-6.2-8.59-13.24-4.4-6.49-4.26-8.61-3.33-11.54,5.07-8.21-1.7-9.5-.69-11.05,8.64-9.71.09-12.85,3.76-9.04,12.86,2.56,6.12,7.51,11.25,11.42,16.8,1.67,2.38,3.99,4.49,4.98,7.11,1.7,4.52,2.36,9.42,3.87,14.03,4.71,14.35,13.64,26.08,23.48,37.22l1.21,1.77c-.87-.22-1.73-.44-2.6-.65-13.17-4.25-23.09-12.54-30.28-24.28-8.11-13.25-16.08-26.6-24.55-39.62-6.51-10-14.03-19.12-24.38-25.7-20.08-12.79-44.37,2.29-42.95,21.32-21.38-1.16-29.6,3.62-36.7,21.34-21.07-3.31-36.51,12.62-35.77,34.92-13.35-1.31-20.54,2.95-26.29,15.32-5.71,12.28-7.19,25.14-5,38.36,6.2,37.4,24.93,67.63,53.57,91.93,6.8,5.77,14.29,10.71,21.46,16.04-12.24,10.33-18.91,28.22-8.53,46.65,11.12,19.75,27.19,33.18,47.6,42.38,23.3,10.5,48.11,13.03,73.05,15.04,20.94,1.69,38.1,10.53,52.45,25.68,20.04,21.15,27.9,47.72,34.06,75.08,2.27,10.1,4.12,20.29,6.17,30.44,4.33.95,4.45-2.06,4.17-4.81-.92-9-1.43-18.11-3.25-26.94-5.34-25.94-12.67-51.09-29.92-72.24-14.69-18.02-32.79-30.25-55.92-33.88-15.07-2.37-30.33-3.57-45.48-5.46-17.27-2.17-32.66-9.35-47.83-17.86,8.74-12.34,7.2-24.38-.55-35.55-8.08-11.64-19.96-10.7-31.95-7.38-1.22-13.96,6.56-25.56,19.51-28.57,10.36-2.41,20.73-2.05,30.63,2.19,7.71,3.3,15.28,6.92,22.8,10.62,1.17.58,2.03,2.24,2.56,3.59,1.63,4.12,3.04,8.32,4.49,12.37,0,5.6-.36,11.53.08,17.4.86,11.55,3.65,15.82,17.65,17.7,6.39.86,13.06-.08,19.59-.49,6.19-.39,11.41-5.97,11.8-12.27.35-5.63.59-11.27.86-16.39,3.1-.18,6.49.62,8.56-.68,4.97-3.11,10.63-6.36,13.68-11.06,9.8-15.1,18.54-30.89,27.62-46.3,11.65,11.7,13.56,26.58,5.8,41.41-4.08,7.79-11.13,13.42-13.94,22.26-2.68,8.41-1.89,14.97,4.94,20.61,5.86,4.84,12.82,5.36,19.83,6.06,8.29.83,16.33.33,23.94-3.65,8.06-4.21,12.35-12.92,9.48-21.45-1.49-4.43-4.27-8.42-6.58-12.81,14.3-17.05,15.98-32.08,5.51-52.61-1.37-2.69-2.77-5.43-4.63-7.77-.77-.97-2.77-.96-4.21-1.4-.13,1.38-.74,2.94-.29,4.09,1.23,3.12,2.89,6.06,4.4,9.06,8.16,16.19,6.56,31.04-5.64,44.78-2,2.25-3.68,2.62-6.34,2.66-6.84.11-13.67.68-20.5,1.01-1.34.07-2.7-.11-4.37-.19,13.89-22.69,13.03-36.7-2.54-57.86-3.68-5-6.26-10.8-9.81-17.04,2.93-.3,4.2-.5,5.48-.56,17.97-.83,35.97-1.24,53.9-2.63,7.98-.62,13.08,1.33,17.96,8.08,14,19.35,14.27,44.43-.29,63.32-2,2.59-4.21,3.66-7.57,3.97-5.25.49-10.4,1.99-16.76,3.31,6.29,5.61,9.75,11.14,9.11,17.52-.6,5.99-3.21,11.78-4.97,17.78,6.34,2.49,20.66,2.82,29.17-.04,6.63-2.23,13.42-5,14.73-12.86,1.26-7.55-2.25-13.8-8.19-18.38-3.23-2.5-6.96-4.35-10.61-6.57,1.91-3.2,3.89-6.29,5.65-9.5,10.81-19.77,8.94-39.16-2.38-57.93-3.11-5.16-6.79-9.22-6.18-16.33.66-7.7-1.51-15.63-2.36-23.47-.28-2.55-.27-5.13-.43-8.61,2.45,1.42,4.04,2.26,5.56,3.22,17.4,11.01,30.79,25.92,41.6,43.22,23.67,37.9,35.4,79.69,39.38,123.82,1.6,17.73,2.3,35.54,3.29,53.32,1.3,23.44,2.5,46.89,3.72,70.33.31,6.08.28,12.19.91,18.24.14,1.32,2.41,2.43,3.7,3.63.99-1.55,2.85-3.11,2.83-4.64-.39-24.53-.98-49.05-1.63-73.57-.28-10.38-1.59-20.8-1-31.13.52-9.12,2.86-18.16,4.7-27.17,7.43-36.29,17.85-71.46,38.05-103.08,14.87-23.27,30.4-45.97,50.83-64.86,1.18-1.09,2.61-1.93,3.92-2.88-1.77,4.93-4.79,8.95-5.86,13.44-1.08,4.57-.24,9.59-.24,15.23,3.69-4.4,6.46-7.97,9.57-11.22.76-.8,2.62-.55,3.97-.78.07,1.38.43,2.82.11,4.1-.26,1.05-1.3,1.92-2.04,2.83-6.03,7.35-10.8,15.43-13,24.71-2.2,9.27-3.77,18.68-5.76,28-.31,1.44-1.22,2.89-2.2,4.03-4.32,5.04-10.02,9.35-12.91,15.09-5.38,10.68-9.15,22.17-13.71,33.63-3.6,1.82-8.36,3.58-12.38,6.4-5.75,4.03-8.58,9.96-7.22,17.11,1.29,6.81,6.16,10.63,12.44,12.56,10.73,3.29,20.54,1.23,29.27-5.79,17.2,16.37,49.04.79,52.14-18.38.83-5.12,1.4-10.28,2.15-15.41,2.15-14.66,4.86-28.91,15.8-40.35,4.35-4.55,6.21-10.86,3.79-17.7-2.99-8.45-5.66-17.02-8.11-25.65-.68-2.4-.1-5.16-.1-7.76,3.97,8.09,6.98,16.16,9.5,24.38,1.73,5.64,3.54,11.45,3.93,17.27.46,6.76-.29,13.52,6.59,17.6-7.97,11.17-12.72,22.96-14.66,35.93-.16,1.1-1.54,2.45-2.66,2.91-7.39,3.07-11.34,9.17-12.89,16.35-.84,3.86-.33,9.21,1.83,12.31,6.48,9.31,24.97,13.19,34.03,2.36,21.83,12.09,42.95,2.67,48.57-21.67.41-1.79.82-3.6,1.07-5.42,1.61-11.58,4.33-22.78,11.73-32.21,1.69-2.15,3.79-4.72,6.18-5.4,4.06-1.17,4.67-3.35,4.65-7-.02-6.02.5-12.05.85-19.16,5.07,10.18,9.5,19.05,13.53,27.14-5.43,4.63-11.32,9.28-16.7,14.47-1.31,1.26-.94,4.26-1.35,6.46,1.94-.76,4.34-1.03,5.73-2.37,9.15-8.76,18.04-15.22,32.64-13.02,18.26,2.75,27.27-5.48,29.11-16.7,11.83-2.14,29.54-10.69,39.41-20.79,5.46-5.58,12.01-10.21,18.49-14.67,7.5-5.17,16.04-7.57,25.24-6.81,12.85,1.06,24.36,11.93,23.86,24.68-10.7-2.56-20.43.24-29.84,5.23-11.65,6.19-16.4,20.02-10.28,31.54,2.3,4.32,5.56,8.13,8.47,12.29-.6.4-1.54,1.1-2.53,1.71-25.7,15.8-53.59,26.96-81.31,38.5-34.18,14.23-67.28,30.29-96.1,54.19-27.56,22.86-46.56,51.32-57.86,85.07-1.12,3.36-.41,7.33-.54,11.01,3.87.81,5.17-1.29,6.26-4.68,10.69-33,28.5-61.24,55.17-83.86,21.34-18.1,45.29-31.84,70.54-43.37,26.82-12.25,54.17-23.37,80.99-35.62,18.04-8.24,35.35-17.94,49.73-32.02,9.7-9.5,14.48-21.46,15.58-34.61,1.04-12.38-3.65-22.96-13.59-30.6,7.21-6.66,14.3-13.06,21.22-19.63,21.88-20.78,38.82-44.91,48.15-73.78,1.98-6.13,2.41-13.3,1.53-19.71Zm-801.75,187.07c6.86,8.8,7.43,18.76,1.41,28.21-9.2-5.57-22.28-22.86-24.64-32.39,8.97-2.99,19.05-1.17,23.23,4.18Zm159.26-216.62c.05.05-.26.47-.64,1.12-.22-.88-.36-1.45-.51-2.02.39.29.81.56,1.15.9Zm-131.12,173.28c-11.54-4.99-23.42-5.07-35.52-2.38-1.59.35-3.73.11-5.1-.72-38.86-23.6-64.93-56.63-74.12-101.79-2.45-12.07-1.44-24.02,3.7-35.49,5.86-13.09,18.5-16.37,29.32-6.73,4.78,4.25,8.79,9.72,12,15.3,7.27,12.65,13.56,25.85,20.7,38.57,16.97,30.25,41.92,51.52,73.93,64.66.46.19.88.48,1.82,1.01-3.61,11.49-4.6,22.76,1.5,33.76-1.32,1.56-2.59,3.05-3.95,4.64-8.1-3.63-16.15-7.32-24.28-10.84Zm29.81,9.39c5.57,3.24,11.14,6.49,15.99,9.31-4.94,2.83-10.39,5.96-16.1,9.24-4.94-3.23-5.11-10.46.11-18.54Zm1.42-20.83c.05-3.85,4.13-8.42,7.64-8.55,5.2-.2,8.42,3.15,8.47,8.81.04,4.24-3.79,8.06-8.28,8.27-4.32.2-7.9-3.69-7.83-8.52Zm22.86,44.22c-3.4-.38-6.99,1.47-10.48,1.42-4.6-.06-6.57,2.45-8.05,6.84-4.28-4.61-1.51-8.15.84-11.05,7.92-9.76,24.31-8.61,30.96,2,.78,1.24.9,2.9,1.38,4.57-5.31-1.44-9.9-3.26-14.64-3.79Zm10.14,10.3c-4.4,5.93-20.85,6.57-25.19.9-.6-.78-.32-3.25.43-3.85,1.51-1.2,3.6-2.17,5.49-2.24,1.37-.05,2.79,1.5,4.15,2.32,1.42-1.8,2.78-4.41,3.48-4.24,1.95.46,3.64,2.08,6.62,4.02.79.07,3.44-5.51,5.33.08.3.89.22,2.3-.31,3.01Zm6.24,11.81c-.53,4.79-4.07,7.11-8.22,7.47-6.16.54-12.46.69-18.59.02-8.47-.92-10.2-3.09-11.63-11.66-.36-2.13-.66-4.28-1.19-7.79,6.14,6.91,13.01,9.5,20.86,10.15,8.85.73,14.34-4.2,19.73-11.56-.35,5.06-.5,9.23-.96,13.37Zm-11.27-38.57c-12.18-.24-21.85-4.75-23.01-10.89,2.52-1.07,5.21-1.91,7.58-3.3,2.25-1.32,4.16-3.21,7.17-5.61.96,3.56,1.81,6.67,2.65,9.78-.44.49-.88.98-1.32,1.48-2.67-1.44-5.34-2.88-8.31-4.48-.23.83-.51,1.87-.82,2.99.06.06.12.12.18.2,2.27,3.14,7,3.71,10.57,3.67,3.78-.04,8.04-.76,11.16-3.04.68-.49,1.94-.01,2.06.84.14.98.24,2.06.88,2.85.91.37,2.07.84,3.37,1.38-1.62-4.33-2.76-7.35-3.73-9.95-3.35,1.92-6.78,3.89-10.21,5.87-.58-.5-1.15-.99-1.73-1.49,1.07-3.88,2.14-7.76,3.35-12.15,8.34,6.77,17.11,7.13,26.52,6.48-2.08,8.56-14.53,15.61-26.36,15.38Zm2.06-30.03c.29-4.3,3.99-7.49,8.5-7.32,4.41.16,7.84,4.1,7.62,8.76-.22,4.72-3.49,7.76-8.06,7.51-4.72-.26-8.37-4.32-8.06-8.95Zm45.31,16.81c-5.31,9.23-11.29,18.07-17.22,26.92-1.03,1.53-3.05,2.39-5.31,4.09v-7.4c-.55-.16-1.09-.32-1.64-.49-.8,2.23-1.61,4.47-2.99,8.33-.67-2.27-1.31-3.45-1.31-4.63,0-1.76.46-3.52.73-5.28-.55-.22-1.09-.44-1.64-.66-1.12,2.37-2.25,4.74-3.34,7.04-3.07-3.73-1.15-11.2,3.79-14.75,3.53-2.54,7.11-5.06,10.32-7.96,10.01-9.04,9.24-20.44,6.19-31.96-1.08-4.08-3.99-7.66-5.25-11.72-1.25-4.05-1.43-8.42-2.16-12.63-.42-2.42-.99-4.82-1.87-8.99-4.12,4.29-7.66,7.43-10.49,11.11-2.19,2.84-4.46,3.89-8,3.73-7.67-.36-15.42-.65-22.3,3.64-1.68-2.96-3.34-5.87-5-8.78-1.08-1.44-2-3.07-3.3-4.28-1.2-1.11-3.06-2.69-4.19-2.39-1.33.35-2.77,2.36-3.13,3.89-1.01,4.37-1.48,8.86-2.21,13.6-12.63-4.49-23.07-11.71-33.19-19.51-18.9-14.57-32.16-33.44-42.71-54.62-6.04-12.13-12.81-23.94-20.09-35.36-2.74-4.3-7.92-7-11.84-10.6-1.13-1.04-2.37-2.6-2.48-4.01-.94-11.61,5.56-22.82,14.83-26.04,10.76-3.74,24.39.81,30.59,11.6,6.15,10.71,11.46,21.98,16.27,33.38,9.97,23.63,23.87,44.32,44.09,60.26,10.28,8.11,22.19,13.52,34.63,17.35-3.64,6.21-7.17,12.23-10.7,18.25,1.41.51,2.85,1.55,4.21,1.45,5.98-.46,11.97-1.05,17.88-2.03,1.84-.31,3.65-1.78,5.14-3.09,3.36-2.97,6.34-6.4,9.83-9.2,2.74-2.2,5.08-1.28,5.75,2.34,1.15,6.2,2.16,12.41,3.35,19.35,9.95,6.49,15.57,16.75,16.72,29.35.32,3.52-.22,7.71-1.93,10.7Zm7.48-99.18c-4,1.16-8.02,2.44-12.12,3.01-14.13,1.96-25.38,9.31-35.3,18.87-3.06,2.95-5.66,3.27-9.34,2.15-23.05-7.06-41.51-20.55-54.63-40.62-7.12-10.89-12.8-22.74-18.8-34.33-4.46-8.63-8.27-17.59-12.58-26.29-4.55-9.2-11.38-16.13-21.11-19.81,2.61-11.94,17.44-19.26,29.96-14.82,8.6,3.05,15.11,8.82,19.42,16.72,2.95,5.41,5.54,11.16,7.33,17.05,4.53,14.93,11.43,28.71,20.05,41.55,12.37,18.43,30.3,29.01,51.52,34.4,1.41.36,3.14.53,4.41.02,1.17-.47,2.42-1.87,2.68-3.07.16-.75-1.27-2.33-2.3-2.75-2.62-1.07-5.48-1.53-8.14-2.52-19.91-7.44-37.03-18.47-46.58-38.34-5.43-11.3-10.59-22.78-14.94-34.52-4.8-12.95-11.26-24.31-23.12-32.02-2.91-1.89-2.86-8.73-.14-13.24,5.98-9.91,18.66-13.21,29.02-6.28,6.7,4.48,13.21,10.11,17.84,16.62,10.05,14.13,18.85,29.16,28.15,43.83,8.47,13.38,19.25,24.04,34.47,29.56,4.19,1.52,8.31,3.2,11.76-1.58,5.7,4.38,11,8.47,16.02,12.33-3.49,10.73-6.89,21.39-10.49,31.98-.33.96-1.87,1.79-3.02,2.12Zm80.72-22.14c-3.79,21.56-4.01,43.11-.27,64.7.08.48.01.99.01,2.3-24.47,1.02-48.59,2.02-72.89,3.03-3.64-16.05-2.75-31.77,1.15-47.11,2.96-11.65,7.5-22.93,11.7-34.24,1.08-2.91.54-4.18-1.87-5.69-21.47-13.36-37.71-31.19-46.64-55.15-1.17-3.14-1.54-6.61-2.97-9.6-1.74-3.64-3.61-7.59-6.49-10.22-5.25-4.78-9.65-9.86-11.2-16.89-.31-1.39.51-3.03.81-4.56,1.55.37,3.6.25,4.53,1.21,1.91,1.98,3.22,4.55,4.78,6.87,1.56,2.32,3.13,4.63,4.69,6.94.64-.32,1.28-.63,1.93-.95-.45-1.71-.78-3.47-1.38-5.14-1.76-4.89-3.79-9.69-5.32-14.64-.37-1.21.77-2.89,1.22-4.35,1.25.92,3.15,1.59,3.65,2.82,1.63,4.04,2.59,8.34,4.15,12.4.51,1.33,2.06,2.25,3.14,3.36.31-1.6,1.04-3.26.84-4.79-.64-4.96-1.81-9.85-2.39-14.82-.21-1.78.67-3.7,1.05-5.55.59-.1,1.18-.21,1.77-.31,1.01,2.78,2.28,5.49,2.97,8.34.9,3.75,1.18,7.64,2.09,11.39.28,1.13,1.78,1.96,2.72,2.93.47-1.14,1.42-2.32,1.33-3.41-.3-3.51-1.26-6.97-1.43-10.47-.13-2.77.53-5.58.84-8.38.81-.12,1.63-.25,2.44-.37,1.42,3.37,3.32,6.63,4.14,10.14.9,3.89.72,8.01,1.21,12.01.14,1.18.96,2.27,1.47,3.41,1.22-.66,2.49-1.23,3.66-1.99,1.77-1.14,3.45-2.41,5.18-3.62.49,2.44,1.42,4.9,1.32,7.32-.07,1.66-1.33,3.48-2.52,4.83-2.89,3.26-3.97,6.9-3.32,11.15,2.54,16.54,8.55,31.28,21.95,42.16.89.73,1.94,1.27,2.89,1.88-1.08,6.07.93,10.04,6,11.94,5.76,2.16,12.19.04,16.24-6.15-2.32.44-3.89.74-5.47,1.05-2.11.41-4.37,1.49-6.28,1.05-2.14-.49-3.97-2.36-5.94-3.63,1.56-1.36,2.91-3.26,4.72-3.96,4.63-1.79,9.48-3.04,14.23-4.52.3-.09.57-.32,1.49-.85-1.88-1.95-3.68-3.78-5.43-5.66-9.28-9.97-8.13-22.09-.85-31.87,2.09-2.8,6.06-4.46,9.48-5.94,4.12-1.79,7.65-.39,9.86,3.99,1.41-.99,2.53-2.36,3.82-2.53,1.26-.17,3.9,1.1,3.85,1.37-.64,3.61,2.51,4.31,4.31,5.94,8.09,7.33,11.89,16.01,8.8,26.97-2.15,7.65-8.36,12.76-16.13,13.92-2.05.31-3.88,2.11-5.81,3.23,2.34.83,4.78,2.58,7,2.33,21.36-2.33,33.43-15.29,39.27-35.11.52-1.77.84-3.61,1.43-5.36,1.06-3.14.49-5.17-2.67-7.05-3.91-2.32-7.58-5.35-7.42-12.09,3.59,2.24,6.24,3.91,9.41,5.89,3.52-8.34.73-18.46,8.27-24.73.6.03,1.21.06,1.81.09,0,4.15-.14,8.31.07,12.44.08,1.62.96,3.2,1.48,4.79,1.09-1.4,2.88-2.68,3.13-4.22.89-5.44,2.18-10.42,7.33-13.23.62.12,1.24.25,1.85.37-.62,4.79-1.19,9.58-1.88,14.36-.19,1.32-1.03,2.58-1.04,3.87,0,1.13.76,2.25,1.18,3.38.88-.65,2.17-1.12,2.55-1.98,1.07-2.45,1.51-5.19,2.67-7.59,1.07-2.21,2.76-4.12,4.18-6.16.69.2,1.37.41,2.06.61,0,2.67.35,5.41-.1,8.01-.43,2.43-1.93,4.66-2.56,7.08-.53,2.04-.47,4.22-.68,6.35,1.68-1.51,3.46-2.93,5-4.57.77-.82.99-2.15,1.7-3.07.96-1.26,2.14-2.35,3.23-3.51.5.15,1,.29,1.49.44,0,1.62.23,3.28-.04,4.87-1.56,9.44-7.79,15.73-14.7,21.58-1.31,1.11-2.94,2.6-3.16,4.1-3.87,26.14-19.21,43.89-41.46,56.3-4.62,2.58-6.4,5.82-7.23,10.52Zm490.18,156.04c-.97.68-3.73.11-4.77-.84-11.91-11-12.89-23.34,2.83-32.26,7.72-4.38,15.97-6.83,25.49-3.81-1.7,16.42-10.72,27.94-23.55,36.91Zm-289.28-113.72c-.35-.41-.69-.81-1.04-1.22,1.58-1.35,3.16-2.7,4.74-4.04.35.4.69.81,1.04,1.21-1.58,1.35-3.16,2.7-4.74,4.05Zm5.12-3.76l-1.19-1.24c1.35-1.29,2.7-2.57,4.04-3.86.51.52,1.02,1.05,1.53,1.57-1.46,1.18-2.92,2.36-4.38,3.53Zm-30.75,145.88c-.52,2.25-1.4,4.89-.7,6.84,1.66,4.64-.91,6.32-4.25,7.95-6.97,3.4-14.11,4.46-21.26.9-6.9-3.43-7.97-10.12-2.76-15.76,5.01-5.41,11.54-7.08,18.61-7.51,1.89-.12,3.75-.82,5.63-1.25.02-.57.03-1.14.05-1.71-1.96-.99-3.93-1.98-6.19-3.13,5.5-16.69,9.26-34.53,23.89-45.74,6.09,1.89,11.33,3.52,16.98,5.27-1.33,2.42-3.29,5.1-4.35,8.11-3.04,8.63-5.85,17.36-8.45,26.13-.92,3.11-1.74,5.56-5.06,7.23-5.41,2.7-10.61,6.09-12.12,12.66Zm50.85-10.03c-1.88,19.53-20.92,29.41-34.8,26.54-5.14-1.06-9.5-5.29-10.27-10.5-.7-4.73,1.84-8.11,5.69-10.3,3.11-1.76,6.61-2.82,9.81-4.42,1.16-.58,2.98-2.21,2.79-2.76-3.03-8.76,1.61-16.27,3.97-24,1.64-5.38,4.72-10.31,7.04-15.5,1-2.24,2.24-3.12,4.93-3,6.85.31,13.72.1,21.97.1-9.96,13.91-9.72,29.21-11.13,43.83Zm7.03-123.52c-14.99-3.21-21.64-13.89-18.21-28.96.4-1.75-.04-3.72-.24-5.57-.08-.79-.96-1.68-.77-2.29.78-2.46,1.78-4.86,2.9-7.18.09-.19,2.35.15,2.49.59.66,2.1,1.13,4.32,1.26,6.51.09,1.36-.54,2.76-.84,4.13,5.49-3.57,10.24-6.93,15.3-9.74,1.23-.68,4.09-.2,5.13.83,4.05,4,7.66,8.44,12.12,13.49.3-2.39.59-4.76,1.04-8.44,2.08,5.2,3.77,9.41,5.62,14.05h-7.83c2.8,1.88,4.25,2.86,5.37,3.61-1.85,3.6-3.54,6.99-5.32,10.34-3.52,6.62-10.93,10.15-18.02,8.63Zm29.73,70.44c7.67-3.54,14.11-6.51,21.01-9.69,2.7,2.78,1.95,6.69-2.52,9.37-4.53,2.72-8.72,6-14.46,10.01-1.49-3.58-2.95-7.08-4.03-9.69Zm53.96,40.4c-2.15,6.83-2.87,14.1-4.35,21.15-.41,1.94-1.28,3.78-1.93,5.67-.73,5.21-3.63,9.09-8.12,11.36-7.17,3.62-14.78,5.19-22.8,2.78-5-1.5-9.03-5.8-8.95-9.66.09-4.89,5.81-12.06,10.27-13.1,1.3-.3,2.49-1.11,3.73-1.69-4.01-3.31-3.02-7.63-1.22-11.16,3.84-7.5,8.44-14.61,12.66-21.92.71-1.22,1.06-2.65,1.04-4.34-5.58,1.58-9.82,4.89-12.37,9.52-3.11,5.64-5.96,11.66-7.52,17.86-1.31,5.24-2.91,9.72-7.37,12.88-4.19,6.02-6.94,12.25-2.83,19.46-7.68,6.13-15.47,6.48-22.94,1.28-3.86-2.69-5.14-6.15-3.47-10.43,2.21-5.68,4.73-11.19,12.15-11.58.8-.04,1.54-1.14,2.31-1.74,1.21-20.31,11.31-43.51,29.21-52.46,11.84,10.34,26.72,12.85,41.21,15.43-2.87,6.67-6.44,13.48-8.72,20.69Zm80.65-25.88c-5.44,5.15-12.24,5.82-19.24,5.42-12-.68-19.77-7.45-24.5-17.95-2.86-6.37-5.07-13.03-7.62-19.55-.37-.95-.99-1.81-1.49-2.71-.68.78-1.74,1.45-1.98,2.35-2.58,9.76-5.04,19.55-7.83,30.53-15.64,1.61-31.24-2.74-46.58-13.64,5.51-13.36,10.49-26.6,16.48-39.38,2.49-5.32,6.97-9.78,10.89-14.33,2.39-2.77,5.35-4.97,9.63-3.78.97.27,2.31-.78,3.48-1.23-.8-1.11-1.37-2.84-2.43-3.24-4.28-1.6-8.61-3.01-10.79-7.49-1.07-2.2-1.72-4.59-2.75-6.81-.71-1.55-1.64-3.03-2.64-4.42-.88-1.23-2.96-2.49-2.78-3.38.27-1.33,1.89-3.02,3.24-3.37,2.95-.77,3.8-2.26,4.83-5.15,1.41-3.96,4.64-7.28,7.02-10.77,7.64,4.11,14.14,7.6,19.52,10.49,1.34,6.32,2.5,11.81,3.67,17.29.49-.04.97-.07,1.46-.11-1.66,2.5-3.67,4.85-4.88,7.55-1.38,3.09-1.94,6.53-3.04,9.75-1,2.92-2.16,5.79-3.41,8.61-2.32,5.28-5.91,10.31-6.88,15.81-1.47,8.38,5.02,13.13,13.3,10.87,5.43-1.49,8.53-5.52,11.38-10.04,2.33-3.7,4.26-8.2,9.38-8.16,6.09,13.62,11.93,26.92,18.01,40.12,1.83,3.98,3.39,8.85,9.9,4.9,1.28-.78,5.44,1.75,7.29,3.69,2.27,2.38,1.93,5.67-.66,8.12Zm170.05-137c-10.57,26.75-27.62,49.02-48.86,68.18-5.6,5.05-11.49,9.79-17.43,14.43-1.28,1-3.5,1.62-5.05,1.3-12.39-2.57-24.12-.97-34.7,5.95-6.43,4.21-12.78,8.8-18.27,14.14-9.89,9.61-21.3,16.11-34.46,19.87-3.22.92-5.63.79-8.75-1.32-3.36-2.28-7.95-2.77-13.33-4.46-5.34-11.86-11.3-25.12-17.2-38.21,6.79-6.4,7.15-8.93,3.59-16.98-.67-1.52-.44-3.9.27-5.49,3.04-6.77,2.33-10.76-2.75-16.34-1.28-1.41-2.39-4.03-2-5.74,2.71-11.92-3.9-19.55-11.97-26.25-8.42-6.98-17.95-8.11-28.03-3.51-8.39,3.83-13.63,10.49-16.69,18.95-.95,2.63-2.15,4.32-5.01,5.31-4.68,1.62-6.63,6.28-4.83,11.08.93,2.48,1.15,3.89-1.31,5.83-5.09,4.01-3.71,9.45-2,14.73-6.48,4.79-11.43,11.65-7.33,18.8,4,6.98,1.3,11.65-.91,17.29-1.21,3.09-2.29,6.24-3.83,10.46-6.74-13.62-13.33-26.38-19.41-39.39-5.47-11.69-7.31-14.59-13.77-18.07,2.12-5.57,4.25-11.14,6.03-15.8,4.19,1.87,7.77,3.58,11.46,4.99.45.17,1.45-1.12,2.23-1.83,3.01,0,6.03,0,9.04,0,.33-.47.66-.93.99-1.4-2.3-1.29-4.6-2.58-6.9-3.87.39-.47.79-.95,1.18-1.42,2.03.44,4.04,1.11,6.09,1.23.9.05,2.17-.84,2.67-1.67.29-.48-.4-2.2-1.03-2.48-8.96-3.88-10.12-13.28-14.77-20.39,11.93-3.88,23.87-7.24,35.4-11.65,12.35-4.72,24.5-10.08,36.43-15.79,25.12-12,40.98-32.47,51.32-57.71,2.94-7.17,5.75-14.39,12.19-19.31,8.89-6.8,18.63-8.1,28.87-3.76,9.06,3.84,13.52,14.79,9.37,23.5-9.45,19.81-18.73,39.73-31.37,57.85-7.86,11.25-17.38,20.46-29.56,26.79-2.34,1.22-5.06,1.71-7.45,2.87-1.2.58-2.95,2.01-2.85,2.87.15,1.32,1.71,3.55,2.62,3.53,3.23-.08,6.76-.27,9.59-1.64,13.27-6.42,24.54-15.58,32.32-28.1,9.28-14.94,17.53-30.52,26.31-45.79,3.75-6.53,7.26-13.28,11.67-19.35,4.85-6.69,13.38-8.43,20.81-5.28,8.57,3.64,11.59,8.77,10.62,18.27-.13,1.28-.46,2.66-1.11,3.76-8.93,15.28-17.89,30.55-26.91,45.77-10.02,16.9-23.23,30.74-40.08,40.93-2.96,1.79-6.59,2.45-9.58,4.2-1.52.89-2.29,3.05-3.4,4.64,1.71.7,3.65,2.3,5.08,1.93,3.83-1.02,7.7-2.44,11.09-4.48,19.3-11.61,33.86-27.83,45.01-47.23,6.29-10.95,12.25-22.1,18.58-33.03,2.25-3.89,4.96-7.56,7.8-11.06,8.25-10.16,25.77-9.39,31.98,1.47,4.32,7.55,1.75,14.55-2.77,21.07-9.93,14.33-20.09,28.52-29.89,42.94-10.81,15.91-23.3,30.04-40.56,39.14-4.69,2.47-9.93,3.89-14.9,5.85-2.48.97-5.83,1.93-4.3,5.33.55,1.23,4.3,1.93,6.25,1.46,19.9-4.83,35.68-16.4,48.05-32.14,9.94-12.64,18.03-26.71,27.6-39.67,6.04-8.18,12.68-16.12,20.14-22.98,7.06-6.48,15.94-8.16,25.32-3.91,9.34,4.23,11.02,13.03,11.42,21.37.31,6.4-1.66,13.29-4.07,19.39Zm-294.3,37.74c-.18-.16-.36-.32-.54-.48.23-.03.45-.06.68-.09-.04.19-.09.38-.14.57Z"/>
    <path class="cls-5" d="m644.35,431.2c3.45,3.48,6.7,1.63,9.94-.91,4.87-3.82,9.48-8.09,14.73-11.3,13.17-8.07,34.59,3.7,35.57,19.14.1,1.63,1.21,3.71,2.52,4.68,9.53,7.03,13.82,16.87,14.31,28.17.59,13.52-14.91,21.83-28.34,15.54-2.55-1.19-4.8-3.04-7.09-4.52-23.45,20.46-50.38,25.47-79.55,15.67-23.14-7.78-35.02-25.28-37.24-49.44-.08-.82-.21-1.64-.32-2.47-12.5,3.03-12.73,2.99-11.79-9.5,2.48-33.03,11.58-63.72,34.65-88.49,7.04-7.56,11.04-16.15,15.45-25.06,15.27-30.84,38.19-53.92,70.69-66.68.98-.38,2.1-1.15,2.54-2.05,6.84-13.9,18.23-22.07,33.03-25.26,7.9-1.71,10.53,1.68,8.9,9.8,9.54.35,10.91,1.74,8.66,8.81,6.57,4.73,6.73,5.86,1.3,11.85,3.68,1.77,6.24,4.85,3.95,8.54-1.76,2.84-5.26,4.6-8.8,7.51.17-1.05-.02-.67.1-.51,4.62,6.22,3.15,10.09-5.09,11.19-5.06.68-10.63.78-15.43-.66-6.46-1.94-11.48-.88-16.29,3.33-.87.76-1.85,1.41-3.23,2.44,13.2,3.86,23.03,11.05,27.69,24.22,5.6-2.3,9.86-5.72,11.65-12.38,1.07-3.98,3.85-7.81,6.71-10.93,5.22-5.71,8.88-5.12,12.62.77,4.35-2.18,8.48-4.88,13.01-6.24,2.46-.74,6.16.06,8.25,1.59,1.36,1,.83,4.57,1.19,7.3,7.71,1.31,8.64,3.91,4.11,11.6,2.28,1.74,6.18,3.36,6.23,5.07.07,2.72-2.44,5.51-3.96,8.47,4.14,3.38,4.72,6.34.19,10.77-2.47,2.42-6.08,4.42-9.46,5-7.56,1.31-15.39,1.1-22.92,2.52-4.75.89-9.4,3.18-13.64,5.62-5.49,3.16-10.8,6.77-15.72,10.77-7.1,5.77-7.64,7.68-3.93,16.3,1.93,4.48,5.37,8.31,8.03,12.49.7,1.11,1.06,2.44,1.58,3.66-1.36.41-2.77,1.26-4.07,1.13-2.29-.22-4.53-1.05-6.39-.66-1.88.98-3.67,2.47-5.67,2.85-4.06.76-8.95-1.66-11.75,3.56-.3.56-1.85.55-2.83.64-10.27,1-22.5-6.41-23.68-16.01-.09-.73-.63-1.41-1.09-2.36-12.83,13.69-19.23,29.38-17.79,48.06.15,1.89-.89,3.87-1.52,6.39Zm39.13-171.37c-2.79.76-5.22,1.25-7.52,2.1-2.49.92-4.93,2.04-7.24,3.32-28.06,15.54-47.06,39.3-61.07,67.55-.37.74-1.15,1.71-.93,2.25,1.52,3.72-1.28,5.45-3.29,7.49-17.55,17.84-30.13,38.55-35.45,63.14-2.64,12.18-4.19,24.6-6.37,37.7,2.14-.64,3.17-.74,3.97-1.23,19.81-11.86,42.05-15.05,64.35-17.71,9.42-1.12,9.19-.65,9.94-10.2,1.28-16.47,9.3-29.76,20.38-41.53,2.02-2.15,3.44-4.86,5.11-7.26-5.74-2.83-10.67-5.24-15.58-7.68-11.27-5.62-17.3-17.27-13.89-29.27,5.04-17.73,18.1-28.92,34.52-34.89,8.27-3,15.21-7.05,21.88-12-1.27-3.74-2.34-7.41-3.76-10.94-1.43-3.54-3.21-6.94-5.04-10.85Zm-7.53,56.84l-1.06-.55c.3-1.52,1.16-3.19.8-4.54-.9-3.49-2.34-6.85-3.56-10.26-3.77,1.38-8.18,1.98-11.12,4.37-2.83,2.3-1,7.27,2.61,10.42,1.13.99,1.97,2.31,2.95,3.48-.42.37-.85.74-1.27,1.11-6.4-.79-9.3-5.22-10.35-11.76-1.11.94-1.77,1.44-2.37,2-7.15,6.75-12.82,14.36-12.08,24.81.91,12.73,13.21,19.99,26.32,21.78,2.87.39,4.82,1.08,6.74,3.27,4.33,4.93,11.66,5.53,16.05.88,1.86-1.97,2.72-5.72,2.45-8.51-.14-1.36-3.81-2.98-6.08-3.37-2.85-.49-5.9.17-8.95.34,11.73-16.83,11.9-17.22,10.76-25.32-2.16,2.06-4.32,4.12-6.48,6.17-.41-.26-.82-.52-1.22-.77.6-3.01,1.45-6.01,1.74-9.05.3-3.14.07-6.32.07-9.49-.63-.22-1.27-.44-1.9-.66-1.35,1.87-2.69,3.75-4.04,5.62Zm43.24-83.59c-12.11-1.23-30.69,10.73-33.67,21.01-.14.5-.08,1.2.17,1.65,2.54,4.58,6,8.86,7.52,13.75,2.49,8.01,7.63,11.75,15.48,12.24,5.9.37,12.06,1.78,18.27-2.33-4.37-2.58-8.1-4.77-11.82-6.97.11-.51.23-1.02.34-1.53,1.64-.33,3.29-.65,4.93-.99,3.42-.71,6.89-1.23,10.21-2.26.9-.28,1.33-2.06,1.98-3.14-.94-.56-1.93-1.66-2.82-1.58-3.24.3-6.42,1.16-9.65,1.47-1.59.15-3.25-.45-4.88-.71,1.22-1.09,2.29-2.5,3.7-3.23,4.4-2.28,8.94-4.3,13.42-6.42-.28-.89-.55-1.78-.83-2.66-2.33.39-4.78.44-6.97,1.23-3.43,1.25-6.61,3.2-10.05,4.42-1.41.5-3.22-.12-4.85-.22,1.08-1.26,1.91-2.97,3.27-3.7,3.33-1.81,7.02-2.97,10.34-4.79,1.96-1.07,3.49-2.91,5.94-5.03-10.88-2.67-16.77,5.85-26.05,8.39,4.47-8.03,13.74-10.04,16.02-18.59Zm22.34,60.67c-.58-.19-1.16-.39-1.74-.58-6.94,4.14-9.98,10.78-11.14,18.44-.29,1.91.02,4.31.99,5.92,2.49,4.13,5.19,8.23,8.42,11.78,1.79,1.97,4.82,3.98,7.27,3.94,6.98-.11,13.98-1.08,20.91-2.13,1.97-.3,3.89-1.83,5.52-3.17.84-.7.98-2.24,1.44-3.4-1.04-.39-2.14-1.21-3.1-1.08-3.25.46-6.44,1.38-9.69,1.88-1.74.27-3.56.05-5.34.05l-.3-1.84c7.22-3.22,14.44-6.44,22.75-10.15-5.64-3.3-9.3-1.81-12.89.1-2.79,1.49-5.41,3.33-8.29,4.57-1.13.49-2.78-.23-4.19-.4.73-1.3,1.15-3.09,2.25-3.83,4.28-2.85,8.93-5.15,13.13-8.1,1.76-1.23,2.74-3.56,4.66-6.2-11.5-.56-16.61,8.71-24.65,11.93-.43-.48-.85-.95-1.28-1.43,6.44-6.21,12.87-12.41,19.31-18.62l-1.11-1.29c-11.82-.35-17.84,8.84-24.62,16.78-.31-.29-.62-.58-.93-.87.87-4.11,1.75-8.21,2.62-12.32Zm-39.95,188.34c7.86.12,13.94-5.4,13.09-11.41-.78-5.49-2.22-11.35-5.09-15.98-6.95-11.21-21.24-13.27-30.93-5.46-3.11,2.51-3.74,4.84-1.48,8.36,2.33,3.62,3.94,7.69,6.04,11.47,4.4,7.91,11.19,12.22,18.37,13.03Zm-92.49-30.75c-.28.48-.57.96-.85,1.44,1.45,1.26,2.77,2.71,4.37,3.74,11.29,7.27,23.63,8.61,36.65,6.59,10.76-1.67,19.36-6.7,26.34-15.06,2.54-3.04,5.8-5.96,9.36-7.52,3.98-1.74,8.66-1.87,13.09-2.7-.94-9.73-14.75-16.92-22.76-15.99-3.57.42-7.16,4.01-9.84,6.98-.97,1.08.61,4.57,1.22,6.91.71,2.72,1.81,5.34,2.38,8.08.27,1.3.21,3.37-.6,4.08-3.1,2.74-6.21,6.05-9.95,7.39-15.38,5.54-30.73,5.88-45.51-2.38-1.21-.68-2.6-1.05-3.91-1.56Zm101.57-102.03c7.77-4.79,15.73-9.69,23.7-14.6-3.84-6.28-7.85-12.87-11.72-19.19-6.02,2.81-7.56,7.37-7.14,13,.1,1.29-.27,2.64-.59,3.92-1.42,5.75-2.89,11.49-4.26,16.87Z"/>
    <path class="cls-1" d="m774.04,460.21c2.45-2.04,4.31-4.48,6.75-5.42,3.85-1.49,8.78,2.44,8.36,6.81-.4,4.22-1.21,8.81-3.3,12.39-4.35,7.47-9.61,14.42-14.6,21.51-1.85,2.62-4.48,3.21-5.69-.19-3.61-10.14-8.94-19.92-7.62-31.26.17-1.48.15-3.27.98-4.33,1.73-2.24,3.78-5.38,6.06-5.72,2.26-.34,5.06,2.18,7.44,3.71.88.56,1.25,1.9,1.63,2.51Z"/>
    <path class="cls-1" d="m800.45,340.64c.28,2.28.6,3.48.54,4.67-.14,2.66-.59,5.3-.69,7.96-.16,3.98,1.5,6.63,5.62,7.7,4.24,1.11,8.38,2.59,12.89,4.01-7.07,3.15-14.83,4.68-19.68,9.29-4.9,4.66-6.92,12.35-10.19,18.71-.44-.04-.88-.07-1.32-.11,0-2.6-.07-5.19.02-7.79.15-4.44.61-8.88.53-13.31-.08-4.17-2.93-6.02-6.75-6.85-2.85-.62-5.64-1.53-8.46-2.31-.02-.5-.04-1.01-.06-1.51,5.65-1.5,12.25-1.68,16.69-4.87,4.46-3.2,6.76-9.4,10.86-15.59Z"/>
    <path class="cls-1" d="m319.9,354.22c.13-10.3,9.29-19.61,19.21-19.51,6.94.07,12.22,5.8,12.22,13.26,0,10.11-9.3,19.51-19.27,19.49-6.98-.01-12.25-5.75-12.16-13.24Zm8.07-.16c.07,3.81,2.56,5.76,6.31,4.93,4.66-1.02,8.62-5.56,9.32-10.68.51-3.72-1.72-6.04-5.52-5.74-4.96.39-10.21,6.36-10.11,11.49Z"/>
    <path class="cls-1" d="m511.62,529.73c18.62-.46,35.7-5.52,51.06-16.29,1.45-1.02,4.05-.39,6.12-.52-.78,1.96-1.01,4.62-2.44,5.75-11.21,8.83-24.18,13.91-38.25,15.45-8.26.9-16.69.33-25.04.06-1.54-.05-3.02-1.84-4.53-2.82,1.67-.66,3.31-1.73,5.02-1.89,2.65-.24,5.36.15,8.04.27Z"/>
    <path class="cls-1" d="m627.74,267c-3.26-4.35-5.7-10.07-10.02-12.67-4.17-2.51-10.28-1.81-16.09-2.59,10.32-6.18,12.57-15.78,9.06-27.34.71-.15,1.42-.31,2.13-.46,1.38,2.79,2.88,5.52,4.12,8.37,2.65,6.09,6.61,8.12,13.06,6.75,1.85-.39,3.81-.23,5.79-.33-3.16,4.55-7.4,8.34-8.47,12.88-1.09,4.63.93,9.99,1.59,15.03-.39.12-.79.25-1.18.37Z"/>
    <path class="cls-1" d="m471.08,401.38c.86-1.89,1.55-3.9,2.64-5.65,1.15-1.84,2.67-3.44,4.05-5.14,2.32-2.84,2.16-5.15-.77-7.73-6.69-5.89-7.3-8.8-3.08-16.52,2.31-4.23,5.3-8.14,8.37-11.87.9-1.09,3.13-1.09,4.76-1.59-.23,1.63-.02,3.5-.76,4.86-2.4,4.41-5.2,8.59-7.72,12.93-1.59,2.73-1.08,5.05,1.63,6.93,8.6,5.94,6.11,13.61.05,18.9-2.42,2.11-4.9,4.16-7.36,6.23-.6-.45-1.2-.9-1.8-1.35Z"/>
    <path class="cls-1" d="m509.79,520.04c-1.8-1.12-3.21-2-4.63-2.88,1.16-1.22,2.1-2.91,3.51-3.56,2.88-1.31,6.29-1.57,8.97-3.13,3.95-2.3,7.42-5.43,11.19-8.08,1.73-1.22,3.69-2.11,5.55-3.15.17,2.27,1.31,5.2.31,6.69-2.25,3.36-5.08,6.93-8.55,8.73-4.94,2.56-10.66,3.6-16.34,5.37Z"/>
    <path class="cls-1" d="m724.57,696.89c1.21-20.31,11.31-43.51,29.21-52.46,11.84,10.34,26.72,12.85,41.21,15.43-2.87,6.67-6.44,13.48-8.72,20.69-2.15,6.83-2.87,14.1-4.35,21.15-.41,1.94-1.28,3.78-1.94,5.66-7.81-5.48-16.12-9.7-25.87-10.3-4.01-3.31-3.02-7.63-1.22-11.16,3.84-7.5,8.44-14.61,12.66-21.92.71-1.22,1.06-2.65,1.04-4.34-5.58,1.58-9.82,4.89-12.37,9.52-3.11,5.64-5.96,11.66-7.52,17.86-1.31,5.24-2.91,9.72-7.37,12.88-4.93-1-9.86-2.01-14.78-3.01Z"/>
    <path class="cls-2" d="m689.19,536.95c5.49-3.57,10.24-6.93,15.3-9.74,1.23-.68,4.09-.2,5.13.83,4.05,4,7.66,8.44,12.12,13.49.3-2.39.59-4.76,1.04-8.44,2.08,5.2,3.77,9.41,5.63,14.05h-7.83c2.8,1.88,4.25,2.86,5.37,3.61-1.85,3.6-3.54,6.99-5.32,10.34-3.52,6.62-10.93,10.15-18.02,8.63-14.99-3.21-21.64-13.89-18.21-28.96.4-1.75-.04-3.72-.24-5.57-.08-.79-.96-1.68-.77-2.29.78-2.46,1.78-4.86,2.9-7.18.09-.19,2.35.15,2.49.59.66,2.1,1.13,4.32,1.26,6.51.09,1.36-.54,2.76-.84,4.13Zm9.64,13.65c-2.03,2.89-.18,6.18,2.4,9.05,2.64,2.94,5.9,5.07,10.14,3.76.38-.12.67-2.82.13-3.26-4.02-3.28-8.26-6.28-12.67-9.55Zm7.89-16.72c-2.24,7.35-1.34,9.56,3.99,11.78,2.56,1.07,5.23,2.19,7.47-2.25-6.74.14-9.96-3.63-11.46-9.52Z"/>
    <path class="cls-2" d="m313.75,589.77c2.19.51,4.37,1.01,6.56,1.52,1.41.51,2.85,1.55,4.21,1.45,5.98-.46,11.97-1.05,17.88-2.03,1.84-.31,3.65-1.78,5.14-3.09,3.36-2.97,6.34-6.4,9.83-9.2,2.74-2.2,5.08-1.28,5.75,2.34,1.15,6.19,2.16,12.41,3.35,19.35,9.95,6.48,15.57,16.74,16.72,29.35.32,3.52-.22,7.71-1.93,10.7-5.31,9.23-11.29,18.07-17.22,26.92-1.03,1.53-3.05,2.39-5.31,4.09v-7.4c-.55-.16-1.09-.32-1.64-.49-.8,2.23-1.61,4.47-2.99,8.33-.68-2.27-1.31-3.45-1.31-4.63,0-1.76.46-3.52.73-5.28-.55-.22-1.09-.44-1.64-.66-1.12,2.37-2.25,4.74-3.34,7.04-3.07-3.73-1.15-11.2,3.79-14.75,3.53-2.54,7.11-5.06,10.32-7.96,10.01-9.04,9.24-20.44,6.19-31.96-1.08-4.08-3.99-7.66-5.25-11.72-1.25-4.05-1.43-8.42-2.16-12.63-.42-2.42-.99-4.82-1.87-8.99-4.12,4.29-7.66,7.43-10.49,11.11-2.19,2.84-4.46,3.89-8,3.73-7.67-.36-15.42-.65-22.3,3.64-1.68-2.96-3.34-5.87-5-8.78Z"/>
    <path class="cls-4" d="m346.11,678.57c-.35,5.06-.5,9.23-.96,13.37-.53,4.79-4.07,7.11-8.22,7.47-6.16.54-12.46.69-18.59.02-8.47-.92-10.2-3.09-11.63-11.66-.36-2.13-.66-4.28-1.19-7.79,6.14,6.91,13.01,9.5,20.86,10.15,8.85.73,14.34-4.2,19.73-11.56Z"/>
    <path class="cls-4" d="m310.25,678.1c-4.28-4.61-1.51-8.15.84-11.05,7.92-9.76,24.31-8.61,30.96,2,.78,1.24.9,2.9,1.38,4.57-5.31-1.44-9.9-3.26-14.64-3.79-3.4-.38-6.99,1.47-10.48,1.42-4.6-.06-6.57,2.45-8.05,6.84Z"/>
    <path class="cls-1" d="m323.79,677.27c1.42-1.8,2.78-4.41,3.48-4.24,1.95.46,3.64,2.08,6.62,4.02.79.07,3.44-5.51,5.33.08.3.89.22,2.3-.31,3.01-4.4,5.93-20.85,6.57-25.19.9-.6-.78-.32-3.25.43-3.85,1.51-1.2,3.6-2.17,5.49-2.24,1.37-.05,2.79,1.5,4.15,2.32Z"/>
    <path class="cls-2" d="m320.49,655.75c-4.94,2.83-10.39,5.96-16.1,9.24-4.94-3.23-5.11-10.46.11-18.54,5.57,3.24,11.14,6.49,15.99,9.31Z"/>
    <path class="cls-4" d="m736.36,649.85c-1.49-3.58-2.95-7.08-4.03-9.69,7.67-3.54,14.11-6.51,21.01-9.69,2.7,2.78,1.95,6.69-2.52,9.37-4.53,2.72-8.72,6-14.46,10.01Z"/>
    <path class="cls-4" d="m679.85,553.86c-1.46,1.18-2.92,2.36-4.38,3.53-.4-.41-.79-.83-1.19-1.24,1.35-1.29,2.7-2.57,4.04-3.86.51.52,1.02,1.05,1.53,1.57Z"/>
    <path class="cls-4" d="m675.09,557.1c-1.58,1.35-3.16,2.7-4.74,4.05-.35-.41-.69-.81-1.04-1.22,1.58-1.35,3.16-2.7,4.74-4.04.35.4.69.81,1.04,1.21Z"/>
    <path class="cls-5" d="m405.17,464.89c-.22-.88-.36-1.45-.51-2.02.39.29.81.56,1.15.9.05.05-.26.47-.64,1.12Z"/>
    <path class="cls-4" d="m742.78,555.5c-.22-.19-.43-.38-.65-.57.23-.03.45-.06.68-.09-.06.25-.12.5-.18.75,0,0,.15-.1.15-.1Z"/>
    <path class="cls-2" d="m675.95,316.67c1.35-1.87,2.69-3.75,4.04-5.62.63.22,1.27.44,1.9.66,0,3.17.24,6.35-.07,9.49-.29,3.04-1.14,6.04-1.74,9.05.41.26.82.52,1.22.77,2.16-2.06,4.32-4.12,6.48-6.17,1.14,8.09.98,8.49-10.76,25.32,3.05-.17,6.1-.83,8.95-.34,2.27.39,5.94,2.01,6.08,3.37.28,2.78-.59,6.53-2.45,8.51-4.38,4.66-11.71,4.05-16.05-.88-1.93-2.19-3.88-2.88-6.74-3.27-13.12-1.79-25.41-9.06-26.32-21.78-.75-10.45,4.93-18.06,12.08-24.81.6-.56,1.25-1.07,2.37-2,1.05,6.53,3.95,10.97,10.35,11.76.42-.37.85-.74,1.27-1.11-.97-1.17-1.81-2.5-2.95-3.48-3.62-3.15-5.44-8.12-2.61-10.42,2.94-2.4,7.35-2.99,11.12-4.37,1.22,3.41,2.66,6.76,3.56,10.26.35,1.35-.5,3.02-.8,4.54l1.06.55Zm-26.13,11.85c-.14.03-1.11-.05-1.66.4-3.43,2.78-3.04,9.79.73,14.46,4.09,5.07,10.39,7.03,13.95,4.21.64-.51.82-1.59,1.21-2.4-.97-.28-2.02-.95-2.9-.77-4.46.89-8.43-.09-9.99-4.45-1.2-3.34-.9-7.22-1.33-11.45Zm24.19-.86c-4.54-.33-6.51,1.34-7.19,4.75-.86,4.36,1.55,8.98,5.75,10.41,1.1.38,2.58-.39,3.89-.63.08-.46.15-.92.23-1.38-6.7-3.02-7.88-7.33-2.68-13.16Zm12.73,27.97c.3-.41.59-.81.89-1.22-1.12-.66-2.56-2.13-3.28-1.83-2.44,1.01-4.94,2.36-6.69,4.25-.42.45,1.92,3.48,2.99,5.32.69-.1,1.39-.2,2.08-.3.43-2.31.85-4.61,1.3-7.05.59.18,1.65.5,2.71.82Zm-24.53-29.85c-.16-.49-.31-.98-.47-1.48-2.1.38-4.2.76-7.56,1.36,2.37,2.55,3.62,3.9,4.83,5.2,1.33-2.11,2.26-3.6,3.2-5.09Z"/>
    <path class="cls-2" d="m719.19,233.08c-2.28,8.55-11.55,10.57-16.02,18.59,9.27-2.54,15.16-11.06,26.05-8.39-2.44,2.12-3.98,3.96-5.94,5.03-3.32,1.82-7.01,2.98-10.34,4.79-1.36.74-2.2,2.44-3.27,3.7,1.63.11,3.44.73,4.85.22,3.44-1.22,6.61-3.18,10.05-4.42,2.18-.79,4.64-.85,6.97-1.23.28.89.55,1.78.83,2.66-4.48,2.12-9.02,4.15-13.42,6.42-1.41.73-2.48,2.13-3.7,3.23,1.63.26,3.29.86,4.88.71,3.24-.31,6.42-1.17,9.65-1.47.88-.08,1.87,1.02,2.82,1.58-.65,1.09-1.08,2.87-1.98,3.14-3.32,1.02-6.79,1.55-10.21,2.26-1.64.34-3.29.66-4.93.99-.11.51-.23,1.02-.34,1.53,3.72,2.2,7.45,4.39,11.82,6.97-6.21,4.12-12.36,2.71-18.27,2.33-7.85-.5-12.99-4.23-15.48-12.24-1.52-4.89-4.98-9.17-7.52-13.75-.25-.45-.31-1.15-.17-1.65,2.98-10.28,21.56-22.25,33.67-21.01Z"/>
    <path class="cls-2" d="m741.52,293.75c-.87,4.11-1.75,8.21-2.62,12.32.31.29.62.58.93.87,6.78-7.95,12.8-17.13,24.62-16.78l1.11,1.29c-6.44,6.21-12.87,12.41-19.31,18.62.43.48.85.95,1.28,1.43,8.04-3.22,13.16-12.49,24.65-11.93-1.92,2.64-2.91,4.97-4.66,6.2-4.2,2.95-8.85,5.25-13.13,8.1-1.11.74-1.52,2.52-2.25,3.83,1.41.17,3.06.89,4.19.4,2.89-1.24,5.51-3.08,8.29-4.57,3.58-1.91,7.25-3.39,12.89-.1-8.31,3.71-15.53,6.93-22.75,10.15l.3,1.84c1.78,0,3.6.22,5.34-.05,3.25-.5,6.44-1.42,9.69-1.88.96-.14,2.06.69,3.1,1.08-.46,1.16-.6,2.7-1.44,3.4-1.62,1.35-3.54,2.88-5.52,3.17-6.93,1.05-13.92,2.01-20.91,2.13-2.44.04-5.48-1.98-7.27-3.94-3.23-3.55-5.94-7.65-8.42-11.78-.97-1.61-1.28-4.02-.99-5.92,1.16-7.65,4.2-14.29,11.14-18.44.58.19,1.16.39,1.74.58Z"/>
    <path class="cls-2" d="m701.57,482.09c-7.18-.81-13.98-5.12-18.37-13.03-2.1-3.78-3.72-7.85-6.04-11.47-2.26-3.52-1.63-5.86,1.48-8.36,9.69-7.8,23.98-5.74,30.93,5.46,2.87,4.63,4.31,10.49,5.09,15.98.85,6.02-5.23,11.54-13.09,11.41Z"/>
    <path class="cls-4" d="m609.08,451.34c1.31.51,2.69.88,3.91,1.56,14.79,8.27,30.13,7.92,45.51,2.38,3.74-1.35,6.85-4.65,9.95-7.39.8-.71.87-2.77.6-4.08-.57-2.74-1.67-5.36-2.38-8.08-.61-2.34-2.19-5.83-1.22-6.91,2.67-2.97,6.27-6.57,9.84-6.98,8-.93,21.82,6.26,22.76,15.99-4.43.84-9.12.97-13.09,2.7-3.56,1.55-6.82,4.48-9.36,7.52-6.98,8.36-15.58,13.39-26.34,15.06-13.02,2.02-25.36.68-36.65-6.59-1.6-1.03-2.92-2.48-4.37-3.74.28-.48.57-.96.85-1.44Z"/>
    <path class="cls-4" d="m710.64,349.31c1.36-5.39,2.84-11.12,4.26-16.87.32-1.28.69-2.64.59-3.92-.43-5.63,1.12-10.19,7.14-13,3.86,6.33,7.88,12.91,11.72,19.19-7.97,4.91-15.93,9.82-23.7,14.6Z"/>
    <path class="cls-5" d="m439.54,464.93c6.9-.83,13.73-1.94,17.35-8.91,1.19-2.28,1.53-4.99,2.42-7.44.44-1.22,1.23-2.3,1.87-3.45.8,1.1,2.02,2.1,2.31,3.32,1.48,6.14-3.5,15.77-9.78,18.11-3.67,1.37-7.74,1.81-11.67,2.2-1.1.11-2.37-1.48-3.57-2.29.36-.51.72-1.03,1.07-1.54Z"/>
    <path class="cls-5" d="m430.02,448.54c6.71.29,11.37-2.08,11.23-9.78,0-.45,1.1-1.28,1.7-1.29.66-.01,1.59.56,1.96,1.15,1.46,2.3-.61,9.4-3.22,11.46-2.98,2.35-9.02,2.35-11.54-.04-.18-.17-.07-.63-.13-1.51Z"/>
    <path class="cls-5" d="m788,563.42c1.76.39,2.69.46,3.51.8,4.76,2.01,9.02,1.65,12.86-2.14.77-.75,2.21-.82,3.34-1.2-.08,1.19.17,2.54-.3,3.56-1.9,4.09-5.53,5.88-9.76,5.65-3.87-.21-8.04-.77-9.65-6.66Z"/>
    <path class="cls-5" d="m804.82,551.2c-2.35,1.24-4.83,3.66-7.03,3.43-2.71-.28-5.34-2.58-7.68-4.42-.59-.47.07-2.52.71-4.01,2.92,8.09,8.36,5,13.48,3.08.17.64.35,1.28.52,1.92Z"/>
    <path class="cls-5" d="m698.82,550.59c4.41,3.27,8.65,6.28,12.67,9.55.54.44.25,3.14-.13,3.26-4.24,1.3-7.5-.82-10.14-3.76-2.58-2.88-4.44-6.16-2.4-9.05Z"/>
    <path class="cls-5" d="m706.71,533.87c1.5,5.9,4.72,9.66,11.46,9.52-2.24,4.45-4.9,3.32-7.47,2.25-5.33-2.22-6.24-4.43-3.99-11.78Z"/>
    <path class="cls-5" d="m649.82,328.52c.43,4.23.13,8.11,1.33,11.45,1.57,4.36,5.53,5.34,9.99,4.45.88-.18,1.93.49,2.9.77-.39.81-.57,1.9-1.21,2.4-3.56,2.82-9.86.86-13.95-4.21-3.76-4.67-4.16-11.68-.73-14.46.55-.44,1.51-.37,1.66-.4Z"/>
    <path class="cls-5" d="m674.01,327.65c-5.2,5.83-4.02,10.14,2.68,13.16-.08.46-.15.92-.23,1.38-1.31.24-2.79,1-3.89.63-4.2-1.44-6.61-6.06-5.75-10.41.67-3.42,2.65-5.09,7.19-4.75Z"/>
    <path class="cls-5" d="m686.74,355.62c-1.06-.32-2.12-.64-2.71-.82-.45,2.44-.88,4.74-1.3,7.05-.69.1-1.39.2-2.08.3-1.07-1.84-3.41-4.87-2.99-5.32,1.76-1.89,4.25-3.24,6.69-4.25.72-.3,2.17,1.17,3.28,1.83-.3.41-.59.81-.89,1.22Z"/>
    <path class="cls-5" d="m662.21,325.77c-.93,1.49-1.87,2.97-3.2,5.09-1.21-1.31-2.47-2.65-4.83-5.2,3.36-.6,5.46-.98,7.56-1.36.16.49.31.98.47,1.48Z"/>
  </g>
  <path class="cls-3" d="m317.54,630.47c-.7,1.16-2.19,1.55-3.31.87-1.12-.68-1.46-2.17-.76-3.34.7-1.16,2.19-1.55,3.31-.87,1.12.68,1.46,2.17.76,3.34Z"/>
  <path class="cls-3" d="m345.94,628.4c-.7,1.16-2.19,1.55-3.31.87-1.12-.68-1.46-2.17-.76-3.34s2.19-1.55,3.31-.87c1.12.68,1.46,2.17.76,3.34Z"/>
  <path class="cls-4" d="m683.47,259.83c-2.79.76-5.22,1.25-7.52,2.1-2.49.92-4.93,2.04-7.24,3.32-28.06,15.54-47.06,39.3-61.07,67.55-.37.74-1.15,1.71-.93,2.25,1.52,3.72-1.28,5.45-3.29,7.49-17.55,17.84-30.13,38.55-35.45,63.14-2.64,12.18-4.19,24.6-6.37,37.7,2.14-.64,3.17-.74,3.97-1.23,19.81-11.86,42.05-15.05,64.35-17.71,9.42-1.12,9.19-.65,9.94-10.2,1.28-16.47,9.3-29.76,20.38-41.53,2.02-2.15,3.44-4.86,5.11-7.26-5.74-2.83-10.67-5.24-15.58-7.68-11.27-5.62-17.3-17.27-13.89-29.27,5.04-17.73,18.1-28.92,34.52-34.89,8.27-3,15.21-7.05,21.88-12-1.27-3.74-2.34-7.41-3.76-10.94-1.43-3.54-3.21-6.94-5.04-10.85Z"/>
  <path class="cls-4" d="m706.7,649.41c-8.24,0-15.12.21-21.97-.1-2.69-.12-3.93.76-4.93,3-2.32,5.19-5.4,10.12-7.04,15.5-2.35,7.74-6.99,15.25-3.97,24,.19.56-1.63,2.18-2.79,2.76-3.21,1.61-6.71,2.66-9.81,4.42-3.86,2.19-6.39,5.57-5.69,10.3.77,5.21,5.13,9.43,10.27,10.5,13.88,2.86,32.92-7.02,34.8-26.54,1.41-14.62,1.17-29.92,11.13-43.83Z"/>
  <path class="cls-4" d="m640.03,692.74c-.02.57-.03,1.14-.05,1.71-1.88.43-3.73,1.13-5.63,1.25-7.07.43-13.6,2.09-18.61,7.51-5.21,5.64-4.14,12.33,2.76,15.76,7.16,3.56,14.3,2.5,21.26-.9,3.34-1.63,5.91-3.31,4.25-7.95-.7-1.95.19-4.59.7-6.84,1.51-6.57,6.71-9.96,12.12-12.66,3.32-1.66,4.14-4.12,5.06-7.23,2.6-8.78,5.41-17.5,8.45-26.13,1.06-3,3.02-5.69,4.35-8.11-5.64-1.75-10.88-3.38-16.98-5.27-14.63,11.21-18.39,29.05-23.89,45.74,2.27,1.15,4.23,2.14,6.19,3.13Z"/>
</svg>