<?xml version="1.0" encoding="UTF-8"?>
<svg id="_圖層_1" data-name="圖層 1" xmlns="http://www.w3.org/2000/svg" viewBox="0 0 1200 1200">
  <defs>
    <style>
      .cls-1 {
        fill: #fa026e;
      }

      .cls-2 {
        fill: #060606;
      }

      .cls-3 {
        fill: #050505;
      }

      .cls-4 {
        fill: #f0f0f0;
      }

      .cls-5 {
        fill: #fdfdfd;
      }
    </style>
  </defs>
  <g>
    <path class="cls-5" d="m631.06,320.68c4.2,3.34,8.36,6.73,12.62,9.99,1.47,1.12,3.2,1.91,4.8,2.85.08-2.13.66-4.38.17-6.37-2.81-11.23-9.84-20.12-16.55-29.19-16.11-21.79-36.07-39.24-60.81-50.16-30.2-13.33-60.68-11.72-90.61,1.98-2.08.95-4.37,1.75-6.63,1.98-12.21,1.23-23.03,5.77-31.35,14.73-22.11,23.82-28.47,52.31-23.51,83.8,1.59,10.11,4.33,20.08,5.26,30.24,1.21,13.2,1.5,26.29-6.4,38.48-4.36,6.73-10.42,10.14-16.71,13.88-56.78,33.74-101.07,79.14-128.97,139.47-20.32,43.92-28.53,89.96-19.36,137.9,12.29,64.28,49.13,110.53,107.38,139.41,50.9,25.24,104.85,29.35,160.32,20.32,4.45-.72,8.05-1.87,9.06-5.56,29.03-.89,55.26-10.54,80.94-18.95,4.14,8.25,8.16,16.16,12.06,24.14.78,1.59,2.02,3.94,1.42,5.04-2.51,4.58-.12,8.04,1.79,11.74,31.3,60.76,99.82,90.5,167.93,73.59,96.67-24.01,168.92-128.97,145.5-238.59-3.59-16.82-10.95-32.01-22.7-44.9-1.37-1.51-1.96-4.01-2.27-6.14-.5-3.49-.3-7.08-.7-10.59-2.61-22.61-11.43-41.64-30.87-54.94-8.97-6.14-18.51-10.53-30.01-12.44,1.47-1.17,2.19-1.78,2.95-2.34,9.21-6.84,14.26-16.11,12.99-27.42-.68-6.07.76-10.48,3.44-15.6,8.54-16.29,10.37-33.88,8.53-52-.77-7.57-3.67-14.26-8.04-20.32-.99-1.38-3.03-2-4.58-2.98.1,1.78-.16,3.69.39,5.32.85,2.52,2.65,4.74,3.35,7.27,6.19,22.51,3.39,43.78-8.99,63.73-9.4-6.11-18.78-5.9-28.1-.3-4.45,2.67-8.79,5.6-9.42,11.58,1.75-.42,2.93-1.51,4.29-2.26,4.53-2.49,8.88-5.65,13.73-7.11,10.95-3.28,19.29,3.79,18.51,15.16-.72,10.58-5.94,18.15-16.05,21.71-4.88,1.72-10.09,2.45-15.06,3.95-1.52.46-3.98,2.69-3.86,2.9,1.73,3.09-1.11,3.68-2.5,4.97-1.98,1.83-4.27,3.36-6.05,5.36-8.79,9.84-14.47,20.84-13.42,34.65.16,2.13-2.11,5.65-4.13,6.54-15.74,6.92-31.7,8.58-47.65.35-2.39-1.23-3.84-2.43-3.35-5.73,1.08-7.32-2.03-13.48-6.74-18.89-1.51-1.74-3.17-3.36-4.18-4.43,1.08-1.97,1.89-3.43,2.69-4.89-1.65-.48-3.3-1.35-4.96-1.36-2.67-.02-5.34.8-8.01.79-13.88-.07-25.64-6.08-36.76-13.6-27.29-18.45-25.26-50.84-11.51-73.05,2.18,1.23,4.25,2.9,6.6,3.55,1.72.48,3.8-.37,5.72-.63-.87-1.61-1.34-3.87-2.69-4.72-5.49-3.44-11.24-6.44-17.27-9.82,9.43-8.39,20.26-14.85,32.45-19.02,1.1-.38,2.41-.11,3.62-.14-.02,1.23.24,2.55-.1,3.68-6.4,21.35,11.52,40.23,33.58,35.46,9.68-2.09,16.59-7.66,21.11-16.26,20.33,6.62,38.15,17.16,55.8,28.11-2.4,4.35-4.53,8.2-6.66,12.05.55.39,1.11.78,1.66,1.17,1.5-1.15,3.25-2.09,4.46-3.49,10.23-11.78,13.01-26.18,14.03-41.12.09-1.34-1.26-2.77-1.94-4.16-.37.14-.73.28-1.1.43-2.4,10.07-4.8,20.14-7.27,30.55-19.04-11.06-36.98-21.87-57.22-27.71,1.28-15.58-3.46-25.26-15-31-12.3-6.12-24.46-3.49-37.51,8.07-1.77-.91-3.51-1.8-5.14-2.64-.35-9.49-1.22-11.67-8.54-20.61,6.62-8.12,13.08-16.69,20.23-24.64,6.22-6.92,13.79-12.28,22.66-15.61,1.17-.44,1.97-1.83,2.95-2.79-1.38-.48-2.82-1.49-4.11-1.32-2.45.32-5.23.73-7.13,2.12-7.82,5.73-15.98,11.22-22.83,18-6.48,6.41-11.47,14.32-17.15,21.62-13.59-3.39-25.03.34-30.79,11.28-2.46,4.67-3.77,10.45-3.85,15.75-.1,6.96,3.98,12.56,9.7,16.84-1.31,1.39-2.36,2.48-3.37,3.6-3.95,4.33-3.4,6.32,2.18,8.07,2.69.85,5.36,1.79,8.33,2.79-1.11,1.87-1.97,3.27-2.78,4.71-.75,1.34-1.44,2.71-2.33,4.41-29.92-36.33-63.7-66.58-106.95-84.85q4.27-6.27,8.23-5.74c8.41,1.13,11.33-1.22,11.87-9.86.39-6.29,1.86-12.08,4.95-17.73,6.54-11.97,12.41-24.27,14.75-37.91.35-2.05.77-4.08,1.16-6.12.34-.02.68-.04,1.01-.05,1.99,6.01,3.98,12.02,5.97,18.02.43.02.86.03,1.29.05,4.51-11.32,4.41-23.43,4.18-36.79,7.55,8.71,14.08,16.23,20.62,23.76,2.8-18.51-3.02-35.43-6.63-53.07Zm84.73,99.16c.69.84,1.37,1.67,2.06,2.51,1.69-.64,3.5-1.07,5.06-1.94,18.31-10.35,37.76-14.21,58.62-10.75,16.28,2.71,30.37,10.16,43.72,19.44,1.44,1,3.77.72,5.69,1.04-.63-1.97-.66-4.78-2.01-5.77-5.81-4.22-11.74-8.43-18.11-11.69-30.51-15.6-60.43-14.94-89.45,4.08-1.77,1.16-3.71,2.06-5.57,3.08Zm51.61,20.47c.17.57.34,1.14.51,1.71,1.9.25,3.82.85,5.68.69,14.76-1.27,28.67,1.87,42.11,7.72,1.38.6,2.69,1.53,4.12,1.76,1.14.19,2.41-.45,3.62-.72-.32-1.05-.31-2.47-1.01-3.1-2.47-2.22-4.92-4.76-7.86-6.11-13-5.97-26.67-7.72-40.76-5.11-2.25.42-4.28,2.07-6.4,3.16Zm-39.16,124.78c3.27-1.09,7.46-2.24,11.4-3.97,1.02-.45,1.23-2.72,1.81-4.16-1.46-.42-3.17-1.55-4.34-1.14-16.48,5.72-30.05-.5-43.03-9.9-2.02-1.47-2.42-6.15-6.17-3.78-.43.27,1.42,5.66,3.26,7.77,9.47,10.86,22.83,12.61,37.08,15.18Zm37.97-29.9c-.98.03-1.95.06-2.93.09,5.77,19.12,4.64,37.92-1.35,56.65,7.29-3.69,9.23-10.22,9.96-16.9,1.51-13.78,3.27-27.77-5.68-39.85Zm103.54-95.6c-.49-.28-.99-.56-1.48-.84-.79.43-1.77.68-2.32,1.31-3.58,4.11-7.27,8.15-10.47,12.54-1.38,1.9-.96,4.23,2.13,4.9,8.09,1.76,14.63,6.27,20.77,11.6.97.84,2.95.51,4.47.71-.26-1.51.02-3.55-.87-4.44-4.98-5.04-10.24-9.8-15.55-14.8.87-2.88,2.1-6.94,3.33-11Zm-17.59,40.41c-.5,1.17-.93,1.67-.84,2.04,3.81,15.01,1.23,29.13-5.7,42.73-.72,1.42-.33,3.41-.45,5.14.63.11,1.26.23,1.89.34,10.29-9.36,11.8-22.11,11.74-35.01-.03-5.3-1.12-11.29-6.64-15.24Zm-102.01-46.03c.36.42.71.84,1.07,1.26,1.3-.51,2.67-.91,3.9-1.56,10.01-5.28,20.43-8.22,31.87-6.03,2.46.47,5.02.69,7.52.63,1.3-.03,2.58-.93,3.87-1.44-.88-1.26-1.58-2.71-2.68-3.72-.8-.73-2.12-.99-3.25-1.25-14.85-3.31-28.17.25-40.23,9.14-.92.68-1.39,1.97-2.06,2.97Zm86.16-27c.18,1.68.15,3.41.58,5.02,1.49,5.6,3.55,11.08,4.58,16.76.84,4.58.34,9.39.79,14.07.15,1.52,1.45,2.92,2.23,4.38,1.11-1.45,3.06-2.83,3.18-4.35.39-5.18.6-10.46.02-15.6-.9-7.93-3.83-15.11-11.38-20.27Zm13.27,152.16c-.26-.54-.53-1.08-.79-1.62-5.72-.37-9.73,3.29-13.37,7.24-3.32,3.6-5.44,7.9-2.88,12.84,2.26,4.35,8.61,4.84,11.4.88,1.05-1.49,2.16-4.29,1.47-5.35-1.33-2.05-3.92-3.29-6.49-5.26,3.34-2.73,7-5.73,10.66-8.72Zm-6.23-67.23c-.1-6.81-.9-13.23-6.22-18.1-.84-.77-2.36-.81-3.57-1.19-.13,1.21-.79,2.69-.32,3.57,3.55,6.71,4.31,13.64,2.45,20.96-.37,1.45-.64,3.11-.27,4.49.37,1.42,1.57,2.63,2.41,3.93,1.23-.93,3.22-1.65,3.56-2.85,1-3.51,1.35-7.21,1.96-10.83Zm-82.61-32.46c-.26-5.9-5.97-10.51-14.45-13.22-9.87-3.16-15.84-2.96-19.2,1.27,13.21-2.07,22.92,5.18,33.65,11.95Zm2.11,16.19c-.08.48-.17.97-.25,1.45,8.51,1.09,14.4,5.98,19.46,12.18.53.65,2,.54,3.03.79.14-1.17.74-2.52.35-3.48-2.62-6.44-11.49-12.24-18.42-12.08-1.4.03-2.78.74-4.17,1.13Zm-39.37-20.3c1.81,1.03,2.55,1.63,3.4,1.9,5.86,1.91,11.71,3.87,17.63,5.55,1.43.4,3.15-.21,4.74-.35-.76-1.34-1.23-3.51-2.32-3.88-5.79-2-11.69-3.72-17.65-5.11-1.42-.33-3.23,1-5.8,1.9Zm130.92-26.65c-1.55,7.21-3.03,14.14-4.73,22.07,8.55-4.75,10.73-16.96,4.73-22.07Z"/>
    <path class="cls-2" d="m631.06,320.68c3.61,17.64,9.42,34.56,6.63,53.07-6.53-7.53-13.06-15.06-20.62-23.76.23,13.36.33,25.47-4.18,36.79-.43-.02-.86-.03-1.29-.05-1.99-6.01-3.98-12.01-5.97-18.02-.34.02-.68.04-1.01.05-.39,2.04-.81,4.07-1.16,6.12-2.33,13.64-8.21,25.95-14.75,37.91-3.08,5.64-4.56,11.44-4.95,17.73-.54,8.64-3.46,10.99-11.87,9.86q-3.96-.53-8.23,5.74c43.25,18.27,77.02,48.53,106.95,84.85.9-1.7,1.58-3.07,2.33-4.41.81-1.44,1.67-2.84,2.78-4.71-2.97-1-5.63-1.95-8.33-2.79-5.58-1.75-6.14-3.74-2.18-8.07,1.02-1.11,2.06-2.2,3.37-3.6-5.72-4.28-9.81-9.88-9.7-16.84.08-5.3,1.39-11.08,3.85-15.75,5.76-10.94,17.19-14.67,30.79-11.28,5.68-7.3,10.67-15.21,17.15-21.62,6.85-6.78,15.01-12.27,22.83-18,1.9-1.39,4.68-1.8,7.13-2.12,1.29-.17,2.74.84,4.11,1.32-.97.95-1.78,2.35-2.95,2.79-8.87,3.33-16.43,8.69-22.66,15.61-7.15,7.95-13.61,16.51-20.23,24.64,7.31,8.94,8.19,11.12,8.54,20.61,1.63.84,3.37,1.73,5.14,2.64,13.05-11.56,25.2-14.19,37.51-8.07,11.54,5.74,16.28,15.42,15,31,20.24,5.84,38.18,16.65,57.22,27.71,2.48-10.4,4.88-20.47,7.27-30.55.37-.14.73-.28,1.1-.43.68,1.39,2.03,2.82,1.94,4.16-1.02,14.93-3.81,29.33-14.03,41.12-1.22,1.4-2.96,2.34-4.46,3.49-.55-.39-1.11-.78-1.66-1.17,2.13-3.85,4.26-7.7,6.66-12.05-17.64-10.95-35.46-21.49-55.8-28.11-4.53,8.6-11.43,14.17-21.11,16.26-22.06,4.77-39.98-14.11-33.58-35.46.34-1.14.08-2.45.1-3.68-1.21.03-2.53-.23-3.62.14-12.19,4.17-23.02,10.63-32.45,19.02,6.03,3.37,11.79,6.38,17.27,9.82,1.35.85,1.82,3.11,2.69,4.72-1.92.26-4.01,1.11-5.72.63-2.35-.65-4.42-2.32-6.6-3.55-13.74,22.21-15.78,54.6,11.51,73.05,11.12,7.52,22.88,13.52,36.76,13.6,2.67.01,5.34-.81,8.01-.79,1.66.01,3.3.88,4.96,1.36-.8,1.46-1.6,2.92-2.69,4.89,1.01,1.06,2.66,2.68,4.18,4.43,4.71,5.41,7.82,11.56,6.74,18.89-.49,3.3.97,4.5,3.35,5.73,15.95,8.23,31.91,6.56,47.65-.35,2.02-.89,4.3-4.41,4.13-6.54-1.05-13.82,4.63-24.81,13.42-34.65,1.78-1.99,4.07-3.53,6.05-5.36,1.39-1.29,4.23-1.88,2.5-4.97-.12-.22,2.35-2.44,3.86-2.9,4.97-1.5,10.18-2.24,15.06-3.95,10.11-3.56,15.33-11.12,16.05-21.71.78-11.37-7.56-18.43-18.51-15.16-4.85,1.45-9.21,4.62-13.73,7.11-1.36.75-2.54,1.84-4.29,2.26.64-5.98,4.98-8.91,9.42-11.58,9.32-5.6,18.7-5.8,28.1.3,12.38-19.95,15.18-41.23,8.99-63.73-.7-2.54-2.5-4.76-3.35-7.27-.55-1.63-.29-3.54-.39-5.32,1.56.97,3.59,1.6,4.58,2.98,4.38,6.06,7.27,12.76,8.04,20.32,1.84,18.12,0,35.71-8.53,52-2.68,5.12-4.12,9.52-3.44,15.6,1.27,11.3-3.78,20.58-12.99,27.42-.76.56-1.48,1.17-2.95,2.34,11.5,1.91,21.04,6.3,30.01,12.44,19.44,13.3,28.26,32.33,30.87,54.94.4,3.51.2,7.1.7,10.59.31,2.13.9,4.63,2.27,6.14,11.75,12.89,19.11,28.09,22.7,44.9,23.43,109.62-48.83,214.58-145.5,238.59-68.12,16.92-136.63-12.82-167.93-73.59-1.91-3.7-4.3-7.16-1.79-11.74.6-1.1-.64-3.45-1.42-5.04-3.9-7.98-7.92-15.89-12.06-24.14-25.68,8.41-51.91,18.07-80.94,18.95-1.01,3.69-4.61,4.83-9.06,5.56-55.47,9.03-109.42,4.92-160.32-20.32-58.25-28.88-95.09-75.13-107.38-139.41-9.16-47.94-.95-93.98,19.36-137.9,27.91-60.33,72.2-105.72,128.97-139.47,6.29-3.74,12.35-7.15,16.71-13.88,7.9-12.19,7.61-25.28,6.4-38.48-.93-10.15-3.67-20.13-5.26-30.24-4.96-31.49,1.4-59.98,23.51-83.8,8.32-8.97,19.14-13.5,31.35-14.73,2.26-.23,4.55-1.03,6.63-1.98,29.93-13.7,60.41-15.31,90.61-1.98,24.75,10.92,44.71,28.37,60.81,50.16,6.71,9.07,13.74,17.96,16.55,29.19.5,1.98-.08,4.24-.17,6.37-1.61-.94-3.34-1.73-4.8-2.85-4.26-3.26-8.42-6.65-12.62-9.99Zm-31.16,266.15c6.04,6.76,12.07,13.53,18.11,20.29,2.72,3.75,5.45,7.49,7.27,9.99,17.75-8.09,34.77-15.85,51.56-23.5-2.85-4.7-5.94-9.8-9.04-14.9-3.7-10.8-5.26-21.89-1.95-32.94,1.82-6.06-.06-10.22-3.96-14.25-1.74-2.16-3.49-4.32-5.23-6.48-8.42-8.78-16.84-17.57-25.26-26.35-2.79-2.44-5.58-4.88-8.38-7.32-8.85-6.73-17.71-13.47-26.56-20.2l-9.64-6.02c-7.37-3.97-14.74-7.94-22.12-11.9-3.56-1.91-6.22-1.3-9.31,1.69-10.09,9.77-21.67,16.97-36.03,18.7-1.06.13-2.53.63-2.97,1.42-2.66,4.87-5.08,9.87-7.58,14.83,3.64.17,6.14-.95,8.73-1.16,1.7-.14,3.5,1.04,5.25,1.63-1.01,1.7-1.62,4.1-3.12,4.95-2.41,1.37-5.36,1.91-8.15,2.46-33.4,6.55-73.91-15.73-86.41-47.51-.67-1.69-1.13-3.52-1.29-5.32-.07-.77.69-2.07,1.38-2.34.66-.26,2,.28,2.54.9.97,1.11,1.6,2.53,2.3,3.86,5.23,9.96,11.89,18.81,20.63,25.93,15.1,12.31,32.09,19.33,50.9,18.43,2.29-6.45,4.34-12.22,6.44-18.15-1-.28-2.46-.61-3.86-1.1-18.23-6.38-30.3-18.84-36.09-37.21-.45-1.44,1.25-3.56,1.95-5.36,1.42,1.14,3.35,2,4.16,3.48,2.35,4.24,3.86,8.96,6.39,13.08,7.68,12.5,24.72,24.46,42.95,19.81,9.62-2.45,18.17-7.21,25.44-13.86,4.82-4.4,8.82-9.69,13.3-14.48,2.14-2.29,3.43-5.46,8.02-4.39,7.06,1.64,7.91.2,6.9-7.36-.38-2.82-.56-6.38.8-8.62,9.61-15.8,16.69-32.55,20.41-50.68,1.08-5.26.87-10.21-2.98-14.56-2.67-3.01-4.87-6.43-7.45-9.53-2.7-3.25-5.6-6.34-9.15-10.33-.1,13.28.71,15.45,7.42,24.23,1.75,2.3,2.87,5.08,4.28,7.64-.6.52-1.19,1.03-1.79,1.55-9.59-11.54-22.16-18.11-36.49-21.75.19-.63.37-1.26.56-1.88,3.36-.22,6.73-.43,10.77-.69-16.15-14.94-33.86-23.37-55.97-21.03-22.32,2.37-35.01,16.27-44.22,35.97-.51-2.49-.91-4.09-1.16-5.72-1.41-8.9-8.06-15.37-16.62-16.13-6.39-.56-12.43,4.44-14.67,13.51-3.22,13-.98,25.39,8.19,35.32,4.61,5,5.45,9.55,3.39,15.38-.95,2.68-1.78,5.42-2.92,8.02-6.03,13.7-16.62,22.84-29.37,30.14-9.9,5.67-19.31,12.21-28.93,18.37-2.6,1.86-5.19,3.72-7.78,5.59-18.09,13.01-34.19,28.21-48.7,45.04-6.86,7.95-12.88,16.62-19.28,24.97-.76,1.05-1.52,2.11-2.28,3.16-10.65,14.36-18.97,30.02-25.9,46.46-1.48,3.76-2.95,7.52-4.43,11.28-7.66,19.21-12.7,39.04-14.1,59.73-.29,3.04-.58,6.08-.87,9.13-1.66,26.08,1.38,51.52,10.33,76.16l2.99,7.97c8.42,21.35,20.59,40.29,36.53,56.81,2.82,2.8,5.65,5.59,8.47,8.39,14.97,14.22,31.82,25.62,50.75,33.92,3.21,1.42,6.42,2.85,9.64,4.27,16.03,7.08,32.74,11.78,50.09,14.23,3.07.49,6.14.98,9.2,1.47,16.52.62,33.04,1.24,49.56,1.86,2.71-.24,5.42-.49,8.13-.73,11.1-1.14,22.2-2.29,33.27-3.43-.79-3.15-1.35-5.43-1.93-7.7-6.97-27.01-13.91-54.04-20.96-81.03-1.66-6.37-3.45-7.28-9.08-6.9-6.52.44-13.07.38-19.6.54-3.65-.36-7.29-.73-10.93-1.09-7.8-1.84-15.61-3.69-23.41-5.53-2.37-.94-4.74-1.88-7.1-2.82-6.66-3.49-13.33-6.98-19.99-10.47-2.4-1.75-4.8-3.5-7.2-5.25-1.75-1.55-3.46-3.14-5.25-4.63-14.2-11.78-25.25-25.88-31.95-43.21-1.38-3.57-2.98-7.05-4.48-10.57-.87-3.94-1.74-7.87-2.61-11.81-.18-10.57-.37-21.14-.55-31.72.35-3.04.71-6.09,1.06-9.13.38-1.79.78-3.58,1.15-5.38,2.52-12.27,5.15-24.5,13.38-34.56,2.32-.63,4.29-5.88,7.05-.53-5.43,8.78-10.35,17.76-11.64,28.24-.72,3.68-1.44,7.37-2.16,11.05-.5,9.84-.99,19.68-1.49,29.52.34,3.38.68,6.76,1.02,10.14,2.97,17.34,9.5,33.1,20.9,46.67,1.13,1.45,2.15,2.99,3.39,4.32,26.81,28.67,59.77,41.92,99,39.2,6.55-.45,13.09-1.39,15.86,6.61,7.95-4.79,11.96-9.41,19.16-21.71,4-4.47,8.02-8.92,12-13.41.63-.71,1.36-1.49,1.62-2.36,2.54-8.74,5-17.51,7.48-26.27,3.22-5.62,6.44-11.25,9.65-16.87,10.85-16.25,23.31-31.14,37.64-44.45,1.25-1.64,3.28-3.15,3.59-4.96.83-4.72.91-9.57,1.28-14.38.7-5.46,1.5-10.9,2.01-16.38.12-1.31-.39-3.05-1.26-4.03-4.77-5.37-9.73-10.57-14.63-15.83-1.77-1.76-3.54-3.51-5.31-5.27-.13-4.03,1.94-4.67,5.11-3.14,1.78.86,3.36,2.11,5.04,3.18,2.39,2.35,4.79,4.7,7.18,7.05Zm74.58,103.09c6.56-.48,9.23.92,11.97,6.75,1.13,2.4,2.15,5,2.5,7.6,1.53,11.62,2.8,23.28,4.15,34.93.25,2.16.48,4.33.82,7.46,2.37-3.09,3.88-5.29,5.62-7.29,4.49-5.17,10.73-6.3,15.58-2.04,2.75,2.42,5.36,5.95,6.17,9.42,1.47,6.29,1.56,12.9,2.22,19.38-.53,4.85-.91,9.73-1.6,14.55-2.16,14.95-4.54,29.87-6.56,44.84-.24,1.78.65,4.38,1.95,5.62,17.73,16.82,39.4,21.81,62.19,15.92,31.19-8.06,48.65-30.88,57.17-60.98,1.82-6.42,2.03-13.29,3.25-19.9.25-1.33,1.76-2.42,2.69-3.61.84,1.08,2.16,2.06,2.43,3.28.55,2.43.83,5.01.69,7.5-.79,13.8-4.52,26.81-11.18,38.93-25.92,47.17-79.28,58.42-121.52,26.49-13.79,5.55-28.23,10.93-42.3,17.15-14.05,6.2-27.73,13.24-41.54,19.9,28.37,60.32,91.63,91.51,155.76,77.99,44.45-9.37,80.42-32.61,107.83-68.25,39.97-51.97,53.95-109.82,35.06-173.91-2.87-9.75-8.23-18.35-15-27.03-2.37,10.03-6.27,18.08-13.77,23.98-6.97,5.48-13.11,5.52-20.25.41-1.06-.76-2.97-1.08-4.22-.71-8.74,2.6-13.3.22-16.33-8.83-8.9,3.36-13.48-1.84-16.86-8.88-10.33,5.05-22.18-3.8-20.94-15.48.49-4.64,1.7-9.2,2.65-14.17-8.59.18-11.67-6.91-15.09-11.91-7.86,2.85-15.12,6.81-22.8,7.99-17.03,2.63-33.02,0-44.75-14.53-1.01-1.26-1.48-2.95-2.78-5.62,2.83,1.13,4.25,1.69,6.7,2.67-1.16-3.65-1.55-6.77-3.04-9.24-4.4-7.26-9.86-12.61-19.38-13.37-12.13-.97-22.84-6.62-32.85-13.36-3.36-2.26-6.36-3.91-10.85-2.36-24.1,8.31-46.27,20-66.18,36.01-25.75,20.71-46.44,45.38-60.1,75.65-1.46,3.24-2.4,6.73-4.16,11.76,13.93-7.94,26.22-11.27,37.41,2.41.86-2.64,1.18-4.92,1.29-7.22.71-14.61,8.22-21.04,19.88-17.17,1.29-2.93,2.46-5.9,3.9-8.73,1.06-2.09,2.41-4.04,3.71-6,5.27-7.93,17.31-10.11,24.06-2.79.66,1.14,1.32,2.27,2.15,3.71,1.4-1.55,2.36-2.61,3.32-3.68,4.77-2.68,9.73-2.78,14.8-1.01,1.38,1.55,2.75,3.1,4.13,4.65,1.1,3.15,2.2,6.29,3.14,8.99,2.93-2.6,5.88-5.22,8.83-7.84Zm-163.04,81.52c7.35,28.46,14.63,56.69,22,85.23,4.26-.45,8.15-.6,11.93-1.29,41.47-7.61,80.54-21.72,116.34-44.13,6.85-4.29,12.73-10.45,18.16-16.55,2.12-2.39,1.76-6.99,2.53-10.59-3.35-.46-6.83-1.72-10.04-1.24-9.8,1.47-18.32,6.3-26.7,11.34-2.34,1.41-5.29,3.83-7.35.12-1.83-3.29,1.35-4.73,3.65-6.04,6.43-3.65,12.97-7.1,19.35-10.84,4.78-2.81,9.55-5.7,14-9,3.71-2.76,5.99-6.54,3.89-11.43-1.7-3.96-6.32-5.79-11.79-4.07-3.63,1.15-6.96,3.27-10.35,5.11-6.78,3.67-13.47,7.52-20.3,11.1-1.36.71-3.2.8-4.79.69-.99-.07-2.57-.91-2.71-1.64-.21-1.08.33-2.59,1.07-3.5.8-.99,2.18-1.51,3.33-2.21,10.06-6.13,20.16-12.2,30.16-18.42,1.98-1.23,4.17-2.68,5.26-4.6,1.2-2.09,2.33-5.33,1.5-7.18-.83-1.85-4.14-3.68-6.31-3.62-4.63.13-9.62.63-13.77,2.51-10.37,4.7-20.28,10.41-30.56,15.32-1.96.94-6.11,1-6.96-.18-2.19-3.05,1.09-4.42,3.38-5.87,8.82-5.57,17.71-11.07,26.33-16.93,3.71-2.52,8.06-5.81,5.83-11.06-2.22-5.22-7.53-4.27-11.98-3.52-15.23,2.57-28.67,9.57-41.34,17.96-9.76,6.46-18.99,13.72-28.45,20.63-.7-1.84-.62-3.75.35-4.92,2.24-2.71,4.92-5.07,7.42-7.57,2.69-2.7,2.68-6.02-.66-7.86-2.34-1.29-5.52-2.34-8-1.84-4.19.85-8.39,2.54-12.11,4.7-9.06,5.25-16.11,12.72-21.63,21.59-5.1,8.19-12.14,14.31-20.66,19.81Zm313.02-149.78c.48-.25.95-.5,1.43-.75,1.16,1.5,2.77,2.84,3.41,4.54,3.96,10.5,6.41,21.1,2.51,32.32-1.92,5.51-3.37,11.24-4.44,16.98-.77,4.12.98,7.82,4.92,9.66,3.94,1.85,7.24-.17,9.92-2.97,1.49-1.56,3.06-3.38,3.67-5.37,1.91-6.18,3.3-12.52,5.08-18.75.39-1.36,1.58-2.49,2.4-3.73,1.19.99,2.98,1.77,3.44,3.03.66,1.81.96,4.2.34,5.95-2.68,7.51-5.25,15.15-8.94,22.18-1.63,3.11-2.81,4.94-.17,7.71,2.59,2.72,5.68,3.78,8.38,1.02,4.15-4.24,8.24-8.73,11.36-13.74,2.23-3.58,2.69-8.23,4.2-12.31.37-1,1.89-2.36,2.67-2.24,1.01.16,2.18,1.51,2.59,2.6.44,1.18.41,2.76.02,3.98-2.63,8.32-4.9,16.81-11.96,22.92-1.1.95-1.85,3.94-1.19,4.93,1.08,1.63,3.56,3.44,5.27,3.27,2.45-.24,5.4-1.64,6.93-3.53,3.67-4.52,6.57-9.66,9.91-14.46,1.36-1.96,3.04-3.69,4.58-5.53.3,2.71,1.57,5.8.7,8.07-1.77,4.64-4.66,8.86-7.15,13.22-.62,1.08-1.5,2-2.22,2.94,5.2,3.92,9.69,2.63,13.18-1.6,3.17-3.84,6.19-8.01,8.24-12.5,3.81-8.33,3.68-17.39,3.08-26.33-1.85-27.57-14.68-48.61-40.06-59.63-24.44-10.62-33.67-7.52-46.7,9.04-8.96,11.39-9.83,26.36-2.53,37.53,1.16,1.77,4.43,4.03,5.6,3.51,2-.88,4.21-3.69,4.38-5.85.43-5.49.01-11.08-.52-16.59-.31-3.22-1.5-6.36-2.3-9.53Zm-195.57,246.49c10.68-5.33,20.45-10.61,30.55-15.15,15-6.76,30.26-12.93,45.32-19.55,1.46-.64,3.06-2.56,3.31-4.1,1.46-8.94,2.7-17.92,3.69-26.92,1.66-15.01,3.34-30.04,4.4-45.1.28-3.97-1.13-8.34-2.76-12.09-2.09-4.81-6.13-5.12-9.55-1.24-5.11,5.81-8.7,12.24-8.87,20.33-.06,2.69-1.37,5.36-2.11,8.03-.62-.05-1.25-.1-1.87-.15-.77-3.42-1.54-6.83-2.3-10.17-3.49,4.98-6.6,9.43-9.64,13.76,9.74,1.32,13.68,7.37,10.57,17.05-.86,2.66-2.11,5.54-4.03,7.46-5.81,5.8-11.39,12.24-18.25,16.49-12.7,7.85-26.23,14.38-39.47,21.34-3.52,1.85-7.27,3.28-11.56,5.19,4.34,8.56,8.49,16.74,12.59,24.82Zm107.98-383.54c-12.96-.01-23.31,9.55-23.57,21.43-.29,13.34,12.79,21.02,22.58,20.97,12.37-.07,22.87-9.95,22.95-21.56.08-11.71-9.53-20.83-21.97-20.84Zm-41.34,7.17c2.05-2.66,5.08-4.81,5.18-7.1.23-4.96-2.14-9.39-6.35-12.52-7.97-5.92-20.09-3.38-26.07,5.5-5.82,8.64-3.23,19.62,5.86,25.05,4.91-3.17,9.79-6.33,15.61-10.09-2.85-1.89-4.97-3.8-7.46-4.81-2.64-1.07-5.63-1.29-8.56-1.9,3.41-6.49,13.77-4.05,21.8,5.87Zm-21.37,253.6c9.29,1.49,13.55,7.1,13.95,16.28.73-1.35.98-2.4.9-3.43-.75-9.39-1.31-18.81-2.43-28.16-1.16-9.65-2.68-19.28-4.55-28.82-.44-2.24-2.85-5.61-4.5-5.7-1.99-.1-4.58,2.39-6.12,4.38-4.85,6.28-5.63,13.77-5.58,21.39,12.01,2.81,16.02,12.15,8.34,24.07Zm-66.07-34.75c1.44,0,1.8.09,2.09-.01,7.53-2.76,15.05-5.52,22.56-8.32.74-.28,2.04-.86,2-1.16-.55-4.17-.47-8.71-2.21-12.36-1.68-3.53-5.92-2.79-8.98-1.16-2.27,1.21-4.57,3.08-5.89,5.24-3.36,5.52-6.18,11.37-9.58,17.77Zm32.77-11.36c5.25,3.21,10.87,4.82,13.09,8.5,2.31,3.81,1.34,9.62,1.82,14.83.6-.11,2.14-.38,4.56-.8-.64-8.98-.75-17.71-2.05-26.25-.98-6.38-6.41-9.09-10.87-5.64-3.1,2.4-4.75,6.68-6.55,9.37Zm-33.2-67.57c4.64-3.47,8.43-6.31,12.44-9.31-3.33-4.29-6.39-8.23-10.21-13.15-.79,8-1.46,14.75-2.23,22.46Zm-16.59,87.93c.46.37.91.75,1.37,1.12,3.26-1.98,6.52-3.97,9.8-5.93,3.36-2.01,1.93-4.76.61-6.89-1.6-2.58-4.42-2.25-5.85,0-2.34,3.67-3.99,7.78-5.92,11.71Zm-41.96,4.14c-.1-.06-.21-.13-.31-.19-.02.22-.04.44-.05.65.11-.05.26-.06.33-.15.06-.07.03-.21.04-.32Z"/>
    <path class="cls-2" d="m715.79,419.83c1.86-1.02,3.8-1.92,5.57-3.08,29.02-19.02,58.94-19.68,89.45-4.08,6.37,3.26,12.3,7.47,18.11,11.69,1.35.98,1.37,3.8,2.01,5.77-1.92-.32-4.25-.04-5.69-1.04-13.35-9.29-27.44-16.74-43.72-19.44-20.85-3.47-40.31.39-58.62,10.75-1.56.88-3.37,1.31-5.06,1.94-.69-.84-1.37-1.67-2.06-2.51Z"/>
    <path class="cls-2" d="m767.4,440.3c2.13-1.08,4.15-2.74,6.4-3.16,14.09-2.61,27.77-.86,40.76,5.11,2.95,1.35,5.39,3.9,7.86,6.11.7.63.69,2.04,1.01,3.1-1.21.27-2.48.91-3.62.72-1.43-.23-2.74-1.16-4.12-1.76-13.43-5.85-27.35-8.99-42.11-7.72-1.86.16-3.79-.44-5.68-.69-.17-.57-.34-1.14-.51-1.71Z"/>
    <path class="cls-2" d="m728.24,565.08c-14.25-2.58-27.61-4.33-37.08-15.18-1.84-2.11-3.69-7.49-3.26-7.77,3.75-2.37,4.15,2.31,6.17,3.78,12.98,9.4,26.55,15.62,43.03,9.9,1.17-.41,2.88.73,4.34,1.14-.58,1.44-.79,3.71-1.81,4.16-3.94,1.73-8.13,2.88-11.4,3.97Z"/>
    <path class="cls-2" d="m766.2,535.19c8.94,12.08,7.18,26.07,5.68,39.85-.73,6.67-2.67,13.2-9.96,16.9,5.99-18.73,7.12-37.53,1.35-56.65.98-.03,1.95-.06,2.93-.09Z"/>
    <path class="cls-2" d="m869.74,439.59c-1.23,4.06-2.46,8.12-3.33,11,5.31,4.99,10.57,9.76,15.55,14.8.88.89.61,2.93.87,4.44-1.51-.21-3.5.13-4.47-.71-6.14-5.34-12.67-9.84-20.77-11.6-3.08-.67-3.51-3-2.13-4.9,3.19-4.4,6.89-8.43,10.47-12.54.55-.63,1.54-.89,2.32-1.31.49.28.99.56,1.48.84Z"/>
    <path class="cls-2" d="m852.15,480c5.52,3.95,6.61,9.94,6.64,15.24.06,12.9-1.45,25.66-11.74,35.01-.63-.11-1.26-.23-1.89-.34.12-1.73-.27-3.72.45-5.14,6.93-13.6,9.51-27.72,5.7-42.73-.09-.37.34-.87.84-2.04Z"/>
    <path class="cls-2" d="m750.14,433.97c.68-1,1.15-2.29,2.06-2.97,12.07-8.89,25.39-12.45,40.23-9.14,1.13.25,2.45.52,3.25,1.25,1.11,1.01,1.81,2.46,2.68,3.72-1.29.51-2.57,1.41-3.87,1.44-2.5.06-5.06-.16-7.52-.63-11.44-2.19-21.86.75-31.87,6.03-1.23.65-2.59,1.05-3.9,1.56-.36-.42-.71-.84-1.07-1.26Z"/>
    <path class="cls-2" d="m836.3,406.98c7.55,5.16,10.49,12.34,11.38,20.27.58,5.14.37,10.42-.02,15.6-.11,1.52-2.07,2.9-3.18,4.35-.77-1.46-2.08-2.86-2.23-4.38-.46-4.67.04-9.49-.79-14.07-1.04-5.67-3.1-11.16-4.58-16.76-.43-1.61-.4-3.34-.58-5.02Z"/>
    <path class="cls-2" d="m849.57,559.13c-3.66,3-7.32,5.99-10.66,8.72,2.58,1.97,5.16,3.21,6.49,5.26.69,1.06-.43,3.86-1.47,5.35-2.79,3.96-9.14,3.46-11.4-.88-2.56-4.93-.45-9.23,2.88-12.84,3.64-3.95,7.65-7.61,13.37-7.24.26.54.53,1.08.79,1.62Z"/>
    <path class="cls-2" d="m843.33,491.9c-.6,3.62-.95,7.32-1.96,10.83-.34,1.19-2.33,1.91-3.56,2.85-.84-1.3-2.04-2.51-2.41-3.93-.36-1.38-.09-3.05.27-4.49,1.86-7.32,1.1-14.25-2.45-20.96-.47-.89.19-2.37.32-3.57,1.21.38,2.72.41,3.57,1.19,5.31,4.87,6.12,11.29,6.22,18.1Z"/>
    <path class="cls-2" d="m760.73,459.44c-10.72-6.77-20.43-14.02-33.65-11.95,3.36-4.23,9.33-4.44,19.2-1.27,8.48,2.72,14.19,7.33,14.45,13.22Z"/>
    <path class="cls-2" d="m762.84,475.64c1.39-.39,2.77-1.1,4.17-1.13,6.92-.16,15.8,5.64,18.42,12.08.39.95-.21,2.31-.35,3.48-1.03-.24-2.5-.14-3.03-.79-5.06-6.2-10.95-11.09-19.46-12.18.08-.48.17-.97.25-1.45Z"/>
    <path class="cls-2" d="m723.46,455.34c2.57-.89,4.38-2.23,5.8-1.9,5.96,1.39,11.87,3.12,17.65,5.11,1.09.38,1.56,2.54,2.32,3.88-1.59.14-3.3.76-4.74.35-5.93-1.67-11.78-3.63-17.63-5.55-.85-.28-1.59-.88-3.4-1.9Z"/>
    <path class="cls-2" d="m854.39,428.69c5.99,5.11,3.81,17.32-4.73,22.07,1.7-7.93,3.19-14.86,4.73-22.07Z"/>
    <path class="cls-4" d="m658.37,684.13c-5.08-1.76-10.03-1.67-14.8,1.01,0-7.74,0-15.47,0-24.52-1.41,2.08-2.87,3.3-3.08,4.7-.99,6.57-1.63,13.19-2.4,19.79-6.75-7.32-18.8-5.14-24.06,2.79-1.3,1.96-2.65,3.91-3.71,6-1.43,2.84-2.61,5.81-3.9,8.73-11.66-3.87-19.17,2.56-19.88,17.17-.11,2.3-.43,4.58-1.29,7.22-11.18-13.68-23.48-10.35-37.41-2.41,1.76-5.04,2.69-8.52,4.16-11.76,13.66-30.27,34.35-54.94,60.1-75.65,19.91-16.02,42.08-27.7,66.18-36.01,4.48-1.55,7.49.1,10.85,2.36,10.01,6.74,20.71,12.39,32.85,13.36,9.52.76,14.99,6.11,19.38,13.37,1.49,2.46,1.88,5.59,3.04,9.24-2.45-.97-3.87-1.54-6.7-2.67,1.29,2.67,1.76,4.37,2.78,5.62,11.73,14.54,27.72,17.16,44.75,14.53,7.68-1.19,14.94-5.14,22.8-7.99,3.42,5,6.51,12.1,15.09,11.91-.95,4.97-2.16,9.53-2.65,14.17-1.25,11.68,10.6,20.53,20.94,15.48,3.38,7.04,7.96,12.24,16.86,8.88,3.03,9.05,7.59,11.43,16.33,8.83,1.25-.37,3.16-.05,4.22.71,7.14,5.12,13.28,5.07,20.25-.41,7.51-5.9,11.41-13.95,13.77-23.98,6.77,8.67,12.13,17.28,15,27.03,18.89,64.08,4.91,121.93-35.06,173.91-27.41,35.64-63.38,58.88-107.83,68.25-64.14,13.52-127.39-17.68-155.76-77.99,13.82-6.66,27.49-13.7,41.54-19.9,14.07-6.22,28.51-11.6,42.3-17.15,42.24,31.93,95.6,20.68,121.52-26.49,6.66-12.12,10.39-25.13,11.18-38.93.14-2.49-.14-5.07-.69-7.5-.27-1.21-1.59-2.19-2.43-3.28-.93,1.2-2.44,2.29-2.69,3.61-1.23,6.61-1.44,13.48-3.25,19.9-8.52,30.1-25.98,52.92-57.17,60.98-22.79,5.89-44.46.9-62.19-15.92-1.3-1.23-2.19-3.83-1.95-5.62,2.02-14.97,4.39-29.89,6.56-44.84.7-4.83,1.08-9.7,1.6-14.55,9.35-6.56,18.88-12.89,28.01-19.74,7.2-5.4,13.14-12.1,16.78-20.51,6.24-14.44,1-27.68-13.1-33.02-8.09-3.07-15.91-1.85-23.38,2.12-3.05,1.62-5.95,3.55-9.15,5.48-2.34-9.29-7.7-16.05-15.32-20.95-12.55-8.06-27.17-3.35-32.87,10.43-2.95,2.62-5.9,5.24-8.83,7.84-.94-2.7-2.04-5.84-3.14-8.99,1.07-4.4,2.35-8.77,3.13-13.23.75-4.25,4.67-7.84,3.08-13.88-6.87,6.84-8.68,14.61-10.34,22.46Zm108.37,98.32c.29.62.58,1.24.87,1.86,2.05-.23,4.32.01,6.13-.77,18.02-7.76,31.31-20.1,37.08-39.39.39-1.29-.4-2.93-.65-4.41-1.24.85-3.08,1.41-3.62,2.58-7.06,15.32-19.01,25.87-33,34.57-2.47,1.54-4.55,3.69-6.82,5.55Zm25.51-75.14c-.49,0-.98.02-1.47.03-.5,2.8-1.38,5.6-1.43,8.41-.18,11.35-4.7,20.73-12.11,29.08-1.39,1.56-1.75,4.03-2.58,6.08,2.25-.64,4.52-1.24,6.75-1.94.44-.14.79-.61,1.15-.96,10.86-10.31,13.29-23.25,11.55-37.43-.14-1.15-1.21-2.18-1.85-3.27Z"/>
    <path class="cls-5" d="m305.49,531c6.4-8.35,12.43-17.02,19.28-24.97,14.51-16.83,30.61-32.03,48.7-45.04,1.39,1.4,2.89,2.7,4.16,4.2,3.24,3.85,6.1,8.04,9.59,11.64,15.63,16.09,33.58,28.9,54.42,37.43,16.78,6.87,34.16,11.21,52.37,10.69,9.66-.28,19.48-1.06,28.9-3.1,25.48-5.52,46.58-18.63,63.17-38.87,3.32-4.05,6.92-7.87,10.38-11.8,8.85,6.73,17.71,13.47,26.56,20.2-1.08.76-2.3,1.39-3.23,2.3-9.4,9.29-17.96,19.65-28.27,27.77-28.5,22.43-61.62,32.93-97.66,33.89-23.9.64-46.87-4.14-69.27-12.79-22.72-8.77-42.88-21.36-61.35-36.97-4.87-4.11-9.59-8.42-14.66-12.28-1.22-.93-3.55-.39-5.38-.52-.06,1.93-.31,3.88-.12,5.78.09.89.88,1.85,1.59,2.53,8.72,8.33,17.01,17.19,26.34,24.78,14.93,12.14,31.65,21.38,49.56,28.64,20.92,8.47,42.57,13.26,65.01,13.93,10.51.32,21.12-.72,31.59-1.92,24.25-2.77,46.4-11.57,67.15-24.29,18.61-11.4,33.81-26.39,47.06-43.54,8.42,8.78,16.84,17.57,25.26,26.35-1.39,1.2-2.87,2.3-4.14,3.62-8,8.27-15.82,16.71-23.94,24.86-10.57,10.6-22.92,18.85-35.86,26.26-1.67-1.07-3.26-2.32-5.04-3.18-3.17-1.53-5.24-.89-5.11,3.14-4.12,2.42-8.39,4.61-12.33,7.28-22.7,15.41-48.61,19.58-75.12,20.88-10.14.49-20.39-1.09-30.59-1.83-15.87-1.16-31.05-5.46-45.76-11.2-12.66-4.93-24.94-10.81-37.49-16.04-5.41-2.25-11.24-3.51-16.57-5.91-20.01-8.99-37.72-21.27-52.69-37.43-1.75-1.89-4.34-3.01-6.54-4.49Z"/>
    <path class="cls-5" d="m381.26,455.41c9.63-6.15,19.03-12.69,28.93-18.37,12.75-7.31,23.34-16.44,29.37-30.14,1.14-2.6,1.98-5.34,2.92-8.02,2.06-5.83,1.22-10.38-3.39-15.38-9.16-9.93-11.4-22.32-8.19-35.32,2.24-9.07,8.28-14.07,14.67-13.51,8.56.75,15.21,7.22,16.62,16.13.26,1.63.65,3.23,1.16,5.72,9.2-19.7,21.89-33.6,44.22-35.97,22.12-2.35,39.82,6.09,55.97,21.03-4.04.26-7.4.48-10.77.69-.19.63-.37,1.26-.56,1.88,14.33,3.64,26.9,10.21,36.49,21.75.6-.52,1.19-1.03,1.79-1.55-1.41-2.56-2.53-5.35-4.28-7.64-6.71-8.79-7.53-10.96-7.42-24.23,3.55,3.99,6.45,7.08,9.15,10.33,2.58,3.1,4.78,6.52,7.45,9.53,3.85,4.35,4.06,9.3,2.98,14.56-3.72,18.13-10.8,34.88-20.41,50.68-1.36,2.23-1.18,5.79-.8,8.62,1.01,7.56.17,9-6.9,7.36-4.59-1.07-5.89,2.1-8.02,4.39-4.47,4.79-8.48,10.08-13.3,14.48-7.27,6.65-15.81,11.4-25.44,13.86-18.23,4.65-35.27-7.31-42.95-19.81-2.53-4.11-4.04-8.84-6.39-13.08-.82-1.48-2.74-2.34-4.16-3.48-.7,1.8-2.4,3.92-1.95,5.36,5.79,18.37,17.86,30.83,36.09,37.21,1.4.49,2.86.82,3.86,1.1-2.1,5.93-4.15,11.7-6.44,18.15-18.81.89-35.81-6.12-50.9-18.43-8.74-7.13-15.4-15.98-20.63-25.93-.7-1.33-1.34-2.75-2.3-3.86-.54-.62-1.88-1.15-2.54-.9-.69.27-1.45,1.57-1.38,2.34.17,1.8.63,3.63,1.29,5.32,12.5,31.78,53.01,54.06,86.41,47.51,2.79-.55,5.74-1.09,8.15-2.46,1.49-.85,2.11-3.25,3.12-4.95-1.75-.59-3.56-1.77-5.25-1.63-2.58.21-5.09,1.33-8.73,1.16,2.5-4.96,4.92-9.96,7.58-14.83.43-.79,1.91-1.29,2.97-1.42,14.36-1.73,25.94-8.93,36.03-18.7,3.09-2.99,5.76-3.6,9.31-1.69,7.37,3.97,14.75,7.94,22.12,11.9-6.93,7.49-13.24,15.7-20.92,22.32-26.21,22.61-57.34,28.62-90.51,23.02-30.08-5.08-55.68-20.05-78.04-40.64-5.3-4.88-10.72-9.64-16.09-14.46Zm173.7-91.44c-14.49-.18-26.34,10.76-26.73,24.67-.37,13.04,10.45,23.92,24,24.13,14.61.23,26.3-10.66,26.5-24.67.19-13.4-10.2-23.95-23.77-24.12Zm-52.76,49.28c-.61.16-1.22.33-1.83.49,0,3.24-.43,6.55.07,9.71,2.24,14.09,11.7,22.94,22.86,30.34,1.7,1.13,4.21,1.65,6.25,1.46,1.58-.15,3.03-1.84,4.53-2.84-1.04-1.32-1.81-3.35-3.16-3.87-14.62-5.61-23.54-15.87-26.52-31.31-.27-1.42-1.45-2.66-2.21-3.98Zm-58.81-53.99c2.84-3.09,5.44-5.82,7.91-8.67.73-.85,1.07-2.04,1.59-3.08-1.24,0-2.72-.43-3.67.1-5.78,3.24-9.77,8.09-11.74,14.43-1.39,4.47,1.02,8.65,5.35,9.77,3.14.81,7.48-1.85,8.2-5.02.83-3.65-1.39-6.04-7.64-7.53Z"/>
    <path class="cls-5" d="m511.44,771.44c8.52-5.49,15.56-11.62,20.66-19.81,5.52-8.87,12.57-16.34,21.63-21.59,3.72-2.16,7.92-3.85,12.11-4.7,2.47-.5,5.65.55,8,1.84,3.34,1.84,3.35,5.16.66,7.86-2.5,2.5-5.17,4.86-7.42,7.57-.97,1.17-1.05,3.07-.35,4.92,9.46-6.91,18.69-14.17,28.45-20.63,12.67-8.39,26.11-15.39,41.34-17.96,4.45-.75,9.77-1.7,11.98,3.52,2.23,5.24-2.12,8.53-5.83,11.06-8.63,5.87-17.51,11.36-26.33,16.93-2.29,1.45-5.56,2.82-3.38,5.87.85,1.18,5,1.12,6.96.18,10.28-4.91,20.19-10.63,30.56-15.32,4.15-1.88,9.14-2.38,13.77-2.51,2.17-.06,5.48,1.77,6.31,3.62.83,1.85-.3,5.09-1.5,7.18-1.1,1.92-3.29,3.37-5.26,4.6-10.01,6.22-20.1,12.29-30.16,18.42-1.15.7-2.53,1.22-3.33,2.21-.74.91-1.28,2.42-1.07,3.5.14.73,1.72,1.57,2.71,1.64,1.59.11,3.43.02,4.79-.69,6.83-3.58,13.52-7.43,20.3-11.1,3.39-1.83,6.72-3.96,10.35-5.11,5.46-1.73,10.09.11,11.79,4.07,2.1,4.9-.17,8.68-3.89,11.43-4.44,3.3-9.22,6.19-14,9-6.38,3.74-12.92,7.19-19.35,10.84-2.31,1.31-5.48,2.75-3.65,6.04,2.06,3.71,5.01,1.29,7.35-.12,8.38-5.04,16.91-9.87,26.7-11.34,3.21-.48,6.69.78,10.04,1.24-.77,3.6-.4,8.2-2.53,10.59-5.42,6.1-11.3,12.26-18.16,16.55-35.8,22.4-74.87,36.51-116.34,44.13-3.78.69-7.67.84-11.93,1.29-7.37-28.54-14.66-56.77-22-85.23Z"/>
    <path class="cls-5" d="m307.75,801.7c-15.94-16.52-28.11-35.46-36.53-56.81,5.61.3,11.26,1.17,16.82.79,17.98-1.22,35.55-4.65,52.33-11.44,10.51-4.25,20.48-9.51,27.7-18.58,1.79-2.25,3.97-7,3.06-8.05-3.07-3.51-6.18.23-8.57,2.08-15.03,11.71-32.75,16.97-50.86,20.73-14.32,2.97-28.96,4.38-43.46,6.49-8.95-24.64-11.99-50.08-10.33-76.16,6.1,3.1,12.05,6.56,18.34,9.23,15.81,6.7,32.39,10.85,49.41,12.73,10.38,1.15,20.92,1.01,31.39,1.25,2.64.06,5.29-.61,7.94-.95,1.5,3.52,3.1,7,4.48,10.57,6.7,17.33,17.74,31.43,31.95,43.21,1.8,1.49,3.5,3.08,5.25,4.63-1.41,5-2.9,9.97-4.23,14.99-7.65,28.98-17.28,57.2-31.9,83.51-.86,1.54-2.35,2.73-3.55,4.08-18.93-8.3-35.78-19.69-50.75-33.92.82-.92,1.47-2.13,2.49-2.69,2.93-1.62,6.12-2.78,9-4.47,20.04-11.76,37.14-26.74,48.69-47.12,4.58-8.08,7.58-17.08,11.1-25.74.45-1.09-.29-2.67-.48-4.02-1.44.51-3.26.63-4.22,1.61-1.62,1.64-2.67,3.84-4.02,5.76-8.1,11.53-15.25,23.9-24.57,34.35-12.91,14.47-28.88,25.5-46.47,33.93Z"/>
    <path class="cls-5" d="m587.88,585.01c4.9,5.26,9.86,10.46,14.63,15.83.86.97,1.38,2.71,1.26,4.03-.5,5.47-1.31,10.92-2.01,16.38-3.95-1.6-6.84.49-9.37,3.01-8.52,8.43-19.2,12.91-30.34,16.21-25.44,7.54-51.45,10.41-77.93,8.1-12.98-1.14-26.03-2.06-38.87-4.16-25.72-4.21-49.89-13.07-72.43-26.26,1.29-10.48,6.21-19.47,11.64-28.24,1.5.71,3.13,1.23,4.48,2.16,29.35,20.23,62.63,27.53,97.47,29.04,9.81.43,19.73-.92,29.55-1.87,20.52-1.99,39.79-8.1,57.2-19.2,5.91-3.76,12.55-7.33,14.71-15Z"/>
    <path class="cls-5" d="m549.6,701.89c-2.48,8.76-4.93,17.53-7.48,26.27-.25.87-.99,1.65-1.62,2.36-3.98,4.49-8,8.95-12,13.41-2.46-.26-5-1.05-7.36-.69-17.73,2.68-35.37,2.1-52.97-1.05-25.15-4.5-48.76-13.36-71.4-25.02-1.72-.89-3.77-1.13-5.67-1.67-11.4-13.57-17.93-29.32-20.9-46.67,2.83,1.43,5.68,2.82,8.49,4.29,38.07,19.88,79.19,28,121.52,31.02,15.1,1.08,30.19-.34,45.08-3.35,1.31-.27,2.87.7,4.31,1.1Z"/>
    <path class="cls-5" d="m824.46,621.66c.79,3.18,1.98,6.31,2.3,9.53.54,5.51.95,11.1.52,16.59-.17,2.15-2.38,4.97-4.38,5.85-1.18.52-4.44-1.74-5.6-3.51-7.3-11.16-6.43-26.14,2.53-37.53,13.03-16.56,22.26-19.66,46.7-9.04,25.38,11.03,38.21,32.06,40.06,59.63.6,8.94.74,18.01-3.08,26.33-2.06,4.49-5.08,8.67-8.24,12.5-3.49,4.23-7.98,5.52-13.18,1.6.72-.93,1.6-1.86,2.22-2.94,2.5-4.36,5.38-8.58,7.15-13.22.87-2.27-.4-5.35-.7-8.07-1.54,1.84-3.22,3.57-4.58,5.53-3.34,4.8-6.24,9.94-9.91,14.46-1.53,1.89-4.49,3.29-6.93,3.53-1.7.17-4.18-1.65-5.27-3.27-.66-1,.09-3.98,1.19-4.93,7.06-6.11,9.32-14.6,11.96-22.92.39-1.23.42-2.8-.02-3.98-.41-1.09-1.58-2.44-2.59-2.6-.78-.12-2.3,1.23-2.67,2.24-1.51,4.08-1.98,8.72-4.2,12.31-3.11,5.01-7.2,9.5-11.36,13.74-2.7,2.75-5.79,1.69-8.38-1.02-2.64-2.76-1.46-4.6.17-7.71,3.68-7.03,6.25-14.67,8.94-22.18.63-1.75.32-4.14-.34-5.95-.46-1.26-2.24-2.04-3.44-3.03-.82,1.24-2.01,2.37-2.4,3.73-1.78,6.22-3.17,12.56-5.08,18.75-.61,1.99-2.18,3.81-3.67,5.37-2.68,2.8-5.97,4.82-9.92,2.97-3.93-1.85-5.69-5.54-4.92-9.66,1.07-5.74,2.52-11.47,4.44-16.98,3.9-11.22,1.45-21.82-2.51-32.32-.64-1.7-2.25-3.04-3.41-4.54-.48.25-.95.5-1.43.75Z"/>
    <path class="cls-5" d="m596.89,640.58c-14.32,13.31-26.78,28.2-37.64,44.45-1.96.38-3.92.78-5.89,1.14-10.99,1.99-21.97,5.48-32.99,5.61-17.87.23-35.93-.57-53.61-3.06-28.78-4.05-56.7-11.89-83.21-24.21-4.68-2.18-9.59-3.88-14.39-5.8.5-9.84.99-19.68,1.49-29.52,5.33,3.15,10.53,6.53,16,9.4,29.85,15.69,62.25,22,95.42,23.88,17.36.98,34.95-.33,52.33-1.89,21.27-1.9,41.48-7.93,59.62-19.78.7-.46,1.9-.17,2.87-.23Z"/>
    <path class="cls-5" d="m258.77,651.62c1.4-20.69,6.45-40.52,14.1-59.73,1.38.72,3.05,1.16,4.07,2.22,2.19,2.29,3.87,5.07,6.08,7.35,12.77,13.13,28.62,21.65,45.14,28.76,10.69,4.59,21.39,10.02,33.65,9.27.18,10.57.37,21.14.55,31.72-1.81.56-3.64,1.67-5.42,1.59-10.86-.48-21.73-.97-32.55-1.96-21.07-1.93-40.94-8.23-59.98-17.32-1.78-.85-3.76-1.27-5.64-1.89Z"/>
    <path class="cls-1" d="m674.48,689.93c5.71-13.77,20.32-18.49,32.87-10.43,7.62,4.9,12.98,11.66,15.32,20.95,3.2-1.93,6.09-3.86,9.15-5.48,7.47-3.96,15.29-5.18,23.38-2.12,14.11,5.35,19.35,18.59,13.1,33.02-3.64,8.41-9.58,15.11-16.78,20.51-9.13,6.85-18.66,13.18-28.01,19.74-.66-6.48-.75-13.09-2.22-19.38-.81-3.47-3.42-7.01-6.17-9.42-4.85-4.25-11.1-3.13-15.58,2.04-1.74,2-3.25,4.2-5.62,7.29-.34-3.13-.57-5.3-.82-7.46-1.36-11.65-2.62-23.3-4.15-34.93-.34-2.6-1.37-5.19-2.5-7.6-2.73-5.83-5.41-7.23-11.97-6.75Z"/>
    <path class="cls-5" d="m377.41,590.42c-8.22,10.06-10.86,22.29-13.38,34.56-.37,1.8-.76,3.59-1.15,5.38-4.26-.81-8.84-.9-12.74-2.57-13.26-5.68-26.51-11.48-39.3-18.11-9.85-5.1-18.85-11.65-25.58-20.89-2.22-3.05-5.29-5.47-7.97-8.18,6.93-16.43,15.25-32.09,25.9-46.46,4.46,9.49,10.68,17.42,18.65,24.44,15.25,13.43,32.25,23.34,51.66,29.23,1.43.43,2.6,1.7,3.89,2.59Z"/>
    <path class="cls-5" d="m628.89,868.15c-4.1-8.08-8.25-16.26-12.59-24.82,4.29-1.91,8.04-3.34,11.56-5.19,13.24-6.96,26.77-13.48,39.47-21.34,6.87-4.25,12.44-10.69,18.25-16.49,1.92-1.92,3.18-4.79,4.03-7.46,3.11-9.69-.83-15.73-10.57-17.05,3.04-4.34,6.15-8.78,9.64-13.76.75,3.33,1.52,6.75,2.3,10.17.62.05,1.25.1,1.87.15.74-2.68,2.06-5.34,2.11-8.03.17-8.08,3.76-14.52,8.87-20.33,3.42-3.88,7.45-3.57,9.55,1.24,1.63,3.75,3.04,8.12,2.76,12.09-1.06,15.06-2.74,30.08-4.4,45.1-.99,9-2.23,17.98-3.69,26.92-.25,1.54-1.85,3.46-3.31,4.1-15.06,6.62-30.32,12.8-45.32,19.55-10.09,4.55-19.86,9.82-30.55,15.15Z"/>
    <path class="cls-4" d="m631.4,498.7c-13.25,17.15-28.45,32.13-47.06,43.54-20.75,12.71-42.89,21.51-67.15,24.29-10.47,1.2-21.09,2.24-31.59,1.92-22.44-.68-44.09-5.46-65.01-13.93-17.92-7.26-34.64-16.5-49.56-28.64-9.33-7.59-17.62-16.45-26.34-24.78-.71-.68-1.5-1.63-1.59-2.53-.19-1.9.05-3.85.12-5.78,1.82.14,4.16-.4,5.38.52,5.07,3.85,9.79,8.16,14.66,12.28,18.47,15.61,38.63,28.19,61.35,36.97,22.4,8.65,45.37,13.43,69.27,12.79,36.04-.96,69.17-11.46,97.66-33.89,10.32-8.12,18.87-18.47,28.27-27.77.93-.92,2.15-1.54,3.23-2.3,2.79,2.44,5.58,4.88,8.38,7.32Z"/>
    <path class="cls-4" d="m377.41,590.42c-1.29-.88-2.46-2.15-3.89-2.59-19.42-5.89-36.41-15.8-51.66-29.23-7.97-7.02-14.19-14.95-18.65-24.44.76-1.05,1.52-2.11,2.28-3.16,2.2,1.48,4.79,2.59,6.54,4.49,14.97,16.16,32.69,28.44,52.69,37.43,5.33,2.4,11.17,3.66,16.57,5.91,12.55,5.23,24.83,11.1,37.49,16.04,14.71,5.73,29.88,10.04,45.76,11.2,10.19.74,20.44,2.33,30.59,1.83,26.51-1.29,52.41-5.47,75.12-20.88,3.94-2.68,8.21-4.87,12.33-7.28,1.77,1.76,3.54,3.51,5.31,5.27-2.16,7.67-8.81,11.24-14.71,15-17.42,11.1-36.69,17.21-57.2,19.2-9.83.95-19.75,2.3-29.55,1.87-34.84-1.52-68.12-8.81-97.47-29.04-1.35-.93-2.98-1.45-4.48-2.16-2.77-5.35-4.74-.1-7.05.53Z"/>
    <path class="cls-5" d="m413.85,746.67c6.66,3.49,13.33,6.98,19.99,10.47-.33,4.34-.84,8.68-.96,13.02-.42,15.65-.58,31.3-1.11,46.94-.22,6.51-1,13.02-1.75,19.5-1,8.65-2.2,17.27-3.32,25.9-17.35-2.44-34.06-7.14-50.09-14.22,1.3-2.28,2.56-4.58,3.9-6.85,15.61-26.51,26.15-54.87,31.23-85.24.54-3.2,1.4-6.35,2.12-9.52Z"/>
    <path class="cls-5" d="m485.46,865.83c-16.52-.62-33.04-1.24-49.56-1.86,1.01-6.78,2.16-13.53,2.99-20.33,1.09-8.96,2.23-17.93,2.81-26.93.7-10.89,1.18-21.82,1.1-32.73-.06-8.01-1.19-16.01-1.85-24.02,7.8,1.84,15.61,3.69,23.41,5.53.18,1.31.25,2.65.55,3.93,5.31,22.77,10.82,45.49,15.88,68.32,2.05,9.25,3.15,18.72,4.68,28.09Z"/>
    <path class="cls-4" d="m596.89,640.58c-.97.06-2.16-.23-2.87.23-18.14,11.84-38.35,17.87-59.62,19.78-17.37,1.55-34.97,2.87-52.33,1.89-33.17-1.88-65.57-8.19-95.42-23.88-5.47-2.87-10.67-6.26-16-9.4.72-3.68,1.44-7.37,2.16-11.05,22.53,13.19,46.71,22.06,72.43,26.26,12.84,2.1,25.89,3.03,38.87,4.16,26.48,2.32,52.49-.56,77.93-8.1,11.15-3.3,21.83-7.78,30.34-16.21,2.54-2.51,5.42-4.6,9.37-3.01-.38,4.8-.46,9.65-1.28,14.38-.32,1.81-2.34,3.31-3.59,4.96Z"/>
    <path class="cls-4" d="m381.26,455.41c5.37,4.82,10.79,9.57,16.09,14.46,22.36,20.59,47.96,35.56,78.04,40.64,33.18,5.6,64.3-.41,90.51-23.02,7.68-6.62,13.98-14.84,20.92-22.32,3.21,2.01,6.43,4.01,9.64,6.02-3.47,3.93-7.06,7.75-10.38,11.8-16.59,20.24-37.69,33.34-63.17,38.87-9.42,2.04-19.23,2.82-28.9,3.1-18.2.53-35.59-3.82-52.37-10.69-20.84-8.53-38.79-21.34-54.42-37.43-3.49-3.59-6.36-7.79-9.59-11.64-1.27-1.5-2.76-2.81-4.16-4.2,2.59-1.86,5.19-3.72,7.78-5.59Z"/>
    <path class="cls-5" d="m475.29,766.59c6.53-.16,13.08-.1,19.6-.54,5.63-.38,7.42.54,9.08,6.9,7.05,26.99,13.99,54.02,20.96,81.03.59,2.27,1.14,4.55,1.93,7.7-11.06,1.14-22.17,2.28-33.27,3.43,0-3.28.11-6.56-.02-9.84-.89-21.67-4.42-42.92-10.56-63.73-2.46-8.35-5.15-16.64-7.73-24.95Z"/>
    <path class="cls-4" d="m369.17,658.71c4.8,1.92,9.7,3.62,14.39,5.8,26.51,12.32,54.42,20.16,83.21,24.21,17.68,2.49,35.74,3.28,53.61,3.06,11.02-.14,21.99-3.62,32.99-5.61,1.97-.36,3.93-.76,5.89-1.14-3.22,5.62-6.44,11.25-9.65,16.87-1.44-.39-3-1.36-4.31-1.1-14.9,3.02-29.99,4.43-45.08,3.35-42.33-3.02-83.45-11.14-121.52-31.02-2.81-1.47-5.66-2.86-8.49-4.29-.34-3.38-.68-6.76-1.02-10.14Z"/>
    <path class="cls-5" d="m661.89,531.53c3.9,4.03,5.77,8.18,3.96,14.25-3.31,11.05-1.74,22.13,1.95,32.94-3.44,1.89-6.9,3.74-10.3,5.69-13.17,7.55-26.33,15.14-39.49,22.72-6.04-6.76-12.07-13.53-18.11-20.29,2.59-1.06,5.36-1.81,7.73-3.23,17.47-10.41,31.4-24.96,45.35-39.42,3.54-3.67,5.97-8.4,8.9-12.65Z"/>
    <path class="cls-4" d="m391.09,715.51c1.9.54,3.95.78,5.67,1.67,22.64,11.66,46.25,20.52,71.4,25.02,17.61,3.15,35.24,3.73,52.97,1.05,2.37-.36,4.9.43,7.36.69-7.2,12.3-11.21,16.92-19.16,21.71-2.77-8-9.32-7.07-15.86-6.61-39.23,2.72-72.18-10.53-99-39.2-1.25-1.33-2.27-2.88-3.39-4.32Z"/>
    <path class="cls-5" d="m736.87,484.62c12.44.01,22.05,9.13,21.97,20.84-.08,11.61-10.59,21.49-22.95,21.56-9.79.05-22.87-7.63-22.58-20.97.26-11.88,10.6-21.45,23.57-21.43Zm-13.54,16.62c.05.61.09,1.21.14,1.82,1.67.49,3.33,1.35,5.01,1.4,6.75.19,11.56,3.69,15.95,8.39,1.1,1.18,3.32,1.33,5.02,1.96-.13-1.83.42-4.16-.49-5.42-4.53-6.28-10.65-10.13-18.66-9.85-2.34.08-4.64,1.11-6.96,1.7Z"/>
    <path class="cls-4" d="m258.77,651.62c1.89.62,3.87,1.04,5.64,1.89,19.04,9.09,38.91,15.4,59.98,17.32,10.82.99,21.69,1.47,32.55,1.96,1.78.08,3.61-1.03,5.42-1.59.87,3.94,1.74,7.87,2.61,11.81-2.65.34-5.3,1.01-7.94.95-10.47-.25-21.01-.1-31.39-1.25-17.01-1.89-33.6-6.03-49.41-12.73-6.29-2.67-12.24-6.13-18.34-9.23.29-3.04.58-6.08.87-9.13Z"/>
    <path class="cls-4" d="m268.23,736.91c14.5-2.1,29.14-3.52,43.46-6.49,18.11-3.76,35.83-9.02,50.86-20.73,2.38-1.86,5.5-5.59,8.57-2.08.92,1.05-1.27,5.8-3.06,8.05-7.21,9.07-17.18,14.33-27.7,18.58-16.78,6.78-34.35,10.21-52.33,11.44-5.56.38-11.21-.49-16.82-.79l-2.99-7.97Z"/>
    <path class="cls-4" d="m475.29,766.59c2.58,8.32,5.27,16.6,7.73,24.95,6.13,20.8,9.66,42.05,10.56,63.73.14,3.27.02,6.56.02,9.84-2.71.24-5.42.49-8.13.73-1.53-9.37-2.62-18.84-4.68-28.09-5.06-22.82-10.58-45.55-15.88-68.32-.3-1.28-.37-2.62-.55-3.93,3.65.36,7.29.73,10.94,1.09Z"/>
    <path class="cls-4" d="m307.75,801.7c17.59-8.43,33.56-19.46,46.47-33.93,9.32-10.44,16.47-22.82,24.57-34.35,1.35-1.92,2.4-4.12,4.02-5.76.97-.97,2.79-1.1,4.22-1.61.19,1.35.92,2.93.48,4.02-3.52,8.66-6.52,17.66-11.1,25.74-11.55,20.38-28.65,35.36-48.69,47.12-2.88,1.69-6.07,2.85-9,4.47-1.02.56-1.67,1.77-2.49,2.69-2.82-2.8-5.65-5.59-8.47-8.39Z"/>
    <path class="cls-4" d="m413.85,746.67c-.71,3.17-1.58,6.32-2.12,9.52-5.08,30.37-15.62,58.73-31.23,85.24-1.33,2.26-2.6,4.56-3.9,6.85-3.21-1.42-6.42-2.85-9.64-4.27,1.2-1.35,2.7-2.54,3.55-4.08,14.62-26.31,24.26-54.53,31.9-83.51,1.32-5.02,2.81-10,4.23-14.99,2.4,1.75,4.8,3.5,7.2,5.25Z"/>
    <path class="cls-4" d="m277.3,580.62c2.68,2.71,5.75,5.13,7.97,8.18,6.72,9.24,15.73,15.79,25.58,20.89,12.8,6.63,26.05,12.42,39.3,18.11,3.9,1.67,8.47,1.76,12.74,2.57-.35,3.04-.71,6.09-1.06,9.13-12.26.75-22.97-4.68-33.65-9.27-16.52-7.1-32.37-15.63-45.14-28.76-2.21-2.27-3.89-5.06-6.08-7.35-1.02-1.06-2.69-1.5-4.07-2.22,1.48-3.76,2.95-7.52,4.43-11.28Z"/>
    <path class="cls-4" d="m440.95,759.96c.65,8.01,1.78,16.01,1.85,24.02.09,10.91-.4,21.84-1.1,32.73-.58,9-1.71,17.97-2.81,26.93-.83,6.8-1.98,13.56-2.99,20.33-3.07-.49-6.14-.98-9.2-1.47,1.12-8.63,2.33-17.25,3.32-25.9.75-6.48,1.53-12.99,1.75-19.5.53-15.64.69-31.3,1.11-46.94.12-4.35.63-8.68.96-13.02,2.37.94,4.74,1.88,7.1,2.82Z"/>
    <path class="cls-4" d="m661.89,531.53c-2.94,4.25-5.36,8.98-8.9,12.65-13.95,14.46-27.89,29.01-45.35,39.42-2.38,1.42-5.14,2.17-7.73,3.23-2.39-2.35-4.79-4.7-7.18-7.05,12.94-7.4,25.29-15.66,35.86-26.26,8.12-8.14,15.94-16.59,23.94-24.86,1.27-1.31,2.75-2.42,4.14-3.62,1.74,2.16,3.49,4.32,5.23,6.48Z"/>
    <path class="cls-4" d="m618.01,607.12c13.16-7.57,26.31-15.16,39.49-22.72,3.4-1.95,6.87-3.8,10.3-5.69,3.09,5.1,6.19,10.21,9.04,14.9-16.78,7.65-33.81,15.41-51.56,23.5-1.82-2.5-4.54-6.25-7.27-9.99Z"/>
    <path class="cls-5" d="m695.53,491.78c-8.03-9.92-18.39-12.36-21.8-5.87,2.94.61,5.92.83,8.56,1.9,2.49,1.01,4.61,2.92,7.46,4.81-5.82,3.76-10.7,6.92-15.61,10.09-9.08-5.43-11.68-16.42-5.86-25.05,5.98-8.88,18.1-11.43,26.07-5.5,4.22,3.13,6.59,7.56,6.35,12.52-.11,2.29-3.14,4.44-5.18,7.1Z"/>
    <path class="cls-4" d="m674.16,745.38c7.68-11.92,3.68-21.26-8.34-24.07-.05-7.62.72-15.11,5.58-21.39,1.54-1.99,4.13-4.48,6.12-4.38,1.65.08,4.06,3.46,4.5,5.7,1.87,9.54,3.39,19.17,4.55,28.82,1.13,9.35,1.68,18.77,2.43,28.16.08,1.02-.17,2.07-.9,3.43-.39-9.18-4.65-14.79-13.95-16.28Z"/>
    <path class="cls-4" d="m608.09,710.63c3.4-6.4,6.22-12.25,9.58-17.77,1.32-2.16,3.61-4.03,5.89-5.24,3.05-1.63,7.3-2.37,8.98,1.16,1.74,3.65,1.66,8.19,2.21,12.36.04.3-1.26.89-2,1.16-7.51,2.8-15.03,5.56-22.56,8.32-.29.11-.65.01-2.09.01Z"/>
    <path class="cls-4" d="m640.86,699.27c1.8-2.69,3.45-6.97,6.55-9.37,4.46-3.45,9.9-.74,10.87,5.64,1.31,8.54,1.41,17.27,2.05,26.25-2.42.43-3.96.69-4.56.8-.49-5.22.49-11.02-1.82-14.83-2.22-3.67-7.84-5.29-13.09-8.5Z"/>
    <path class="cls-4" d="m607.66,631.71c.77-7.71,1.44-14.46,2.23-22.46,3.82,4.92,6.88,8.86,10.21,13.15-4.01,3-7.81,5.84-12.44,9.31Z"/>
    <path class="cls-1" d="m658.37,684.13c1.67-7.84,3.48-15.62,10.34-22.46,1.59,6.04-2.33,9.63-3.08,13.88-.79,4.45-2.07,8.82-3.13,13.23-1.38-1.55-2.75-3.1-4.13-4.65Z"/>
    <path class="cls-1" d="m638.1,685.11c.77-6.6,1.41-13.22,2.4-19.79.21-1.4,1.67-2.62,3.08-4.7,0,9.05,0,16.79,0,24.52-.96,1.07-1.92,2.13-3.32,3.68-.83-1.44-1.49-2.57-2.15-3.71Z"/>
    <path class="cls-4" d="m591.07,719.64c1.94-3.93,3.58-8.04,5.92-11.71,1.43-2.24,4.25-2.57,5.85,0,1.32,2.13,2.74,4.88-.61,6.89-3.27,1.96-6.53,3.95-9.8,5.93-.46-.37-.91-.75-1.37-1.12Z"/>
    <path class="cls-4" d="m549.11,723.78c0,.11.02.25-.04.32-.07.08-.22.1-.33.15.02-.22.04-.44.05-.65.1.06.21.13.31.19Z"/>
    <path class="cls-1" d="m766.74,782.45c2.26-1.87,4.35-4.02,6.82-5.55,13.98-8.7,25.94-19.24,33-34.57.54-1.17,2.38-1.74,3.62-2.58.24,1.48,1.03,3.12.65,4.41-5.77,19.29-19.06,31.63-37.08,39.39-1.82.78-4.08.54-6.13.77-.29-.62-.58-1.24-.87-1.86Z"/>
    <path class="cls-1" d="m792.25,707.32c.64,1.09,1.71,2.12,1.85,3.27,1.75,14.18-.68,27.12-11.55,37.43-.37.35-.71.82-1.15.96-2.24.7-4.5,1.3-6.75,1.94.84-2.05,1.2-4.52,2.58-6.08,7.41-8.34,11.93-17.73,12.11-29.08.05-2.81.93-5.61,1.43-8.41.49,0,.98-.02,1.47-.03Z"/>
    <path class="cls-2" d="m554.95,363.97c13.57.17,23.96,10.72,23.77,24.12-.2,14.01-11.89,24.9-26.5,24.67-13.55-.21-24.37-11.08-24-24.13.39-13.91,12.25-24.85,26.73-24.67Zm17.71,23.58c-.04-10.06-7.72-17.47-18.1-17.45-10.75.02-19.47,8.18-19.5,18.26-.03,10.14,8.06,18.23,18.22,18.22,10.58,0,19.42-8.7,19.38-19.04Z"/>
    <path class="cls-2" d="m502.2,413.24c.76,1.32,1.94,2.56,2.21,3.98,2.98,15.44,11.9,25.7,26.52,31.31,1.35.52,2.12,2.54,3.16,3.87-1.5,1.01-2.95,2.7-4.53,2.84-2.04.19-4.55-.33-6.25-1.46-11.16-7.4-20.62-16.25-22.86-30.34-.5-3.16-.07-6.47-.07-9.71.61-.16,1.22-.33,1.83-.49Z"/>
    <path class="cls-2" d="m443.39,359.26c6.26,1.49,8.47,3.88,7.64,7.53-.72,3.17-5.07,5.83-8.2,5.02-4.33-1.12-6.73-5.3-5.35-9.77,1.97-6.34,5.95-11.2,11.74-14.43.95-.53,2.43-.09,3.67-.1-.52,1.04-.86,2.23-1.59,3.08-2.47,2.85-5.07,5.58-7.91,8.67Z"/>
    <path class="cls-2" d="m723.33,501.23c2.32-.59,4.62-1.62,6.96-1.7,8.01-.28,14.13,3.57,18.66,9.85.91,1.27.37,3.59.49,5.42-1.7-.62-3.91-.77-5.02-1.96-4.39-4.7-9.19-8.2-15.95-8.39-1.68-.05-3.34-.91-5.01-1.4-.05-.61-.09-1.21-.14-1.82Z"/>
    <path class="cls-5" d="m572.67,387.55c.04,10.35-8.8,19.04-19.38,19.04-10.16,0-18.25-8.09-18.22-18.22.03-10.08,8.74-18.24,19.5-18.26,10.38-.02,18.06,7.38,18.1,17.45Zm-14.56,13.55c2.05-3.32,4.19-5.25,4.07-7.04-.11-1.6-2.71-3.03-4.2-4.54-1.55,1.65-4.02,3.14-4.37,5.02-.26,1.43,2.17,3.35,4.5,6.57Z"/>
  </g>
  <path class="cls-3" d="m563.39,397.35c-1.45,2.39-4.24,3.35-6.24,2.15-1.99-1.21-2.44-4.13-.99-6.52,1.45-2.39,4.24-3.35,6.24-2.15s2.44,4.13.99,6.52Z"/>
</svg>