<?xml version="1.0" encoding="UTF-8"?>
<svg id="_圖層_1" data-name="圖層 1" xmlns="http://www.w3.org/2000/svg" viewBox="0 0 1200 1200">
  <defs>
    <style>
      .cls-1 {
        fill: #050505;
      }

      .cls-2 {
        fill: #f8006d;
      }

      .cls-3 {
        fill: #fcfcfc;
      }

      .cls-4 {
        fill: #efefef;
      }

      .cls-5 {
        fill: #070606;
      }
    </style>
  </defs>
  <g>
    <path class="cls-3" d="m854.46,879.59c1.37,5.68,5.64,3.31,8.62,2.64,15-3.4,29.34-8.67,42.5-16.76,38.95-23.94,62.2-59.44,74.92-102.5,7.16-24.26,9.4-49.12,8.13-74.38-.96-18.93-4.32-37.42-9.63-55.53-7.64-26.05-19.48-50.11-35.91-71.76-11.02-14.51-23.08-28.05-38.76-37.6,1.61-3.17,2.79-6.87,5.08-9.63,2.23-2.68,5.98-4.06,8.37-6.66,2.44-2.66,4.75-5.86,5.84-9.24,1.52-4.72,1.85-9.82,2.72-15,8.91-2.31,15.42-8.19,19.62-16.77,2.78-5.69,2.82-11.61-.42-16.92-2.66-4.36-3.07-8.74-2.68-13.51.51-6.19,1.48-12.41,1.31-18.59-.6-20.84-8.21-38.57-25.45-50.97-18-12.95-38.15-14.57-59.37-9.88-12.57,2.78-23.25,11.62-36.77,11.17-.93-.03-2.05.47-2.81,1.06-5.38,4.25-11.23,8.07-15.88,13.01-6.92,7.35-6.51,11.11-.86,17.22-6.66,10.7-13.33,20.97-19.48,31.53-2.04,3.49-3.98,6.14-7.99,7.64-2.82,1.06-5.51,3.39-7.38,5.83-2.51,3.27-2.83,7.79,1.45,9.47,6.59,2.58,6.82,7.06,5.78,12.63-.18.98-.03,2.02-.07,3.03-.14,3.59,1.26,5.89,5.14,6.03,5.71.21,11.42.58,17.12.5,6.66-.1,13.32-.6,20.22-.95-2.9,9.32-20.81,19.56-33.76,19.91-.73-11.7-2.56-13.87-13.74-16.15-2.47-.51-4.96-1.08-7.47-1.27-3.45-.26-5.02-1.79-6.15-5.24-3.47-10.6-13.38-15.11-21.95-8.69-7.24-6.68-13.44-6.71-17.51-1.11-3.24-1.04-6.34-3.11-8.85-2.55-2.89.65-5.27,3.62-8.28,5.9-.3-.18-1.4-.99-2.61-1.54-4.03-1.84-8.82-.79-9.77,3.08-1.38,5.57-4.78,5.81-9.23,5.49-3.34-.24-6.7-.05-10.13-.05.66-2.6,1.53-5.13,1.9-7.74.67-4.77-.86-8.86-5.35-10.96-6.94-3.24-14.26-4.97-22.02-3.94-11.53,1.54-21.55,6.61-30.21,14.04-3.46,2.97-6.82,3.71-10.98,3.52-12.32-.56-24.33-2.36-35.77-7.34-21.28-9.27-40.61-21.07-54.15-40.61-1.6-2.31-2.91-4.83-5.13-8.54,28.02,13.04,48.53,3.33,66.23-16.98,2.58,1.05,5.16,2.26,7.83,3.16,8.26,2.75,14.97-1.37,15.07-10.06.05-4.48-2.21-8.97-3.25-13.5-.33-1.44-.73-3.36-.07-4.44,2.5-4.11,5.42-7.97,7.36-10.74,12.78,1.2,24.73,2.63,36.73,3.32,7.64.44,14.75-1.41,18.75-9.08,4.29-8.23,2.83-18.03-3.79-25.18-8.92-9.64-19.29-17.33-31.61-21.95-5.13-1.92-6.28-4.68-6.04-9.98,1.18-25.12-9.95-45.03-29.57-59.25-30.75-22.28-82.03-21.51-111.07,15.52-6.7,8.54-14.3,18.12-10.16,30.86.14.43.02,1.02-.15,1.47-1.6,4.15-3.06,8.37-4.89,12.42-3.2,7.08-7.16,14.28-4.44,22.14,3.16,9.13,3.35,18.41,3.29,27.77-.01,1.74-1.48,4.51-2.92,5.03-5.46,1.95-11.13,4.2-16.82,4.5-26.98,1.42-52.95,7.44-78.04,17-29.72,11.32-53.94,30.42-74.15,54.82-13.15,15.87-23.78,33.35-33.42,51.47-15.06,28.32-24.99,58.55-32.28,89.64-3.56,15.17-5.96,30.62-8.74,45.97-.81,4.49-.52,9.38,3.97,11.62,9.58,4.78,11.18,11.47,10.35,22.08-1.95,24.93,8.14,46.58,23.48,65.76,9.53,11.93,21.66,20.59,35.66,25.8-8.29,6.3-17.12,11.72-24.39,18.75-25.94,25.06-42.22,54.95-40.24,92.02,1.07,19.85,9.21,36.85,29.54,44.11,10.81,3.86,22.22,6.38,33.55,8.41,21.66,3.9,43.48,5.13,65.34,1.17,7.58-1.37,14.14-4.31,23.08-.69,11.18,4.53,24.28,4.94,36.64,5.73,13.57.87,27.28.78,40.85-.07,14.58-.91,28.95-3.59,41.96-11.05,3.37-1.93,5.06-4.33,5.21-8.4.71-19.31-12.12-38.93-30.71-46.23-4.45-1.75-9.08-3.02-13.68-4.53,7.77-8.75,15.67-17.2,23.07-26.08,11.99-14.39,22.95-29.5,29.65-47.22,5.7-15.09,7.9-30.77,5.04-46.63-3.11-17.25-13.89-30.21-25.76-42.47-4.4-4.55-11.15-7.25-11.82-15.14-.9-10.63-2.57-21.19-3.91-31.77.43-.22.87-.44,1.3-.66,21.4,14.25,44.19,25.41,69.07,32.02,24.9,6.62,50.05,11.75,74.83,12.36,2.79,6.81,4.7,13.12,7.87,18.72,3.16,5.57,7.58,10.42,11.34,15.44-28.26,55.01-16.11,105.39,17.87,152.58-7.08,5.29-14.54,9.9-20.84,15.77-11.77,10.94-12.18,25.16-.51,35.11,5.81,4.96,13.33,8.65,20.68,10.93,19.57,6.07,39.61,5.24,59.41.8,8.95-2.01,17.58-5.17,25.71,1.92.59.52,1.54.64,2.34.91,27.65,9.08,54.88,7.64,82.09-2.38,17.73-6.53,26.65-19.4,29.72-37.28.34-1.97.75-3.92,1.13-5.88,1.68-.26,3.36-.52,5.04-.78Z"/>
    <path class="cls-5" d="m849.42,880.37c-.38,1.96-.79,3.91-1.12,5.88-3.07,17.88-11.99,30.75-29.72,37.28-27.21,10.02-54.44,11.46-82.09,2.38-.8-.26-1.75-.39-2.34-.91-8.13-7.09-16.75-3.92-25.71-1.92-19.8,4.44-39.84,5.26-59.41-.8-7.36-2.28-14.87-5.98-20.68-10.93-11.67-9.95-11.26-24.17.51-35.11,6.3-5.86,13.76-10.48,20.84-15.77-33.99-47.19-46.14-97.58-17.87-152.58-3.76-5.02-8.19-9.87-11.34-15.44-3.17-5.59-5.07-11.91-7.87-18.72-24.79-.61-49.93-5.74-74.83-12.36-24.88-6.61-47.67-17.77-69.07-32.02-.43.22-.87.44-1.3.66,1.34,10.59,3,21.15,3.91,31.77.67,7.89,7.42,10.6,11.82,15.14,11.86,12.26,22.65,25.23,25.76,42.47,2.86,15.86.66,31.54-5.04,46.63-6.69,17.72-17.66,32.84-29.65,47.22-7.4,8.88-15.3,17.33-23.07,26.08,4.6,1.51,9.23,2.78,13.68,4.53,18.59,7.3,31.42,26.92,30.71,46.23-.15,4.08-1.84,6.47-5.21,8.4-13.01,7.46-27.38,10.14-41.96,11.05-13.57.85-27.28.94-40.85.07-12.36-.79-25.46-1.2-36.64-5.73-8.94-3.62-15.5-.68-23.08.69-21.87,3.96-43.69,2.73-65.34-1.17-11.33-2.04-22.74-4.55-33.55-8.41-20.33-7.26-28.48-24.26-29.54-44.11-1.99-37.07,14.3-66.96,40.24-92.02,7.28-7.03,16.1-12.45,24.39-18.75-14-5.2-26.14-13.87-35.66-25.8-15.33-19.19-25.42-40.83-23.48-65.76.83-10.6-.77-17.3-10.35-22.08-4.49-2.24-4.78-7.13-3.97-11.62,2.78-15.35,5.18-30.79,8.74-45.97,7.29-31.09,17.21-61.32,32.28-89.64,9.64-18.12,20.27-35.6,33.42-51.47,20.21-24.4,44.43-43.51,74.15-54.82,25.09-9.55,51.06-15.57,78.04-17,5.69-.3,11.36-2.55,16.82-4.5,1.43-.51,2.9-3.28,2.92-5.03.06-9.36-.13-18.64-3.29-27.77-2.72-7.85,1.24-15.06,4.44-22.14,1.83-4.05,3.3-8.26,4.89-12.42.17-.45.29-1.04.15-1.47-4.14-12.74,3.46-22.31,10.16-30.86,29.04-37.04,80.33-37.8,111.07-15.52,19.62,14.21,30.74,34.13,29.57,59.25-.25,5.3.9,8.06,6.04,9.98,12.32,4.62,22.69,12.31,31.61,21.95,6.61,7.14,8.07,16.95,3.79,25.18-4,7.67-11.11,9.52-18.75,9.08-11.99-.69-23.95-2.13-36.73-3.32-1.94,2.77-4.86,6.62-7.36,10.74-.66,1.08-.26,3,.07,4.44,1.05,4.53,3.31,9.02,3.25,13.5-.1,8.7-6.81,12.82-15.07,10.06-2.68-.89-5.25-2.11-7.83-3.16-17.7,20.31-38.21,30.01-66.23,16.98,2.22,3.72,3.52,6.23,5.13,8.54,13.54,19.53,32.87,31.34,54.15,40.61,11.44,4.98,23.45,6.78,35.77,7.34,4.15.19,7.51-.55,10.98-3.52,8.66-7.43,18.68-12.5,30.21-14.04,7.76-1.03,15.08.69,22.02,3.94,4.49,2.1,6.02,6.2,5.35,10.96-.37,2.61-1.25,5.14-1.9,7.74,3.43,0,6.8-.19,10.13.05,4.45.32,7.85.08,9.23-5.49.95-3.86,5.74-4.91,9.77-3.08,1.21.55,2.3,1.36,2.61,1.54,3.02-2.28,5.39-5.26,8.28-5.9,2.51-.56,5.61,1.51,8.85,2.55,4.07-5.6,10.27-5.58,17.51,1.11,8.56-6.41,18.47-1.91,21.95,8.69,1.13,3.45,2.7,4.98,6.15,5.24,2.51.19,4.99.76,7.47,1.27,11.18,2.28,13.01,4.45,13.74,16.15,12.95-.35,30.86-10.6,33.76-19.91-6.91.34-13.56.85-20.22.95-5.7.08-11.41-.29-17.12-.5-3.88-.14-5.28-2.44-5.14-6.03.04-1.01-.11-2.05.07-3.03,1.04-5.58.8-10.05-5.78-12.63-4.28-1.68-3.95-6.2-1.45-9.47,1.87-2.44,4.56-4.78,7.38-5.83,4.01-1.5,5.96-4.15,7.99-7.64,6.15-10.57,12.82-20.83,19.48-31.53-5.65-6.11-6.05-9.87.86-17.22,4.65-4.95,10.5-8.77,15.88-13.01.76-.6,1.88-1.1,2.81-1.06,13.53.46,24.2-8.39,36.77-11.17,21.22-4.69,41.37-3.08,59.37,9.88,17.24,12.4,24.85,30.13,25.45,50.97.18,6.18-.8,12.39-1.31,18.59-.39,4.77.02,9.15,2.68,13.51,3.24,5.31,3.2,11.24.42,16.92-4.19,8.57-10.7,14.46-19.62,16.77-.88,5.18-1.21,10.28-2.72,15-1.09,3.38-3.39,6.58-5.84,9.24-2.39,2.59-6.14,3.97-8.37,6.66-2.3,2.77-3.48,6.46-5.08,9.63,15.68,9.55,27.74,23.08,38.76,37.6,16.44,21.65,28.28,45.72,35.91,71.76,5.31,18.11,8.68,36.6,9.63,55.53,1.28,25.26-.96,50.12-8.13,74.38-12.71,43.06-35.97,78.56-74.92,102.5-13.16,8.09-27.5,13.36-42.5,16.76-2.97.67-7.25,3.04-8.62-2.64,1.46-1.12,2.76-2.71,4.41-3.3,9.65-3.47,19.39-6.71,29.1-10.03,19.33-8.07,35.24-20.78,48.87-36.45,4.78-5.49,9.07-11.4,13.93-17.55-23.96-6.59-46.22-14.21-66.98-25.67-12.38-6.83-24.45-14.11-33.79-25.1-.72-.84-2.95-.99-4.26-.64-24.44,6.5-48.98,6.9-73.4.44-32.14-8.5-57.73-26.57-76.46-54.17-3.22-6.26-6.55-12.46-9.61-18.8-1.22-2.53-2.8-3.31-5.54-3.06-16.79,1.54-30.1,9.42-39.73,22.91-9.86,13.81-15.21,29.63-16.66,46.48-.99,11.46-1.51,23.06,1.16,34.96,8.57-4.1,16.76-7.89,24.8-11.99,1.37-.7,2.27-2.64,3.02-4.18.87-1.77,1.33-3.73,1.97-5.61.49.15.99.3,1.48.46.64,1.96,1.29,3.92,1.84,5.62,10.41-2.21,19.69-5.16,18.94-18.2-.02-.33-.04-.66.03.42-2-3.05-3.32-5.07-4.64-7.09,1.96-.43,3.92-.85,6.56-1.42.68-2.84,1.56-6.52,2.32-9.69-4.12-3.51-11-.08-14.16-7.22,4.06,0,7.05-.59,9.69.12,5.34,1.45,7.58-.55,8.38-5.63.4-2.55,1.33-5.25,4.97-3.13-.33,3.12-.65,6.24-1,9.54,3.96.7,7.66,1.05,11.15,2.1,1.56.47,2.69,2.35,4.02,3.6-1.6.67-3.22,1.96-4.79,1.89-3.96-.18-7.89-.98-12.05-1.56-.91,4.65-1.73,8.85-2.59,13.24,3.53,1.33,6.8,2.23,9.73,3.79,1.56.83,2.53,2.77,3.77,4.22-2.01.56-4.14,1.82-6,1.51-3.04-.52-5.89-2.08-8.98-3.25-.48,2.99-1.11,5.47-1.24,7.98-.26,4.96-2.32,8.1-7.41,9.34-3.4.83-6.56,2.54-9.91,3.65-4.45,1.46-8.33,3.04-6.09,9.07.28.76-.99,2.09-1.54,3.16-1.08-.65-2.6-1.06-3.15-2.02-.85-1.48-1.04-3.34-1.59-5.31-8.99,4.06-17.68,7.98-26.54,11.97,3.24,14.48,8.99,27.8,15.82,40.79,6.02,11.45,13.77,19.8,26.86,23.78,22.8,6.94,44.92,6.26,67.26-1.79-.85-1.85-1.68-3.31-2.21-4.87-7.17-21.2-10.72-42.83-5.79-64.99,1.49-6.71,5-12.99,7.93-19.31.39-.84,2.81-.73,4.28-1.06-.08,1.21.21,2.59-.28,3.6-8.09,16.73-8.75,34.45-6.13,52.29,1.48,10.08,5.27,19.8,7.01,29.86,1.1,6.36,5.05,8.72,10.04,10.81,16.15,6.73,33.02,10.26,50.43,11.15,12.96.66,25.97.94,38.56-3.01,1.61-.51,3.6-2.58,3.87-4.19,3.61-21.48,5.77-43.06,3.7-64.88-.21-2.17-.25-4.4.06-6.54.12-.83,1.43-1.48,2.2-2.21.55.73,1.41,1.4,1.59,2.21.84,3.94,1.49,7.91,2.21,11.87,2.69,24.23-.43,48.1-4.47,71.92Zm-189.91-384.38c3.8-.47,7.6-.95,11.4-1.42-.88,2.44-1.77,4.89-2.65,7.33-7.56.55-14.1,3.76-19.25,9-7.03,7.15-13.48,14.89-20.13,22.42-.67.76-1.03,1.79-1.5,2.63,6.69.4,13.01.77,19.56,1.16,1.31-2.54,2.63-5.41,4.22-8.13,2.43-4.15,6.04-5.94,10.97-5.44,1.48.15,3.09-.96,4.64-1.49,5.47-2.51,10.67-3.64,14.53,2.7.24.4,1.19.64,1.74.55,6.02-.99,10.5,2.1,14.89,5.48.61,2.08,1.74,4.17,1.72,6.25-.05,6.16,3.39,9.5,8.28,12.01,7.92-8.45,8.71-8.58,17.75-2.99,4.23-7.45,6.14-8.46,13.28-7.03,8.38-11.53,16.73-23.02,24.97-34.37-7.13-8.49-22.45-9.12-29.89-1.73-4.63,4.6-4.8,4.75-9.38-.17-5.87-6.3-12.73-9.76-21.48-8.81-.8-1.89-1.6-3.78-2.4-5.67,11.36-1.54,20.78,2.24,28.21,10.75,11.54-9.83,24.39-10.08,39.37-.78,2.01-3.69,3.99-7.33,6.44-11.83-9.1-1.38-16.84-3.12-24.67-3.64-24.2-1.59-48.43-2.63-72.64-4.07-4.26-.25-7.18,1.67-9.56,4.57-3.18,3.9-5.98,8.11-8.94,12.19-.14.33-.28.66-.43.99.31-.16.62-.31.93-.47Zm-420.6,379.74c-.44-.05-.87-.1-1.31-.15.23.29.46.58.7.88,5.91,8.16,14.28,12.79,23.74,14.95,10.79,2.46,21.78,4.12,32.75,5.7,18.59,2.68,37.17,2.66,55.66-1.07,7.47-1.51,11.64-6.42,14.55-12.86-10.18,1.79-19.98,4.61-29.89,5.06-32.73,1.47-65.25.22-96.2-12.5Zm241.35-373.8c8.05,6.62,16.1,13.24,24.14,19.85,1.73,1.15,3.45,2.31,5.18,3.46,9.42,5.16,18.84,10.33,28.26,15.49,2.74,1.15,5.47,2.3,8.21,3.45,11.13,3.47,22.25,6.94,33.38,10.42,4.09,2.93,6.67.26,9.25-2.47,6.6-3.94,13.19-7.9,19.81-11.83,3.66-2.18,8.33-3.5,10.88-6.58,13.04-15.84,25.54-32.12,38.2-48.27.76-.97,1.3-2.12,2.76-4.56-3.06,1.11-4.73,1.6-6.31,2.32-4.12,1.86-8.15,3.92-12.31,5.7-2.8,1.2-6.54,3.77-8.33-.35-2.04-4.68,3.02-4.87,5.7-6.47,6.87-4.11,14.13-7.73,20.36-12.66,5.88-4.65,4.44-9.28-2.78-11.52-9.73-3.01-19.04-1.22-27.68,3.56-6.99,3.87-13.59,8.44-20.37,12.71-3.32.18-6.64.35-9.95.53-7.9-1.13-15.79-2.26-23.69-3.39-3.57-1.22-7.15-2.45-10.72-3.67-6.39-3.08-12.77-6.16-19.16-9.24l-7.09-4.12c-6.32-5.07-12.64-10.14-18.95-15.22-1.76-2.05-3.52-4.09-5.28-6.14-3.66-5.7-7.33-11.4-10.99-17.1-1.38-3.11-2.75-6.22-4.13-9.33-.94-1.12-1.93-2.2-2.8-3.37-4.2-5.62-8.5-11.17-12.47-16.95-.99-1.44-.92-3.62-1.34-5.46.39-.26.78-.52,1.17-.77,1.21.89,2.6,1.6,3.59,2.69,3.83,4.22,7.26,8.84,11.33,12.8,8.42,8.2,17.74,15.3,30.15,15.38,17.62.12,30.44-8.89,40.16-22.87,1.89-2.71,3.46-3.73,6.54-1.84,2.56,1.57,5.42,2.69,8.21,3.84,3.44,1.41,5.63-.23,5.3-3.57-.37-3.74-2.1-7.33-2.76-11.07-.39-2.2-.63-5.02.4-6.79,4.05-6.94,8.67-13.54,12.98-20.34.76-1.2,1.67-2.79,1.46-4.03-1.57-9.38-4.63-18.07-12.63-24.16-2.59,4.51-3.26,4.2-7.57,1.16-11.59-8.16-23.47-15.91-36.21-24.48,0,2.58.06,3.25-.01,3.9-.27,2.65-.59,5.29-.89,7.93-2.62-.63-5.47-.79-7.83-1.96-11.4-5.62-22.67-11.5-34.65-17.63-5.45,9.65-10.6,18.76-16.18,28.64-.96-5.8-1.17-10.32-2.53-14.48-1.56-4.81-5.84-7.82-10.57-8.25-4.7-.43-7.82,3.02-9.67,7.47-5.48,13.18-3.83,19.52,7.36,26.56,1.57.99,3.23,3.99,2.85,5.58-2.88,11.92-8.42,24.17-23.6,26.99-5.28.98-10.62,1.58-15.94,2.36-1.99.31-3.99.62-5.98.94-9.79,1.44-19.59,2.87-29.38,4.31-2.87.68-5.73,1.36-8.6,2.03-11.67,3.96-23.35,7.91-35.02,11.87-2.29,1.17-4.58,2.35-6.87,3.52-10.63,7.41-21.25,14.82-31.88,22.22-1.9,1.72-3.79,3.44-5.69,5.15-2.33,2.15-4.92,4.09-6.95,6.49-7.26,8.54-14.33,17.24-21.47,25.87-1.39,1.99-2.79,3.98-4.18,5.97-5.64,9.1-11.28,18.2-16.91,27.3-1.09,2.06-2.18,4.12-3.27,6.18-4.3,9.43-8.59,18.87-12.89,28.3-.85,1.94-1.71,3.87-2.56,5.81-2.95,9.54-5.89,19.09-8.84,28.63-.57,2.39-1.14,4.78-1.71,7.17-2.84,10.81-5.67,21.63-8.51,32.44-.41,2.25-.82,4.5-1.23,6.75-.83,5.99-1.22,12.07-2.61,17.93-1.13,4.78.54,7.19,4.53,9.2,12.13,6.09,24.06,12.59,36.28,18.51,16.75,8.12,33.66,16,51.91,20.25,40.3,9.38,81.05,12.59,122.26,8.09,10.76-1.17,21.43-3.15,31.91-4.73-1.05-9.78-2.01-18.62-2.96-27.47-.01-3.38-.03-6.76-.04-10.14-.69-1.19-1.13-2.69-2.12-3.54-7.8-6.7-15.71-13.28-23.59-19.89-3.1-3.13-6.19-6.27-9.29-9.4-7.19-8.61-14.38-17.23-21.57-25.84-1.92-2.84-3.84-5.68-5.76-8.52-4.47-7.95-8.94-15.91-13.41-23.86-1.55-3.6-3.1-7.19-4.65-10.79-3.02-9.25-6.04-18.5-9.06-27.74-.55-2.68-1.1-5.36-1.65-8.03-.16-3.38-1.83-7.64,4.3-7.34.86,1.02,1.73,2.03,2.59,3.05,2.87,16.96,8.54,32.99,16.21,48.34,1.12,2.2,2.25,4.39,3.37,6.59,6,12.65,13.86,24.05,23.18,34.47l7.17,8.19c9.76,9.62,19.53,19.23,29.29,28.85,2.38,1.86,4.77,3.71,7.15,5.57,12.12,7.57,24.24,15.15,36.36,22.72,3.09,1.45,6.18,2.91,9.26,4.36,10.55,3.63,21.09,7.26,31.64,10.89,2.94.76,5.89,1.52,8.83,2.28,10.11,1.97,20.23,3.94,30.34,5.91l10.13,1.21c3.48.51,6.95,1.11,10.45,1.51,28.74,3.27,57.18,2.44,84.65-7.63,5.51-2.02,10.68-5.64,15.24-9.44,4.84-4.03,3.97-8.56-1.56-11.77-3.81-2.21-7.84-3.51-12.44-2.03-3.16,1.01-6.5,1.68-9.8,1.9-1.16.08-2.43-1.63-3.66-2.52,1.04-1.09,1.91-2.82,3.16-3.17,9.34-2.61,18.82-4.73,28.12-7.47,5.08-1.5,10.32-3.13,13.32-8.3,1.81-3.12.55-5.35-2.33-5.53-4.55-.27-9.28,0-13.72,1-8.63,1.92-17.08,4.67-25.7,6.62-1.4.32-3.33-1.7-5.01-2.63,1.42-1.08,2.68-2.7,4.27-3.13,5.97-1.61,12.25-2.27,18.03-4.37,5.75-2.09,11.48-4.88,16.38-8.49,4.92-3.63,3.47-9.03-2.53-10.15-4.15-.77-8.64-.54-12.85.1-8.29,1.26-16.46,3.26-24.74,4.58-1.5.24-3.28-1.32-4.93-2.05,1.22-1.33,2.21-3.37,3.71-3.86,4.29-1.39,8.78-2.16,13.19-3.15,5.85-1.32,11.9-2.09,17.49-4.13,3.93-1.43,9.42-4.26,8.11-8.86-.89-3.12-6.16-5.82-10.01-7.12-15.49-5.22-31.1-3.77-46.66.26-2.8.72-5.83.67-8.75.7-.76,0-2.16-1.04-2.15-1.6,0-1,.6-2.47,1.4-2.89,2.2-1.17,4.66-1.84,6.97-2.8,4.78-2,5.86-7.14,1.46-9.7-4.2-2.44-9.28-4.47-14.04-4.63-11.39-.38-22.34,2.24-32.13,8.52-6.32,4.05-12.64,8.11-18.96,12.17-2.35-.48-4.7-.95-7.05-1.43-7.94-2.34-15.88-4.69-23.82-7.03-2.53-.91-5.06-1.82-7.6-2.73-7.39-3.19-14.77-6.37-22.16-9.56-1.72-.91-3.44-1.82-5.15-2.73-7.57-5.11-15.14-10.22-22.71-15.33-2.54-1.99-5.07-3.97-7.61-5.96-6.97-6.09-13.94-12.19-20.91-18.28-1.98-2.02-3.96-4.04-5.94-6.07-5.61-6.69-11.22-13.37-16.83-20.06-1.61-2.09-3.23-4.18-4.84-6.27q-8.24-13.16-5.79-16.27c3.19,3.7,6.34,7.36,9.49,11.01,2.04,2.34,4.08,4.69,6.11,7.03,7.5,8.24,15,16.47,22.5,24.71,2.69,2.37,5.38,4.73,8.07,7.1Zm264.04,240.83c.31.23.61.46.92.68,21.21,11.51,43.82,16.78,67.95,15.29,17.62.03,34.28-4.33,50.16-11.6,7.16-3.27,13.77-7.72,20.79-11.31,1.43-.73,3.58-.06,5.4-.03-.61,1.87-.82,4.04-1.94,5.53-1.03,1.38-2.99,2.13-4.62,2.99-9.19,4.84-18.4,9.63-27.48,14.37,16.94,17.4,60.34,37.65,99.3,46.58,14.64-25.29,23.33-52.55,25.97-81.76,1.87-16.62,1.85-33.21-.78-49.75-1.48-18.21-6.23-35.69-12.56-52.71-3.76-10.12-8.45-19.89-13.03-30.53-3.87,3.59-6.8,6.31-9.74,9.04,1.63,3.22,3.41,6.1,4.55,9.22.56,1.53-.03,3.48-.1,5.24-1.72-.88-3.97-1.34-5.03-2.73-1.64-2.13-2.46-4.88-3.74-7.63-7.25,6.39-14.07,12.37-20.85,18.4-6.07,5.4-8.57,5.05-12-2.38-4.33-9.39-8.31-18.94-12.68-28.97-5.52,1.78-11.35,3.76-17.26,5.49-1.36.4-2.97-.05-4.47-.11.97-1.34,1.66-3.32,2.97-3.91,5.76-2.59,11.7-4.78,17.6-7.13-1.41-5.57-3.13-11.19-4.14-16.93-.36-2.02,1.02-4.34,1.6-6.52,1.01,1.66,2.35,3.21,2.98,5,1.98,5.66,3.69,11.41,5.52,17.14,2.36-.32,4.34-.8,6.31-.76,1.14.02,2.27.9,3.4,1.39-.88,1.09-1.56,2.54-2.69,3.18-1.52.86-3.39,1.09-5.65,1.75,4.24,9.57,8.29,18.7,12.66,28.59,6.79-6.08,12.69-11.56,18.82-16.76,2.96-2.51,5.73-4.59,3.3-9.07-.48-.88.6-2.6.96-3.93,1.11.82,2.29,1.55,3.3,2.48.56.52.83,1.35,1.38,2.31,3.06-2.69,6.03-5.29,9.03-7.93-.63-1.14-1.01-1.87-1.43-2.58-11.36-19.11-25.76-35.69-42.03-50.74-1.76-1.63-3.15-3.68-4.67-5.49-3.37,1.38-7.19,3.16-11.18,4.43-1.01.32-3.59-.91-3.63-1.54-.13-2.03.49-4.15,1.15-6.12.07-.21,2.32.3,2.1.27,3.69-1.33,6.28-2.26,8.87-3.19.21.36.43.72.64,1.08,1.04-2.2,2.09-4.4,3.22-6.79-15.95-.67-18.12.95-21.42,15.84-.42,1.9-.54,3.87-.79,5.8,6.53.97,8.59,3.44,7.51,8.84-.26,1.31-.64,2.6-.96,3.91-4.94,4.28-9.62,8.9-14.88,12.73-5.01,3.65-10.81,5.33-17.2,3.56-3.1-.86-5.22.48-7.25,3.08-9.97,12.77-23.53,16.71-39.06,14.77-8.44-1.05-13.26-8.42-11.04-16.6,1.94-7.13,6.13-12.49,13.6-14.35.76-6-1.68-12.22,2.44-17.53,3.26,14.02,5.78,27.95-2.82,41.16.92.36,1.82.84,2.77,1.05.98.21,2.01.24,3.02.22,10.74-.28,19.68-4.47,26.17-13.01,3.25-4.27,7.09-6.28,12.16-5.18,6.91,1.5,12.36-2.05,18.09-4.65,2.52-1.14,3.51-2.93,2.75-6.1-3.3-13.67.5-25.98,7.7-37.6,1.75-2.82,3.96-3.16,7.06-3.28,5.96-.23,12.2-.38,17.76-2.24,9.89-3.31,13.57-17.85,7.14-25.76-1.6-1.96-4.25-3.34-5.18-5.52-1.88-4.39-4.5-4.82-8.3-2.97-2.4,1.16-4.84,2.24-8.48,3.91,2.03-6.81,6.51-8.57,11.28-10.52-1.5-2.07-2.94-4.07-3.94-5.45-2.75.59-4.84,1.05-6.93,1.5.75-2.11,1.5-4.22,2.44-6.86-.94-.82-2.55-2.23-4.52-3.94-1.15,3.95-1.99,7.49-3.26,10.87-.46,1.22-1.98,2.05-3.02,3.05-.67-1.4-1.56-2.75-1.92-4.22-.21-.86.18-2.09.7-2.89,6.4-9.76.53-14.89-6.82-20.41-19.66-14.76-39.99-28.05-64.25-34.09-2.6-.65-4.34-.73-5.92,1.81-6.73,10.84-13.72,21.51-20.33,32.41-1.96,3.23-3.39,6.24-7.66,7.27-2.94.71-5.48,3.07-8.62,4.94,3.96,2.82,8.05,4.26,9.29,6.99,1.38,3.04.26,7.27.09,10.97-.12,2.55.85,3.76,3.48,3.66,5.72-.22,11.44-.37,17.17-.52,5.89-.15,11.8-.63,17.67-.28,5.84.35,7.2,2.95,5.65,8.53-1.53,5.54-4.92,9.65-9.79,12.33-8.16,4.5-16.51,8.65-25.46,13.3.84,2.19,1.51,5.65,3.34,8.3,3.5,5.07,7.74,9.62,11.5,14.52.74.97.74,2.51,1.08,3.78-1.18-.08-2.56.19-3.51-.32-2.65-1.43-5.12-3.19-7.67-4.81-3.96-2.51-10.45-.68-12.68,3.4-7.88,14.4-15.84,28.76-23.77,43.13-2.63,4.77-5.45,9.51-2.83,15.49,1.13-.92,2.02-1.98,3.15-2.53,9.84-4.73,14.62-3.19,17.44,6.22,2.28,7.62,2.12,15.22-1.66,22.57-2.18,4.24-3.93,8.7-5.7,13.13-.37.92-.14,2.18.1,3.22,1.91,8.34,7.43,14.39,12.96,20.47,12.38,13.62,27.48,19.39,45.8,16.34,12.87-2.14,24.12-8.19,35.26-14.47,4.09-2.31,7.83-5.27,11.97-7.47,1.41-.75,3.58-.06,5.4-.03-.44,1.93-.43,4.18-1.46,5.72-1.06,1.57-3.02,2.69-4.8,3.6-11.5,5.88-22.6,12.96-34.69,17.16-21.78,7.57-42.32,4.41-59.19-12.62-6.13-6.19-11.46-13.16-17.38-20.02-27.19,5.3-51.93,17.65-76.88,31.35,3.25,7.98,5.95,16.31,9.9,24,11.13,21.68,27.38,38.54,49.13,49.86l-.07-.05Zm-442.53-2.78c-2.64,1.65-4.13,2.86-5.84,3.61-13.99,6.15-27.2,13.78-37.23,25.35-7.2,8.3-12.92,17.92-18.91,27.2-6.04,9.36-5.6,10.6,3.63,17.07.55.39,1.12.75,1.69,1.11,24.72,15.94,51.98,23.37,81.2,24.33,5.13.17,9.49-1.31,13.42-4.73,8.77-7.62,18.1-14.63,26.52-22.61,12.59-11.93,24.68-24.35,33.4-39.66,6.17-10.84,6.27-21.52.04-32.02-2.87-4.83-7.09-8.85-10.51-13.38-.99-1.32-1.34-3.12-1.99-4.7,1.81-.1,3.62-.32,5.42-.24.75.04,1.54.65,2.19,1.16,13.07,10.01,22.38,30.7,14.15,48.05-6.25,13.18-15.26,24.18-25.27,34.42-9.14,9.35-18.85,18.14-28.74,27.59,2.63,1.73,5.27,3.75,8.15,5.32,20.45,11.12,42.23,12.75,64.68,8.51,2.63-.5,5.44-2.01,7.38-3.87,8.52-8.13,17.14-16.22,25.01-24.97,14.79-16.42,28.64-33.69,36.55-54.65,5.79-15.35,8.53-31.41,3.19-47.42-5.97-17.9-17.91-31.79-32.54-43.36-1.5-1.19-4.44-1.18-6.58-.85-11.45,1.79-22.78,4.49-34.28,5.69-26.75,2.78-53.46,1.06-80.15-1.75-38.61-4.07-73.86-17.96-107.79-35.94-2.7-1.43-4.79-1.17-5.21,1.96-.68,5.07-1.78,10.36-1.04,15.31,5.27,35.24,22.56,62.12,55.53,77.63,4.16,1.96,8.48,3.56,13.92,5.82Zm166.73-465.28c49.14-8.82,93.82,5.69,138.4,24.38.27-5.57,1.33-10.54.61-15.25-2.75-18.03-12.39-32.12-26.86-42.79-16.01-11.8-34.62-14.77-53.79-13.17-27.7,2.32-49.97,19.41-58.36,46.83Zm275.69,593.08c-1.26.98-2.52,1.9-3.72,2.89-4.88,4.02-10.09,7.71-14.53,12.16-11.76,11.8-4.98,29.81,8.2,34.11,11.06,3.62,22.65,6.26,34.21,7.57,18.67,2.12,36.16-3.63,53.38-10.39,11.94-4.69,20.23-19.87,19.49-34.12-33.72,5.66-66.24,2.28-97.02-12.23Zm-3.44-3.07c-1.53.18-3.16.06-4.57.57-24.44,8.83-48.73,8.64-72.92-1-1.31-.52-3.09-1.11-4.24-.64-11.33,4.59-21.77,10.58-28.91,20.91-6.85,9.91-3.69,17.49,4.57,23.96,3.13,2.45,6.84,4.43,10.59,5.76,24.31,8.61,48.55,6.3,72.86-.56-10.07-22.08-.37-42.2,22.62-49Zm-29.57-217.74c9.8-3.99,20.2-9.54,31.31-12.36,10.31-2.61,16.23-8.48,20.47-17.34,1.38-2.88,2.98-5.64,4.46-8.47,2.64-5.03,3.01-10.33,1.15-15.61-.58-1.65-2.19-3.73-3.67-4.06-1.46-.33-3.74.92-5,2.15-2.02,1.97-3.29,4.7-5.27,6.72-1.98,2.02-4.42,2.37-5.11-1.19-1.17-6.07-1.71-12.27-2.99-18.31-1.93-9.18-4.12-18.31-6.53-27.38-.52-1.95-2.45-3.52-3.73-5.27-.74.11-1.47.22-2.21.33-.93,4.79-2.67,9.59-2.63,14.38.07,9.38,1.26,18.75,1.67,28.13.09,2.16-1.14,4.37-1.77,6.56-1.35-1.64-3.5-3.1-3.91-4.95-1.48-6.68-2.61-13.47-3.43-20.27-.64-5.28-.29-10.68-1.08-15.92-.24-1.59-3.07-4.13-4.28-3.91-1.82.33-4.33,2.54-4.63,4.28-.54,3.14-.11,6.64.71,9.78,1.61,6.16.1,11.09-4.58,15.23-.83.73-1.53,1.6-2.41,2.53,9.75,3.57,15.5,10.3,7.21,20.56,9.16,3.05,12.48,8.86,8.65,15.64-1.2,2.14-3.01,4.1-4.96,5.61-4.23,3.28-8.74,6.22-12.17,8.63,1.59,4.87,3.18,9.73,4.73,14.48Zm-95.22-336.07c-1.42,7.27-2.36,13.92-4.07,20.36-1.75,6.6-4.24,13-6.74,20.5,9.82,1.11,19.73,2.73,29.68,3.18,6.03.27,12.25-1.27,15.36-7.57,3-6.07-.12-10.92-3.69-15.62-7.84-10.32-19.7-14.58-30.55-20.85Zm-302.68,568.12c11.76,4.36,23.62,1.98,35.4.84,4.61-.45,9.12-1.95,13.66-3.08,3.31-.83,4.25-2.97,2.99-6.11-.79-1.98-1.47-4.02-2.39-5.94-3.44-7.17-10.47-10-16.65-13.98-5.28-3.4-10.06-2.64-14.71.66-9.49,6.73-16.28,15.37-18.29,27.61Zm173.03-4.21c-3.93-5.35-7.03-10.34-10.89-14.67-7.58-8.51-10.25-8.94-20.78-4.9-12.28,4.71-23.92,19.67-24.38,31.73,18.84-1.78,37.98-1.73,56.05-12.16Zm-118.88,19.57c1.18.69,2.26,1.71,3.49,1.96,9.16,1.85,18.3,4.64,27.55,5.07,17.42.81,34.95.97,52.35-.05,10.03-.59,20.04-3.51,29.78-6.33,7.56-2.19,8.21-4.58,6.35-11.35-38.12,12.83-76.52,12.73-115.49,4-1.15,1.93-2.52,4.21-4.02,6.71Zm250.82-220.44c6.01,10.49,11.28,19.71,16.8,29.35,12.93-15.15,28.38-23.64,47.22-25.24-.95-3.72-1.8-7.06-2.71-10.67-19.64,5.76-39.4,7.67-61.31,6.56Zm228.55-293.93c.44.57.88,1.13,1.32,1.7,5.37-2.07,10.59-4.73,16.14-6.07,9.1-2.2,18.43-3.44,27.61-5.35,1.22-.25,2.12-2.04,3.18-3.12-1.21-.7-2.43-2.02-3.62-1.99-3.5.1-7.11.31-10.47,1.24-9.47,2.6-18.89,5.39-28.18,8.56-2.29.78-3.99,3.31-5.97,5.04Zm66.59-2.03c.03-.44.05-.89.08-1.33-1.34-.36-2.8-1.25-4.01-.99-14.94,3.3-28.48,9.51-39.74,20.07-1.04.98-.95,3.16-1.39,4.78,1.58-.45,3.36-.58,4.71-1.4,8.4-5.1,16.52-10.69,25.1-15.43,4.7-2.59,10.13-3.84,15.23-5.7Zm13.28,19.3c-1.01,2.21-1.91,3.49-2.17,4.88-1.76,9.35-3.45,18.72-5,28.11-.24,1.47.34,3.07.54,4.62,1.52-.72,3.48-1.07,4.5-2.23,5.57-6.3,7.17-26.46,2.13-35.38Zm-4.92-12.43c-.28-.51-.55-1.03-.83-1.54-1.62.44-3.9.34-4.74,1.39-6.24,7.84-12.32,15.82-18.11,23.99-.76,1.08.34,3.48.58,5.27,1.58-.76,3.72-1.11,4.64-2.35,4.5-6.07,8.68-12.37,12.96-18.6,1.86-2.71,3.67-5.44,5.5-8.16Zm-589.86,459.61c-7.98-1.8-18.56,3.2-24.35,11.62,2.43,1.06,4.81,2.11,6.52,2.86,6.25-5.07,11.94-9.7,17.83-14.48Zm27.09-.94c-3.15-3.01-5.89-5.63-8.47-8.09-3.44,2.16-6.84,4.29-10.21,6.41,5.03,2.24,10.44,4.65,15.95,7.11.94-1.86,1.82-3.62,2.73-5.43Zm95.39,3.77c-2.04-.48-3.94-1.15-5.88-1.32-1.83-.16-4.24-.49-5.46.45-3.79,2.94-7.15,6.46-10.73,9.81,1.21.8,2.97,1.96,3.97,2.62,6.34-4.05,11.95-7.63,18.11-11.57Zm284.41-373.1c4.39.38,8.4.73,12.65,1.09-3.78-7.79-7.09-10.7-10.5-9.26-3.82,1.62-2.79,4.74-2.15,8.17Zm-7.42-.23c-1.25-6.98-4.55-10.63-8.44-9.3-1.4.48-3.17,3.48-2.82,4.82,1.71,6.47,7.35,2.4,11.26,4.48Zm-419,369.16c-6.2-1.27-9.82,3.7-14.67,7.82,2.14,1.21,3.8,2.14,5.46,3.08-.31-.47-.62-.94-.93-1.41,3.39-3.18,6.77-6.35,10.13-9.5Zm-27.07-1.54c3.77,2.95,6.24,4.89,8.85,6.93,1.96-2.21,3.69-4.16,6.16-6.93h-15.01Zm429.79-368.94c-2.11-3.36-3.71-5.9-6.15-9.79-1.95,3.58-3.23,5.92-4.97,9.1,4.2.26,7.01.43,11.11.69Zm98.18,84.62c-6.9,3.83-8.93,8.37-6.41,14.88,2.28-5.3,4.1-9.52,6.41-14.88Zm-121.1-15.61c-.97,4.5-1.94,8.99-3.13,14.49,5.58-2.96,6.99-9.21,3.13-14.49Zm-3.06-9.58c-5.67,2.99-7.97,7.81-6.26,12.85,4.31-3.3,4.54-7.99,6.26-12.85Zm-11.93,18.52c-3.72-3.37-7.29-4.68-12.25-4.28,3.39,4.91,8.01,6.51,12.25,4.28Zm-15.19-11.89c4.69-.55,8.6-1,12.5-1.46-4.18-3.73-9.5-2.96-12.5,1.46Zm40.31,12.36c-1.43,3.11-2.08,4.52-2.81,6.11,2.61,1.21,4.77,2.22,6.93,3.22.43-.37.86-.74,1.28-1.11-1.56-2.37-3.12-4.74-5.41-8.22Z"/>
    <path class="cls-2" d="m887.98,866.25c-9.71,3.32-19.45,6.56-29.1,10.03-1.65.59-2.95,2.18-4.41,3.3-1.68.26-3.36.52-5.04.78,4.04-23.81,7.16-47.68,4.47-71.91,14.64,2.08,28.11,7.37,40.57,15.18,4.19,2.63,5.91,6.75,4.16,11.81-3.56,10.27-7.1,20.54-10.64,30.82Z"/>
    <path class="cls-3" d="m980.76,723.5c-2.64,29.21-11.33,56.47-25.97,81.76-38.96-8.93-82.36-29.18-99.3-46.58,9.08-4.74,18.29-9.53,27.48-14.37,1.63-.86,3.59-1.61,4.62-2.99,1.12-1.49,1.33-3.66,1.94-5.53-1.82-.03-3.97-.7-5.4.03-7.02,3.6-13.63,8.04-20.79,11.31-15.88,7.26-32.54,11.63-50.16,11.6.34-14.98.73-29.96,1.01-44.94.08-4.53-1.58-7.97-6.69-8.44-4.36-.4-8.81-1.31-13.08-.81-15.32,1.77-30.61,3.92-45.87,6.18-4.35.64-6.76,3.51-6.33,8.23.73,7.95,1.44,15.91,2.16,23.87-21.76-11.32-38-28.18-49.13-49.86-3.95-7.69-6.65-16.02-9.9-24,24.95-13.71,49.69-26.06,76.88-31.35,5.92,6.87,11.25,13.84,17.38,20.02,16.87,17.03,37.42,20.18,59.19,12.62,12.09-4.2,23.19-11.28,34.69-17.16,1.78-.91,3.74-2.03,4.8-3.6,1.03-1.54,1.01-3.78,1.46-5.72-1.82-.03-3.99-.72-5.4.03-4.15,2.2-7.88,5.16-11.97,7.47-11.14,6.29-22.4,12.33-35.26,14.47-18.32,3.05-33.42-2.72-45.8-16.34-5.53-6.09-11.06-12.13-12.96-20.47-.24-1.04-.47-2.3-.1-3.22,1.77-4.43,3.53-8.89,5.7-13.13,3.77-7.35,3.94-14.95,1.66-22.57-2.82-9.42-7.6-10.96-17.44-6.22-1.13.55-2.02,1.6-3.15,2.53-2.62-5.99.2-10.72,2.83-15.49,7.93-14.37,15.89-28.73,23.77-43.13,2.23-4.08,8.73-5.91,12.68-3.4,2.55,1.62,5.02,3.38,7.67,4.81.95.51,2.33.24,3.51.32-.34-1.28-.33-2.82-1.08-3.78-3.77-4.9-8-9.45-11.5-14.52-1.83-2.65-2.49-6.11-3.34-8.3,8.95-4.65,17.3-8.8,25.46-13.3,4.87-2.68,8.26-6.79,9.79-12.33,1.54-5.58.19-8.18-5.65-8.53-5.86-.35-11.78.13-17.67.28-5.72.15-11.45.3-17.17.52-2.64.1-3.6-1.11-3.48-3.66.17-3.7,1.29-7.92-.09-10.97-1.24-2.73-5.32-4.17-9.29-6.99,3.14-1.87,5.68-4.22,8.62-4.94,4.27-1.04,5.7-4.04,7.66-7.27,6.61-10.9,13.61-21.58,20.33-32.41,1.58-2.54,3.31-2.46,5.92-1.81,24.27,6.04,44.59,19.33,64.25,34.09,7.35,5.52,13.23,10.65,6.82,20.41-.52.8-.91,2.02-.7,2.89.36,1.48,1.25,2.82,1.92,4.22,1.04-1.01,2.55-1.83,3.02-3.05,1.28-3.38,2.12-6.93,3.26-10.87,1.96,1.71,3.58,3.12,4.52,3.94-.94,2.65-1.69,4.75-2.44,6.86,2.09-.45,4.18-.9,6.93-1.5,1,1.38,2.44,3.38,3.94,5.45-4.77,1.95-9.26,3.71-11.28,10.52,3.64-1.67,6.08-2.74,8.48-3.91,3.81-1.85,6.42-1.42,8.3,2.97.93,2.18,3.58,3.55,5.18,5.52,6.43,7.9,2.74,22.44-7.14,25.76-5.56,1.86-11.8,2.01-17.76,2.24-3.1.12-5.32.46-7.06,3.28-7.19,11.62-11,23.94-7.7,37.6.77,3.17-.23,4.96-2.75,6.1-5.73,2.61-11.18,6.16-18.09,4.65-5.07-1.1-8.91.91-12.16,5.18-6.5,8.54-15.43,12.73-26.17,13.01-1.01.03-2.04,0-3.02-.22-.95-.21-1.84-.69-2.77-1.05,8.6-13.21,6.08-27.14,2.82-41.16-4.11,5.31-1.68,11.52-2.44,17.53-7.47,1.85-11.66,7.22-13.6,14.35-2.23,8.18,2.6,15.55,11.04,16.6,15.53,1.94,29.09-2,39.06-14.77,2.03-2.6,4.15-3.94,7.25-3.08,6.39,1.77,12.19.09,17.2-3.56,5.26-3.84,9.94-8.46,14.88-12.73,1.1,4.3,2.21,8.61,3.31,12.91-.58,2.18-1.96,4.51-1.6,6.52,1.01,5.74,2.73,11.36,4.14,16.93-5.91,2.35-11.85,4.54-17.6,7.13-1.31.59-2,2.57-2.97,3.91,1.5.06,3.11.51,4.47.11,5.91-1.73,11.74-3.71,17.26-5.49,4.37,10.03,8.36,19.58,12.68,28.97,3.43,7.44,5.93,7.79,12,2.38,6.78-6.03,13.6-12.01,20.85-18.4,1.29,2.75,2.11,5.5,3.74,7.63,1.06,1.38,3.31,1.85,5.03,2.73.07-1.76.66-3.71.1-5.24-1.15-3.12-2.92-6-4.55-9.22,2.94-2.73,5.87-5.44,9.74-9.04,4.58,10.63,9.27,20.41,13.03,30.53,6.33,17.02,11.08,34.49,12.56,52.71-12.05-2.52-24.1-5.05-36.14-7.57-1.52.93-3.42,1.56-4.47,2.87-1.62,2-2.65,4.46-3.53,6.02-5.19-1.14-9.7-2.25-14.27-3.05-.86-.15-1.93.92-2.91,1.43.82.88,1.48,2.14,2.49,2.57,3.79,1.6,7.69,2.92,11.92,4.49-1.58,2.95-3.14,5.17-4,7.62-1.48,4.2-4.26,5.17-8.45,5.04-3.44-.11-6.96.8-10.34,1.66-.86.22-1.33,1.95-1.98,2.98,1.06.35,2.13,1.02,3.18.98,3.96-.14,7.91-.51,12.29-.82-.32,1.45-.37,2.3-.69,3.02-3.9,8.72-7.89,17.4-11.77,26.13-2.17,4.88-.72,7.13,4.53,6.79,6.14-.39,12.26-1.13,17.08-1.6,1.2,2.88,2.14,5.15,3.09,7.42,1.28-2.02,2.48-4.09,3.86-6.04.77-1.09,1.68-2.51,2.8-2.84,2.52-.74,5.22-.89,8.4-1.36,0,3.46-.29,6.68.14,9.8.17,1.24,1.93,2.26,2.97,3.38.62-1.23,1.72-2.44,1.76-3.69.12-3.79-.16-7.59-.29-11.39,8.38-1.36,16.76-2.72,25.14-4.08Zm-166.65-299.84c-11.51.48-18.52,7.3-18.15,17.66.39,11.01,9.25,18.82,20.89,18.42,9.85-.34,17.17-8.35,16.7-18.29-.47-9.93-9.51-18.21-19.44-17.79Zm19.09,109.3c12.65-2.49,23.49-7.02,32.57-15.17,1.08-.97.86-3.4,1.24-5.16-1.65.2-3.75-.18-4.88.69-8.73,6.76-18.32,11.65-29.02,14.44-1.54.4-2.83,1.79-4.24,2.72,1.54.88,3.07,1.76,4.32,2.47Zm75.18-45.44c.16-.48.32-.96.48-1.45-1.73-.43-3.72-1.62-5.14-1.14-3.57,1.21-7.31,2.67-10.12,5.04-1.42,1.2-1.41,4.64-1.13,6.96.07.61,3.9,1.63,5.43,1.02,3.49-1.4,2.49-4.13.83-6.62-.1-.15.19-.57.51-1.45,2.82-.73,5.99-1.55,9.15-2.36Zm-83.16-73.69c-.31.16-1.6.52-1.6.87,0,1.04.21,2.43.9,3.06,4.24,3.82,8.59,7.51,13.02,11.1.72.59,2.41.98,2.93.56.69-.56,1.07-2.07.89-3.04-.71-3.77-11.81-12.52-16.13-12.55Zm69.52,50.09c-.72-.26-1.45-.51-2.17-.77-3.96,4.6-6.81,9.82-7.57,16.08-.09.73.71,2.03,1.38,2.27.66.23,2.23-.34,2.45-.93,2.09-5.51,3.97-11.09,5.91-16.65Zm-82.9,47.76c-2.37,4.38-1.12,9.64,2.27,11.34.71.36,2.15.37,2.57-.08.48-.52.56-1.93.19-2.63-1.44-2.77-3.12-5.42-5.03-8.63Zm-2.39,11.46c-2.45-4-4.29-7.08-6.31-10.05-.09-.13-2.44.66-2.58,1.27-.68,3.12,3.47,7.87,8.88,8.78Z"/>
    <path class="cls-4" d="m301.77,739.98c-5.43-2.26-9.76-3.86-13.92-5.82-32.96-15.52-50.25-42.39-55.53-77.63-.74-4.95.36-10.24,1.04-15.31.42-3.14,2.51-3.39,5.21-1.96,33.92,17.98,69.17,31.87,107.79,35.94,26.69,2.81,53.4,4.54,80.15,1.75,11.5-1.2,22.83-3.9,34.28-5.69,2.14-.33,5.08-.34,6.58.85,14.63,11.57,26.57,25.46,32.54,43.36,5.34,16.01,2.61,32.07-3.19,47.42-7.92,20.97-21.76,38.23-36.55,54.65-7.88,8.74-16.49,16.83-25.01,24.97-1.95,1.86-4.75,3.37-7.38,3.87-22.45,4.24-44.23,2.61-64.68-8.51-2.88-1.57-5.52-3.59-8.15-5.32,9.89-9.45,19.6-18.23,28.74-27.59,10.01-10.24,19.02-21.25,25.27-34.42,8.23-17.36-1.08-38.04-14.15-48.05-.66-.5-1.44-1.12-2.19-1.16-1.8-.09-3.61.14-5.42.24.65,1.58,1,3.38,1.99,4.7,3.42,4.53,7.65,8.54,10.51,13.38,6.22,10.5,6.13,21.19-.04,32.02-8.72,15.31-20.81,27.73-33.4,39.66-8.42,7.98-17.75,15-26.52,22.61-3.93,3.41-8.29,4.89-13.42,4.73-29.22-.96-56.48-8.39-81.2-24.33-.57-.37-1.14-.73-1.69-1.11-9.22-6.47-9.67-7.71-3.63-17.07,5.99-9.28,11.71-18.9,18.91-27.2,10.04-11.57,23.24-19.2,37.23-25.35,1.7-.75,3.2-1.96,5.84-3.61Z"/>
    <path class="cls-4" d="m887.98,866.25c3.55-10.27,7.08-20.55,10.64-30.82,1.76-5.06.03-9.18-4.16-11.81-12.46-7.81-25.93-13.1-40.57-15.18-.72-3.96-1.37-7.94-2.21-11.87-.17-.81-1.04-1.47-1.59-2.21-.77.73-2.08,1.38-2.2,2.21-.31,2.14-.27,4.37-.06,6.54,2.06,21.82-.09,43.4-3.7,64.88-.27,1.61-2.26,3.68-3.87,4.19-12.59,3.94-25.6,3.67-38.56,3.01-17.41-.88-34.28-4.42-50.43-11.15-5-2.08-8.95-4.44-10.04-10.81-1.73-10.06-5.52-19.78-7.01-29.86-2.62-17.84-1.97-35.56,6.13-52.29.49-1.01.21-2.39.28-3.6-1.48.33-3.9.23-4.28,1.06-2.93,6.32-6.44,12.61-7.93,19.31-4.93,22.16-1.38,43.79,5.79,64.99.53,1.56,1.36,3.02,2.21,4.87-22.35,8.04-44.46,8.73-67.26,1.79-13.09-3.98-20.84-12.33-26.86-23.78-6.83-12.99-12.58-26.31-15.82-40.79,8.86-4,17.55-7.92,26.54-11.97.55,1.98.74,3.84,1.59,5.31.55.96,2.07,1.37,3.15,2.02.55-1.07,1.82-2.4,1.54-3.16-2.24-6.03,1.64-7.61,6.09-9.07,3.34-1.1,6.51-2.82,9.91-3.65,5.09-1.24,7.15-4.38,7.41-9.34.13-2.51.76-4.99,1.24-7.98,3.09,1.18,5.95,2.73,8.98,3.25,1.86.32,3.99-.95,6-1.51-1.24-1.44-2.2-3.39-3.77-4.22-2.93-1.55-6.2-2.46-9.73-3.79.86-4.39,1.68-8.59,2.59-13.24,4.16.58,8.09,1.38,12.05,1.56,1.56.07,3.19-1.22,4.79-1.89-1.33-1.24-2.46-3.13-4.02-3.6-3.49-1.05-7.19-1.41-11.15-2.1.35-3.31.67-6.43,1-9.54,1.73-4.98,3.46-9.96,5.19-14.94,18.73,27.6,44.31,45.67,76.46,54.17,24.42,6.46,48.96,6.06,73.4-.44,1.31-.35,3.55-.2,4.26.64,9.34,10.99,21.42,18.26,33.79,25.1,20.76,11.46,43.03,19.09,66.98,25.67-4.85,6.15-9.15,12.06-13.93,17.55-13.63,15.68-29.53,28.39-48.87,36.45Z"/>
    <path class="cls-3" d="m353.53,382.92c11.67-3.96,23.35-7.91,35.02-11.87.82,1.4,2.04,2.7,2.41,4.21,5.16,20.99,16.47,37.93,33.62,50.94,1.48,1.12,4.18.64,6.31.9-.42-2.23-.14-5.04-1.41-6.57-3.5-4.21-7.91-7.66-11.47-11.82-9.94-11.62-16.89-24.89-20.86-39.69,9.79-1.44,19.59-2.87,29.38-4.31.13,1.67.03,3.41.44,5.01,2.93,11.45,8.32,21.7,16.63,30.04,4.32,4.34,9.63,7.79,14.85,11.07,1.42.89,4.13-.28,6.25-.51-.75-1.87-1.07-4.11-2.34-5.51-1.88-2.07-4.53-3.43-6.68-5.28-11.22-9.65-19.58-21.17-23.17-35.77,5.31-.78,10.66-1.38,15.94-2.36,15.18-2.82,20.72-15.07,23.6-26.99.38-1.59-1.28-4.6-2.85-5.58-11.19-7.04-12.84-13.37-7.36-26.56,1.85-4.45,4.97-7.9,9.67-7.47,4.73.43,9.01,3.45,10.57,8.25,1.35,4.16,1.57,8.69,2.53,14.48,5.58-9.88,10.73-18.99,16.18-28.64,11.98,6.13,23.25,12.01,34.65,17.63,2.36,1.16,5.21,1.33,7.83,1.96.3-2.64.61-5.28.89-7.93.07-.65.01-1.32.01-3.9,12.74,8.56,24.62,16.32,36.21,24.48,4.31,3.04,4.98,3.34,7.57-1.16,8,6.1,11.06,14.78,12.63,24.16.21,1.24-.7,2.83-1.46,4.03-4.31,6.79-8.93,13.4-12.98,20.34-1.03,1.76-.79,4.58-.4,6.79.66,3.74,2.39,7.33,2.76,11.07.33,3.34-1.86,4.98-5.3,3.57-2.8-1.15-5.65-2.27-8.21-3.84-3.09-1.9-4.66-.88-6.54,1.84-9.72,13.98-22.54,22.99-40.16,22.87-12.41-.08-21.73-7.18-30.15-15.38-4.07-3.97-7.5-8.58-11.33-12.8-.99-1.09-2.38-1.8-3.59-2.69-.39.26-.78.52-1.17.77.42,1.84.35,4.02,1.34,5.46,3.97,5.78,8.27,11.33,12.47,16.95.87,1.17,1.86,2.25,2.8,3.37-3.5,1.49-7.29,2.53-10.45,4.56-20.07,12.85-36.84,28.63-44.62,52.06-3.15-3.65-6.3-7.31-9.49-11.01q-2.45,3.11,5.79,16.27c-4.65,3.5-9.84,6.48-13.85,10.59-14.97,15.35-25.7,33.38-32.2,53.86-7.66-15.36-13.33-31.38-16.2-48.34,13.23-14.99,26.76-29.43,48.85-30.29,1.43-.06,2.76-2.63,4.13-4.04-1.33-1.28-2.53-3.41-4.03-3.65-2.91-.47-6.09-.32-8.98.35-19.78,4.58-33.74,16.45-42.57,34.58-6.13-.3-4.46,3.97-4.3,7.34-5.34-.39-10.77-.28-16-1.26-18.78-3.51-35.73-11.36-50.92-22.9-7.85-5.97-15.45-12.26-23.16-18.41,7.14-8.64,14.21-17.33,21.47-25.87,2.04-2.4,4.62-4.34,6.95-6.49.88.67,2.17,1.16,2.58,2.05,5.15,11.28,13.55,19.96,22.33,28.37,10.06,9.64,22.21,15.62,35.2,19.98,2.64.89,6.75,2.58,8.24-1.55.35-.97-3.14-4.09-5.38-5.12-20.71-9.51-38.32-22.72-51.3-41.72-1.75-2.56-3.98-4.79-5.99-7.17,10.63-7.41,21.25-14.82,31.88-22.22.98,3.52,1.56,7.21,3,10.53,6.98,16.13,19.3,28.11,31.78,39.87,2.89,2.72,6.4,4.93,9.95,6.74,1.34.68,3.6-.42,5.43-.71-.55-1.43-1-2.91-1.69-4.27-.36-.71-1.17-1.19-1.74-1.81-8.52-9.2-17.4-18.09-25.42-27.71-6.41-7.69-12.2-16.03-14.44-26.17Zm191.53-34.54c-.04,11.82,9.42,20.86,21.9,20.91,10.93.05,20.46-9.57,20.59-20.78.13-11.38-9.19-20.48-21.07-20.58-11.3-.1-21.38,9.53-21.42,20.44Zm-22.77,10.92c-.54-.15-1.08-.3-1.62-.45-.95,2.9-2.88,5.87-2.69,8.7.96,14.34,9.59,23.8,21.16,31.03,2.47,1.54,5.55,1.85,6.73-1.32.39-1.05-1.89-3.71-3.52-4.8-8.11-5.46-14.89-11.92-17.57-21.68-1.04-3.77-1.68-7.65-2.5-11.48Zm-47.16-55.81c-1.19-.39-2.01-.97-2.61-.8-4.27,1.21-9.03,11.82-6.74,15.65,1.08,1.82,3.38,3.99,5.14,4.01,1.66.01,4.3-2.36,4.75-4.13.51-1.98-.77-4.55-1.68-6.68-.32-.75-1.87-.97-3.09-1.55,1.38-2.11,2.65-4.05,4.24-6.5Z"/>
    <path class="cls-3" d="m584.51,563.78c6.32-4.06,12.64-8.12,18.96-12.17,9.8-6.28,20.74-8.89,32.13-8.52,4.76.16,9.84,2.18,14.04,4.63,4.4,2.56,3.32,7.7-1.46,9.7-2.31.97-4.77,1.64-6.97,2.8-.8.42-1.39,1.89-1.4,2.89,0,.56,1.39,1.6,2.15,1.6,2.92-.03,5.95.03,8.75-.7,15.56-4.03,31.18-5.48,46.66-.26,3.85,1.3,9.12,4,10.01,7.12,1.32,4.6-4.18,7.43-8.11,8.86-5.59,2.03-11.64,2.8-17.49,4.13-4.41,1-8.9,1.76-13.19,3.15-1.5.49-2.49,2.53-3.71,3.86,1.65.73,3.43,2.29,4.93,2.05,8.28-1.32,16.45-3.33,24.74-4.58,4.21-.64,8.71-.87,12.85-.1,6,1.11,7.46,6.52,2.53,10.15-4.9,3.61-10.63,6.4-16.38,8.49-5.77,2.1-12.05,2.76-18.03,4.37-1.59.43-2.86,2.05-4.27,3.13,1.68.94,3.61,2.95,5.01,2.63,8.62-1.95,17.07-4.7,25.7-6.62,4.44-.99,9.17-1.27,13.72-1,2.87.17,4.14,2.41,2.33,5.53-3,5.17-8.24,6.8-13.32,8.3-9.3,2.74-18.78,4.86-28.12,7.47-1.25.35-2.11,2.08-3.16,3.17,1.22.89,2.5,2.6,3.66,2.52,3.3-.22,6.64-.89,9.8-1.9,4.6-1.48,8.63-.17,12.44,2.03,5.53,3.21,6.4,7.74,1.56,11.77-4.56,3.8-9.73,7.42-15.24,9.44-27.47,10.06-55.91,10.9-84.65,7.63-3.49-.4-6.97-1-10.45-1.51-.62-2.92-.78-6.05-1.95-8.74-9.84-22.76-11.13-46.39-7.52-70.55,1.04-6.94,2.26-13.84,3.41-20.77Z"/>
    <path class="cls-3" d="m221.79,588c2.84-10.81,5.67-21.63,8.51-32.44,1.5.99,3.09,1.86,4.47,2.98,3.9,3.16,7.52,6.71,11.6,9.61,20.72,14.7,44.41,22.76,68.45,29.75,21.38,6.22,43.25,10.73,65.49,12.08,18.89,1.15,38.01,1.56,55.83-7.02,7.88,6.61,15.78,13.19,23.59,19.89.99.85,1.43,2.34,2.12,3.54-1.43.33-2.93.52-4.29,1.03-4.38,1.64-8.59,3.89-13.08,5.01-17.15,4.29-34.61,5.63-52.23,4.09-18.82-1.65-37.77-2.51-56.4-5.42-23.85-3.72-47.25-9.91-69.73-18.96-13.56-5.46-27.05-11.15-37.49-22.1-1.42-1.49-4.51-1.39-6.82-2.02Z"/>
    <path class="cls-3" d="m461.88,636.52c.95,8.84,1.91,17.69,2.96,27.47-10.48,1.58-21.15,3.56-31.91,4.73-41.21,4.5-81.96,1.29-122.26-8.09-18.25-4.25-35.16-12.12-51.91-20.25-12.21-5.92-24.15-12.41-36.28-18.51-3.99-2.01-5.67-4.42-4.53-9.2,1.39-5.85,1.79-11.94,2.61-17.93,1.17.85,2.42,1.62,3.5,2.58,3.14,2.78,6.03,5.88,9.36,8.4,12.9,9.74,27.63,15.89,42.84,20.86,40.62,13.28,82.25,20.25,125.07,20.11,20.8-.07,41.22-1.71,60.56-10.18Z"/>
    <path class="cls-2" d="m468.51,274.7c8.39-27.42,30.66-44.51,58.36-46.83,19.18-1.6,37.79,1.37,53.79,13.17,14.47,10.67,24.11,24.76,26.86,42.79.72,4.7-.33,9.68-.61,15.25-44.58-18.69-89.27-33.2-138.4-24.38Z"/>
    <path class="cls-3" d="m405.28,567.71c7.19,8.61,14.38,17.23,21.57,25.84-1.14.84-2.19,2.2-3.45,2.42-6.73,1.19-13.52,2.92-20.28,2.92-12.03-.01-24.1-.75-36.09-1.88-22.4-2.12-44.24-7.12-65.58-14.2-22.85-7.59-45.09-16.47-64.36-31.42-1.54-1.2-3.38-2.01-5.08-3.01,2.95-9.54,5.89-19.09,8.84-28.63,4.25,4.31,8.03,9.24,12.83,12.81,16.76,12.47,35.77,20.61,55.52,26.97,16.29,5.25,32.93,9.02,50.1,10.33,15.44,1.18,30.83,2.28,45.99-2.16Z"/>
    <path class="cls-3" d="m744.2,867.78c30.78,14.5,63.3,17.89,97.02,12.23.75,14.25-7.55,29.43-19.49,34.12-17.21,6.76-34.71,12.51-53.38,10.39-11.56-1.31-23.15-3.95-34.21-7.57-13.17-4.31-19.95-22.31-8.2-34.11,4.44-4.46,9.66-8.14,14.53-12.16,1.2-.99,2.46-1.92,3.72-2.89Z"/>
    <path class="cls-2" d="m695.88,707.11c-1.73,4.98-3.46,9.96-5.19,14.94-3.64-2.12-4.56.58-4.97,3.13-.8,5.08-3.04,7.08-8.38,5.63-2.64-.72-5.63-.12-9.69-.12,3.15,7.14,10.04,3.71,14.16,7.22-.76,3.17-1.64,6.85-2.32,9.69-2.64.57-4.6,1-6.56,1.42,1.32,2.02,2.64,4.04,4.64,7.09-.07-1.09-.04-.75-.03-.42.75,13.05-8.54,16-18.94,18.2-.56-1.69-1.2-3.65-1.84-5.62-.49-.15-.99-.3-1.48-.46-.64,1.88-1.1,3.85-1.97,5.61-.76,1.54-1.65,3.48-3.02,4.18-8.04,4.1-16.24,7.89-24.8,11.99-2.67-11.9-2.15-23.5-1.16-34.96,1.46-16.85,6.8-32.67,16.66-46.48,9.63-13.49,22.94-21.38,39.73-22.91,2.74-.25,4.32.53,5.54,3.06,3.06,6.33,6.39,12.54,9.61,18.8Z"/>
    <path class="cls-3" d="m243.41,513.94c4.3-9.43,8.59-18.87,12.89-28.3,3.15,3.41,5.95,7.25,9.52,10.14,14.9,12.05,32.07,20.09,49.95,26.49,22.7,8.13,45.69,15.17,70.33,13.04,4.47,7.95,8.94,15.91,13.41,23.86-4.66.81-9.33,2.35-13.98,2.29-8.34-.11-16.66-1.21-24.99-1.83-18.48-1.38-36.29-5.93-53.85-11.52-23.22-7.39-44.52-18.47-63.28-34.17Z"/>
    <path class="cls-3" d="m740.76,864.71c-22.99,6.8-32.68,26.92-22.62,49-24.31,6.86-48.55,9.17-72.86.56-3.75-1.33-7.46-3.31-10.59-5.76-8.26-6.47-11.42-14.05-4.57-23.96,7.14-10.33,17.58-16.32,28.91-20.91,1.15-.46,2.92.12,4.24.64,24.19,9.64,48.48,9.83,72.92,1,1.41-.51,3.04-.39,4.57-.57Z"/>
    <path class="cls-3" d="m372.4,496.79c3.02,9.25,6.04,18.5,9.06,27.74-1.13.54-2.27,1.57-3.37,1.54-3.83-.11-7.68-.39-11.47-.97-27.54-4.2-53.93-12.21-78.3-25.76-10.13-5.64-19.2-13.19-28.75-19.88,5.64-9.1,11.28-18.2,16.91-27.3,4.07,3.72,7.94,7.71,12.26,11.11,12.93,10.2,26.9,18.78,42.12,25.11,13.24,5.51,26.53,11.35,41.53,8.4Z"/>
    <path class="cls-2" d="m744.38,742.82c-.72-7.96-1.42-15.91-2.16-23.87-.43-4.72,1.97-7.58,6.33-8.23,15.26-2.26,30.54-4.41,45.87-6.18,4.27-.49,8.72.42,13.08.81,5.11.46,6.77,3.91,6.69,8.44-.28,14.98-.66,29.96-1.01,44.94-24.13,1.48-46.74-3.78-67.95-15.29-.31-.23-.61-.46-.92-.68l.07.05Z"/>
    <path class="cls-3" d="m608.61,474.16c6.78-4.26,13.38-8.84,20.37-12.71,8.64-4.78,17.95-6.57,27.68-3.56,7.23,2.24,8.66,6.87,2.78,11.52-6.23,4.93-13.5,8.55-20.36,12.66-2.67,1.6-7.73,1.79-5.7,6.47,1.79,4.12,5.53,1.55,8.33.35,4.15-1.78,8.19-3.84,12.31-5.7,1.58-.71,3.25-1.21,6.31-2.32-1.46,2.44-2,3.59-2.76,4.56-12.66,16.15-25.16,32.43-38.2,48.27-2.54,3.09-7.21,4.41-10.88,6.58-6.61,3.93-13.21,7.88-19.81,11.83.29-3.14.23-6.36.91-9.42,3.79-17.05,7.48-34.13,11.8-51.04,1.55-6.05,4.76-11.68,7.21-17.5Z"/>
    <path class="cls-3" d="m500.35,639.18c-12.12-7.57-24.24-15.15-36.36-22.72.67-3.27,1.57-6.5,1.98-9.8,3.17-25.76,11.89-49.71,23.62-72.66,1.66-3.25,4.26-6.03,6.42-9.02l22.71,15.33c-1.7,3.61-3.49,7.17-5.08,10.83-6.37,14.71-9.95,30.2-11.98,46-1.28,9.94-1.64,20.02-2.09,30.05-.18,3.98.49,7.99.78,11.99Z"/>
    <path class="cls-4" d="m891.11,561.59c-1.1-4.3-2.21-8.61-3.31-12.91.32-1.3.7-2.59.96-3.91,1.08-5.4-.98-7.87-7.51-8.84.26-1.93.37-3.9.79-5.8,3.3-14.89,5.47-16.51,21.42-15.84-1.13,2.38-2.17,4.59-3.22,6.79-.21-.36-.43-.72-.64-1.08-2.59.93-5.18,1.86-8.87,3.19.23.03-2.02-.49-2.1-.27-.66,1.97-1.28,4.09-1.15,6.12.04.63,2.62,1.86,3.63,1.54,3.99-1.27,7.81-3.05,11.18-4.43,1.52,1.81,2.91,3.86,4.67,5.49,16.27,15.05,30.67,31.63,42.03,50.74.42.71.8,1.44,1.43,2.58-3,2.64-5.97,5.24-9.03,7.93-.55-.95-.82-1.79-1.38-2.31-1.01-.93-2.19-1.66-3.3-2.48-.36,1.33-1.43,3.05-.96,3.93,2.42,4.48-.34,6.57-3.3,9.07-6.13,5.2-12.02,10.68-18.82,16.76-4.38-9.88-8.42-19.01-12.66-28.59,2.26-.66,4.13-.89,5.65-1.75,1.13-.64,1.81-2.09,2.69-3.18-1.13-.49-2.26-1.37-3.4-1.39-1.97-.04-3.95.45-6.31.76-1.82-5.73-3.54-11.48-5.52-17.14-.63-1.79-1.96-3.34-2.98-5Z"/>
    <path class="cls-3" d="m711.19,646.97c-1.55-4.75-3.14-9.61-4.73-14.48,3.44-2.41,7.94-5.35,12.17-8.63,1.95-1.51,3.75-3.48,4.96-5.61,3.82-6.78.51-12.59-8.65-15.64,8.29-10.26,2.54-16.99-7.21-20.56.88-.93,1.58-1.8,2.41-2.53,4.68-4.14,6.19-9.07,4.58-15.23-.82-3.14-1.25-6.64-.71-9.78.3-1.74,2.81-3.95,4.63-4.28,1.22-.22,4.04,2.32,4.28,3.91.79,5.24.44,10.65,1.08,15.92.82,6.8,1.95,13.58,3.43,20.27.41,1.85,2.56,3.31,3.91,4.95.63-2.19,1.86-4.4,1.77-6.56-.4-9.39-1.6-18.75-1.67-28.13-.04-4.79,1.7-9.59,2.63-14.38.74-.11,1.47-.22,2.21-.33,1.28,1.75,3.21,3.32,3.73,5.27,2.41,9.07,4.6,18.2,6.53,27.38,1.27,6.05,1.82,12.24,2.99,18.31.69,3.56,3.12,3.21,5.11,1.19,1.98-2.02,3.25-4.76,5.27-6.72,1.26-1.23,3.53-2.48,5-2.15,1.49.33,3.09,2.41,3.67,4.06,1.86,5.28,1.48,10.57-1.15,15.61-1.48,2.83-3.09,5.59-4.46,8.47-4.24,8.85-10.16,14.72-20.47,17.34-11.1,2.81-21.51,8.37-31.31,12.36Z"/>
    <path class="cls-3" d="m456.84,610.89c-9.76-9.62-19.53-19.23-29.29-28.85.33-.77.8-1.52.96-2.33,3.54-18.34,10.73-35.41,19.67-51.58,5.37-9.72,12.8-18.31,19.31-27.4,6.97,6.09,13.94,12.19,20.91,18.28-1.02,1.89-2.05,3.78-3.07,5.67-4.38,8.07-9.27,15.91-13.04,24.25-8.89,19.67-13.45,40.52-15.45,61.96Z"/>
    <path class="cls-2" d="m980.76,723.5c-8.38,1.36-16.76,2.72-25.14,4.08,1.79-5.2-1.75-9.19-2.24-13.87-.56.02-1.12.04-1.68.06-.45,3-.91,6-1.41,9.35-2.64.35-5.39.72-8.27,1.11-.21-3.1-.41-5.92-.6-8.73-.58-.09-1.17-.19-1.75-.28-.71,1.86-1.24,3.82-2.19,5.56-.87,1.61-1.98,4-3.35,4.28-4.81.98-9.77,1.2-15.71,1.82,6.43-15.23,12.42-29.42,18.53-43.89,1.63,1.2,2.6,2.33,3.81,2.7,1.41.44,3.03.22,4.55.28-.36-1.5-.34-3.27-1.16-4.44-1.13-1.59-2.9-2.73-4.23-3.91,1.35-3.95,2.63-7.69,3.91-11.44,12.05,2.52,24.1,5.05,36.14,7.57,2.63,16.55,2.65,33.13.78,49.75Z"/>
    <path class="cls-3" d="m523.88,543.04c7.39,3.19,14.77,6.37,22.16,9.56-.41,1.78-.68,3.61-1.26,5.34-5.17,15.66-7.4,31.76-7.91,48.21-.51,16.3,1.19,32.35,4.39,48.29-10.55-3.63-21.09-7.26-31.64-10.89.33-12.09-.04-24.25,1.18-36.24,1.39-13.6,3.88-27.12,6.51-40.55,1.57-8.02,4.34-15.81,6.57-23.71Z"/>
    <path class="cls-3" d="m444.73,474.61c5.61,6.69,11.22,13.37,16.83,20.06-1.78,1.5-3.85,2.77-5.3,4.55-17.2,21.02-28.73,44.73-33.76,71.52-.21,1.13-1.39,2.08-2.11,3.12-9.32-10.42-17.18-21.82-23.18-34.47,1.18-1.63,2.82-3.1,3.48-4.93,7.08-19.7,18.1-36.94,32.74-51.8,3.2-3.25,7.51-5.4,11.31-8.05Z"/>
    <path class="cls-3" d="m553.63,555.33c7.94,2.34,15.88,4.69,23.82,7.03-.31,1.8-.59,3.61-.94,5.41-2.05,10.65-5.13,21.22-5.95,31.96-1.52,19.89.46,39.53,8.83,58.06.66,1.47.71,3.22,1.04,4.84-10.11-1.97-20.23-3.94-30.34-5.91-1.34-10.58-3.48-21.14-3.85-31.75-.64-18.39-1.2-36.9,3.02-55.05,1.15-4.93,2.89-9.73,4.37-14.58Z"/>
    <path class="cls-4" d="m461.88,636.52c-19.33,8.46-39.75,10.11-60.56,10.18-42.82.14-84.45-6.83-125.07-20.11-15.21-4.97-29.94-11.12-42.84-20.86-3.33-2.52-6.22-5.63-9.36-8.4-1.08-.95-2.33-1.72-3.5-2.58.41-2.25.82-4.5,1.23-6.75,2.31.64,5.4.53,6.82,2.02,10.45,10.95,23.93,16.64,37.49,22.1,22.48,9.05,45.87,15.24,69.73,18.96,18.63,2.91,37.58,3.77,56.4,5.42,17.63,1.55,35.08.21,52.23-4.09,4.5-1.13,8.71-3.38,13.08-5.01,1.37-.51,2.86-.69,4.29-1.03.01,3.38.03,6.76.04,10.14Z"/>
    <path class="cls-3" d="m574.97,471.3c7.9,1.13,15.79,2.26,23.69,3.39-1.87,3.74-4.12,7.34-5.55,11.24-8.17,22.16-13.72,44.86-13.66,68.67-11.13-3.47-22.25-6.94-33.38-10.42.45-4.49.51-9.06,1.42-13.46,3.16-15.29,9.37-29.46,16.91-43.02,3.15-5.68,7.04-10.95,10.59-16.4Z"/>
    <path class="cls-4" d="m232.01,548.38c1.7.99,3.54,1.81,5.08,3.01,19.27,14.95,41.51,23.83,64.36,31.42,21.34,7.08,43.18,12.08,65.58,14.2,11.99,1.13,24.06,1.87,36.09,1.88,6.77,0,13.55-1.73,20.28-2.92,1.25-.22,2.3-1.58,3.45-2.42,3.1,3.13,6.19,6.27,9.29,9.4-17.82,8.58-36.94,8.17-55.83,7.02-22.23-1.35-44.1-5.86-65.49-12.08-24.04-6.99-47.74-15.05-68.45-29.75-4.08-2.9-7.7-6.44-11.6-9.61-1.39-1.12-2.97-1.99-4.47-2.98.57-2.39,1.14-4.78,1.71-7.17Z"/>
    <path class="cls-3" d="m545.09,458.38c6.39,3.08,12.77,6.16,19.16,9.24-1.5,2.93-2.73,6.04-4.55,8.76-13.09,19.5-21.43,40.57-21.85,64.36-9.42-5.16-18.84-10.33-28.26-15.49.68-1.71,1.54-3.36,1.99-5.13,1.75-6.78,2.71-13.84,5.16-20.34,6.02-16.05,14.64-30.51,28.35-41.39Z"/>
    <path class="cls-3" d="m472.2,494.83c-7.5-8.24-15-16.47-22.5-24.71.59-1.56,1.03-3.21,1.79-4.68,7.67-14.78,17.75-27.71,31.03-37.75,6.21-4.69,13.48-7.97,20.26-11.89,3.66,5.7,7.33,11.4,10.99,17.1-18,12.17-30.46,28.62-37.65,49.07-1.48,4.22-2.62,8.56-3.92,12.85Z"/>
    <path class="cls-3" d="m504.41,521.78c-8.05-6.62-16.1-13.24-24.14-19.85,1.63-5.95,2.77-12.1,5-17.82,6.43-16.51,16.91-30.33,29.61-42.52,1.15-1.1,2.77-1.71,4.17-2.54,6.32,5.07,12.64,10.14,18.95,15.22-1.59,1.44-3.25,2.82-4.77,4.34-17.49,17.46-28.5,37.89-28.82,63.18Z"/>
    <path class="cls-3" d="m703.19,493.93c8.75-.94,15.61,2.52,21.48,8.81,4.58,4.92,4.75,4.77,9.38.17,7.44-7.38,22.76-6.75,29.89,1.73-8.25,11.35-16.6,22.84-24.97,34.37-7.13-1.42-9.05-.42-13.28,7.03-9.03-5.59-9.83-5.47-17.75,2.99-4.89-2.51-8.33-5.85-8.28-12.01.02-2.08-1.12-4.17-1.72-6.25,1.32-.2,2.7-.24,3.96-.63,10.01-3.07,14.11-12.6,8.17-19.52-2.05-2.39-5.2-3.83-6.88-5.03v-11.66Zm14.95,15.46c-.35.38-.71.75-1.06,1.13.88,2.89,1.76,5.78,2.63,8.67.67-.05,1.34-.11,2.02-.16,0-2.22.42-4.56-.16-6.62-.34-1.23-2.23-2.03-3.43-3.02Zm-1.36,19.95c-.7-.32-1.4-.64-2.1-.97-1.32,1.99-2.73,3.93-3.89,6.01-.35.63.05,1.66.11,2.51.87-.18,2.22-.08,2.52-.59,1.29-2.23,2.27-4.63,3.36-6.97Z"/>
    <path class="cls-4" d="m243.41,513.94c18.77,15.7,40.06,26.78,63.28,34.17,17.56,5.59,35.37,10.14,53.85,11.52,8.33.62,16.66,1.72,24.99,1.83,4.65.06,9.32-1.47,13.98-2.29,1.92,2.84,3.84,5.68,5.76,8.52-15.16,4.44-30.55,3.34-45.99,2.16-17.16-1.31-33.8-5.09-50.1-10.33-19.75-6.36-38.76-14.5-55.52-26.97-4.8-3.57-8.58-8.5-12.83-12.81.85-1.94,1.71-3.87,2.56-5.81Z"/>
    <path class="cls-2" d="m703.19,493.93v11.66c1.68,1.19,4.83,2.64,6.88,5.03,5.95,6.92,1.84,16.45-8.17,19.52-1.27.39-2.64.43-3.96.63-4.38-3.39-8.87-6.47-14.89-5.48-.55.09-1.5-.15-1.74-.55-3.86-6.35-9.06-5.21-14.53-2.7.49-6.72.99-13.43,1.49-20.15.88-2.44,1.77-4.89,2.65-7.33,4.59-7.93,11.02-12.73,20.57-10.75,3.27.68,6.22,2.92,9.31,4.45.8,1.89,1.6,3.78,2.4,5.67Z"/>
    <path class="cls-4" d="m259.57,479.46c9.55,6.68,18.62,14.24,28.75,19.88,24.37,13.55,50.76,21.56,78.3,25.76,3.79.58,7.64.86,11.47.97,1.11.03,2.25-1,3.37-1.54,1.55,3.6,3.1,7.19,4.65,10.79-24.64,2.12-47.63-4.92-70.33-13.04-17.89-6.4-35.05-14.44-49.95-26.49-3.57-2.89-6.37-6.74-9.52-10.14,1.09-2.06,2.18-4.12,3.27-6.19Z"/>
    <path class="cls-2" d="m615.97,310.89c10.85,6.27,22.71,10.53,30.55,20.85,3.57,4.7,6.69,9.55,3.69,15.62-3.11,6.3-9.34,7.85-15.36,7.57-9.96-.45-19.86-2.07-29.68-3.18,2.5-7.5,4.99-13.9,6.74-20.5,1.71-6.44,2.65-13.09,4.07-20.36Z"/>
    <path class="cls-3" d="m313.29,879.01c2.01-12.24,8.8-20.88,18.29-27.61,4.65-3.3,9.43-4.06,14.71-.66,6.18,3.97,13.22,6.81,16.65,13.98.92,1.92,1.6,3.96,2.39,5.94,1.26,3.14.32,5.28-2.99,6.11-4.53,1.13-9.05,2.63-13.66,3.08-11.77,1.14-23.64,3.52-35.4-.84Z"/>
    <path class="cls-3" d="m486.32,874.8c-18.07,10.42-37.2,10.37-56.05,12.16.46-12.05,12.1-27.01,24.38-31.73,10.53-4.04,13.19-3.62,20.78,4.9,3.86,4.33,6.96,9.32,10.89,14.67Z"/>
    <path class="cls-3" d="m367.45,894.37c1.5-2.5,2.87-4.78,4.02-6.71,38.97,8.72,77.38,8.82,115.49-4,1.86,6.77,1.21,9.16-6.35,11.35-9.74,2.82-19.75,5.74-29.78,6.33-17.4,1.02-34.93.86-52.35.05-9.24-.43-18.39-3.22-27.55-5.07-1.23-.25-2.3-1.27-3.49-1.96Z"/>
    <path class="cls-4" d="m238.91,875.73c30.95,12.72,63.47,13.97,96.2,12.5,9.91-.44,19.71-3.27,29.89-5.06-2.92,6.44-7.08,11.35-14.55,12.86-18.5,3.74-37.08,3.75-55.66,1.07-10.97-1.58-21.96-3.25-32.75-5.7-9.47-2.16-17.83-6.78-23.74-14.95.23-.22.43-.46.62-.72Z"/>
    <path class="cls-4" d="m700.79,488.27c-3.09-1.53-6.04-3.77-9.31-4.45-9.55-1.98-15.98,2.82-20.57,10.75-3.8.47-7.6.95-11.4,1.42-.17-.18-.34-.35-.51-.53,2.96-4.08,5.76-8.29,8.94-12.19,2.37-2.91,5.29-4.83,9.56-4.57,24.21,1.44,48.44,2.49,72.64,4.07,7.83.51,15.58,2.26,24.67,3.64-2.45,4.5-4.43,8.15-6.44,11.83-14.97-9.3-27.83-9.05-39.37.78-7.43-8.51-16.86-12.29-28.21-10.75Z"/>
    <path class="cls-3" d="m618.27,673.93c21.91,1.11,41.67-.81,61.31-6.56.92,3.61,1.77,6.95,2.71,10.67-18.84,1.6-34.29,10.09-47.22,25.24-5.52-9.64-10.79-18.86-16.8-29.35Z"/>
    <path class="cls-4" d="m523.88,543.04c-2.23,7.89-5,15.68-6.57,23.71-2.63,13.43-5.13,26.95-6.51,40.55-1.22,12-.85,24.16-1.18,36.24-3.09-1.45-6.18-2.91-9.26-4.36-.29-4-.96-8.01-.78-11.99.45-10.03.81-20.11,2.09-30.05,2.03-15.8,5.61-31.29,11.98-46,1.58-3.66,3.38-7.22,5.08-10.83,1.72.91,3.44,1.82,5.15,2.73Z"/>
    <path class="cls-4" d="m580.44,662.62c-.33-1.62-.38-3.37-1.04-4.84-8.38-18.53-10.35-38.17-8.83-58.06.82-10.74,3.9-21.31,5.95-31.96.35-1.8.63-3.61.94-5.41,2.35.48,4.7.95,7.05,1.43-1.14,6.92-2.37,13.83-3.41,20.77-3.61,24.16-2.32,47.79,7.52,70.55,1.16,2.69,1.32,5.81,1.95,8.74-3.38-.4-6.75-.81-10.13-1.21Z"/>
    <path class="cls-4" d="m553.63,555.33c-1.47,4.86-3.22,9.65-4.37,14.58-4.22,18.15-3.66,36.66-3.02,55.05.37,10.62,2.51,21.17,3.85,31.75-2.94-.76-5.89-1.52-8.83-2.28-3.2-15.94-4.89-31.98-4.39-48.29.51-16.45,2.74-32.55,7.91-48.21.57-1.73.84-3.56,1.26-5.34,2.53.91,5.06,1.82,7.6,2.73Z"/>
    <path class="cls-4" d="m456.84,610.89c2-21.44,6.56-42.29,15.45-61.96,3.77-8.34,8.66-16.18,13.04-24.25,1.02-1.89,2.05-3.78,3.07-5.67,2.54,1.99,5.07,3.97,7.61,5.96-2.16,3-4.75,5.77-6.42,9.02-11.74,22.95-20.45,46.9-23.62,72.66-.41,3.3-1.31,6.54-1.98,9.8-2.38-1.86-4.77-3.71-7.15-5.57Z"/>
    <path class="cls-4" d="m420.39,573.85c.73-1.03,1.9-1.98,2.11-3.12,5.03-26.79,16.56-50.5,33.76-71.52,1.45-1.77,3.52-3.04,5.3-4.55,1.98,2.02,3.96,4.04,5.94,6.07-6.51,9.1-13.94,17.68-19.31,27.4-8.94,16.17-16.13,33.24-19.67,51.58-.16.81-.63,1.55-.96,2.33l-7.17-8.19Z"/>
    <path class="cls-4" d="m372.4,496.79c-15,2.94-28.29-2.9-41.53-8.4-15.22-6.33-29.19-14.91-42.12-25.11-4.32-3.41-8.19-7.39-12.26-11.11,1.39-1.99,2.79-3.98,4.18-5.97,7.71,6.15,15.31,12.44,23.16,18.41,15.19,11.54,32.14,19.39,50.92,22.9,5.23.98,10.66.87,16,1.26.55,2.68,1.1,5.36,1.65,8.03Z"/>
    <path class="cls-4" d="m579.44,554.6c-.06-23.81,5.49-46.52,13.66-68.67,1.44-3.9,3.68-7.5,5.55-11.24,3.32-.18,6.64-.35,9.95-.53-2.45,5.82-5.67,11.45-7.21,17.5-4.32,16.92-8.01,34-11.8,51.04-.68,3.06-.63,6.27-.91,9.42-2.57,2.73-5.16,5.41-9.25,2.47Z"/>
    <path class="cls-4" d="m502.78,415.8c-6.79,3.92-14.06,7.2-20.26,11.89-13.28,10.03-23.36,22.97-31.03,37.75-.76,1.47-1.2,3.12-1.79,4.68-2.04-2.34-4.08-4.69-6.11-7.03,7.78-23.43,24.55-39.2,44.62-52.06,3.16-2.02,6.95-3.06,10.45-4.56,1.38,3.11,2.75,6.22,4.13,9.33Z"/>
    <path class="cls-4" d="m537.85,540.73c.42-23.78,8.76-44.86,21.85-64.36,1.82-2.71,3.05-5.83,4.55-8.76,3.57,1.22,7.15,2.45,10.72,3.67-3.55,5.45-7.43,10.73-10.59,16.4-7.54,13.57-13.75,27.73-16.91,43.02-.91,4.4-.97,8.97-1.42,13.46-2.74-1.15-5.47-2.3-8.21-3.45Z"/>
    <path class="cls-4" d="m314.78,408.66c2.01,2.38,4.24,4.61,5.99,7.17,12.98,19,30.59,32.2,51.3,41.72,2.23,1.03,5.73,4.15,5.38,5.12-1.49,4.13-5.6,2.43-8.24,1.55-12.99-4.36-25.13-10.34-35.2-19.98-8.79-8.42-17.18-17.09-22.33-28.37-.41-.89-1.7-1.37-2.58-2.05,1.9-1.72,3.79-3.44,5.69-5.15Z"/>
    <path class="cls-4" d="m519.04,439.04c-1.4.84-3.02,1.44-4.17,2.54-12.7,12.2-23.18,26.02-29.61,42.52-2.23,5.72-3.36,11.87-5,17.82-2.69-2.37-5.38-4.73-8.07-7.1,1.3-4.29,2.44-8.63,3.92-12.85,7.19-20.45,19.65-36.9,37.65-49.07,1.76,2.05,3.52,4.09,5.28,6.14Z"/>
    <path class="cls-4" d="m668.27,501.89c-.5,6.72-.99,13.43-1.49,20.15-1.55.53-3.16,1.65-4.64,1.49-4.93-.5-8.54,1.29-10.97,5.44-1.59,2.71-2.91,5.59-4.22,8.13-6.55-.39-12.87-.76-19.56-1.16.47-.84.83-1.87,1.5-2.63,6.65-7.53,13.09-15.27,20.13-22.42,5.16-5.24,11.69-8.45,19.25-9Zm-23.03,29.26c.58,0,1.16,0,1.74,0v-8.97c-.58,0-1.16,0-1.74,0v8.98Z"/>
    <path class="cls-4" d="m353.53,382.92c2.23,10.14,8.03,18.47,14.44,26.17,8.01,9.62,16.9,18.51,25.42,27.71.57.62,1.38,1.1,1.74,1.81.69,1.36,1.14,2.84,1.69,4.27-1.84.29-4.09,1.4-5.43.71-3.55-1.81-7.06-4.02-9.95-6.74-12.48-11.76-24.8-23.74-31.78-39.87-1.44-3.32-2.02-7.01-3-10.53,2.29-1.17,4.58-2.35,6.87-3.52Z"/>
    <path class="cls-4" d="m504.41,521.78c.31-25.3,11.33-45.72,28.82-63.18,1.52-1.52,3.18-2.9,4.77-4.34l7.09,4.12c-13.71,10.88-22.32,25.34-28.35,41.39-2.44,6.51-3.41,13.57-5.16,20.34-.45,1.76-1.32,3.42-1.99,5.13-1.73-1.15-3.45-2.31-5.18-3.46Z"/>
    <path class="cls-4" d="m444.73,474.61c-3.8,2.66-8.11,4.81-11.31,8.05-14.64,14.86-25.66,32.09-32.74,51.8-.66,1.82-2.29,3.29-3.48,4.93-1.12-2.2-2.25-4.39-3.37-6.59,6.5-20.49,17.22-38.51,32.2-53.86,4.02-4.12,9.2-7.09,13.85-10.59,1.61,2.09,3.23,4.18,4.84,6.27Z"/>
    <path class="cls-4" d="m397.15,369.02c3.98,14.8,10.93,28.06,20.86,39.69,3.56,4.17,7.98,7.61,11.47,11.82,1.27,1.53.98,4.34,1.41,6.57-2.13-.26-4.83.23-6.31-.9-17.15-13.01-28.46-29.95-33.62-50.94-.37-1.51-1.59-2.81-2.41-4.21,2.87-.68,5.73-1.36,8.6-2.03Z"/>
    <path class="cls-4" d="m375.04,481.41c8.83-18.13,22.78-30.01,42.57-34.58,2.89-.67,6.07-.82,8.98-.35,1.5.24,2.7,2.37,4.03,3.65-1.38,1.4-2.71,3.98-4.13,4.04-22.09.86-35.62,15.3-48.85,30.29-.86-1.02-1.73-2.03-2.59-3.05Z"/>
    <path class="cls-4" d="m432.51,363.77c3.59,14.6,11.95,26.12,23.17,35.77,2.15,1.85,4.8,3.21,6.68,5.28,1.27,1.39,1.59,3.64,2.34,5.51-2.12.23-4.84,1.4-6.25.51-5.22-3.28-10.53-6.74-14.85-11.07-8.31-8.34-13.7-18.59-16.63-30.04-.41-1.6-.3-3.34-.44-5.01,1.99-.31,3.99-.62,5.98-.94Z"/>
    <path class="cls-4" d="m846.82,380.01c1.97-1.73,3.67-4.25,5.97-5.04,9.29-3.17,18.72-5.96,28.18-8.56,3.36-.92,6.96-1.14,10.47-1.24,1.19-.03,2.41,1.29,3.62,1.99-1.05,1.08-1.95,2.87-3.18,3.12-9.18,1.91-18.51,3.15-27.61,5.35-5.54,1.34-10.77,4-16.14,6.07-.44-.57-.88-1.13-1.32-1.7Z"/>
    <path class="cls-4" d="m913.41,377.98c-5.1,1.86-10.54,3.11-15.23,5.7-8.59,4.74-16.71,10.33-25.1,15.43-1.36.82-3.13.95-4.71,1.4.44-1.62.35-3.8,1.39-4.78,11.26-10.56,24.8-16.77,39.74-20.07,1.2-.27,2.66.63,4.01.99-.03.44-.05.89-.08,1.33Z"/>
    <path class="cls-4" d="m926.69,397.28c5.04,8.92,3.44,29.08-2.13,35.38-1.03,1.16-2.98,1.51-4.5,2.23-.2-1.54-.79-3.15-.54-4.62,1.55-9.39,3.24-18.76,5-28.11.26-1.4,1.17-2.67,2.17-4.88Z"/>
    <path class="cls-4" d="m921.77,384.85c-1.83,2.72-3.65,5.46-5.5,8.16-4.28,6.23-8.46,12.53-12.96,18.6-.92,1.25-3.06,1.59-4.64,2.35-.24-1.79-1.34-4.19-.58-5.27,5.8-8.17,11.87-16.15,18.11-23.99.84-1.05,3.13-.96,4.74-1.39.28.51.55,1.03.83,1.54Z"/>
    <path class="cls-4" d="m331.91,844.46c-5.89,4.78-11.58,9.41-17.83,14.48-1.71-.75-4.1-1.8-6.52-2.86,5.79-8.41,16.37-13.42,24.35-11.62Z"/>
    <path class="cls-4" d="m359,843.52c-.91,1.81-1.79,3.57-2.73,5.43-5.51-2.46-10.92-4.87-15.95-7.11,3.37-2.12,6.77-4.25,10.21-6.41,2.58,2.46,5.32,5.08,8.47,8.09Z"/>
    <path class="cls-4" d="m454.38,847.29c-6.16,3.94-11.77,7.52-18.11,11.57-1-.66-2.76-1.82-3.97-2.62,3.59-3.35,6.94-6.87,10.73-9.81,1.22-.95,3.63-.62,5.46-.45,1.94.17,3.84.84,5.88,1.32Z"/>
    <path class="cls-4" d="m738.8,474.19c-.65-3.43-1.67-6.55,2.15-8.17,3.41-1.44,6.73,1.47,10.5,9.26-4.24-.37-8.26-.71-12.65-1.09Z"/>
    <path class="cls-4" d="m731.38,473.96c-3.91-2.08-9.55,1.99-11.26-4.48-.35-1.34,1.42-4.35,2.82-4.82,3.89-1.33,7.19,2.32,8.44,9.3Z"/>
    <path class="cls-4" d="m312.38,843.11c-3.36,3.15-6.74,6.32-10.13,9.5.31.47.62.94.93,1.41-1.66-.94-3.32-1.88-5.46-3.08,4.85-4.13,8.47-9.09,14.67-7.82Z"/>
    <path class="cls-4" d="m285.32,841.57h15.01c-2.47,2.78-4.2,4.73-6.16,6.93-2.61-2.05-5.08-3.98-8.85-6.93Z"/>
    <path class="cls-4" d="m715.1,472.63c-4.1-.25-6.91-.43-11.11-.69,1.74-3.18,3.01-5.52,4.97-9.1,2.44,3.89,4.04,6.42,6.15,9.79Z"/>
    <path class="cls-4" d="m813.28,557.24c-2.31,5.36-4.13,9.58-6.41,14.88-2.52-6.51-.48-11.04,6.41-14.88Z"/>
    <path class="cls-2" d="m692.18,541.64c3.86,5.28,2.45,11.53-3.13,14.49,1.19-5.5,2.16-9.99,3.13-14.49Z"/>
    <path class="cls-2" d="m689.11,532.05c-1.72,4.86-1.95,9.55-6.26,12.85-1.71-5.04.59-9.86,6.26-12.85Z"/>
    <path class="cls-2" d="m677.18,550.57c-4.24,2.23-8.86.64-12.25-4.28,4.96-.4,8.53.9,12.25,4.28Z"/>
    <path class="cls-2" d="m662,538.68c3-4.42,8.32-5.19,12.5-1.46-3.9.46-7.81.91-12.5,1.46Z"/>
    <path class="cls-4" d="m702.31,551.04c2.29,3.48,3.85,5.85,5.41,8.22-.43.37-.86.74-1.28,1.11-2.16-1.01-4.33-2.01-6.93-3.22.73-1.58,1.38-3,2.81-6.11Z"/>
    <path class="cls-3" d="m744.31,742.76c.31.23.61.46.92.68-.31-.23-.61-.46-.92-.68Z"/>
    <path class="cls-4" d="m659.51,495.99c-.31.16-.62.31-.93.47.14-.33.28-.66.42-1,.17.18.34.35.51.53Z"/>
    <path class="cls-4" d="m238.3,876.45c-.23-.29-.46-.58-.7-.88.44.05.87.1,1.31.15-.18.26-.39.5-.62.72Z"/>
    <path class="cls-5" d="m943.83,666.17c-1.28,3.74-2.56,7.49-3.91,11.44,1.33,1.18,3.1,2.32,4.23,3.91.83,1.17.81,2.94,1.16,4.44-1.53-.06-3.14.16-4.55-.28-1.21-.37-2.18-1.5-3.81-2.7-6.11,14.47-12.1,28.66-18.53,43.89,5.94-.62,10.91-.84,15.71-1.82,1.37-.28,2.47-2.67,3.35-4.28.94-1.74,1.48-3.7,2.19-5.56.58.09,1.17.19,1.75.28.19,2.81.39,5.63.6,8.73,2.89-.39,5.63-.76,8.27-1.11.5-3.35.96-6.35,1.41-9.35.56-.02,1.12-.04,1.68-.06.5,4.68,4.04,8.68,2.24,13.87.13,3.8.41,7.6.29,11.39-.04,1.25-1.14,2.46-1.76,3.69-1.04-1.12-2.8-2.14-2.97-3.38-.43-3.12-.14-6.34-.14-9.8-3.18.47-5.88.62-8.4,1.36-1.12.33-2.03,1.75-2.8,2.84-1.38,1.95-2.59,4.02-3.86,6.04-.94-2.27-1.89-4.54-3.09-7.42-4.82.46-10.94,1.2-17.08,1.6-5.26.33-6.7-1.92-4.53-6.79,3.88-8.73,7.86-17.41,11.77-26.13.32-.72.37-1.56.69-3.02-4.37.31-8.32.68-12.29.82-1.05.04-2.12-.64-3.18-.98.65-1.03,1.12-2.76,1.98-2.98,3.38-.86,6.9-1.77,10.34-1.66,4.19.13,6.97-.83,8.45-5.04.87-2.46,2.42-4.67,4-7.62-4.22-1.56-8.13-2.89-11.92-4.49-1.01-.43-1.67-1.69-2.49-2.57.97-.51,2.05-1.58,2.91-1.43,4.57.8,9.08,1.91,14.27,3.05.88-1.56,1.92-4.02,3.53-6.02,1.06-1.31,2.95-1.94,4.47-2.87Z"/>
    <path class="cls-5" d="m814.11,423.65c9.93-.42,18.97,7.86,19.44,17.79.47,9.94-6.85,17.95-16.7,18.29-11.64.4-20.5-7.41-20.89-18.42-.37-10.36,6.64-17.18,18.15-17.66Zm13.41,19.06c.11-7.38-6.55-14.25-13.99-14.43-6.17-.15-11.76,5.27-11.75,11.41,0,7.92,6.25,14.27,14.33,14.56,6.23.23,11.32-4.92,11.41-11.54Z"/>
    <path class="cls-5" d="m833.2,532.95c-1.25-.71-2.79-1.59-4.32-2.47,1.41-.93,2.69-2.32,4.24-2.72,10.7-2.8,20.28-7.69,29.02-14.44,1.13-.87,3.23-.49,4.88-.69-.38,1.76-.16,4.19-1.24,5.16-9.08,8.15-19.92,12.67-32.57,15.17Z"/>
    <path class="cls-5" d="m908.38,487.51c-3.16.82-6.33,1.63-9.15,2.36-.32.89-.61,1.3-.51,1.45,1.66,2.49,2.66,5.22-.83,6.62-1.53.61-5.36-.41-5.43-1.02-.28-2.32-.29-5.76,1.13-6.96,2.82-2.37,6.55-3.83,10.12-5.04,1.42-.48,3.41.71,5.14,1.14-.16.48-.32.96-.48,1.45Z"/>
    <path class="cls-5" d="m825.21,413.82c4.33.04,15.42,8.79,16.13,12.55.18.97-.2,2.48-.89,3.04-.52.42-2.21.02-2.93-.56-4.43-3.59-8.78-7.29-13.02-11.1-.69-.62-.89-2.02-.9-3.06,0-.35,1.29-.71,1.6-.87Z"/>
    <path class="cls-5" d="m894.73,463.91c-1.94,5.56-3.83,11.14-5.91,16.65-.22.58-1.79,1.16-2.45.93-.67-.23-1.46-1.53-1.38-2.27.76-6.26,3.6-11.48,7.57-16.08.72.26,1.45.51,2.17.77Z"/>
    <path class="cls-5" d="m811.83,511.67c1.9,3.22,3.59,5.86,5.03,8.63.36.7.29,2.11-.19,2.63-.43.46-1.86.44-2.57.08-3.39-1.7-4.64-6.97-2.27-11.34Z"/>
    <path class="cls-5" d="m809.44,523.13c-5.42-.91-9.57-5.66-8.88-8.78.13-.61,2.49-1.4,2.58-1.27,2.02,2.96,3.86,6.05,6.31,10.05Z"/>
    <path class="cls-5" d="m545.06,348.38c.04-10.92,10.12-20.54,21.42-20.44,11.88.1,21.2,9.2,21.07,20.58-.13,11.21-9.66,20.82-20.59,20.78-12.48-.05-21.94-9.09-21.9-20.91Zm7.05.44c.05,8.01,6.36,13.86,14.8,13.71,7.74-.14,14.4-7.05,14.19-14.74-.19-7.05-7.17-13.65-14.34-13.56-8.5.11-14.7,6.28-14.65,14.59Z"/>
    <path class="cls-5" d="m522.3,359.3c.82,3.83,1.47,7.71,2.5,11.48,2.68,9.76,9.46,16.23,17.57,21.68,1.62,1.09,3.91,3.74,3.52,4.8-1.18,3.17-4.26,2.86-6.73,1.32-11.58-7.23-20.2-16.69-21.16-31.03-.19-2.83,1.74-5.8,2.69-8.7.54.15,1.08.3,1.62.45Z"/>
    <path class="cls-5" d="m475.14,303.49c-1.6,2.45-2.86,4.39-4.24,6.5,1.22.58,2.77.8,3.09,1.55.91,2.13,2.19,4.7,1.68,6.68-.45,1.77-3.09,4.14-4.75,4.13-1.76-.01-4.05-2.19-5.14-4.01-2.29-3.83,2.47-14.44,6.74-15.65.6-.17,1.42.41,2.61.8Z"/>
    <path class="cls-5" d="m718.14,509.39c1.2.99,3.09,1.79,3.43,3.02.57,2.06.16,4.4.16,6.62-.67.05-1.34.11-2.02.16-.88-2.89-1.76-5.78-2.63-8.67.35-.38.71-.75,1.06-1.13Z"/>
    <path class="cls-5" d="m716.78,529.35c-1.09,2.34-2.07,4.74-3.36,6.97-.3.51-1.65.41-2.52.59-.06-.85-.46-1.89-.11-2.51,1.15-2.08,2.57-4.02,3.89-6.01.7.32,1.4.64,2.1.97Z"/>
    <path class="cls-5" d="m645.24,531.15v-8.98c.58,0,1.16,0,1.74,0v8.97c-.58,0-1.16,0-1.74,0Z"/>
    <path class="cls-3" d="m827.52,442.71c-.1,6.62-5.18,11.77-11.41,11.54-8.08-.29-14.32-6.64-14.33-14.56,0-6.14,5.58-11.56,11.75-11.41,7.44.18,14.1,7.05,13.99,14.43Zm-16.34.92c1.93-2.33,3.99-3.79,3.78-4.8-.3-1.49-2.03-3.01-3.53-3.75-.52-.26-3.11,1.76-3.08,2.69.05,1.59,1.42,3.14,2.84,5.86Z"/>
    <path class="cls-3" d="m552.11,348.82c-.05-8.31,6.15-14.49,14.65-14.59,7.17-.09,14.14,6.51,14.34,13.56.21,7.68-6.44,14.6-14.19,14.74-8.44.15-14.75-5.69-14.8-13.71Zm19.33-2.32c-.66-.04-1.32-.07-1.98-.11-1.06,1.56-3.2,3.35-2.93,4.63.38,1.85,2.51,3.35,3.9,4.99,1.28-1.34,3.55-2.65,3.6-4.04.07-1.79-1.64-3.64-2.59-5.47Z"/>
  </g>
  <path class="cls-1" d="m574.58,352.61c-.24,1.94-2.17,3.3-4.29,3.04-2.13-.27-3.65-2.06-3.41-4,.24-1.94,2.17-3.3,4.29-3.04,2.13.27,3.65,2.06,3.41,4Z"/>
  <path class="cls-1" d="m812.6,439.51c-.26,2.04-1.85,3.53-3.55,3.31s-2.88-2.05-2.62-4.09c.26-2.04,1.85-3.53,3.55-3.31s2.88,2.05,2.62,4.09Z"/>
</svg>