<?xml version="1.0" encoding="UTF-8"?>
<svg id="_圖層_1" data-name="圖層 1" xmlns="http://www.w3.org/2000/svg" viewBox="0 0 1200 1200">
  <defs>
    <style>
      .cls-1 {
        fill: #050505;
      }

      .cls-2 {
        fill: #eee;
      }

      .cls-3 {
        fill: #f80771;
      }

      .cls-4 {
        fill: #f60072;
      }

      .cls-5 {
        fill: #fbfbfb;
      }
    </style>
  </defs>
  <g>
    <path class="cls-4" d="m918.97,446.12c4.8-2.6,9.45-5.82,14.59-7.7,4.76-1.74,9.51,1.75,9.48,6.76-.02,3.87-.4,8.57-2.57,11.45-8.65,11.53-18.05,22.5-27.2,33.65-.29.36-.87.48-2.01,1.08-1.06-1.68-2.62-3.26-3.16-5.14-3.45-12.03-7.04-24.05-9.78-36.25-.9-4.01-.23-8.86,1.25-12.74.99-2.57,4.59-5.49,7.22-5.7,2.62-.21,6.34,2.16,8.06,4.51,2.26,3.1,3.04,7.27,4.11,10.08Z"/>
    <path class="cls-4" d="m610.73,442.83c.66-3.11.92-6.17,1.96-8.93,2.14-5.68,6.93-7.15,12.18-3.98,5.91,3.57,8.81,9.15,9.49,15.77.93,9.17,1.31,18.39,2.22,27.56.39,3.91-.97,5.43-4.7,4.86-13.89-2.1-26.23-7.97-37.26-16.4-5.3-4.05-6.49-10.56-3.89-14.69,3.23-5.13,10.3-7.49,16.4-5.46,1.24.41,2.47.86,3.59,1.26Z"/>
  </g>
  <g>
    <g>
      <path class="cls-5" d="m652.28,376.38c.17.28.36.54.58.79-1.58,7.45-3.54,14.85-4.63,22.38-1.07,7.46-1.26,15.05-1.83,22.58.57.21,1.14.42,1.7.63,3.01-4.1,6.01-8.2,9.02-12.3.91,6.93,1.73,13.63,2.72,20.3.14.98,1.07,1.84,1.63,2.75.8-.89,1.79-1.68,2.35-2.69,1.38-2.48,2.57-5.08,3.73-7.4,5.63,19.65,11.18,39,16.83,58.69-16.26,5.1-31.19,13.89-44.73,24.99-25.69,21.06-46.08,46.1-57.54,77.73l-8.61,1.3c-16.41-21.91-37.42-38.24-61.71-50.44-3.15-1.58-4.56-3.48-4.84-6.6-.46-5.17-1.03-10.35-1.15-15.53-.67-30.47-.33-60.99-2.06-91.39-1.67-29.31-10.76-56.44-30.38-79.2-12.4-14.38-26.41-26.47-44.61-33.18-20.5-7.56-40.96-6.86-61.54-.78-19.49,5.76-36.58,15.99-50.77,30.27-21.45,21.59-31.8,48.49-33.24,78.59-.67,14.03.59,28.15.93,42.23.68,27.95,2.65,55.9-2.98,83.69-3.55,17.53-8.83,33.96-22.23,46.68-1.09,1.03-2.38,2.11-2.88,3.43-.36.93.46,2.31.68,3.18-6.39,11.77-13.6,23.46-19.31,35.84-15.24,33.07-25.94,67.74-32.72,103.46-6.67,35.14-9.49,70.69-6.88,106.49.89,12.18,2.31,24.34,3.79,36.47.2,1.67,2.15,3.12,3.3,4.67.95-1.69,2.33-3.28,2.73-5.09.42-1.89-.09-3.98-.24-5.99-1.17-15.02-2.85-30.03-3.43-45.08-.96-24.82,1.28-49.48,4.7-74.08,3.21-23.07,9.06-45.47,15.97-67.64,1.24.46,2.52.84,3.73,1.39,9.25,4.2,18.29,8.95,27.77,12.56,18.11,6.91,37.15,10.29,56.23,13.27,4.02.63,8.18.39,12.28.55,14.05,1.2,28.1,2.41,42.15,3.61-1.71,3.55-4.36,6.95-4.95,10.67-2.08,13.29-4.53,26.66-4.82,40.04-.29,13.75,1.43,27.59,2.94,41.32.98,8.89,2.84,17.72,4.89,26.44,1.59,6.76,4.09,13.31,6.18,19.95-11.48.04-22.95.08-34.43.12-.21-2.32.08-4.82-.71-6.92-4.86-13.02-8.39-26.31-9.62-40.21-1.46-16.56-3.71-33.06-4.62-49.64-.61-11.13.56-22.35.73-33.54.02-1.36-1.26-3.86-1.96-3.87-1.54-.01-3.73.82-4.49,2.04-1.57,2.5-2.99,5.4-3.38,8.28-1.61,12.02-3.8,24.08-3.91,36.15-.12,13.6.96,27.34,3.04,40.79,2.07,13.41,6,26.54,9.12,39.79.57,2.42,1.11,4.84,1.67,7.26-1.37,1.62-2.75,3.24-4.12,4.86,1.96,1.16,3.87,2.41,5.89,3.43.67.34,1.65.1,2.49.1,18.72-.06,37.44.1,56.16-.23,22.41-.39,44.82-1.14,67.23-1.86,9.95-.32,19.9-.97,30.18-1.48.57,5.97,1.07,11.26,1.58,16.56-2.28.42-4.61.69-6.84,1.3-8.53,2.33-16.94,5.1-25.54,7.11-27.69,6.46-55.85,9.21-84.24,9.68-24.24.39-48.41-.69-72.29-5.07-21.85-4-43.62-8.45-62.41-21.55-1.88-1.31-4.76-1.2-7.21-1.76-1.55,6.21,1.57,9.64,5.04,12.1,5.97,4.21,12.24,8.14,18.79,11.33,14.04,6.85,29.06,10.48,44.4,13.45,21.53,4.17,43.24,5.92,65.05,6.49,13.36.35,26.75-.37,40.12-.96,7.48-.33,14.98-1.01,22.36-2.19,12.48-2,24.94-4.21,37.28-6.93,8.78-1.94,17.42-4.65,25.98-7.45,3.74-1.23,7.73-3.03,7.27-8.3,1.63-.21,3.28-.66,4.89-.58,13.54.71,27.06,1.57,40.6,2.28,14.37.75,28.74,1.39,43.11,2.07-1.43,1.23-2.69,2.81-4.33,3.65-29.54,15.05-60.76,25.26-93.4,30.65-22.64,3.73-45.44,6.82-68.29,8.76-15.91,1.35-32.05.79-48.04.14-17.97-.73-36-1.77-53.83-4.07-18.13-2.34-36.04-6.36-54.03-9.67-5.57-1.03-11.08-2.4-16.69-3.1-1.75-.22-3.71,1.25-5.57,1.94,1.19,1.77,1.98,4.39,3.64,5.17,6.18,2.93,12.49,5.75,19.02,7.73,23.5,7.12,47.44,12.21,71.95,14.23,18.61,1.53,37.23,3.57,55.87,3.76,17.65.18,35.34-1.4,52.96-2.84,13.09-1.07,26.17-2.67,39.1-4.93,13.93-2.44,27.72-5.78,41.5-9.01,25.68-6.01,50.15-15.21,73.19-28.17,5.41-3.04,9.23-6.6,8.06-13.39,11.22.38,22.45.99,33.67,1.04,5.48.02,9.82.83,11.07,7.55-5.28,6.49-6.97,13.95-1.22,21.57,4.6,6.1,10.28,11,17.7,13.55,15.1,5.19,30.61,8.19,46.53,9.51,18.8,1.55,37.54,1.55,56.13-1.76,8.77-1.56,17.36-4.16,26.27-6.35.3,5.09,3.35,6.2,7.66,5.67,5.98-.73,12.01-1.13,17.96-2.05,67.35-10.4,119.9-44.16,157.19-101.04,28.12-42.89,40.56-90.29,38.17-141.63-1.27-27.28-5.95-53.78-16.54-79.01-25.6-60.99-67.88-106.02-128.58-133.13-6.92-3.09-14.21-5.35-21.24-7.96-.27-4.8.98-7.7,5.31-10.66,6.64-4.53,12.91-10.3,17.61-16.8,7.81-10.8,5.53-22.56-4.09-30.67-1.15-.97-1.77-3.55-1.45-5.15,2.91-14.34,2.52-28.77.33-43.01-3.9-25.33-13.62-47.92-34.19-64.98,4.38-3.19,8.57-6.24,12.67-9.22-.55-.99-.64-1.38-.88-1.54-.53-.35-1.1-.67-1.7-.85-9.37-2.93-18.71-2.87-27.89.66-2.36.91-3.54.51-5.44-1.28-5.2-4.9-10.74-9.49-16.46-13.78-1.8-1.35-4.59-1.37-6.92-2-.15.41-.31.82-.46,1.23,2.72,3.3,5.44,6.6,8.56,10.4-45.33-2.99-64.33.71-89.55,17.16-24.41,15.92-54.58,59.02-51.12,73.82,1.37-.84,2.57-1.57,3.78-2.31Zm-391.59,416.82c1.14,10.53,1.72,21.91,3.77,33.02,1.95,10.58,5.25,20.94,8.36,31.27,1.18,3.91,4.46,6.24,8.68,4.54,4.23-1.7,4.34-5.53,3.32-9.39-.81-3.06-2.08-6.04-2.56-9.15-1.86-12-4.41-24-4.97-36.07-.79-17.16-.85-34.44.32-51.56.83-12.2,4.35-24.19,6.28-36.34.28-1.78-1.13-4.99-2.55-5.56-1.47-.59-4.59.67-5.77,2.12-2.05,2.53-3.52,5.69-4.61,8.81-7.63,21.86-7.83,44.84-10.27,68.31Zm-39.18,6.19c.89,9.54,1.66,23.03,3.61,36.36.97,6.65,3.82,13.09,6.43,19.37.63,1.53,4.29,3.31,5.48,2.74,1.8-.86,2.84-3.61,3.81-5.73.42-.91-.01-2.31-.3-3.43-3.78-14.59-5.79-29.41-5.6-44.47.11-9.35.31-18.71,1.05-28.02.82-10.26,1.72-20.59,3.65-30.68,1.88-9.77,5.27-19.25,7.63-28.94.51-2.09-.53-4.55-.86-6.84-2.31.87-5.51,1.07-6.75,2.73-2.76,3.67-5,7.9-6.63,12.22-8.6,22.78-10.47,46.69-11.52,74.69Z"/>
      <path class="cls-1" d="m224.64,686.14c-6.91,22.17-12.76,44.57-15.97,67.64-3.42,24.59-5.65,49.26-4.7,74.08.58,15.05,2.25,30.05,3.43,45.08.16,2,.66,4.1.24,5.99-.4,1.81-1.78,3.4-2.73,5.09-1.14-1.55-3.09-3-3.3-4.67-1.48-12.13-2.9-24.28-3.79-36.47-2.61-35.8.21-71.35,6.88-106.49,6.78-35.72,17.48-70.39,32.72-103.46,5.71-12.38,12.91-24.08,19.31-35.84-.22-.88-1.04-2.25-.68-3.18.5-1.32,1.79-2.39,2.88-3.43,13.4-12.72,18.68-29.15,22.23-46.68,5.62-27.78,3.66-55.74,2.98-83.69-.34-14.08-1.61-28.2-.93-42.23,1.45-30.1,11.79-57,33.24-78.59,14.19-14.28,31.28-24.51,50.77-30.27,20.58-6.08,41.04-6.79,61.54.78,18.2,6.71,32.21,18.8,44.61,33.18,19.62,22.75,28.71,49.89,30.38,79.2,1.74,30.4,1.4,60.93,2.06,91.39.11,5.18.69,10.36,1.15,15.53.28,3.12,1.69,5.01,4.84,6.6,24.29,12.21,45.3,28.54,61.71,50.44-2.6.88-5.2,1.77-7.8,2.65-.73-.8-1.46-1.61-2.18-2.41-3.8-4.04-7.59-8.07-11.39-12.11-11.04-11.02-23.06-20.74-37.17-27.63-.92-.47-1.84-.94-3.97-2.02,1.32,2.45,1.99,3.7,2.66,4.95,6.02,14.8,15.15,26.99,29.31,34.97,2.31,1.84,4.61,3.67,6.92,5.51-.15.69-.3,1.38-.45,2.07-7.15.42-14.3.84-21.45,1.25-10.07-3.07-20.15-6.14-31.05-9.46,3.12,4.01,6.03,7.75,9.69,12.46-13.32,1.4-25.24-1.93-37.06-6.03-4.36-2.96-8.72-5.91-13.08-8.87-10.17-9.11-15.13-20.73-17.64-33.98-2.02-10.64-.49-18.89,7.82-26.97,10.36-10.08,17.91-22.64,20.57-37.28,3.69-20.33,5.04-40.88,3.87-61.5-.48-8.39-2.32-16.71-3.74-26.5-8.99,8.35-17.03,14.45-27.75,15.32,2.59-7.3,5-14.1,7.41-20.9-.05-.57-.09-1.15-.14-1.72l-.71,1.08c-.99.86-1.97,1.74-2.97,2.59-9.95,8.43-20.81,14.98-34.17,16.05-1.57.13-3.24-.95-4.86-1.46.75-1.13,1.67-2.19,2.22-3.4,1.94-4.23,3.75-8.53,5.61-12.79.23.08.46.17.69.25,0-.21-.01-.43-.02-.64-.19.19-.39.37-.58.56-.46.18-1.05.23-1.35.56-9.54,10.34-22.68,13.38-35.32,17.39-6,1.9-12.19,3.27-18.09,5.43-8.04,2.94-14.24,8.16-16.31,16.85-1.46,6.15-2.23,12.47-3.35,18.97-2.42-2.49-4.55-5.14-7.13-7.22-4.39-3.54-12.88-4.26-16.99-1.44-5.24,3.61-7.13,8.62-6.43,15.11,1.58,14.54,11.61,21.52,23.4,26.94,2.28,1.05,3.53,1.94,4.4,4.51,3.64,10.81,7.68,21.53,16.26,29.62,8.29,7.8,8.55,17.36,7.01,27.68-2.18,14.56-5.9,28.41-15.74,39.91-2.36,2.34-4.71,4.67-7.07,7.01-5.31,3.75-10.37,8.21-18.66,6.79,2.02-3.12,3.65-5.65,5.27-8.17.05-.37.1-.75.15-1.12-.23.19-.45.37-.68.56-1.2.53-2.43,1-3.6,1.59-9.38,4.7-19.1,8.17-29.78,7.64-1.32-.07-2.58-1.42-3.87-2.18.97-1.19,1.78-2.57,2.95-3.49,1.01-.79,2.47-.97,3.67-1.56,5.74-2.83,9.17-6.64,9.92-10.56-7.87,3.75-15.8,8.11-24.18,11.31-5.48,2.09-9.55,5.19-12.7,9.88-2.19,2.52-4.38,5.03-6.57,7.55-4.82,9.38-9.64,18.77-14.46,28.15l-4.86,11.11c-3.37,9.06-6.74,18.12-10.1,27.18-1.08,3.33-2.16,6.66-3.25,10Z"/>
      <path class="cls-2" d="m645.86,612.41c6.22-1.94,12.73-3.25,18.57-6.01,5.61-2.65,11.42-5.99,15.5-10.5,5.75-6.35,5.49-16.96,1.12-23.57-4.39-6.66-13.4-9.85-22.89-7.52-19.12,4.71-32.14,17.18-41.87,33.67-.76,1.29-1.44,2.63-2.44,4.47-6.49-9.05-14.38-15.76-25.48-17.62,20.1-45.9,52.37-79.37,98.3-97.99,7.29,10.86,13.18,21.4,20.82,30.48,6.15,7.31,13.94,13.53,21.85,19.01,9.62,6.66,15.72,15.23,18.65,26.32.3,1.12.36,2.32.38,3.48.07,5.6-.75,6.38-6.33,5.7-5.56-.68-11.1-1.54-16.64-2.32l-1.01,2.07c1.68,1.21,3.19,2.93,5.07,3.56,13.26,4.47,27.01,4.9,40.76,3.82,21.27-1.68,40.94-8.09,58.04-21.33,13.72-10.62,21.5-24.92,25.56-41.45.37-1.5-1.02-3.43-1.59-5.16-1.39,1.28-3.43,2.3-4.05,3.87-2,5.1-3.47,10.4-5.41,16.43-5.88-6.01-9.99-12.04-10.71-19.93-.09-.97-.01-2.06.37-2.94,3.81-8.83,7.71-17.62,11.74-26.79,21.36,6.4,41.68,16.67,60.11,30.44,49.87,37.25,82.43,85.81,95.18,147.13,4.83,23.22,4.79,46.55,1.87,69.99-4.84,38.92-17.38,75.18-38.65,108.06-25.52,39.46-61,66.89-105.4,82.11-16.36,5.61-33.46,9.17-50.31,13.28-9.73,2.38-10.38,1.51-11.05-8.32-2.01-29.19-10.3-56.82-21.25-83.73-.79-1.94-3.22-3.22-4.89-4.8-1.06-2.12-2.12-4.24-3.18-6.35,4.34-1.89,8.82-3.53,13-5.72,11.4-5.98,23.18-11.44,33.93-18.46,46.49-30.36,78.73-70.57,84.23-127.83,1.17-12.17-.83-24.65-1.57-36.98-.09-1.51-1.46-2.94-2.24-4.41-.46.18-.92.37-1.39.55,0,5.15-.17,10.3.03,15.44.92,23.43-2.66,46.04-12,67.65-15.41,35.65-41.36,61.85-73.93,81.91-16.08,9.91-32.36,19.73-51.64,22.42-7.84,1.09-15.69,2.06-23.52,3.08,1.71-32.7,3.36-64.34,5.01-95.98,3.98-2.48,3.98-3.64-.04-8.02.42-7.52.89-15.03,1.24-22.55,1.22-26.58,2.48-53.17,3.54-79.76.32-7.91-.68-8.71-8.44-8.72-28.98-.07-57.95-.1-86.93-.15Z"/>
      <path class="cls-1" d="m336.62,856.07c11.48-.04,22.95-.08,34.43-.12,4.33.06,8.65.12,12.98.18,12.04-.03,24.08-.05,36.13-.08,4.03-.19,8.06-.39,12.1-.58,13.09-.73,26.18-1.45,39.27-2.18,3.7-.12,7.41-.23,11.11-.35,12.85-.97,25.69-1.94,38.54-2.91,4.6-.56,9.2-1.12,13.79-1.68,2.5-.15,5.05-.06,7.5-.49,21.37-3.79,42.66-8.12,64.11-11.41,22.74-3.49,42.24-13.75,59.88-27.67,9.42-7.43,17.84-16.28,21.64-28.33,1.28-4.05,1.72-8.32-1.79-11.16-3.55-2.88-7.74-1.49-11.28.75-2.96,1.87-5.46,4.53-8.51,6.2-1.5.82-3.79.2-5.73.23.29-1.97.04-4.27,1-5.83,1.08-1.75,3.54-2.59,4.89-4.24,4.38-5.39,9.64-10.46,12.48-16.61,3.57-7.75-2.36-13.2-10.85-11.58-7.8,1.49-13.45,6.45-19.64,10.69-2.45,1.68-5.17,6.39-8.23,2.18-2.72-3.74,2.13-5.53,4.34-7.7,6.53-6.44,13.59-12.42,19.54-19.35,3.17-3.68,6.34-8.76,2.92-14.19-2.23-3.53-8.23-3.79-14.95-1.16-.92.36-1.81.87-2.63,1.43-7.6,5.17-15.11,10.5-22.85,15.45-1.59,1.01-4.05.66-6.11.93.62-2.12.56-5.12,1.97-6.22,6.56-5.11,13.42-9.87,20.39-14.43,6.19-4.05,9.62-10.27,8.6-16.85-.99-6.4-4.83-10.56-10.4-10.2-5.14.33-10.6.69-15.24,2.64-11.66,4.9-23.2,10.22-34.28,16.3-8.89,4.88-16.93,11.26-25.57,16.63-1.57.97-4.19.24-6.33.3,1.02-1.78,1.63-4.07,3.12-5.26,5.44-4.37,11.97-7.46,15.17-14.26,2.75-5.86,7.36-11.93,2.85-18.22-4.61-6.43-12.06-5.5-18.97-4.14-9.88,1.95-18.19,7.14-24.85,14.29-6.44,6.92-12.48,14.48-17.17,22.64-2.05,3.56-3.46,5.49-7.32,5.68-5,.25-9.99.62-14.99.93-4.39.19-8.79.39-13.18.58-9.35.33-18.71.67-28.06,1-3.02.11-6.04.22-9.06.33-11.08.12-22.16.24-33.25.36-4.03,0-8.07,0-12.1,0-10.4-.26-20.79-.52-31.19-.78-1.35-.09-2.7-.18-4.05-.27-14.05-1.2-28.1-2.41-42.15-3.61-1.42-.46-2.99-.67-4.2-1.45-1.21-.77-2.05-2.1-3.06-3.19,1.51-.59,3.05-1.77,4.52-1.67,13.29.84,26.57,1.91,39.86,2.91,3.31.24,6.62.68,9.94.68,26.97,0,53.93-.03,80.9-.15,4.29-.02,8.58-.5,13.22-.78-.59-11.05-1.16-21.56-1.72-32.07-.2-4.71-.4-9.41-.6-14.12-.23-9.08-.46-18.16-.7-27.24-.15-5.02-.31-10.04-.46-15.06,1.22-7.76,2.12-8.52,10.3-8.77,7.34-.22,14.68-.46,22.02-.69,12.43,0,24.85,0,37.28.01,6.27.06,12.55.12,18.82.18l1.75,8.09c-14.23-.02-28.46-.04-42.69-.06h-40.37c.33,3.76.76,8.55,1.19,13.34.87,25.38,1.75,50.75,2.63,76.37,13.53-.7,26.54-1.32,39.55-2.13.94-.06,2.03-1.4,2.65-2.4,6.01-9.65,11.54-19.59,20.6-26.96,10.29-8.36,21.47-14.15,35.14-13.66,12.04.43,20,9.7,17.92,20.91-.38,2.05-1.17,4.03-1.61,5.52,10.52-5.1,21.12-10.24,31.73-15.38l8.2-2.71c4.48-.58,8.95-1.51,13.44-1.68,7.14-.27,12.4,2.8,15.75,9.43,3.15,6.24,2.65,12.47.86,19.09,1.23,0,2.05,0,2.87,0,11.58-.13,17.9,8.48,14.21,19.42-.74,2.19-1.73,4.3-2.61,6.44-1.31,1.6-2.63,3.19-3.55,4.31,5.18,1.51,9.81,2.86,14.44,4.2,7.15,8.5,5.11,17.15.1,25.78,10.91,2.33,15.42,8.72,13.43,19.26-2.07,10.94-9.28,18.98-16,27.27-8.67,10.7-20.63,16.77-32.39,23.14-2.8,1.31-5.6,2.62-8.4,3.94-48.8,17.15-99.62,22.91-151.18,26.51.49,5.92.94,11.48,1.37,16.6,27.2,1.06,53.84,2.2,80.49,3.1,25.31.86,50.64,1.47,75.95,2.19.77,3.08,1.54,6.17,2.3,9.25.94.77,1.83,2.12,2.84,2.22,10.42,1.02,20.87,1.71,31.29,2.77,6.98.72,13.94,1.75,20.85,2.98,1.67.3,3.1,1.94,4.65,2.96-1.61.8-3.25,2.33-4.83,2.26-9-.39-17.99-1.07-26.97-1.83-7.15-.61-14.27-2.09-21.4-2.04-6.63.04-10.32,7.05-7.27,12.64,2.59,4.76,5.91,8.99,11.17,11.03,5.6,2.17,11.16,4.72,16.97,6.03,28.98,6.51,58.24,8.79,87.73,4.08,8.79-1.4,17.39-3.99,26.32-6.09-.64-5.73-.66-10.84-1.85-15.65-5.73-23.2-11.82-46.31-17.67-69.48-.59-2.32-.42-4.84-.6-7.27,1.67,1.59,4.1,2.86,4.89,4.8,10.95,26.92,19.25,54.54,21.25,83.73.68,9.83,1.32,10.69,11.05,8.32,16.85-4.12,33.94-7.67,50.31-13.28,44.4-15.23,79.88-42.65,105.4-82.11,21.27-32.89,33.81-69.15,38.65-108.06,2.92-23.45,2.96-46.77-1.87-69.99-12.75-61.32-45.31-109.88-95.18-147.13-18.43-13.77-40.19-24.17-61.56-30.58-2.53,11.26-6.48,18.1-10.29,26.93-.38.87-.45,1.97-.37,2.94.73,7.89,4.83,13.92,10.71,19.93,1.94-6.03,3.41-11.33,5.41-16.43.62-1.58,2.66-2.6,4.05-3.87.57,1.73,1.96,3.66,1.59,5.16-4.06,16.53-11.84,30.83-25.56,41.45-17.1,13.24-36.77,19.65-58.04,21.33-13.75,1.08-27.5.65-40.76-3.82-1.88-.63-3.39-2.34-5.07-3.56l1.01-2.07c5.55.78,11.09,1.64,16.64,2.32,5.58.69,6.4-.1,6.33-5.7-.01-1.16-.08-2.37-.38-3.49-3.59-13.59-13.75-20.47-24.45-28.42-16.45-12.22-28.89-28.59-36.86-47.39-45.94,18.62-78.2,52.09-98.3,97.99-2.09-.16-4.17-.32-6.26-.48,11.45-31.63,31.85-56.67,57.54-77.73,13.54-11.1,28.47-19.89,44.73-24.99-5.65-19.69-11.2-39.04-16.83-58.69-1.16,2.33-2.35,4.92-3.73,7.4-.57,1.02-1.56,1.8-2.35,2.69-.56-.91-1.49-1.77-1.63-2.75-.99-6.67-1.81-13.37-2.72-20.3-3.01,4.1-6.01,8.2-9.02,12.3-.57-.21-1.14-.42-1.7-.63.58-7.53.76-15.12,1.83-22.58,1.08-7.53,3.05-14.92,4.63-22.38.2-.34.39-.68.59-1.03-.39.08-.78.16-1.17.24-1.21.74-2.41,1.47-3.78,2.31-3.46-14.8,26.71-57.9,51.12-73.82,25.22-16.45,44.22-20.14,89.55-17.16-3.13-3.79-5.84-7.1-8.56-10.4.15-.41.31-.82.46-1.23,2.34.63,5.13.65,6.92,2,5.72,4.29,11.26,8.88,16.46,13.78,1.89,1.79,3.08,2.18,5.44,1.28,9.18-3.53,18.52-3.58,27.89-.66.6.19,1.18.5,1.7.85.24.16.33.55.88,1.54-4.09,2.98-8.28,6.03-12.67,9.22,20.57,17.06,30.29,39.65,34.19,64.98,2.19,14.24,2.58,28.68-.33,43.01-.32,1.59.29,4.18,1.45,5.15,9.63,8.12,11.91,19.87,4.09,30.67-4.7,6.5-10.98,12.26-17.61,16.8-4.33,2.96-5.58,5.86-5.31,10.66,7.03,2.61,14.32,4.87,21.24,7.96,60.7,27.11,102.97,72.15,128.58,133.13,10.59,25.23,15.27,51.73,16.54,79.01,2.38,51.34-10.05,98.73-38.17,141.63-37.29,56.88-89.85,90.64-157.19,101.04-5.95.92-11.98,1.31-17.96,2.05-4.31.53-7.36-.59-7.66-5.67-8.91,2.19-17.5,4.79-26.27,6.35-18.59,3.3-37.33,3.31-56.13,1.76-15.92-1.32-31.43-4.32-46.53-9.51-7.42-2.55-13.1-7.45-17.7-13.55-5.75-7.63-4.06-15.08,1.22-21.57-1.25-6.72-5.6-7.53-11.07-7.55-11.22-.05-22.45-.66-33.67-1.04-7.04-.28-14.08-.56-21.12-.84-14.37-.69-28.74-1.32-43.11-2.07-13.54-.71-27.06-1.57-40.6-2.28-1.62-.08-3.26.37-4.89.58-5.26.45-6.65-3.25-7.77-7.24-.51-5.29-1.01-10.59-1.58-16.56-10.29.52-20.23,1.16-30.18,1.48-22.41.72-44.82,1.47-67.23,1.86-18.71.33-37.44.18-56.16.23-.84,0-1.81.24-2.49-.1-2.03-1.02-3.94-2.27-5.89-3.43,1.37-1.62,2.75-3.24,4.12-4.86,4.71-.04,9.42-.09,14.13-.13Zm394.52-495.27c-9.37,5.68-14.64,14.61-19.58,24.13v-25.49c-11.5,9.27-20.81,20.35-27.51,33.44-6.46,12.62-9.86,26.45-6.6,40.23,4.13,17.47,9.8,34.66,15.96,51.55,5.44,14.93,14.48,27.97,26.51,38.51,18.33,16.06,39.4,23.74,63.81,17.91,17.88-4.27,30.51-16.18,40.73-30.8,8.93-12.78,13.49-27.14,14.36-42.69.14-2.6.88-3.99,3.84-5.38,11.47-5.37,20.27-13.54,22.65-26.77.91-5.03-.68-9.08-5.43-11.69-5.74-3.16-13.5-1.85-19.58,4.2-3.81,3.79-6.93,8.27-10.66,12.79-.27-.97-.59-1.68-.66-2.41-1.39-14.29-1.79-28.75-4.34-42.82-3.4-18.71-11.92-35.07-27.34-47.14-3.46-2.7-7.15-4.22-11.61-3.42-21.49,3.87-39.12,13.63-50.63,32.87-.37.61-1.22.93-2.35,1.75-2.36-6.33-1.5-12.22-.81-18.11.04-.4.08-.8.12-1.2-.29.18-.59.35-.88.53Zm21.3,212.03c30.2,3.13,70.91-9.76,85.71-35.34-4.11-6.77-7.93-13.06-11.81-19.45-20.08,25.06-45.97,35.77-78.64,28.02,3.84,8.83,9.35,16.91,4.74,26.76Z"/>
      <path class="cls-2" d="m481.9,877.57c1.12,3.99,2.51,7.69,7.77,7.24.45,5.27-3.53,7.07-7.27,8.3-8.56,2.8-17.19,5.52-25.98,7.45-12.34,2.72-24.8,4.93-37.28,6.93-7.38,1.18-14.89,1.86-22.36,2.19-13.36.59-26.76,1.31-40.12.96-21.81-.57-43.52-2.32-65.05-6.49-15.34-2.97-30.36-6.6-44.4-13.45-6.56-3.2-12.82-7.13-18.79-11.33-3.47-2.45-6.59-5.88-5.04-12.1,2.44.56,5.32.44,7.21,1.76,18.79,13.1,40.56,17.55,62.41,21.55,23.88,4.38,48.05,5.47,72.29,5.07,28.4-.46,56.55-3.21,84.24-9.68,8.6-2.01,17.02-4.78,25.54-7.11,2.23-.61,4.56-.88,6.84-1.3Z"/>
      <path class="cls-3" d="m582.12,584.83c2.09.16,4.17.32,6.26.48,11.1,1.86,18.99,8.57,25.48,17.62,1-1.83,1.67-3.17,2.44-4.47,9.72-16.48,22.75-28.96,41.87-33.67,9.49-2.34,18.49.85,22.89,7.52,4.36,6.62,4.63,17.23-1.12,23.57-4.09,4.51-9.89,7.85-15.5,10.5-5.83,2.76-12.35,4.07-18.56,6.01-6.9.94-13.81,1.88-22.06,3,3.43,2.52,5.53,4.07,7.64,5.62,9.4,10.19,16.8,21.71,22.64,34.25.63,1.36,1.7,2.76,1.68,4.14-.02,1.78-.91,3.56-1.43,5.34-1.85-.67-4.04-.94-5.43-2.13-1.28-1.1-1.58-3.27-2.53-4.85-5.34-8.88-10.51-17.88-16.24-26.51-2.29-3.46-5.84-6.1-8.82-9.11-.41.26-.81.51-1.22.77,2.45,16.84,4.89,33.67,7.34,50.51-2.73.9-5.47,1.81-8.2,2.71-2.05-16.63-4.11-33.25-6.31-51.06-1.04,1.99-1.63,2.8-1.9,3.71-3.86,12.96-7.65,25.93-11.5,38.89-.74,2.49-1.05,5.87-4.76,5.31-3.74-.56-3.14-3.5-2.7-6.31,2.23-14.33,6.67-27.96,12.65-41.13.72-1.58,1.26-3.24,2.24-5.81-6.48,2.98-11.8,5.73-17.35,7.9-13.89,5.43-28.75,4.24-37.09-7.07-.58-2.7-1.16-5.39-1.75-8.09.72-10.59,6.4-18.06,14.95-23.71,2.6-.89,5.2-1.77,7.79-2.66,2.87-.43,5.74-.87,8.61-1.3Zm3.29,8.99c-4.82.87-9.64,1.73-14.47,2.6-7.49,2.58-11.48,7.94-11.94,16.08-.59,4.46,1.97,6.81,5.65,8.4,6.55,3.37,13.1,2.71,19.66.02,5.69-2.75,11.37-5.51,17.06-8.26,2.36-1.35,4.72-2.69,7.39-4.21-6.84-7.31-12.84-14.56-23.34-14.63Zm34.37,14.11c13.23-2.7,26.5-5.2,39.66-8.23,3.8-.88,7.49-2.92,10.82-5.06,5.18-3.34,7.21-10.52,5.11-16-1.89-4.9-6.45-7.17-13.31-6.39-2.31.26-4.67.66-6.83,1.47-16.6,6.24-28.38,17.78-36.29,33.47.03.39.07.78.1,1.17.25-.14.49-.29.74-.43Z"/>
      <path class="cls-2" d="m260.7,793.2c2.44-23.47,2.64-46.45,10.27-68.31,1.09-3.12,2.56-6.28,4.61-8.81,1.17-1.45,4.3-2.71,5.77-2.12,1.42.57,2.83,3.78,2.55,5.56-1.93,12.15-5.45,24.15-6.28,36.34-1.17,17.12-1.11,34.4-.32,51.56.56,12.08,3.11,24.07,4.97,36.07.48,3.11,1.75,6.09,2.56,9.15,1.03,3.87.91,7.7-3.32,9.39-4.22,1.69-7.5-.63-8.68-4.54-3.11-10.33-6.41-20.69-8.36-31.27-2.05-11.11-2.63-22.49-3.77-33.02Z"/>
      <path class="cls-2" d="m384.02,856.13c-4.33-.06-8.65-.12-12.98-.18-2.09-6.64-4.59-13.19-6.18-19.95-2.05-8.72-3.91-17.55-4.89-26.44-1.51-13.73-3.24-27.57-2.94-41.32.29-13.38,2.73-26.76,4.82-40.04.58-3.72,3.24-7.12,4.95-10.67,1.35.09,2.7.18,4.05.27,0,4.93-.15,9.87,0,14.79.61,19.82.79,39.67,2.17,59.44.92,13.2,3.34,26.32,5.53,39.4,1.4,8.3,3.62,16.47,5.47,24.69Z"/>
      <path class="cls-2" d="m221.52,799.39c1.05-28,2.92-51.9,11.52-74.69,1.63-4.31,3.87-8.55,6.63-12.22,1.25-1.66,4.44-1.87,6.75-2.73.33,2.29,1.37,4.75.86,6.84-2.37,9.69-5.76,19.17-7.63,28.94-1.94,10.09-2.84,20.42-3.65,30.68-.74,9.31-.94,18.68-1.05,28.02-.18,15.06,1.83,29.89,5.6,44.47.29,1.12.72,2.52.3,3.43-.97,2.12-2.01,4.87-3.81,5.73-1.19.57-4.85-1.21-5.48-2.74-2.61-6.28-5.46-12.73-6.43-19.37-1.94-13.32-2.71-26.82-3.61-36.36Z"/>
      <path class="cls-2" d="m336.62,856.07c-4.71.04-9.42.09-14.13.13-.55-2.42-1.1-4.84-1.67-7.26-3.11-13.25-7.05-26.37-9.12-39.79-2.07-13.45-3.15-27.19-3.04-40.79.1-12.06,2.3-24.13,3.91-36.15.39-2.88,1.81-5.78,3.38-8.28.76-1.22,2.95-2.06,4.49-2.04.69,0,1.98,2.51,1.96,3.87-.17,11.19-1.34,22.41-.73,33.54.92,16.58,3.16,33.09,4.62,49.64,1.23,13.9,4.75,27.19,9.62,40.21.78,2.1.5,4.6.71,6.92Z"/>
      <path class="cls-2" d="m361.76,710.51c-13.28-1-26.56-2.06-39.86-2.91-1.47-.09-3.01,1.08-4.52,1.67,1,1.09,1.85,2.42,3.06,3.19,1.22.77,2.79.99,4.2,1.45-4.1-.16-8.26.08-12.28-.55-19.08-2.98-38.12-6.37-56.23-13.27-9.47-3.61-18.52-8.36-27.77-12.56-1.2-.55-2.48-.93-3.73-1.39,1.08-3.33,2.16-6.66,3.25-10,1.32.16,2.72.1,3.94.53,10.09,3.51,19.96,7.82,30.26,10.52,19.8,5.18,39.81,9.55,59.77,14.09,10.67,2.42,21.45,4.42,32.15,6.74,2.64.57,5.17,1.65,7.76,2.49Z"/>
      <path class="cls-5" d="m447.04,389.66c-2.41,6.8-4.82,13.6-7.41,20.9,10.71-.87,18.76-6.98,27.75-15.32,1.43,9.79,3.27,18.1,3.74,26.5,1.17,20.62-.18,41.17-3.87,61.5-2.66,14.65-10.2,27.2-20.57,37.28-8.31,8.09-9.84,16.34-7.82,26.97,2.51,13.25,7.47,24.87,17.64,33.98-16.03,8.29-33.31,11.55-51.12,12.01-9.15.24-18.47.29-27.47-1.11-11.94-1.85-23.64-5.2-35.45-7.91,9.83-11.5,13.55-25.35,15.74-39.91,1.55-10.32,1.28-19.88-7.01-27.68-8.59-8.08-12.63-18.81-16.26-29.62-.86-2.57-2.12-3.46-4.4-4.51-11.79-5.42-21.82-12.4-23.4-26.94-.7-6.49,1.18-11.51,6.43-15.11,4.11-2.82,12.6-2.1,16.99,1.44,2.58,2.08,4.71,4.73,7.13,7.22,1.12-6.5,1.88-12.82,3.35-18.97,2.07-8.69,8.27-13.91,16.31-16.85,5.9-2.16,12.09-3.53,18.09-5.43,12.64-4,25.78-7.04,35.32-17.39.3-.33.89-.38,1.35-.56,0,0-.1-.17-.1-.17-1.86,4.27-3.67,8.56-5.61,12.8-.56,1.22-1.47,2.27-2.22,3.4,1.62.52,3.29,1.59,4.86,1.46,13.36-1.07,24.22-7.62,34.17-16.05,1-.85,1.98-1.73,2.97-2.59.28.21.57.43.85.64Zm-49.73,31.5c-12.81.06-23.18,10.19-23.21,22.68-.04,13.49,11.09,24.81,24.41,24.83,12.94.02,23.12-10.9,22.95-24.59-.17-13-10.69-22.99-24.15-22.92Zm70.2,22.88c0-11.68-10.03-22.69-20.93-22.6-12.18.1-21.84,9.05-22.28,22.2-.47,13.87,7.93,23.09,20.07,23.1,13.55.02,23.16-9.4,23.14-22.7Zm-104.86,113.29c-.09,7.12,4.14,9.87,8.06,12.36,14.32,9.08,30.16,11.79,46.65,9.01,6.4-1.08,12.53-4.25,18.49-7.08,1.32-.63,1.42-3.82,2.08-5.83-2.07-.19-4.3-.94-6.18-.43-3.18.86-6.03,3-9.23,3.78-18.9,4.64-36.78,2.41-53.26-8.52-1.77-1.17-3.82-1.91-6.62-3.29Zm10.88-80.19c-.67.38-1.34.77-2.01,1.15.9,2.64,1.47,5.46,2.76,7.89,4.9,9.16,12.42,15.61,21.71,20.05,17.43,8.33,38.17,4.67,49.03-8.72,1.63-2.01,3.97-4.53,1.13-6.97-2.7-2.31-4.42.39-6.13,2.22-10.51,11.24-23.23,13.86-37.52,9.09-10.49-3.5-18.62-10.24-24.69-19.51-1.22-1.87-2.85-3.48-4.29-5.21Zm49.59-.49c1.67,4.27,4.76,3.62,7.23,2.66,3.18-1.23,5.95-3.5,5.02-7.55-.81-3.53-3.48-5.25-7.02-5.11-3.09.12-6.96-1.07-8.57,3.7,3.96.55,7.44,1.04,10.91,1.52,0,.54-.02,1.09-.02,1.63-1.17.47-2.34.94-3.5,1.42-1.3.54-2.6,1.1-4.06,1.72Zm-100.99-16.56c0,1.58-.57,3.62.18,4.87.62,1.04,3.07,1.91,4.21,1.49,1.6-.59,3.42-2.21,3.95-3.79,1.37-4.14-2.1-8.54-6.57-8.43-1.51.04-2.98,1.43-4.48,2.2.9,1.22,1.81,2.44,2.72,3.66Z"/>
      <path class="cls-5" d="m462.8,636.83l.7,27.24c-3.47.42-7.05.42-10.39,1.31-21.32,5.69-43.02,7.16-64.9,5.65-17.27-1.19-34.52-2.9-51.7-5-23.13-2.82-45.43-9.2-67.17-17.48-8.89-3.39-17.66-7.11-26.48-10.68,4.82-9.38,9.64-18.77,14.46-28.15,3.36,2.39,6.67,4.88,10.1,7.15,14.22,9.41,29.95,15.13,46.38,19.33,21.72,5.56,43.72,8.42,66.13,8.8,19.23.32,38.3-1.08,57.27-4.05,8.53-1.34,17.06-2.74,25.59-4.11Z"/>
      <path class="cls-5" d="m494.66,612.31c-7.34.23-14.68.47-22.02.69-8.18.25-9.08,1-10.3,8.77-1.67.07-3.43-.18-5.01.24-19.12,5.16-38.76,6.99-58.37,7.55-17.83.52-35.82-.23-53.58-2.04-20.76-2.12-41.18-6.77-60.55-14.88-7.18-3-13.97-6.96-20.94-10.47,3.15-4.69,7.22-7.79,12.7-9.88,8.38-3.19,16.32-7.56,24.18-11.31-.75,3.91-4.19,7.73-9.92,10.56-1.19.59-2.66.77-3.67,1.56-1.17.92-1.98,2.31-2.95,3.49,1.29.76,2.54,2.11,3.87,2.18,10.68.53,20.4-2.95,29.78-7.64,1.17-.59,2.4-1.06,3.6-1.59.16.2.34.39.54.56-1.63,2.52-3.26,5.04-5.28,8.17,8.3,1.41,13.35-3.04,18.66-6.79,15.59,10.95,33.58,14.75,51.97,15.98,15.79,1.06,31.73.94,47.39-2.75,12.41-2.92,24.57-6.31,34.83-14.37,11.82,4.1,23.74,7.43,37.06,6.03-3.67-4.71-6.58-8.45-9.69-12.46,10.9,3.32,20.97,6.39,31.05,9.46-.94,1.04-1.68,2.46-2.85,3.05-8.84,4.49-17.78,8.8-26.66,13.24-1.38.69-2.56,1.76-3.84,2.66Z"/>
      <path class="cls-5" d="m361.76,710.51c-2.58-.84-5.11-1.92-7.76-2.49-10.7-2.32-21.47-4.32-32.15-6.74-19.96-4.53-39.97-8.9-59.77-14.09-10.3-2.7-20.17-7.01-30.26-10.52-1.23-.43-2.62-.36-3.94-.53,3.37-9.06,6.74-18.12,10.1-27.18,3.55,2.12,7.02,4.39,10.66,6.33,21.82,11.66,45.09,19.19,69.25,24.17,21.39,4.4,42.88,7.95,64.81,7.77,1,0,2.01.14,3.01.13,11.3-.14,22.6-.23,33.9-.5,3.14-.08,6.32-.48,9.39-1.12,11.71-2.43,23.38-5.03,35.07-7.56.56,10.51,1.13,21.02,1.72,32.07-4.64.29-8.93.76-13.22.78-26.97.12-53.93.16-80.9.15-3.31,0-6.62-.44-9.94-.68Z"/>
      <path class="cls-2" d="m464.09,678.19c-11.69,2.53-23.36,5.13-35.07,7.56-3.08.64-6.25,1.04-9.39,1.12-11.3.27-22.6.36-33.9.5-1,.01-2.01-.13-3.01-.13-21.94.18-43.43-3.37-64.81-7.77-24.16-4.97-47.43-12.51-69.25-24.17-3.64-1.95-7.11-4.21-10.66-6.33l4.86-11.11c8.82,3.57,17.59,7.29,26.48,10.68,21.74,8.29,44.04,14.66,67.17,17.48,17.18,2.1,34.43,3.81,51.7,5,21.87,1.51,43.58.04,64.9-5.65,3.34-.89,6.92-.9,10.39-1.31.2,4.71.4,9.41.6,14.12Z"/>
      <path class="cls-2" d="m263.89,602.17c6.97,3.52,13.75,7.47,20.94,10.47,19.38,8.11,39.79,12.76,60.55,14.88,17.76,1.81,35.74,2.56,53.58,2.04,19.61-.57,39.25-2.4,58.37-7.55,1.58-.43,3.33-.18,5.01-.24.15,5.02.31,10.04.46,15.06-8.53,1.37-17.05,2.77-25.59,4.11-18.97,2.98-38.04,4.38-57.27,4.05-22.41-.37-44.41-3.24-66.13-8.8-16.43-4.21-32.17-9.92-46.38-19.33-3.44-2.28-6.74-4.76-10.1-7.15,2.19-2.52,4.38-5.03,6.57-7.55Z"/>
      <path class="cls-2" d="m469.59,590.34c-10.26,8.06-22.42,11.44-34.83,14.37-15.66,3.69-31.6,3.81-47.39,2.75-18.38-1.23-36.38-5.03-51.97-15.98,2.36-2.34,4.71-4.67,7.07-7.01,11.8,2.71,23.51,6.06,35.45,7.91,9,1.4,18.32,1.35,27.47,1.11,17.82-.46,35.09-3.72,51.12-12.01,4.36,2.96,8.72,5.91,13.08,8.87Z"/>
      <path class="cls-2" d="m494.66,612.31c1.27-.9,2.46-1.97,3.84-2.66,8.87-4.44,17.81-8.74,26.66-13.24,1.16-.59,1.91-2.01,2.85-3.05,7.15-.42,14.3-.84,21.45-1.25.15-.69.3-1.38.45-2.07-2.31-1.84-4.61-3.67-6.92-5.51,3.06-3.42,6.11-6.84,9.17-10.26,3.8,4.04,7.59,8.07,11.39,12.11-1.15.58-2.61.89-3.42,1.79-7.58,8.46-16.47,15.26-26.15,21.11-.94.57-1.36,2.01-2.02,3.05-12.43,0-24.85,0-37.28-.01Z"/>
      <path class="cls-5" d="m552.15,574.27c-3.06,3.42-6.11,6.84-9.17,10.26-14.16-7.98-23.29-20.17-29.31-34.97.43-.97.87-1.95,1.3-2.92,14.12,6.89,26.13,16.6,37.17,27.63Z"/>
      <path class="cls-5" d="m531.94,612.32c.66-1.04,1.08-2.48,2.02-3.05,9.69-5.85,18.57-12.65,26.15-21.11.8-.9,2.26-1.21,3.42-1.79.73.8,1.46,1.61,2.18,2.41-8.56,5.65-14.24,13.12-14.95,23.71-6.27-.06-12.55-.12-18.82-.18Z"/>
      <path class="cls-2" d="m514.98,546.65c-.43.97-.87,1.95-1.3,2.92-.67-1.25-1.35-2.5-2.66-4.95,2.13,1.08,3.05,1.55,3.97,2.02Z"/>
      <path class="cls-5" d="m446.19,389.02l.71-1.08c.05.57.09,1.15.14,1.72-.28-.21-.57-.43-.85-.64Z"/>
      <path class="cls-5" d="m412.1,390.16c.19-.19.39-.37.58-.56,0,.21.01.43.02.64-.23-.08-.46-.16-.69-.25,0,0,.09.16.09.16Z"/>
      <path class="cls-5" d="m321.48,589.54c.23-.19.45-.37.68-.56-.05.37-.1.75-.15,1.12-.19-.17-.37-.36-.53-.56Z"/>
      <path class="cls-5" d="m497.69,716.3c5-.32,9.99-.68,14.99-.93,3.87-.2,5.28-2.13,7.32-5.68,4.69-8.16,10.73-15.72,17.17-22.64,6.66-7.15,14.97-12.34,24.85-14.29,6.91-1.36,14.36-2.3,18.97,4.14,4.51,6.29-.1,12.37-2.85,18.22-3.19,6.8-9.73,9.9-15.17,14.26-1.49,1.2-2.11,3.48-3.12,5.26,2.14-.06,4.76.67,6.33-.3,8.64-5.36,16.69-11.75,25.57-16.63,11.08-6.08,22.62-11.4,34.28-16.3,4.64-1.95,10.1-2.31,15.24-2.64,5.57-.36,9.41,3.8,10.4,10.2,1.02,6.58-2.41,12.81-8.6,16.85-6.97,4.56-13.83,9.31-20.39,14.43-1.41,1.1-1.35,4.1-1.97,6.22,2.06-.27,4.52.08,6.11-.93,7.74-4.95,15.25-10.28,22.85-15.45.82-.56,1.7-1.07,2.63-1.43,6.72-2.63,12.72-2.37,14.95,1.16,3.42,5.43.25,10.5-2.92,14.19-5.96,6.93-13.01,12.9-19.54,19.35-2.2,2.18-7.06,3.96-4.34,7.7,3.06,4.2,5.77-.5,8.23-2.18,6.18-4.24,11.83-9.2,19.64-10.69,8.49-1.62,14.42,3.83,10.85,11.58-2.84,6.15-8.1,11.22-12.48,16.61-1.34,1.65-3.81,2.49-4.89,4.24-.96,1.56-.71,3.86-1,5.83,1.93-.03,4.23.6,5.73-.23,3.05-1.67,5.55-4.32,8.51-6.2,3.54-2.24,7.72-3.63,11.28-.75,3.51,2.84,3.06,7.11,1.79,11.16-3.8,12.05-12.22,20.9-21.64,28.33-17.64,13.92-37.14,24.18-59.88,27.67-21.45,3.29-42.74,7.62-64.11,11.41-2.45.44-5,.34-7.5.49-.97-2.47-1.81-5-2.92-7.4-3.37-7.28-7.65-14.25-10.13-21.82-6.07-18.52-12.11-37.13-16.65-56.06-3.67-15.31-5.13-31.16-7.57-46.76Zm56.44,119.25c.34-.07.68-.14,1.02-.21-3.18-16.07-5.45-32.39-9.79-48.14-5-18.17-11.75-35.86-17.98-53.67-.64-1.85-2.89-3.13-4.39-4.68-.33,2.21-1.36,4.59-.88,6.61,1.47,6.17,3.32,12.26,5.37,18.27,8.25,24.3,14.82,48.99,18.15,74.49.48,3.64,1.05,7.31,2.17,10.78.42,1.28,2.53,2.02,3.88,3,.82-1.31,1.76-2.57,2.4-3.96.31-.7.05-1.65.05-2.49Z"/>
      <path class="cls-5" d="m766.57,829.97c1.06,2.12,2.12,4.24,3.18,6.35.18,2.43.02,4.94.6,7.27,5.85,23.17,11.93,46.28,17.67,69.48,1.19,4.82,1.21,9.92,1.85,15.65-8.93,2.1-17.53,4.69-26.32,6.09-29.48,4.7-58.75,2.43-87.73-4.08-5.82-1.31-11.37-3.86-16.97-6.03-5.26-2.04-8.58-6.27-11.17-11.03-3.05-5.59.64-12.6,7.27-12.64,7.13-.04,14.26,1.43,21.4,2.04,8.98.76,17.97,1.44,26.97,1.83,1.57.07,3.22-1.47,4.83-2.26-1.54-1.02-2.97-2.66-4.65-2.96-6.91-1.23-13.87-2.26-20.85-2.98-10.41-1.07-20.87-1.75-31.29-2.77-1.01-.1-1.9-1.45-2.84-2.22,2.09-.5,4.17-1.01,6.26-1.51,21.94.63,43.88,1.2,65.81,1.93,5.46.18,7.88-1.46,8.4-6.8.22-2.28.04-4.61.04-6.9,6.59.37,12.58.86,18.56.92,1.28.01,2.57-1.53,3.86-2.35-1.17-.96-2.27-2.01-3.53-2.83-.66-.43-1.59-.46-2.41-.62-8.68-1.76-17.47-3.11-26.02-5.38-8.18-2.17-16.43-4.56-22.91-10.63-3.75-3.51-4.54-7.45-2.72-12.27,2.56-6.76,8.04-9.31,14.45-9.84,7.97-.66,16.05-.09,24-.87,11.45-1.13,22.83-3.02,34.24-4.58Z"/>
      <path class="cls-5" d="m627.44,673.44c-2.45-16.84-4.89-33.67-7.34-50.51.41-.26.81-.51,1.22-.77,2.98,3.01,6.52,5.64,8.82,9.11,5.72,8.63,10.9,17.63,16.24,26.51.95,1.57,1.25,3.75,2.53,4.85,1.4,1.2,3.59,1.46,5.43,2.13.52-1.78,1.42-3.55,1.43-5.34.01-1.37-1.05-2.77-1.68-4.14-5.84-12.55-13.25-24.06-22.64-34.25,33.81,0,67.61,0,101.75,0-1.61,34.37-3.2,68.29-4.79,102.21-18.81.97-37.62,1.93-56.44,2.9.88-2.14,1.87-4.25,2.61-6.44,3.7-10.94-2.63-19.55-14.21-19.42-.82,0-1.63,0-2.87,0,1.79-6.62,2.29-12.85-.86-19.09-3.35-6.63-8.61-9.71-15.75-9.43-4.5.17-8.96,1.09-13.44,1.68Z"/>
      <path class="cls-5" d="m552.51,620.59c8.34,11.3,23.2,12.5,37.09,7.07,5.55-2.17,10.86-4.92,17.35-7.9-.98,2.56-1.52,4.23-2.24,5.81-5.98,13.17-10.42,26.8-12.65,41.13-.44,2.82-1.04,5.75,2.7,6.31,3.72.56,4.02-2.82,4.76-5.31,3.86-12.96,7.65-25.93,11.5-38.89.27-.91.87-1.71,1.9-3.71,2.2,17.8,4.26,34.43,6.31,51.06-10.61,5.14-21.21,10.28-31.73,15.38.44-1.49,1.23-3.47,1.61-5.52,2.08-11.22-5.88-20.48-17.92-20.91-13.66-.49-24.85,5.3-35.14,13.66-9.06,7.36-14.6,17.31-20.6,26.96-.62,1-1.71,2.34-2.65,2.4-13,.82-26.01,1.44-39.55,2.13-.88-25.62-1.75-51-2.63-76.37,7.19-1.92,14.48-3.51,21.52-5.88,6.04-2.03,11.79-4.94,17.66-7.46,14.23.02,28.46.04,42.69.06Z"/>
      <path class="cls-5" d="m648,830.11c11.76-6.37,23.72-12.45,32.39-23.14,6.71-8.28,13.93-16.33,16-27.27,2-10.54-2.51-16.93-13.43-19.26,5.01-8.63,7.05-17.28-.1-25.78,15.08-.78,30.17-1.56,45.25-2.34-1.31,31.87-2.62,63.74-3.87,94.02-8.99,1.69-17.71,2.3-25.67,5.08-12.18,4.24-19.33,22.18-5.57,32.66,3.67,2.8,7.52,5.6,11.72,7.41,5.56,2.4,11.54,3.82,17.33,5.66-1.44,8.57-1.45,8.74-10.11,8.37-19.07-.81-38.14-1.81-57.21-2.73-2.24-17.56-4.48-35.12-6.73-52.67Z"/>
      <path class="cls-5" d="m414.14,718.57c11.08-.12,22.16-.24,33.25-.36-2.35,10.76-2.76,21.51-2.32,32.6.72,18.1,3.96,35.64,8.14,53.12,4.12,17.19,9.3,33.98,18.31,49.35-13.09.73-26.18,1.45-39.27,2.18-.22-3.19.14-6.57-.77-9.55-2.69-8.78-6.3-17.28-8.82-26.1-6.26-21.92-9.16-44.39-9.45-67.14-.14-11.36.59-22.73.93-34.1Z"/>
      <path class="cls-5" d="m646.23,882.45c-25.32-.72-50.64-1.33-75.95-2.19-26.65-.9-53.29-2.04-80.49-3.1-.42-5.12-.88-10.68-1.37-16.6,51.56-3.61,102.38-9.37,151.18-26.51,2.21,16.14,4.42,32.27,6.63,48.41Z"/>
      <path class="cls-5" d="m521.17,850.03c-12.85.97-25.69,1.94-38.54,2.91-.48-3.45-.55-7.02-1.51-10.32-4.99-17.1-10.57-34.03-15.25-51.21-6.55-24.03-9.08-48.65-9.42-73.52,9.35-.33,18.71-.67,28.06-1,.16,19.02,2.7,37.7,7.08,56.23,4.49,18.99,9.71,37.68,18.31,55.26,3.57,7.3,7.5,14.44,11.26,21.65Z"/>
      <path class="cls-5" d="m384.02,856.13c-1.85-8.23-4.07-16.39-5.47-24.69-2.2-13.08-4.62-26.2-5.53-39.4-1.37-19.77-1.55-39.62-2.17-59.44-.15-4.93-.01-9.86,0-14.79,10.4.26,20.79.52,31.19.78-1.34,11.39-3.68,22.78-3.76,34.18-.09,13.45.88,27.06,3.06,40.33,2.28,13.91,6.16,27.6,10.06,41.18,2.15,7.48,5.78,14.53,8.75,21.78-12.04.03-24.08.05-36.13.08Z"/>
      <path class="cls-5" d="m752.43,572.83c4.61-9.85-4.44-20.05-8.28-28.88,36.6,11.54,62.1-.85,82.18-25.91,3.88,6.39,7.7,12.68,11.81,19.45-14.79,25.58-55.51,38.47-85.71,35.34Z"/>
      <path class="cls-2" d="m420.15,856.05c-2.96-7.24-6.6-14.3-8.75-21.78-3.9-13.58-7.78-27.27-10.06-41.18-2.17-13.27-3.14-26.88-3.06-40.33.07-11.4,2.42-22.79,3.76-34.18,4.03,0,8.07,0,12.1,0-.34,11.37-1.08,22.74-.93,34.1.29,22.76,3.19,45.23,9.45,67.14,2.52,8.82,6.12,17.33,8.82,26.1.92,2.98.55,6.36.77,9.55-4.03.19-8.06.39-12.1.58Z"/>
      <path class="cls-2" d="m521.17,850.03c-3.76-7.21-7.69-14.34-11.26-21.65-8.6-17.58-13.82-36.27-18.31-55.26-4.38-18.53-6.93-37.21-7.08-56.23,4.39-.19,8.79-.39,13.18-.58,2.44,15.61,3.9,31.45,7.57,46.76,4.54,18.93,10.58,37.53,16.65,56.06,2.48,7.56,6.75,14.53,10.13,21.82,1.11,2.4,1.96,4.93,2.92,7.4-4.6.56-9.2,1.12-13.79,1.68Z"/>
      <path class="cls-2" d="m456.45,717.89c.34,24.87,2.87,49.49,9.42,73.52,4.68,17.18,10.26,34.11,15.25,51.21.96,3.31,1.03,6.87,1.51,10.32-3.7.12-7.41.23-11.11.35-9.01-15.37-14.19-32.16-18.31-49.35-4.19-17.48-7.42-35.02-8.14-53.12-.44-11.08-.03-21.84,2.32-32.6,3.02-.11,6.04-.22,9.06-.33Z"/>
      <path class="cls-3" d="m728.11,732.31c-15.08.78-30.17,1.56-45.25,2.34-4.63-1.35-9.25-2.69-14.44-4.2.92-1.12,2.23-2.71,3.55-4.31,18.81-.97,37.62-1.93,56.44-2.9,2.68.12,5.37.24,8.05.35,4.02,4.38,4.02,5.54.04,8.02-2.79.23-5.59.46-8.38.69Z"/>
      <path class="cls-3" d="m646.23,882.45c-2.21-16.14-4.42-32.27-6.63-48.41,2.8-1.31,5.6-2.62,8.4-3.94,2.24,17.56,4.49,35.12,6.73,52.67.02,2.47.04,4.94.06,7.41-2.09.5-4.17,1.01-6.26,1.51-.77-3.08-1.54-6.17-2.3-9.25Z"/>
      <path class="cls-2" d="m509.82,620.53c-5.88,2.52-11.62,5.44-17.66,7.46-7.04,2.36-14.34,3.95-21.52,5.88-.43-4.79-.85-9.58-1.19-13.34h40.37Z"/>
      <path class="cls-5" d="m652.28,376.38c.39-.08.78-.16,1.17-.24-.2.34-.39.68-.59,1.03-.22-.24-.41-.51-.58-.79Z"/>
      <path class="cls-5" d="m731.13,360.8c.29-.18.59-.35.88-.53-.04.4-.08.8-.11,1.2-.25-.22-.51-.45-.77-.67Z"/>
      <path class="cls-1" d="m736.45,723.6c-2.68-.12-5.37-.24-8.05-.35,1.59-33.92,3.18-67.84,4.79-102.21-34.14,0-67.94,0-101.75,0-2.11-1.55-4.22-3.1-7.64-5.62,8.26-1.12,15.16-2.06,22.06-3,28.97.05,57.94.09,86.92.15,7.77.02,8.76.81,8.44,8.72-1.06,26.59-2.32,53.17-3.54,79.76-.35,7.52-.82,15.04-1.24,22.55Z"/>
      <path class="cls-2" d="m618.93,607.19c7.91-15.7,19.69-27.23,36.29-33.47,2.16-.81,4.53-1.21,6.83-1.47,6.86-.78,11.42,1.49,13.31,6.39,2.11,5.48.07,12.66-5.11,16-3.33,2.15-7.01,4.19-10.82,5.06-13.15,3.03-26.43,5.53-39.66,8.23-.28-.25-.57-.49-.85-.74Z"/>
      <path class="cls-1" d="m601.36,612.67c-5.69,2.75-11.37,5.51-17.06,8.26-6.55,0-13.1-.01-19.65-.02-3.68-1.59-6.23-3.94-5.65-8.4h13.94c.8-5.82,1.43-11.19-2-16.08,4.82-.87,9.64-1.73,14.47-2.6-1.45,6.05-2.9,12.11-4.51,18.84h20.46Z"/>
      <path class="cls-2" d="m601.36,612.67h-20.46c1.61-6.74,3.06-12.79,4.51-18.84,10.5.07,16.5,7.32,23.34,14.63-2.67,1.52-5.03,2.87-7.39,4.21Z"/>
      <path class="cls-2" d="m570.94,596.42c3.43,4.89,2.8,10.27,2,16.08h-13.94c.46-8.14,4.45-13.51,11.94-16.08Z"/>
      <path class="cls-2" d="m564.65,620.9c6.55,0,13.1.01,19.65.02-6.55,2.69-13.11,3.35-19.65-.02Z"/>
      <path class="cls-2" d="m619.78,607.93c-.25.14-.49.29-.74.43-.03-.39-.07-.78-.11-1.17.28.25.56.49.85.74Z"/>
      <path class="cls-1" d="m397.31,421.16c13.46-.06,23.98,9.93,24.15,22.92.18,13.69-10.01,24.61-22.95,24.59-13.32-.02-24.45-11.34-24.41-24.83.03-12.49,10.4-22.62,23.21-22.68Zm1.26,41.38c8.95.26,17.22-8.32,17.33-17.98.11-8.97-8.69-17.77-18.08-18.09-9.41-.31-17.66,7.75-17.73,17.32-.07,10.06,8.2,18.46,18.48,18.75Z"/>
      <path class="cls-1" d="m467.51,444.04c.01,13.3-9.59,22.72-23.14,22.7-12.14-.02-20.53-9.24-20.07-23.1.44-13.15,10.1-22.1,22.28-22.2,10.9-.09,20.92,10.92,20.93,22.6Zm-6.06.71c.1-9.7-6.65-17.29-15.4-17.3-8.9,0-15.93,7.19-15.96,16.36-.04,10.16,6.78,18.02,15.8,17.5,10.35-.6,16.4-8.09,15.56-16.56Z"/>
      <path class="cls-1" d="m362.64,557.33c2.8,1.37,4.86,2.12,6.62,3.29,16.48,10.92,34.35,13.15,53.26,8.52,3.19-.78,6.04-2.92,9.23-3.78,1.88-.51,4.11.24,6.18.43-.66,2.01-.76,5.21-2.08,5.83-5.96,2.83-12.09,6-18.49,7.08-16.49,2.78-32.33.07-46.65-9.01-3.92-2.49-8.15-5.24-8.06-12.36Z"/>
      <path class="cls-1" d="m373.52,477.14c1.44,1.73,3.07,3.34,4.29,5.21,6.07,9.27,14.2,16,24.69,19.51,14.29,4.77,27.01,2.15,37.52-9.09,1.71-1.82,3.43-4.53,6.13-2.22,2.84,2.43.5,4.95-1.13,6.97-10.86,13.39-31.6,17.05-49.03,8.72-9.3-4.44-16.81-10.89-21.71-20.05-1.3-2.43-1.86-5.25-2.76-7.89.67-.38,1.34-.77,2.01-1.15Z"/>
      <path class="cls-1" d="m423.11,476.65c1.46-.62,2.75-1.18,4.06-1.72,1.16-.48,2.34-.95,3.5-1.42,0-.54.02-1.09.02-1.63-3.47-.49-6.95-.97-10.91-1.52,1.6-4.77,5.48-3.58,8.57-3.7,3.54-.14,6.2,1.58,7.02,5.11.93,4.06-1.84,6.32-5.02,7.55-2.47.96-5.56,1.61-7.23-2.66Z"/>
      <path class="cls-1" d="m322.12,460.09c-.91-1.23-1.81-2.44-2.72-3.66,1.49-.77,2.97-2.16,4.48-2.2,4.47-.11,7.95,4.3,6.57,8.43-.52,1.58-2.34,3.2-3.95,3.79-1.14.42-3.59-.45-4.21-1.49-.75-1.25-.18-3.29-.18-4.87Z"/>
      <path class="cls-1" d="m654.79,890.19c-.02-2.47-.04-4.94-.06-7.41,19.07.92,38.13,1.92,57.21,2.73,8.66.37,8.67.2,10.11-8.37-5.79-1.84-11.77-3.27-17.33-5.66-4.19-1.81-8.05-4.61-11.72-7.41-13.76-10.49-6.61-28.42,5.57-32.66,7.96-2.78,16.68-3.39,25.67-5.08,1.25-30.28,2.56-62.15,3.87-94.02,2.79-.23,5.59-.46,8.38-.69-1.65,31.64-3.3,63.28-5.01,95.98,7.83-1.02,15.68-1.98,23.52-3.08,19.28-2.68,35.55-12.51,51.64-22.42,32.56-20.06,58.52-46.26,73.93-81.91,9.34-21.61,12.92-44.22,12-67.65-.2-5.14-.03-10.29-.03-15.44.46-.18.92-.37,1.39-.55.78,1.47,2.15,2.9,2.24,4.41.74,12.33,2.74,24.81,1.57,36.98-5.5,57.26-37.74,97.47-84.23,127.83-10.75,7.02-22.52,12.48-33.93,18.46-4.18,2.2-8.66,3.83-13,5.72-11.41,1.56-22.79,3.44-34.24,4.58-7.95.79-16.03.22-24,.87-6.41.53-11.9,3.08-14.45,9.84-1.82,4.81-1.03,8.75,2.72,12.27,6.48,6.07,14.73,8.45,22.91,10.63,8.55,2.27,17.34,3.62,26.02,5.38.82.17,1.75.2,2.41.62,1.26.82,2.36,1.87,3.53,2.83-1.29.82-2.58,2.36-3.86,2.35-5.99-.06-11.97-.55-18.56-.92,0,2.29.19,4.61-.04,6.9-.52,5.34-2.94,6.98-8.4,6.8-21.93-.73-43.87-1.3-65.81-1.93Z"/>
      <path class="cls-1" d="m554.13,835.56c0,.84.26,1.79-.05,2.49-.63,1.4-1.58,2.65-2.4,3.96-1.34-.99-3.46-1.72-3.88-3-1.12-3.47-1.69-7.15-2.17-10.78-3.34-25.5-9.9-50.19-18.15-74.49-2.04-6.01-3.9-12.1-5.37-18.27-.48-2.02.54-4.4.88-6.61,1.5,1.55,3.75,2.83,4.39,4.68,6.23,17.81,12.98,35.5,17.98,53.67,4.34,15.75,6.6,32.07,9.79,48.14-.34.07-.68.14-1.02.21Z"/>
      <path class="cls-1" d="m813.98,455.13c.89,2.61,2.49,5.06,2.44,7.49-.35,19.67-4.47,38.26-18.83,52.77-7.56,7.64-17.48,11.18-28.23,12.46-29.01,3.45-47.33-16.72-56.45-37.82-1.38-3.2-2.66-6.46-3.65-9.8-.89-2.99-.98-4.76,3.66-4.01,16.04,2.6,32.1,1.25,47.92-1.91,18.29-3.66,35.68-10.09,53.14-19.18Zm-54.39,66.79c22.19.06,38.12-10.95,44.31-26.92,1.21-3.12.89-4.62-2.62-5.92-13.94-5.16-28.16-5.86-41.72-.31-8.5,3.48-16.04,9.51-23.6,14.96-3.1,2.23-3.61,5.39.31,8.61,8.35,6.87,17.9,9.47,23.32,9.58Z"/>
      <path class="cls-1" d="m745.53,444.05c.32.02.83-.03,1.28.11,1.75.55,3.48,1.17,5.22,1.77-1.36,1.17-2.66,2.41-4.09,3.48-1.32.99-3.43,1.48-4.03,2.75-.98,2.1-1.93,5.01-1.16,6.86.54,1.3,3.97,2.01,6.06,1.91,2.41-.11,4.73-1.53,7.15-2.09.92-.21,2.02.36,3.04.58-.25,1.04-.16,2.38-.79,3.07-4.27,4.67-15.35,5.67-19.34,1.16-2.71-3.06-4.7-2.58-7.6-1.05-10.36,5.43-20.24,4.72-29.62-2.45-9.14-6.98-12.72-19.71-8.66-31.26,3.77-10.72,14.26-17.61,26.28-17.25,11.36.34,21.78,8.45,24.59,19.6,1.01,3.99,1.1,8.21,1.67,12.84Zm-27.59,15.48c11.63-.05,20.47-9.12,20.44-20.97-.03-11.23-9.4-21.19-19.97-21.23-11.74-.04-21.1,9.56-21.13,21.66-.02,10.81,9.81,20.59,20.66,20.54Z"/>
      <path class="cls-1" d="m781.92,454.28c-13.15.69-26.77-14.88-25.9-27.94.88-13.31,11.81-24.18,25.44-24.01,14.48.19,26.24,12.68,26.06,27.71-.16,13.6-11.65,24.48-25.6,24.24Zm-19.91-26.46c.12,11.78,9.02,20.56,20.77,20.51,9.95-.04,18.64-9.18,18.48-19.43-.17-11.38-9.79-20.79-21.06-20.63-10.09.14-18.3,8.96-18.19,19.55Z"/>
      <path class="cls-1" d="m789.78,387.31c-7.22-2.99-12.59.33-18.11,3.18-1.14.59-2.7.37-4.07.52.53-1.38.7-3.14,1.67-4.08,4.36-4.21,9.56-6.82,15.77-6.39,2.06.14,4.19,1.03,6.02,2.06.87.49,1.72,2.3,1.45,3.15-.26.82-1.98,1.17-2.72,1.55Z"/>
      <path class="cls-1" d="m700.07,401.44c6.86-6.93,19.86-5.92,22.7,1.62-7.55-.54-14.75-1.05-22.7-1.62Z"/>
      <path class="cls-1" d="m854.26,432.66c-1.15,2.69-1.96,4.57-2.77,6.46.41,0,.82,0,1.23-.01.07,2.44.76,5.14-.1,7.2-.36.88-4.42,1.25-5.98.39-3.15-1.75-2.94-4.94-1.14-7.81,1.78-2.84,3.11-6.35,8.75-6.22Z"/>
      <path class="cls-5" d="m398.57,462.55c-10.27-.3-18.55-8.7-18.48-18.75.07-9.57,8.33-17.63,17.73-17.32,9.39.31,18.18,9.12,18.08,18.09-.11,9.66-8.38,18.24-17.33,17.98Zm9.47-21.44c-.66-.04-1.32-.09-1.98-.13-1.12,1.91-2.83,3.73-3.11,5.76-.16,1.1,2.11,2.54,3.29,3.83,1.36-1.6,3.32-3.02,3.87-4.86.36-1.22-1.3-3.04-2.06-4.59Z"/>
      <path class="cls-5" d="m461.45,444.75c.83,8.47-5.21,15.97-15.56,16.56-9.02.52-15.84-7.34-15.8-17.5.04-9.17,7.06-16.36,15.96-16.36,8.75,0,15.5,7.59,15.4,17.3Zm-8.44,6.86c2.03-3.17,3.74-4.97,4.26-7.08.19-.79-2.39-2.26-3.71-3.42-1.39,1.76-3.2,3.37-3.96,5.37-.32.84,1.61,2.53,3.41,5.13Z"/>
      <path class="cls-5" d="m759.59,521.92c-5.42-.11-14.97-2.71-23.32-9.58-3.92-3.22-3.41-6.38-.31-8.61,7.57-5.45,15.11-11.48,23.6-14.96,13.57-5.55,27.78-4.85,41.72.31,3.52,1.3,3.83,2.8,2.62,5.92-6.19,15.97-22.12,26.98-44.31,26.92Z"/>
    </g>
    <path class="cls-1" d="m457.52,445.98c0,2.8-1.89,5.07-4.22,5.07s-4.22-2.27-4.22-5.07,1.89-5.07,4.22-5.07,4.22,2.27,4.22,5.07Z"/>
    <path class="cls-1" d="m410.78,446.54c0,2.8-1.89,5.07-4.22,5.07s-4.22-2.27-4.22-5.07,1.89-5.07,4.22-5.07,4.22,2.27,4.22,5.07Z"/>
    <path class="cls-1" d="m723,448.47c-.35,2.78-2.51,4.79-4.82,4.5-2.31-.29-3.91-2.78-3.56-5.55.35-2.78,2.51-4.79,4.82-4.5,2.31.29,3.91,2.78,3.56,5.56Z"/>
    <path class="cls-1" d="m786.72,439.27c-.35,2.78-2.51,4.79-4.82,4.5s-3.91-2.78-3.56-5.56c.35-2.78,2.51-4.79,4.82-4.5s3.91,2.78,3.56,5.56Z"/>
  </g>
</svg>