<?xml version="1.0" encoding="UTF-8"?>
<svg id="_圖層_1" data-name="圖層 1" xmlns="http://www.w3.org/2000/svg" viewBox="0 0 1200 1200">
  <defs>
    <style>
      .cls-1 {
        fill: #f9f9f9;
      }

      .cls-2 {
        fill: #f80073;
      }

      .cls-3 {
        fill: #ececec;
      }

      .cls-4 {
        fill: #0a0a0a;
      }
    </style>
  </defs>
  <g>
    <path class="cls-2" d="m648.06,278.99c-5.86,0-10.6.5-15.16-.19-2.53-.38-5.88-2.26-6.8-4.36-.79-1.81.72-5.39,2.28-7.33,4.14-5.14,14.42-6.51,20.12-1.94,4.41,3.55,7.15,1.59,10.51-.61,6.53-4.28,8.1-7.4,6.79-12.21-8.65,1.2-17.16,2.81-25.74,3.39-3.8.26-8-.98-11.55-2.57-6.1-2.73-6.25-9.05-.36-12.61,10.09-6.08,21-6.93,31.45-1.72,5.54,2.76,9.06,1.34,13.01-1.97,4.38-3.67,4.52-6.63-.22-10.07-9.89-7.17-21.02-9.89-33.13-8.17-6.84.97-13.65,2.2-22.36,3.62,1.95-2.69,2.86-5.04,4.57-6.15,15.11-9.73,45.7-6.4,58.39,6.16,6.83,6.76,6.12,14.97-2.24,21.4-3.32,2.55-4.88,4.51-4.42,9.43.41,4.38-2.37,9.56-5,13.56-1.97,3-5.75,4.99-9.05,6.88-2.59,1.49-4.05,2.85-4.51,6.15-.42,3.05-1.99,6.7-4.29,8.57-4.95,4.05-10.64,7.2-16.14,10.54-1.1.67-2.85,1.03-4,.64-1.44-.49-3.01-1.69-3.62-3-.29-.63,1.26-2.59,2.39-3.32,4.64-3.05,9.54-5.71,14.13-8.84,1.86-1.27,3.17-3.35,4.93-5.28Zm-14.87-33.23c.07.74.13,1.47.2,2.21,7.51-.64,15.03-1.27,22.54-1.91-.05-.59-.1-1.18-.15-1.77-7.77-3.08-15.31-2.65-22.6,1.47Z"/>
    <path class="cls-2" d="m325.1,531.72c-.15-.03-.31-.08-.48-.16-2.18-1.02-1.69-3.69-1.42-5.61.79-5.46,4.04-9.46,9.16-11.25,5.65-1.97,11.47-1.64,16.09,2.59,4.08,3.74,5.04,8.7,3.28,14.02-.45,1.34-.84,2.91-1.78,3.85-4.71,4.74-4.31,9.89-2.03,15.57,1.11,2.77,2.21,6.74-2.1,7.34-1.62.23-4.6-3.12-5.54-5.42-2.72-6.63-4.87-13.42.47-20.17,2.01-2.54,4.45-5.95.46-9.06-3.18-2.48-8.42-1.17-11.27,2.7-.79,1.07-1.51,2.18-2.23,3.3-.65,1.01-1.28,2.55-2.61,2.29Z"/>
    <path class="cls-2" d="m528.08,290.23c1.38.08,2.65.56,3.33,1.72.79,1.36.38,3.16-.58,4.41-.96,1.25-2.36,2.07-3.72,2.86-9.36,5.47-18.49,11.31-27.67,17.07-4.15,2.59-8.3,5.18-12.45,7.76-2.08,1.29-4.15,2.58-6.23,3.87-1.64,1.02-3.5,2.65-5.33,3.26-1.53.52-3.82-.04-4.1-1.91-.09-.59.1-1.18.33-1.73,1.57-3.79,4.73-6.61,8.08-8.82,4.04-2.67,8.1-5.32,12.17-7.95,5.69-3.69,11.41-7.34,17.13-10.98,5.03-3.2,10.3-7.62,16.12-9.22.91-.25,1.94-.4,2.9-.35Z"/>
    <path class="cls-2" d="m451.52,323.07c-.21-.93.54-2.1.82-2.93.41-1.19.91-2.36,1.47-3.49,1.12-2.28,2.5-4.43,4-6.48,3.01-4.12,6.52-7.84,9.8-11.74,3.85-4.57,7.67-9.16,11.66-13.62.66-.73,1.84-1,3.13-1.16,1.82-.22,3.39,1.28,3.29,3.12-.06,1.05-.23,2.01-.77,2.66-4.85,5.91-9.78,11.76-14.75,17.57-2.45,2.87-4.91,5.74-7.38,8.6-1.27,1.47-2.54,2.93-3.8,4.4-.98,1.14-1.84,2.5-3.11,3.36-.99.68-3.35,1.4-4.19.09-.08-.13-.14-.26-.17-.41Z"/>
    <path class="cls-2" d="m318.95,551.18c.99,2.07,1.96,4.14,2.89,6.23,1.03,2.3.87,3.82-.13,6.05-.56,1.27-1.95,1.95-3.3,1.62-1.62-.39-3.2-.8-3.68-1.76-4.21-8.37-9.38-20.08-12.91-28.76-.19-.47-.21-2.44-.03-3.06.65-2.22,3.05-3.33,5.15-2.35.51.24.94.53,1.21.93,2.6,3.76,4.44,8.08,6.44,12.17,1.46,2.97,2.92,5.94,4.35,8.93Z"/>
    <path class="cls-2" d="m441.66,302.7c-.58,4.19-1.2,8.38-1.84,12.57-.58,3.83-5.84,5.1-7.44,1.13-.15-.38-.23-.75-.18-1.1.5-4.22,1.16-8.42,1.97-12.58.4-2.09.85-4.16,1.32-6.23.36-1.57.49-3.3,2.17-4.03.94-.41,2.08-.31,2.94.25.97.64,1.51,1.78,1.68,2.92s.02,2.31-.13,3.45c-.16,1.21-.32,2.42-.49,3.62Z"/>
    <path class="cls-2" d="m346.92,570.32c.25-4.1,4.78-6.75,8.42-4.86,2.31,1.2,2.37,3.79,2.27,4.35-.5,2.75-1.99,5.82-4.1,7.54-.97.79-6.14-1.19-6.17-2.04-.05-1.37-.52-3.16-.41-4.99Z"/>
    <path class="cls-2" d="m332.69,590.68s-.03,0-.04,0c-3.74.38-5.14-2.13-5.54-3.73-.52-2.06.46-5.65,2.66-6.43.65-.23,1.37-.22,2.05-.08,2.86.59,4.54,3.44,4.09,6.24-.22,1.37-1.99,3.37-3.24,4Z"/>
    <path class="cls-3" d="m803.21,526.15c-.07-4.56-.14-9.12-.21-13.68.07,4.56.14,9.12.21,13.68Z"/>
    <path class="cls-3" d="m333.25,882.53c4.54.94,9.09,1.88,13.63,2.81-4.54-.94-9.09-1.88-13.63-2.81Z"/>
    <path class="cls-3" d="m360.52,880.76c-3.85-.9-7.7-1.81-11.55-2.71,3.85.9,7.7,1.81,11.55,2.71Z"/>
    <path class="cls-3" d="m926.12,811.87c-2.99-1.98-5.97-3.96-8.96-5.94,2.99,1.98,5.97,3.96,8.96,5.94Z"/>
    <path class="cls-3" d="m916.64,805.52c-.52-3.08-1.04-6.16-1.56-9.23.52,3.08,1.04,6.16,1.56,9.23Z"/>
    <g>
      <path class="cls-4" d="m210.79,822.6s.03-.02.04-.03c0,0,0,0,0,0l-.04.04Z"/>
      <path class="cls-4" d="m234.86,864.38s0,0,0-.01c0,0,0,0,0,0v.02Z"/>
      <path class="cls-4" d="m301.92,726.25s.01,0,.02-.01c0,0,0-.02.01-.03l-.03.04Z"/>
      <path class="cls-4" d="m409.71,900.03c-1.62-.97-3.23-1.94-4.85-2.91,0,0-.38-.21-.38-.21-13.97-5.23-27.94-10.45-41.91-15.68-.68-.16-1.36-.32-2.05-.47-3.85-.9-7.7-1.81-11.55-2.71-.69-.13-1.37-.26-2.06-.4-1.06-.23-2.11-.45-3.17-.68-.69-.12-1.38-.23-2.07-.35-1.06-.22-2.12-.44-3.18-.66-.69-.1-1.38-.21-2.06-.31-.85.02-1.72.16-2.55.04-1.01-.14-1.99-.49-2.21-.55-2.56-7.39-4.31-14.48-7.39-20.94-11.34-23.78-18.42-48.77-22.22-74.75-.25-1.68-.05-3.42-.06-5.12-.04-1.4-.09-2.79-.13-4.19-1.49-16.56-2.47-33,10.28-46.4.47-.49.91-1.07,1.17-1.69.18-.43.03-1,.03-1.85-5.77-1.62-7.63,4.15-11.43,6.04-4.95,9.89-6.77,20.51-7.32,31.41-.18,3.65-1.64,6.24-5.34,7.24l-.11.25-.27.03c-.91.65-1.82,1.3-2.72,1.95-.52.38-1.03.76-1.55,1.15-.89.64-1.79,1.28-2.68,1.93l-.33.25-3.86,2.8-.11.27-.29.02-2.7,1.96c-.52.38-1.04.77-1.56,1.15-.89.64-1.78,1.28-2.67,1.92l-.34.25c-1.28.94-2.57,1.88-3.85,2.83l-.11.26-.28.02c-.9.65-1.81,1.3-2.71,1.95-.52.38-1.05.76-1.57,1.15-.88.64-1.77,1.29-2.65,1.93l-.34.25c-.91.66-1.83,1.32-2.74,1.97-.5.38-1.01.75-1.51,1.13-.9.66-1.79,1.32-2.69,1.98-.51.38-1.03.76-1.54,1.14-.9.64-1.8,1.29-2.7,1.93l-.32.24c-1.29.94-2.58,1.88-3.87,2.81l-.1.25-.27.03c-.9.66-1.81,1.31-2.71,1.97-.51.38-1.02.76-1.54,1.14-.9.65-1.8,1.3-2.7,1.95,0,0-.31.23-.31.23-1.3.93-2.59,1.86-3.89,2.79l-.11.26-.28.03c-.9.66-1.8,1.32-2.7,1.98-.51.38-1.02.76-1.52,1.14-.89.65-1.78,1.3-2.67,1.95l.04-.03c-1.42,1.08-2.84,2.15-4.27,3.23l-.29.2c-1.65,1.31-3.3,2.62-4.95,3.93l-.32.23c-1.26.97-2.52,1.93-3.78,2.9,0,.08,0,.15,0,.23-3.55,2.85-3.6,5.78-.14,8.59,0,.18,0,.36,0,.54l.28.12v.3c.63.9,1.25,1.81,1.88,2.71l.26.36c.65.91,1.31,1.82,1.96,2.73.38.51.76,1.03,1.14,1.54.66.89,1.32,1.78,1.97,2.66.39.51.77,1.02,1.16,1.54.65.89,1.3,1.77,1.95,2.66.4.51.79,1.02,1.19,1.53.66.88,1.33,1.76,1.99,2.65.39.5.78,1.01,1.16,1.51.67.89,1.34,1.77,2.02,2.66.38.5.76,1,1.14,1.51.96,1.26,1.91,2.53,2.87,3.79l.25.1.03.27c.97,1.26,1.94,2.52,2.91,3.78,1.1,1.38,2.19,2.77,3.29,4.15.98,1.11,1.95,2.22,2.93,3.33.04,0,.08-.01.13-.02,2.84,3.17,5.03,2.12,6.87-1.08.13-.02.25-.04.38-.06l.11-.25.27-.02c.92-.66,1.84-1.32,2.75-1.99l.28-.2c.96-.57,1.92-1.15,2.88-1.72l.13-.26h.29c.91-.64,1.81-1.28,2.72-1.92l.32-.24c1.29-.94,2.58-1.89,3.88-2.83l.36-.27c.91-.66,1.81-1.33,2.72-1.99.51-.37,1.02-.75,1.53-1.12.91-.66,1.81-1.32,2.72-1.98,0,0,.29-.22.29-.22,1.3-.95,2.59-1.9,3.89-2.84h-.02c1.41-1.03,2.82-2.06,4.23-3.1l.36-.27c.91-.66,1.82-1.32,2.72-1.98l1.54-1.11c.9-.65,1.8-1.31,2.7-1.96l.31-.23c1.3-.94,2.59-1.87,3.89-2.81l.11-.25.27-.03c.9-.66,1.81-1.32,2.71-1.97.51-.38,1.02-.76,1.54-1.13.9-.64,1.8-1.29,2.7-1.93l.32-.24c1.29-.93,2.58-1.87,3.87-2.8l.1-.26.28-.03c1.38-1.21,2.77-2.42,4.56-3.97,6.37,15.19,12.5,29.81,18.67,44.54-2.41,2.3-8.67-.61-7.94,5.78l.02.02c2.8.69,5.59,1.38,8.39,2.08.69.1,1.39.19,2.08.29,1.4.25,2.8.51,4.2.76.69.1,1.39.21,2.08.32,4.54.94,9.09,1.88,13.63,2.81.69.13,1.38.27,2.07.4,18.27,3.43,35.94,8.57,52.06,18.16,0,0,.34.18.34.18,1.37.6,2.78,1.12,4.1,1.82,4.81,2.53,6.24,1.7,6.44-3.83-.72-.68-1.45-1.37-2.17-2.05Zm-177.04-66.68c-2.44-2.5-4.73-5.15-6.91-7.88-.05-.06,2.13-2.14,2.22-2.06,2.6,2.25,5.07,4.66,8.21,7.67-1.89,1.24-3.38,2.41-3.51,2.27Zm12.94-8.74c-2.11-2.56-4.08-5.26-5.89-8.05-.17-.26,1.03-1.42,2.74-3.65,2.26,4.26,3.99,7.52,5.72,10.78-.89.33-2.37,1.15-2.57.91Zm14.46-9.39c-2.32-2.53-4.58-5.13-6.62-7.9-.18-.24,1.19-1.64,1.85-2.5,2.44,2.49,4.89,4.97,7.88,8.01-1.6,1.23-3.05,2.44-3.1,2.38Zm12.24-10.58c-2.12-2.32-4.11-4.77-5.93-7.34-.09-.12,2.36-2.3,2.42-2.24,2.26,2.14,4.39,4.43,7.11,7.32-1.95,1.24-3.48,2.39-3.6,2.26Zm13.88-10.06c-2.02-1.94-3.95-4.02-5.57-6.3-.23-.33,1.28-1.89,1.99-2.89,2.19,1.9,4.38,3.8,7.4,6.43-2.05,1.49-3.68,2.89-3.82,2.75Z"/>
    </g>
    <g>
      <path class="cls-4" d="m408.7,675.92s0,0,0,0c0,0,0,0,0-.01h-.02Z"/>
      <path class="cls-4" d="m331.23,700.06s.02,0,.02-.01c0,0,.01-.01.02-.02,0,0-.04.03-.04.03Z"/>
      <path class="cls-4" d="m958.45,830.99c-9.35-5.06-18.52-10.44-27.73-15.76-1.6-.92-3.01-2.18-4.51-3.28l-.09-.08c-2.99-1.98-5.97-3.96-8.96-5.94,0,0-.41-.01-.41-.01l-.11-.4c-.52-3.08-1.04-6.16-1.56-9.23-.09-.72-.18-1.43-.27-2.15-4-13.59-7.71-27.28-12.13-40.74-1.81-5.51-5.14-10.51-7.77-15.75l-.43-.18v-.47c-.59-.83-1.17-1.66-1.76-2.49l-.38-.12v-.4c-.91-1.22-1.83-2.44-2.75-3.67l-.38-.11v-.39c-1.3-1.59-2.58-3.18-3.86-4.77-2.47-2.49-4.94-4.97-7.42-7.46-1.6-1.27-3.19-2.54-4.79-3.81h-.38s-.12-.36-.12-.36c-5.94-3.22-11.69-6.88-17.86-9.56-22.17-9.62-43.47-6.84-63.91,5.33-.39.4-.77.8-1.16,1.2-1.68,4.13-3.35,8.26-5.21,12.85-22.69-12.94-43.66-29.54-70.42-37.41,1.61-1.76,2.55-2.78,3.49-3.81,1.44-1.69,2.87-3.38,4.31-5.07.65-.77,1.3-1.54,1.96-2.31,1.77-2.03,3.54-4.06,5.31-6.09.67-.76,1.35-1.53,2.02-2.29,1.43-1.68,2.87-3.35,4.3-5.03.67-.76,1.33-1.51,2-2.27,2.82-3.43,5.65-6.87,8.47-10.3.65-.8,1.3-1.59,1.95-2.39,4.27-5.48,8.53-10.95,12.8-16.43.61-.84,1.22-1.68,1.83-2.53,2.93-4.4,5.85-8.8,8.78-13.21.56-.86,1.11-1.73,1.67-2.59.51-.88,1.02-1.76,1.53-2.64.53-.88,1.07-1.76,1.6-2.64.52-.87,1.04-1.73,1.56-2.6.53-.88,1.06-1.76,1.58-2.64.88-1.56,1.76-3.12,2.63-4.69.52-.88,1.04-1.77,1.55-2.65,1.97-4,3.94-8,5.91-12.01.44-.95.88-1.89,1.32-2.84.6-1.5,1.2-3,1.79-4.49.76-2.03,1.51-4.06,2.26-6.09.36-1.11.71-2.22,1.07-3.32.52-1.75,1.03-3.5,1.55-5.25.15-.7.31-1.39.46-2.09.2-.7.4-1.4.6-2.1.58-2.44,1.16-4.88,1.74-7.32.14-.7.27-1.39.41-2.09.21-1.05.43-2.1.64-3.15.14-1.04.29-2.09.43-3.13.21-1.05.43-2.1.64-3.16.13-1.74.26-3.48.39-5.23.19-1.75.39-3.5.58-5.25-.07-4.56-.14-9.12-.21-13.68-.13-3.15-.26-6.29-.4-9.44-.11-1.05-.21-2.09-.32-3.14l-.7-5.25c-.13-1.04-.25-2.09-.38-3.13-.21-1.06-.41-2.11-.62-3.17-.18-1.04-.35-2.08-.53-3.12-.51-3.95,3.02-8.28,8.88-10.9,1.7-.84,3.39-1.69,5.09-2.53,1.26-1.14,2.53-2.28,3.79-3.42,1.19-.18,2.81-.94,3.48-.44,2.12,1.62,3.89,3.71,5.79,5.62h.38s.11.37.11.37c.85.58,1.7,1.17,2.55,1.75l.42-.03.17.38c9.05,2.83,18.11,5.66,27.16,8.49,1.06.13,2.13.26,3.19.39,4.21-.09,8.42-.17,12.63-.26.71-.06,1.43-.13,2.14-.19,8.71-2.81,17.42-5.61,26.12-8.42l.2-.39.44.04c1.53-.93,3.06-1.85,4.59-2.78l.2-.4.44.03c.84-.62,1.69-1.24,2.53-1.86l.05-.04c2.78-1.69,6.55-4.01,2.7-6.95l-1.64.36c-3.18,1.43-6.36,2.86-9.54,4.28l-.17.38-.42-.04c-9.81,7.2-21,9.8-32.95,9.82-2.07-.06-4.15-.13-6.22-.19-2.43-.23-4.85-.45-7.28-.68-.71-.11-1.43-.23-2.15-.34-5.89-1.62-11.78-3.24-17.68-4.85.08-.53.15-1.06.23-1.59,1.24-.51,2.47-1.02,3.7-1.53,3.69-4.22,7.11-9.11,4.28-14.56-2.25-4.33-6.51-7.62-9.77-11.26,2.39,0,5.62-.2,8.82.05,3.46.28,6.88,1.1,10.34,1.48,8.7.96,13.98-2.85,16.04-11.4,3.24-13.47-4.49-24.49-18.58-25.88-17.32-1.72-33.38,2.87-47.93,11.9-10.8,6.7-20.77,14.71-31.2,22.02-4.13,2.89-8.26,5.98-12.82,8.03-4.47,2.01-9.53,2.76-13.76-1.11-4.04-3.69-3.36-8.42-1.51-12.59,2.58-5.8,5.19-11.91,9.2-16.7,11.59-13.83,25.94-24.3,42.58-31.41,4.95-2.12,10.24-3.43,15.21-5.52,1.37-.58,2.11-2.62,3.14-4-1.52-.83-3.11-2.46-4.55-2.34-2.9.24-5.81,1.2-8.55,2.28-18.05,7.12-34.29,17.14-48.35,30.59-1.17,1.11-2.43,2.13-4.42,3.86-.14-2.43-.36-3.75-.27-5.06.9-12.68,7.41-22.27,16.84-30.19,12.36-10.38,26.42-17.48,42-21.62,2.47-.65,5.34-1.78,3.74-4.8-.73-1.38-4.21-2.55-5.86-2.02-22.56,7.28-43.83,16.67-57.11,37.93-1.53,2.45-3.09,2.28-5.17.94-4.63-2.99-6.54-8.86-4.37-14.84,3.2-8.84,8.93-16.04,16.91-20.7,10.79-6.31,21.69-12.89,33.35-17.2,53.17-19.64,107.85-3.47,139.59,43.13.49.72.9,1.78,1.58,2.02,1.47.52,3.22,1.06,4.59.66.6-.17.86-2.66.69-4.02-.14-1.11-1.11-2.14-1.81-3.14-16.67-23.83-38.57-40.65-66.68-48.71-37.92-10.86-73.14-2.48-106.85,15.74-8.55,4.62-16.21,10.26-21.61,18.55-1.49,2.3-2.93,4.63-4.65,7.36-1.89-1.35-3.46-2.39-4.93-3.54-37.45-29.4-80.46-42.62-127.58-42.63-45.63,0-86.55,15.09-123.49,41.43-2.96,2.11-5.44,2.82-9.09,1.9-11.28-2.85-22.57-6.61-34.05-7.49-24.5-1.87-49.12-2.14-73.69-3.07-11.43-.43-22.86-.86-34.54-1.3,3.56-5.68,7.31-10.69,10.03-16.2,5.24-10.63,3.35-20.78-4.37-27.16-10.22-8.44-22.74-9.43-32.32-2.28-4.05,3.02-7.95,6.3-11.57,9.82-8.63,8.38-17.12,16.91-25.47,25.58-1.02,1.06-.79,3.32-1.14,5.03,1.88-.01,4.02.54,5.59-.18,1.98-.9,3.56-2.76,5.18-4.34,9.23-9.01,18.39-18.1,27.66-27.07,1.66-1.61,3.71-2.82,5.76-4.35,4.97,18.22,9.13,20.05,26.94,11.44-.79,3.64-.81,6.92-2.2,9.43-2.77,4.99-6.14,9.67-9.55,14.27-2.59,3.49-5.94,6.43-8.39,10-6.2,9.03-5.01,17.77,3.68,24.37,5.24,3.98,11.06,7.28,16.88,10.42,19.15,10.35,37.17,22.16,51.72,38.64,1.32,1.5,2.49,3.13,3.85,4.86-10.15,4-13.69,9.34-13.05,18.92.06.51.12,1.03.18,1.54-.55-.11-1.1-.21-1.65-.32-6.43-4.38-13.15-8.41-19.24-13.23-10.66-8.44-20.77-17.56-31.44-25.98-3.9-3.08-8.58-5.3-13.19-7.27-1.49-.63-3.86.82-5.83,1.32,1.19,1.45,2.13,3.28,3.63,4.29,6.73,4.54,13.61,8.84,20.33,13.15-5.93,11.76-18.12,15.66-28.17,9.37-5.44-3.41-10.22-7.86-15.48-11.58-1.84-1.3-4.23-1.83-6.37-2.72-.3.53-.61,1.07-.91,1.6,3.07,7.34,10.68,10.8,15.54,16.56-6.68,6.84-15.34,7.14-25.05,1.52-1.63-.94-4.02-.57-6.06-.81.31,1.97,0,4.4,1.06,5.81,2.54,3.39,1.32,5.17-1.97,6.23-5.31,1.7-10.77,1.46-14.67-2.67-4.37-4.63-8.41-9.79-11.61-15.29-8.57-14.72-14.28-30.59-17.69-47.3-.3-1.49-2.1-2.67-3.2-4-1.2,1.47-3.02,2.79-3.42,4.46-.46,1.9.14,4.15.65,6.16,4.37,17.16,10.48,33.66,20.1,48.61,3.16,4.91,7.03,9.65,11.48,13.4,9.49,8,22.76,5.56,29.22-4.71.34-.07.7-.25,1.01-.18,9.42,2.07,18.03,1.41,24.72-6.77.59-.72,2.87-.6,4.1-.14,9.18,3.37,17.21,1.04,24.35-4.95,2.6-2.18,4.62-5.06,7.18-7.93,2.7,2.28,5.35,4.49,7.97,6.74,5.95,5.12,11.7,10.48,17.85,15.35,8.1,6.41,17.35,10.44,27.78,10.98,11.35.58,18.36-7.69,15.28-18.64-1.47-5.24-4.08-10.49-7.35-14.85-8.86-11.79-19.76-21.58-32.01-29.84-1.48-1-2.93-2.05-4.39-3.07.15-.29.29-.59.44-.88,25.84.91,51.68,1.82,78.34,2.77-1.08,1.58-1.49,2.31-2.02,2.93-21.92,25.65-32.82,55.49-34.28,89.06-2.44,56.26,15.19,105.59,50.91,148.76.85,1.03,1.41,2.29,2.11,3.44.32.65.99,1.81.91,1.87-14.61,9.98-29.27,19.88-43.94,29.78-.12.08-.33.03-.51.04-1.41,2.59-2.81,3.48-5.54,1.07-7.02-6.19-15.18-6.18-23.53-3.34-8.82,3-15.56,9.02-21.85,15.61-1.55,1.62-3.07,3.26-4.97,5.27-3.35-4.23-6.79-2.53-10.24-.63-3.76,2.07-7.54,4.11-11.32,6.16-16.42,17.7-17.18,38.61-12.08,60.54.79,3.39,3.4,6.36,5.16,9.53.69-.25,1.38-.5,2.07-.75-.23-1.65-.36-3.31-.69-4.94-3.19-15.87-5.24-31.82,2.41-46.96,2.36-4.67,6.83-8.28,10.34-12.37.49-.4.99-.79,1.48-1.19,2.72-2.24,5.43-4.48,8.92-7.36-2.63,11.12-4.93,20.88-7.24,30.64,0,2.45,0,4.9,0,7.35,1.13,2.93,2.26,5.85,3.39,8.78.63-.16,1.26-.33,1.88-.49,0-1.6,0-3.19,0-4.79.04-13.6,1.85-26.74,10.28-38.06,1.19-1.6,2.89-2.83,4.36-4.24,1.71-1.75,3.42-3.5,5.14-5.24,3.62-3.07,7.17-6.23,10.87-9.19,2.33-1.86,3.62-.78,3.96,1.9,6.13,8.73,8.01,9.25,17.67,5.87,1.08-.38,3.96,1.1,4.11,2.01.38,2.44.49,5.49-.67,7.5-2.49,4.33-5.65,8.33-8.87,12.18-6.01,7.19-12.58,13.72-14.41,23.73-3.06,16.71,1.08,31.88,8.5,46.43,3.98,7.8,11.34,12.17,19.7,17.05,0-3.02.03-4.87,0-6.73-.12-7.68-.65-15.37-.26-23.02.27-5.33,1.65-10.63,2.86-15.86.29-1.24,1.75-2.52,2.99-3.05.48-.21,2.08,1.44,2.75,2.5,4,6.35,12.17,8.67,18.64,5.18,6.88-3.71,7.7-3.23,8.14,4.78.08,1.39.09,2.79.09,4.19.2,43.79-20.33,79.29-45.36,112.91-3.99,5.36-4.36,5.69,2.38,9.75,4.22-5.86,8.6-11.68,12.72-17.69,20.22-29.45,35.63-60.74,37.48-97.3.7-13.77-1.02-26.87-9.42-38.28-2.23-3.03-1.25-4.41,1.32-6.21,13.57-9.52,27.11-19.06,40.52-28.8,3.7-2.69,5.04-1.35,6.86,2.11,9.59,18.27,15.34,37.77,18.77,57.99.43,2.52-.42,6.2-2.11,7.98-11.92,12.53-9.47,45.21,2.22,54.26,4.22,3.27,4.25,7.18,1.64,11.57-1.51,2.53-3,5.17-3.88,7.96-2.86,9.12.69,16.25,7.23,22.51,5.28,5.04,5.52,8.25,1.66,13.67-7.27,10.21-7.4,23.51,2.02,31.89,8,7.12,11.76,16,16.06,25,1.42,2.98,3.04,5.88,4.71,8.73,4.27,7.31,10.71,11.63,18.84,13.79,14.82,3.96,29.9,5.01,45.08,3.67,7.76-.69,15.73-1.74,23.03-4.28,13.69-4.76,19.09-16.81,23.46-29.5,1.04-3.03,3.07-6.08,5.44-8.25,9.68-8.82,14.38-20.34,5.53-32.28-4.82-6.5-3.79-11.12,1.45-17.56,2.2-2.7,4.51-5.35,6.99-7.78,6.98-6.83,8.34-15.05,6-24.09-.91-3.52-2.39-6.9-3.78-10.28-2.51-6.09-2.4-9.83,2.96-13.26,11.18-7.15,11.49-27.57,5.02-37.76-2.88-4.55-3.02-8.58-2.46-13.23.23-1.9.69-3.78.84-5.68,1.41-18.5,10.48-33.58,20.13-47.43,14.48,9.76,28.42,19.17,42.38,28.55,13.93,9.37,27.88,18.71,42.2,28.32-10.16,11.33-13.91,23.63-13.1,37.21,2.14,35.88,19.57,62.6,49.92,81.05,6.03,3.66,13.01,5.76,19.55,8.58,1.08.23,2.16.46,3.23.69.27.46.54.92.82,1.38-2.12,1.7-4.23,3.41-6.35,5.11.02.74.04,1.48.05,2.21,1.8.05,3.61.1,5.41.16l.17-.4.43.02c1.55-1.24,3.09-2.48,4.64-3.72l.16-.44.46-.02c1.55-1.27,3.11-2.53,4.66-3.8.56-.47,1.12-.94,1.68-1.42,1.17-.92,2.33-1.85,3.5-2.77l.13-.41h.43c1.21-.91,2.43-1.81,3.64-2.71l.18-.42h.46c.83-.57,1.67-1.15,2.5-1.72l.15-.4.43.02c.85-.56,1.71-1.12,2.56-1.67l.17-.42h.45c15.5-11.29,32.95-18.14,51.48-22.49,1.85-.43,3.72-.8,5.58-1.19l.14-.14c1.05-3.71-.77-5.26-4.2-5.28-2.37-.02-4.74.29-7.7.5.7-2.49,1.28-4.56,1.96-7,10.48,5.56,20.52,10.88,30.56,16.2,1.1-.03,2.2-.06,3.31-.09,2.79-1.42,5.57-2.85,8.36-4.27.72-.74,1.44-1.47,2.16-2.21,1.75-5.19,3.72-10.31,5.17-15.58,1.35-4.9-.92-8.13-5.35-10.53Zm-96.96-411.7c3.4,5.44,3.3,13.41-.31,17.79-3.47,4.21-7.79,2.63-12.82,1.69,1.83-2.1,3.1-4,4.77-5.39,4.15-3.44,3.73-7.1.93-11.01-2.01-2.81-4.09-5.57-6.24-8.48,5.61-.97,11.1,1.29,13.67,5.4Zm-34.49,30.44c6.78-.06,11.96,3.85,11.95,8.72,0,4.74-3.41,8.06-8.25,8.05-4.47,0-8.67-5.37-8.6-11.12.04-3.43.74-6.39,4.9-5.65Zm-511.08-128.38c-4.94-1.9-5.01-7.25-4.89-12.78,6.82.07,12.06,2.64,16.94,7.43-3.41,4.38-7.65,7.04-12.05,5.35Zm78.5,128.38c.18,4.94-2.69,8.28-7.16,8.33-2.95.03-7.1-4.78-7.14-8.28-.04-3.64,4.1-8.49,7.16-8.4,3.53.1,6.98,4.14,7.13,8.35Zm-3.06,237.16c-4.11-.52-5.57-3.42-5.89-8.57,4.71.92,8.79,1.71,13.4,2.6-1.72,4.68-4.07,6.39-7.51,5.96Zm9.44,96.72c-.53.26-1.05.52-1.58.78-2.79-4.46-5.81-8.81-8.22-13.47-.59-1.15.27-3.8,1.35-4.9,2.14-2.19,4.89-3.78,8.45-6.41v23.99Zm16.66-101.16c2.28,2.34,4.56,4.68,7.43,7.63-5.69.91-8-1.37-7.43-7.63Zm10.46,70.06c-4.34.12-7.24-2.34-7.4-6.26-.19-4.77,4.61-10.66,8.74-10.73,2.99-.05,8.01,5.34,7.99,8.57-.03,3.62-5.22,8.31-9.33,8.42Zm388.61-47.18c.65,7.76-10.56,12.07-19.95,7.74,7.24-2.81,13.29-5.15,19.95-7.74Zm-37.15-261.86c7.43,8.18,14.9,16.41,22.45,24.71-2.8,6.22-7.93,9.52-13.74,11.48-6.26,2.12-11.24,0-14.6-5.93-3.33-5.9-6.11-12.11-9.1-18.13,5.02-4.07,9.84-7.97,14.99-12.14Zm-348.64-51.59c-.23-.3-.46-.61-.69-.91,2.26-2.75,4.41-5.61,6.81-8.24,3.93-4.31,3.73-6.14-.43-9.84-1.78-1.58-4.28-4.79-3.73-6.09,1.4-3.28,4.62-4.58,8.64-3.34,7.61,2.36,15.33,4.38,23.03,6.49,3.14.86,3.74,2.45,2.28,5.39-1.14,2.3-1.51,4.99-2.59,7.33-.57,1.23-1.78,2.76-2.95,3.01-10.1,2.21-20.25,4.17-30.38,6.2Zm16.98,280.95c-1.98-1.69-3.77-3.6-5.44-5.6-.1-.12,1.88-2.27,1.96-2.21,2.17,1.59,4.21,3.35,6.83,5.54-1.64,1.14-3.14,2.45-3.35,2.27Zm11.7-8.82c-1.77-2.32-3.53-4.63-5.3-6.95.48-.59.95-1.18,1.43-1.77,1.79,1,4.02,1.64,5.21,3.12.94,1.17.6,3.38.83,5.13-.72.16-1.45.31-2.17.47Zm20.66-16.17c-1.54-1.83-2.88-3.84-4.27-5.8.91-.59,1.82-1.18,2.73-1.78,1.37,2.04,2.73,4.09,4.1,6.13-.89.51-2.44,1.58-2.56,1.44Zm53.76,242.21c-1.38-1.86-2.72-3.75-4.07-5.62,2.13.33,4.41.28,6.37,1.05,26.55,10.49,53.47,17.23,81.99,8.58,4.15-1.26,8.25-2.76,12.26-4.42,2.45-1.01,5.13-2.13,5.94,1.14.38,1.51-1.35,4.53-2.93,5.39-10.39,5.66-29.11,9.75-42.96,9.85-20.05.16-38.61-5.04-55.71-15.45-.3-.18-.7-.28-.89-.53Zm94.92,55.83c-1.03,1.52-3.34,2.48-5.25,3.03-21.16,6.09-42.51,6.3-63.97,1.69-8.3-1.78-14.69-5.74-17.46-14.4-1.07-3.36-2.97-6.45-4.83-10.39,33.75,12.51,66.88,15.29,101.63,3.44-3.33,5.57-6.48,11.26-10.11,16.62Zm15.4-86.01c-2.27,2.02-5.3,3.33-8.2,4.45-13.79,5.34-28.2,6.11-42.77,5.36-20.38-1.06-40.16-4.73-58.55-14.06-1.99-1.01-3.54-2.87-5.29-4.34.35-.6.69-1.2,1.04-1.81,2.09.44,4.28.63,6.26,1.37,17.58,6.62,35.61,10.96,54.46,11.73,17.14.7,33.75-1.19,49.46-8.67,1.39-.66,3.42.01,5.15.07-.47,2.02-.3,4.77-1.57,5.9Zm2.14-36.27c-12.25,6.43-25.51,9.15-39.16,10.19-3.81.29-7.66.04-11.49.04-21.35.46-42.02-2.9-61.4-12.19-2.76-1.32-4.79-4.18-7.16-6.32,2.99.4,6.19.27,8.95,1.29,31.03,11.49,62.55,14.75,94.79,5.81,4.33-1.2,8.42-3.27,12.61-4.97,2.61-1.05,5.8-3.91,7.65-.01,1.77,3.73-2.32,4.86-4.78,6.15Zm42.61-117.79c-11.14,16.29-20.13,33.45-21.98,53.56-.66,7.25-5.04,12.08-10.8,15.76-10.51,6.7-22.23,9.84-34.53,11.07-4.45.57-8.91,1.13-13.36,1.7-12.89-.39-25.79-.79-38.68-1.18-3.79-.7-7.59-1.41-11.38-2.11-13.75-1.61-26.39-6.31-37.82-14.06-1.45-.98-2.29-3.3-2.81-5.16-4.55-16.61-8.68-33.35-13.58-49.86-1.71-5.74-5.04-11.05-7.99-16.36-1.93-3.47-2.73-5.92,1.31-8.72,6.43-4.46,12.31-9.71,18.62-14.35,3.39-2.49,3.71-5.28,1.84-8.57-1.55-2.72-3.31-5.34-5.18-7.85-7.71-10.36-15.41-20.72-23.29-30.95-3.69-4.8-5.53-4.97-10.55-1.62-4.64,3.1-9.43,6.05-13.72,9.59-3.92,3.23-6.49,2.04-8.93-1.48-7.45-10.73-15.64-21.04-22.17-32.32-15.44-26.65-24.21-55.62-26.49-86.33-2.54-34.09,2.94-66.58,22.68-95.34,5.88-8.56,13.37-16.04,20.34-23.81,1.26-1.41,3.55-2.12,5.5-2.64,14.63-3.87,29.35-7.45,43.93-11.52,3.03-.85,5.61-3.34,8.39-5.07-2.75-1.9-5.26-4.39-8.29-5.56-4.96-1.91-10.26-2.96-16.96-4.8,7.12-4.94,12.75-9.64,19.07-13.1,59.9-32.92,121.4-35.18,183.56-7.46,14.31,6.38,26.9,16.67,40.13,25.39,1.63,1.07,3.09,3.43,3.36,5.37,1.52,10.72,2.71,12.7,12.43,17.88-.77,3.44-1.82,6.92-2.25,10.48-.35,2.9-1.03,6.61.35,8.69,3.21,4.83.52,8.36-.9,12.52-1.56,4.56-3.17,9.33-3.38,14.08-.48,11.04,7.81,17.88,18.69,16.15,1.52-.24,3.02-.6,4.73-.94,2.07,4.87,4.04,9.5,5.99,14.13,5.98,14.23,10.95,17.22,27.24,15.58.94,8.69,2.42,17.41,2.72,26.16,1.03,29.78-7.37,57.05-22.09,82.79-16.15,28.24-37.22,52.65-58.34,77.08-8.27,9.56-8.22,9.52-19.87,5.02-13.67-5.28-27.37-10.49-41.13-15.54-1.68-.62-3.79-.05-5.71-.04.91,1.69,1.46,3.79,2.8,5.01,11.72,10.71,23.58,21.26,35.41,31.86,1.42,1.27,2.84,2.53,4.45,3.96-.51,1.1-.82,2.08-1.38,2.89Zm27.64,13.11c-5.88-5.17-10.43-9.12-14.92-13.14-6.37-5.7-12.69-11.46-19.04-17.19q-4.35-3.93-.81-9.82c16.25,6.3,32.28,12.51,49.32,19.11-6.02,6.52-17.51,7.94-14.55,21.04Zm16.4,6.99c-1.87-1.23-3.95-2.72-6.05-2.93-4.36-.43-4.53-4.13-4.51-6.45.02-2.57,1.7-5.62,3.57-7.58,2.57-2.67,6.01-4.5,9.33-6.87,16.4,10.45,34.15,21.64,51.74,33.05,5.61,3.64,10.79,7.95,16.27,11.79,1.39.97,3.17,1.78,4.83,1.91,9.04.7,15.55,6.43,22.66,11.03,19.62,12.68,39.26,25.32,58.9,37.97,7.1,4.57,7.34,7.16,2.1,13.62-2.37,2.92-3.93,6.49-6.29,10.49-13.37-7.94-26.33-15.75-39.41-23.35-8.27-4.81-16.77-9.22-25.07-13.99-1.37-.79-2.28-2.45-3.29-3.78-3.45-4.57-6.17-9.99-10.47-13.5-3.62-2.96-9.08-5.12-13.68-5.05-4.7.07-7.89-1.45-11.36-3.76-16.4-10.91-32.83-21.77-49.29-32.59Zm95.68,24.95c11.64-4.35,16.87-1.18,18.6,11.58-6.57-4.09-12.36-7.7-18.6-11.58Zm17.49,56.22c-2.33,3.85-4.04,8.91-7.51,11-3.65,2.2-8.52-.51-10.22-4.78-2.66-6.67-4.43-13.7-6.58-20.57.51-.34,1.02-.68,1.53-1.02,7.2,4.43,14.42,8.83,21.59,13.32.62.39,1.4,1.71,1.19,2.05Zm-41.54-32.45c.08,6.07-3.44,9.97-8.94,9.92-4.77-.05-8.25-3.03-8.09-6.92.2-4.77,4.14-9.64,7.74-9.56,4.71.11,9.25,3.32,9.29,6.56Zm94.21,84.84c-18.25,5.92-34.59,15.6-49.59,27.6-1.45,1.16-4.17,1.83-5.93,1.36-38.24-10.13-69.24-45.38-69.37-85.53-.02-6.48,1.97-13.01,3.46-19.42.54-2.34,2.34-4.38,4.37-8,.9,8.31,4,13.19,10.95,14.4,7.85,1.36,13.52-1.95,18.54-9.29,2.07,5.18,4.63,10.23,6.09,15.58,2.12,7.73,3.16,15.74,5.21,23.49,1,3.77,2.17,8.13,8,9.27-.92-2.06-1.56-3.51-1.71-3.84,4.94-.62,10.84.13,14.85-2.28,4.04-2.43,6.21-7.99,9.48-12.57.73.38,2.13,1.01,3.44,1.8,15.42,9.23,30.79,18.56,46.28,27.67,3.39,2,4.87,4.07,4.38,8.29-.67,5.72-2.09,9.42-8.47,11.49Zm4.26-61.85c-15.51-9.73-30.96-19.54-46.51-29.19-2.61-1.62-3.89-3.36-4.05-6.6-.16-3.23-1.62-6.38-2.29-9.62-.34-1.62-.37-3.36-.24-5.02.11-1.57.61-3.11.93-4.66-1.93-.34-3.87-1.05-5.79-.97-10.59.41-21.19,1.51-31.77,1.4-10.01-.1-17.23-5.3-20.23-15.13-.88-2.89-.43-6.2-.64-10.39,8.47,5.02,15.68,3.83,22.84.83,6.8-2.84,8.16-5.18,7.31-12.8,8.77-1.34,17.22-.21,25.47,2.82,25.36,9.33,41.1,28.11,50.44,52.6,3.83,10.05,6.09,20.7,8.89,31.12.62,2.29.49,4.79.81,8.32-2.3-1.21-3.79-1.87-5.16-2.73Z"/>
    </g>
    <path class="cls-3" d="m877.93,717.59c-1.6-1.27-3.19-2.54-4.79-3.81,1.6,1.27,3.19,2.54,4.79,3.81Z"/>
    <path class="cls-3" d="m889.19,729.83c-1.28-1.59-2.56-3.18-3.85-4.77,1.28,1.59,2.56,3.18,3.85,4.77Z"/>
    <path class="cls-3" d="m840.78,902.98c1.55-1.24,3.09-2.48,4.64-3.72-1.55,1.24-3.09,2.48-4.64,3.72Z"/>
    <path class="cls-3" d="m846.05,898.8c1.55-1.27,3.11-2.53,4.66-3.8-1.55,1.27-3.11,2.53-4.66,3.8Z"/>
    <path class="cls-3" d="m802.24,536.63c.13-1.74.26-3.48.39-5.23-.13,1.74-.26,3.48-.39,5.23Z"/>
    <path class="cls-3" d="m219.88,815.52c-1.65,1.31-3.3,2.62-4.95,3.93,1.65-1.31,3.3-2.62,4.95-3.93Z"/>
    <path class="cls-3" d="m795.77,564.9c.52-1.75,1.03-3.5,1.55-5.25-.52,1.75-1.03,3.5-1.55,5.25Z"/>
    <path class="cls-3" d="m792.44,574.32c.76-2.03,1.51-4.06,2.26-6.09-.76,2.03-1.51,4.06-2.26,6.09Z"/>
    <path class="cls-3" d="m273.54,852.85c1.41-1.04,2.82-2.08,4.23-3.11-1.41,1.04-2.82,2.08-4.23,3.11Z"/>
    <path class="cls-3" d="m902.61,475.69c1.53-.92,3.06-1.85,4.59-2.78-1.53.93-3.06,1.85-4.59,2.78Z"/>
    <path class="cls-3" d="m808.94,474.33c1.7-.84,3.39-1.69,5.09-2.53-1.7.84-3.39,1.69-5.09,2.53Z"/>
    <path class="cls-3" d="m409.71,900.03c-1.62-.97-3.23-1.94-4.85-2.91,1.62.97,3.23,1.94,4.85,2.91Z"/>
    <path class="cls-3" d="m326.97,881.45c1.4.25,2.8.51,4.2.76-1.4-.25-2.8-.51-4.2-.76Z"/>
    <path class="cls-3" d="m224.44,812.09c-1.42,1.08-2.84,2.15-4.27,3.23,1.42-1.08,2.84-2.15,4.27-3.23Z"/>
    <path class="cls-3" d="m234.85,864.36c1.1,1.39,2.19,2.77,3.29,4.16-1.1-1.39-2.19-2.77-3.29-4.16Z"/>
    <path class="cls-3" d="m281.62,770.43l-3.86,2.8,3.86-2.8Z"/>
    <path class="cls-3" d="m235.57,803.97c-1.3.93-2.59,1.86-3.89,2.79l3.89-2.79Z"/>
    <path class="cls-3" d="m247.07,795.58c-1.29.94-2.58,1.88-3.87,2.81,1.29-.94,2.58-1.88,3.87-2.81Z"/>
    <path class="cls-3" d="m852.4,893.59c1.17-.92,2.33-1.85,3.5-2.77-1.17.92-2.33,1.85-3.5,2.77Z"/>
    <path class="cls-3" d="m856.44,890.4c1.21-.9,2.43-1.8,3.64-2.7-1.21.9-2.43,1.8-3.64,2.7Z"/>
    <path class="cls-3" d="m270.09,778.8c-1.28.94-2.57,1.88-3.85,2.83,1.28-.94,2.57-1.88,3.85-2.83Z"/>
    <path class="cls-3" d="m258.18,864.09c1.29-.94,2.58-1.89,3.88-2.83-1.29.94-2.58,1.89-3.88,2.83Z"/>
    <path class="cls-3" d="m214.62,819.67c-1.27.98-2.55,1.95-3.82,2.93,1.27-.98,2.55-1.95,3.82-2.93Z"/>
    <path class="cls-3" d="m231.94,860.58c.97,1.27,1.94,2.53,2.92,3.8-.97-1.27-1.94-2.53-2.92-3.8Z"/>
    <path class="cls-3" d="m228.79,856.42c.96,1.26,1.91,2.53,2.87,3.79-.96-1.26-1.91-2.53-2.87-3.79Z"/>
    <path class="cls-3" d="m269.67,855.68c1.3-.95,2.59-1.9,3.89-2.85-1.3.95-2.59,1.9-3.89,2.85Z"/>
    <path class="cls-3" d="m892.34,733.99c-.92-1.22-1.84-2.44-2.76-3.67.92,1.22,1.84,2.44,2.76,3.67Z"/>
    <path class="cls-3" d="m296.93,835.82c1.29-.93,2.58-1.87,3.87-2.8-1.29.93-2.58,1.87-3.87,2.8Z"/>
    <path class="cls-3" d="m285.39,844.18c1.3-.94,2.59-1.87,3.89-2.81-1.3.94-2.59,1.87-3.89,2.81Z"/>
    <path class="cls-3" d="m800.59,488.35c-.18-1.04-.35-2.08-.53-3.12.18,1.04.35,2.08.53,3.12Z"/>
    <path class="cls-3" d="m801.59,494.64c-.13-1.04-.25-2.09-.38-3.13.13,1.04.25,2.09.38,3.13Z"/>
    <path class="cls-3" d="m802.6,503.03c-.11-1.05-.21-2.09-.32-3.14.11,1.05.21,2.09.32,3.14Z"/>
    <path class="cls-3" d="m801.17,542.91c.14-1.04.29-2.08.43-3.13-.14,1.04-.29,2.08-.43,3.13Z"/>
    <path class="cls-3" d="m346.91,877.65c-1.06-.23-2.11-.45-3.17-.68,1.06.23,2.11.45,3.17.68Z"/>
    <path class="cls-3" d="m341.67,876.63c-1.06-.22-2.12-.44-3.18-.66,1.06.22,2.12.44,3.18.66Z"/>
    <path class="cls-3" d="m293.91,837.99c.9-.64,1.8-1.29,2.7-1.93-.9.64-1.8,1.29-2.7,1.93Z"/>
    <path class="cls-3" d="m289.66,841.1c.9-.66,1.81-1.32,2.71-1.97-.9.66-1.81,1.32-2.71,1.97Z"/>
    <path class="cls-3" d="m216.2,839.7c.66.89,1.32,1.78,1.97,2.66-.66-.89-1.32-1.78-1.97-2.66Z"/>
    <path class="cls-3" d="m213.1,835.43c.65.91,1.31,1.82,1.96,2.73-.65-.91-1.31-1.82-1.96-2.73Z"/>
    <path class="cls-3" d="m219.33,843.9l1.95,2.66-1.95-2.66Z"/>
    <path class="cls-3" d="m282.39,846.37c.9-.65,1.8-1.31,2.7-1.96-.9.65-1.8,1.31-2.7,1.96Z"/>
    <path class="cls-3" d="m278.12,849.46l2.72-1.98c-.91.66-1.82,1.32-2.72,1.98Z"/>
    <path class="cls-3" d="m288.91,765.16c-.91.65-1.82,1.3-2.72,1.95.91-.65,1.82-1.3,2.72-1.95Z"/>
    <path class="cls-3" d="m222.47,848.09c.66.88,1.33,1.76,1.99,2.65-.66-.88-1.33-1.76-1.99-2.65Z"/>
    <path class="cls-3" d="m894.47,737.01c-.59-.83-1.17-1.66-1.76-2.49.59.83,1.17,1.66,1.76,2.49Z"/>
    <path class="cls-3" d="m210.96,832.36l1.87,2.71-1.87-2.71Z"/>
    <path class="cls-3" d="m225.63,852.25c.67.89,1.34,1.77,2.02,2.66-.67-.89-1.34-1.77-2.02-2.66Z"/>
    <path class="cls-3" d="m284.63,768.26c-.89.64-1.79,1.28-2.68,1.93.89-.64,1.79-1.28,2.68-1.93Z"/>
    <path class="cls-3" d="m907.84,472.55c.84-.62,1.69-1.24,2.53-1.86-.84.62-1.69,1.24-2.53,1.86Z"/>
    <path class="cls-3" d="m721.88,676.95c.65-.77,1.3-1.54,1.96-2.31-.65.77-1.3,1.54-1.96,2.31Z"/>
    <path class="cls-3" d="m266.66,857.88c.91-.66,1.81-1.32,2.72-1.98-.91.66-1.81,1.32-2.72,1.98Z"/>
    <path class="cls-3" d="m242.82,798.67c-.9.66-1.81,1.31-2.71,1.97.9-.66,1.81-1.31,2.71-1.97Z"/>
    <path class="cls-3" d="m262.41,860.99c.91-.66,1.81-1.33,2.72-1.99-.91.66-1.81,1.33-2.72,1.99Z"/>
    <path class="cls-3" d="m729.15,668.55c.67-.76,1.35-1.53,2.02-2.29-.67.76-1.35,1.53-2.02,2.29Z"/>
    <path class="cls-3" d="m735.47,661.23c.67-.76,1.33-1.51,2-2.27-.67.76-1.33,1.51-2,2.27Z"/>
    <path class="cls-3" d="m277.36,773.52c-.9.65-1.8,1.31-2.7,1.96.9-.65,1.8-1.31,2.7-1.96Z"/>
    <path class="cls-3" d="m273.1,776.63c-.89.64-1.78,1.28-2.67,1.92.89-.64,1.78-1.28,2.67-1.92Z"/>
    <path class="cls-3" d="m745.93,648.66c.65-.8,1.3-1.59,1.95-2.39-.65.8-1.3,1.59-1.95,2.39Z"/>
    <path class="cls-3" d="m255.14,866.26c.91-.64,1.81-1.29,2.72-1.93-.91.64-1.81,1.29-2.72,1.93Z"/>
    <path class="cls-3" d="m251.85,868.24c.96-.57,1.92-1.15,2.88-1.72-.96.57-1.92,1.15-2.88,1.72Z"/>
    <path class="cls-3" d="m248.81,870.42c.92-.66,1.84-1.32,2.75-1.99-.92.66-1.84,1.32-2.75,1.99Z"/>
    <path class="cls-3" d="m760.68,629.84c.61-.84,1.22-1.68,1.83-2.53-.61.84-1.22,1.68-1.83,2.53Z"/>
    <path class="cls-3" d="m265.85,781.91c-.9.65-1.81,1.3-2.71,1.95.9-.65,1.81-1.3,2.71-1.95Z"/>
    <path class="cls-3" d="m261.57,785.01c-.88.64-1.77,1.29-2.65,1.93.88-.64,1.77-1.29,2.65-1.93Z"/>
    <path class="cls-3" d="m771.29,614.11c.56-.86,1.11-1.73,1.67-2.59-.56.86-1.11,1.73-1.67,2.59Z"/>
    <path class="cls-3" d="m774.48,608.87c.53-.88,1.07-1.76,1.6-2.64-.53.88-1.07,1.76-1.6,2.64Z"/>
    <path class="cls-3" d="m777.64,603.64c.53-.88,1.06-1.76,1.58-2.64-.53.88-1.06,1.76-1.58,2.64Z"/>
    <path class="cls-3" d="m781.86,596.31c.52-.88,1.04-1.77,1.55-2.65-.52.88-1.04,1.77-1.55,2.65Z"/>
    <path class="cls-3" d="m789.32,581.65c.44-.95.88-1.89,1.32-2.84-.44.95-.88,1.89-1.32,2.84Z"/>
    <path class="cls-3" d="m863.8,885.17c.85-.56,1.71-1.12,2.56-1.67-.85.56-1.71,1.12-2.56,1.67Z"/>
    <path class="cls-3" d="m797.78,557.57c.2-.7.4-1.4.6-2.1-.2.7-.4,1.4-.6,2.1Z"/>
    <path class="cls-3" d="m860.72,887.28c.83-.58,1.67-1.15,2.5-1.73-.83.58-1.67,1.15-2.5,1.73Z"/>
    <path class="cls-3" d="m258.58,787.18c-.91.66-1.83,1.32-2.74,1.97.91-.66,1.83-1.32,2.74-1.97Z"/>
    <path class="cls-3" d="m800.12,548.15c.14-.7.27-1.39.41-2.09-.14.7-.27,1.39-.41,2.09Z"/>
    <path class="cls-3" d="m254.32,790.28c-.9.66-1.79,1.32-2.69,1.98.9-.66,1.79-1.32,2.69-1.98Z"/>
    <path class="cls-3" d="m227.07,810.17c-.89.65-1.78,1.3-2.67,1.95.89-.65,1.78-1.3,2.67-1.95Z"/>
    <path class="cls-3" d="m231.3,807.05c-.9.66-1.8,1.32-2.7,1.98.9-.66,1.8-1.32,2.7-1.98Z"/>
    <path class="cls-3" d="m250.09,793.4c-.9.64-1.8,1.29-2.7,1.93.9-.64,1.8-1.29,2.7-1.93Z"/>
    <path class="cls-3" d="m238.57,801.78c-.9.65-1.8,1.3-2.7,1.95.9-.65,1.8-1.3,2.7-1.95Z"/>
    <path class="cls-3" d="m827.59,473.93c.85.58,1.7,1.17,2.55,1.75-.85-.58-1.7-1.17-2.55-1.75Z"/>
    <path class="cls-3" d="m688.89,705.81c-11.14,16.29-20.13,33.45-21.98,53.56-.66,7.25-5.04,12.08-10.8,15.76-10.51,6.7-22.23,9.84-34.53,11.07-4.45.57-8.91,1.13-13.36,1.7-12.89-.39-25.79-.79-38.68-1.18-3.79-.7-7.59-1.41-11.38-2.11-13.75-1.61-26.39-6.31-37.82-14.06-1.45-.98-2.29-3.3-2.81-5.16-4.55-16.61-8.68-33.35-13.58-49.86-1.71-5.74-5.04-11.05-7.99-16.36-1.93-3.47-2.73-5.92,1.31-8.72,6.43-4.46,12.31-9.71,18.62-14.35,3.39-2.49,3.71-5.28,1.84-8.57-1.55-2.72-3.31-5.34-5.18-7.85-7.71-10.36-15.41-20.72-23.29-30.95-3.69-4.8-5.53-4.97-10.55-1.62-4.64,3.1-9.43,6.05-13.72,9.59-3.92,3.23-6.49,2.04-8.93-1.48-7.45-10.73-15.64-21.04-22.17-32.32-15.44-26.65-24.21-55.62-26.49-86.33-2.54-34.09,2.94-66.58,22.68-95.34,5.88-8.56,13.37-16.04,20.34-23.81,1.26-1.41,3.55-2.12,5.5-2.64,14.63-3.87,29.35-7.45,43.93-11.52,3.03-.85,5.61-3.34,8.39-5.07-2.75-1.9-5.26-4.39-8.29-5.56-4.96-1.91-10.26-2.96-16.96-4.8,7.12-4.94,12.75-9.64,19.07-13.1,59.9-32.92,121.4-35.18,183.56-7.46,14.31,6.38,26.9,16.67,40.13,25.39,1.63,1.07,3.09,3.43,3.36,5.37,1.52,10.72,2.71,12.7,12.43,17.88-.77,3.44-1.82,6.92-2.25,10.48-.35,2.9-1.03,6.61.35,8.69,3.21,4.83.52,8.36-.9,12.52-1.56,4.56-3.17,9.33-3.38,14.08-.48,11.04,7.81,17.88,18.69,16.15,1.52-.24,3.02-.6,4.73-.94,2.07,4.87,4.04,9.5,5.99,14.13,5.98,14.23,10.95,17.22,27.24,15.58.94,8.69,2.42,17.41,2.72,26.16,1.03,29.78-7.37,57.05-22.09,82.79-16.15,28.24-37.22,52.65-58.34,77.08-8.27,9.56-8.22,9.52-19.87,5.02-13.67-5.28-27.37-10.49-41.13-15.54-1.68-.62-3.79-.05-5.71-.04.91,1.69,1.46,3.79,2.8,5.01,11.72,10.71,23.58,21.26,35.41,31.86,1.42,1.27,2.84,2.53,4.45,3.96-.51,1.1-.82,2.08-1.38,2.89Z"/>
    <path class="cls-2" d="m558.15,784.61c7.73-8.78,11.91-25.74,13.53-36.9,2.47-17,3.38-93.32,5.12-110.63-2.97-.57-5.16-.94-7.34-1.43-7.99-1.79-13.53-7.78-14.3-15.38-1.01-9.96,2.67-17.23,10.53-20.8,10-4.54,19.26,1.03,21.06,12.88.62,4.09.64,8.27.99,13.16,4.24-1.34,8.18-2.15,11.68-3.86,1.78-.87,3.52-3.2,3.98-5.17,2.97-12.85,5.25-25.85,8.41-38.65,2.32-9.38,7.5-16.92,17.44-19.83,12.23-3.58,22.88,5.35,21.23,17.97-1.33,10.21-4.73,19.92-11.96,27.34-7.13,7.32-15.33,13.59-22.96,20.43-1.42,1.27-3.29,2.97-3.44,4.62-1.87,20.81-2.18,41.82-2.94,62.69-.62,17.26-2.07,34.53-1.21,51.81.67,13.46,1.13,34.69,13.61,43.33-4.45.57-8.91,1.13-13.36,1.7-7.99-10.37-7.65-28.68-8.25-41.03-1.03-21.11.86-42.1,1.1-63.19.18-15.88-.47-32,1.04-47.82.14-1.45.02-2.92.02-4.87-4.66,1.07-8.51,2.03-12.39,2.83-2.84.58-3.82,2.11-3.97,5.06-.6,11.99-1.08,24.02-2.38,35.94-1.77,16.28-.01,95.68-13.85,111.89-3.79-.7-7.59-1.41-11.38-2.11Zm57.86-173.12c6.52-6.58,13.74-12.62,19.29-19.93,3.21-4.22,5.11-10.64,5.72-15.86.31-2.69-.41-5.78-2.72-7.2-2.21-1.35-5.08-.74-7.49.23-7.28,2.94-9.34,10.85-11.75,17.7-3.08,8.75-5.14,17.93-5.5,27.22-.17.1,2.19-1.88,2.03-1.79.09,0,.23.03.27-.02.08-.1.1-.24.15-.37Zm-38.31,15.69c-1.35-6.14-2.31-12.01-4-17.66-.98-3.29-3.58-2.68-5.69-.65-2.93,2.81-4.42,10.08-2.67,13.61,2.28,4.6,6.38,5.21,12.36,4.7Z"/>
    <path class="cls-3" d="m885.48,821.94c-13.37-7.94-26.33-15.75-39.41-23.35-8.27-4.81-16.77-9.22-25.07-13.99-1.37-.79-2.28-2.45-3.29-3.78-3.45-4.57-6.17-9.99-10.47-13.5-3.62-2.96-9.07-5.12-13.68-5.05-4.7.07-7.89-1.45-11.36-3.76-16.4-10.91-32.83-21.77-49.29-32.59-1.87-1.23-3.95-2.72-6.05-2.93-4.36-.43-4.53-4.13-4.51-6.45.02-2.57,1.7-5.62,3.57-7.58,2.57-2.67,6.01-4.5,9.33-6.87,16.4,10.45,34.15,21.64,51.74,33.05,5.61,3.64,10.79,7.95,16.27,11.79,1.39.97,3.17,1.78,4.83,1.91,9.04.7,15.55,6.43,22.66,11.03,19.62,12.68,39.26,25.32,58.9,37.97,7.1,4.57,7.34,7.16,2.1,13.62-2.37,2.92-3.93,6.49-6.29,10.49Z"/>
    <path class="cls-1" d="m638.86,929.26c-3.33,5.57-6.48,11.26-10.11,16.62-1.03,1.52-3.34,2.48-5.25,3.03-21.16,6.09-42.51,6.3-63.97,1.69-8.3-1.78-14.69-5.74-17.46-14.39-1.07-3.36-2.97-6.45-4.83-10.39,33.75,12.51,66.88,15.29,101.63,3.44Z"/>
    <path class="cls-3" d="m595.63,833.84c-21.35.46-42.02-2.9-61.4-12.19-2.76-1.32-4.79-4.18-7.16-6.32,2.99.4,6.19.27,8.95,1.29,31.03,11.49,62.55,14.75,94.79,5.81,4.33-1.2,8.42-3.27,12.61-4.97,2.61-1.05,5.8-3.91,7.65-.01,1.77,3.73-2.32,4.86-4.78,6.15-12.25,6.43-25.51,9.15-39.16,10.19-3.81.29-7.66.04-11.49.04Z"/>
    <path class="cls-3" d="m530.38,849.47c2.09.44,4.28.63,6.26,1.37,17.58,6.62,35.61,10.96,54.46,11.73,17.14.7,33.75-1.19,49.46-8.67,1.39-.66,3.42.01,5.15.07-.47,2.02-.3,4.77-1.57,5.9-2.27,2.02-5.3,3.33-8.2,4.45-13.79,5.34-28.2,6.11-42.77,5.36-20.38-1.06-40.16-4.73-58.55-14.06-1.99-1.01-3.54-2.87-5.29-4.34.35-.6.69-1.2,1.04-1.81Z"/>
    <path class="cls-3" d="m590.44,906.03c-20.05.16-38.61-5.04-55.71-15.45-.3-.18-.7-.28-.89-.53-1.38-1.86-2.72-3.75-4.07-5.62,2.13.33,4.41.28,6.37,1.05,26.55,10.49,53.47,17.23,81.99,8.58,4.15-1.26,8.25-2.76,12.26-4.42,2.45-1.01,5.13-2.13,5.94,1.14.38,1.51-1.35,4.53-2.93,5.39-10.39,5.66-29.11,9.75-42.96,9.85Z"/>
    <path class="cls-3" d="m779.38,443.47c7.43,8.18,14.9,16.41,22.45,24.71-2.8,6.22-7.93,9.52-13.74,11.48-6.26,2.12-11.24,0-14.6-5.93-3.33-5.9-6.11-12.11-9.1-18.13,5.02-4.07,9.84-7.97,14.99-12.14Z"/>
    <path class="cls-3" d="m681.77,678.76c16.25,6.3,32.28,12.51,49.32,19.11-6.02,6.52-17.51,7.94-14.55,21.04-5.88-5.17-10.43-9.12-14.92-13.14-6.37-5.7-12.69-11.46-19.04-17.19q-4.35-3.93-.81-9.82Z"/>
    <path class="cls-3" d="m430.06,390.96c2.26-2.75,4.41-5.61,6.81-8.24,3.93-4.31,3.73-6.14-.43-9.84-1.78-1.58-4.28-4.79-3.73-6.09,1.4-3.28,4.62-4.58,8.64-3.34,7.61,2.36,15.33,4.38,23.03,6.49,3.14.86,3.74,2.45,2.28,5.39-1.14,2.3-1.51,4.99-2.59,7.33-.57,1.23-1.78,2.76-2.95,3.01-10.09,2.21-20.25,4.17-30.38,6.2-.23-.3-.46-.61-.69-.91Z"/>
    <path class="cls-3" d="m795.61,784.54c-4.77-.05-8.25-3.03-8.09-6.92.2-4.77,4.14-9.64,7.74-9.56,4.71.11,9.25,3.32,9.29,6.56.08,6.07-3.44,9.97-8.94,9.92Z"/>
    <path class="cls-3" d="m417.46,682.45c2.28,2.34,4.56,4.68,7.43,7.63-5.69.91-8-1.37-7.43-7.63Z"/>
    <path class="cls-3" d="m466.66,647.97l4.68,7.38c-.53.55-1.05,1.09-1.58,1.64-1.69-1.15-3.87-1.98-4.92-3.56-.84-1.25-.3-3.42-.38-5.18.74-.09,1.47-.18,2.2-.28Z"/>
    <path class="cls-3" d="m263.18,812.85c-1.6,1.23-3.05,2.44-3.11,2.38-2.32-2.53-4.58-5.13-6.62-7.9-.18-.24,1.19-1.64,1.85-2.5,2.44,2.49,4.89,4.97,7.88,8.01Z"/>
    <path class="cls-3" d="m275.92,802.39c-1.95,1.24-3.48,2.39-3.6,2.26-2.12-2.32-4.11-4.77-5.93-7.34-.09-.12,2.36-2.3,2.42-2.24,2.26,2.14,4.39,4.43,7.11,7.32Z"/>
    <path class="cls-3" d="m242.46,812.92c2.26,4.26,3.99,7.52,5.72,10.78-.89.33-2.37,1.15-2.57.91-2.11-2.56-4.08-5.26-5.89-8.05-.17-.26,1.03-1.42,2.74-3.65Z"/>
    <path class="cls-3" d="m236.19,831.08c-1.89,1.24-3.38,2.41-3.51,2.27-2.44-2.5-4.73-5.15-6.91-7.88-.05-.06,2.13-2.14,2.22-2.06,2.6,2.25,5.07,4.66,8.21,7.67Z"/>
    <path class="cls-3" d="m290.01,791.84c-2.05,1.49-3.68,2.89-3.82,2.75-2.02-1.94-3.95-4.02-5.57-6.3-.23-.33,1.28-1.89,1.99-2.89,2.19,1.9,4.38,3.8,7.4,6.43Z"/>
    <path class="cls-3" d="m577.7,627.18c-5.98.51-10.08-.1-12.36-4.7-1.75-3.53-.26-10.8,2.67-13.61,2.11-2.03,4.71-2.63,5.69.65,1.69,5.65,2.65,11.52,4,17.66Z"/>
    <path class="cls-2" d="m666.37,448.44c-1,13.16-1.98,25.49-2.86,37.82-.23,3.26-.83,6.19-4.96,5.74-3.82-.42-3.88-3.52-3.68-6.38.82-11.47,1.52-22.96,2.73-34.4.53-4.99-.53-7.93-5.47-10.13-5.46-2.42-10.53-5.88-15.38-9.41-4.98-3.63,1.64-5.93,4.65-5.56,1.62.2,16.89,7.66,16.82,8.43.52-5.83.66-11.2,1.66-16.41,1.05-5.41,7.3-5.11,7.64.55.32,5.37,0,10.82-.53,16.19-.29,2.93.44,4.47,3.19,5.57,6.64,2.65,13.12,5.66,19.77,8.29,3.15,1.24,5.58,2.95,4.2,6.49-1.34,3.44-4.41,3.5-7.5,2.13-6.51-2.86-13.01-5.74-20.26-8.93Z"/>
    <path class="cls-2" d="m489.84,485.39c-.16-17.27,12.79-31.51,28.87-31.71,16.48-.21,29.15,12.92,29.28,30.35.13,17.01-13.21,31.4-29.2,31.51-16.14.1-28.78-13.07-28.94-30.15Zm8.35-.98c-.28,12.01,8.43,22.09,19.41,22.45,11.58.38,21.99-10.03,22.42-22.41.42-12.23-8.39-22.55-19.52-22.86-12.03-.34-22.01,9.87-22.31,22.82Z"/>
  </g>
  <path class="cls-2" d="m905.16,569.79c10.67.77,12.58,3.91,8.05,11.3-6.45,10.53-13.09,20.95-19.9,31.25-4.07,6.14-8.32,6.41-11.63.13-6.36-12.05-11.87-24.55-17.71-36.88-1.75-3.69-.33-5.26,3.56-5.3,13.13-.14,26.26-.34,37.62-.49Zm-17.56,35.98c6.49-9.61,12.28-18.2,18.76-27.79-11.03-.03-20.79-.05-31.52-.08,4.5,9.82,8.38,18.29,12.77,27.87Z"/>
  <path class="cls-3" d="m447.35,683.46c3.51,1.6,6.61,2.47,8.94,4.31,1.26.99,1.19,3.66,1.18,5.84-3.9-2.84-10.41-2.85-10.12-10.15Z"/>
</svg>