<?xml version="1.0" encoding="UTF-8"?>
<svg id="_圖層_1" data-name="圖層 1" xmlns="http://www.w3.org/2000/svg" viewBox="0 0 1200 1200">
  <defs>
    <style>
      .cls-1 {
        fill: #f70070;
      }

      .cls-2 {
        fill: #f9f9f9;
      }

      .cls-3 {
        fill: #ececec;
      }

      .cls-4 {
        fill: #080808;
      }
    </style>
  </defs>
  <path class="cls-3" d="m761.36,291.79c-1.9-.84-3.8-1.69-5.7-2.54-16.06-7.21-31.73-16.35-48.54-21.7-2.07-.66-15.41-5.31-16.83-3.62-40.85,46.31-73.74,98.03-101.95,152.81-6.51,12.64-10.4,26.63-15.54,39.98-.88,2.28-1.54,4.88-3.09,6.64-7.66,8.72-15.92,16.92-23.28,25.87-4.84,5.88-8.52,12.71-13.1,19.7,2.52,0,3.96.2,5.33-.03,9.89-1.63,19.32.19,28.24,4.29,11.73,5.4,14.83,13.65,10.24,25.62.42.28.84.55,1.26.83,1.31-.61,2.64-1.19,3.94-1.83,16.76-8.14,34.42-12.59,53.07-13.14,2.76-.08,6.11.03,8.14-1.42,10.19-7.28,20.03-15.04,30.21-22.8-.63-1.27-1.03-2.51-1.77-3.49-4.42-5.88-4.09-11.79-1.73-18.62,10.58-30.63,28.06-62.66,45.33-89.94,11.01-17.4,24.45-30.66,36.54-47.36,1.54-2.12-.7-4.61,2.76-3.32.99-.7,2.42-1.18,2.92-2.14,6.46-12.39,29.05-21.27,22.74-34.6-1.54-3.22-6.96-4.37-9.98-5.47-3.12-1.13-6.17-2.41-9.2-3.74Zm123.05,574.73c1.68-1.72,3.35-3.44,5.01-5.18-14.91-12.67-29.79-25.41-45.42-37.15-34.63-26-71.44-48.66-109.62-69.17-8.03-4.31-15.87-4.11-24.2-4.24-10.09-.16-20.22-.49-30.24-1.53-7.81-.81-15.5-2.84-23.46-4.37,1.11-3.49,2.06-6.49,3.1-9.78,13.61,3.48,23.99-3.7,33.99-11.09,15.22-11.24,26.18-26.08,34.48-42.99,8.77-17.88,15.93-36.21,16.73-56.45.02-.41.4-.8.98-1.87,2.43,1.65,5.07,2.87,6.94,4.83,5.57,5.84,11.31,11.61,16.07,18.08,4.84,6.58,10.7,11.12,18.06,14.59,42.43,19.98,80.79,46.37,117.09,75.8,16.86,13.67,33.29,27.86,49.78,41.97,1.37-2.25,2.73-4.52,4.06-6.79-17.86-15.39-35.73-30.77-54.16-45.46-34.11-27.21-69.92-51.98-109.77-70.24-8.12-3.72-15.16-7.96-19.79-15.84-1.77-3.02-4.44-5.53-6.85-8.14-5.32-5.76-10.73-11.43-16.16-17.2.13-.11.55-.59,1.07-.95,35.49-24.64,129.52-91.19,162.69-118.74,7.08-5.88,14.16-11.78,21.14-17.78,1.84-1.58,4.92-3.51,2.4-6.14-.92-.96-4.63-.04-6.59.96-2.98,1.53-5.61,3.79-8.24,5.91-38.2,30.84-136.34,101.82-176.91,129.64-6.9,4.74-11.04,10.01-9.64,18.64.18,1.09-.03,2.27-.21,3.38-5.57,34.17-20.2,63.72-45.29,87.76-3.81,3.66-8.78,6.11-13.83,9.54-.78-8.32-5.28-12.17-11.82-14.57,5.66-5.09,12.34-10.31,9.05-18.27-2.67-6.46-8.17-11.75-12.4-17.55,1-.24,2.94-.42,4.63-1.18,5.25-2.35,10.92-4.21,15.49-7.55,11.9-8.69,10.68-22.84-2.2-29.82-3.34-1.81-6.93-3.15-10.75-4.86,3.1-1.89,6.07-3.46,8.78-5.4,11.53-8.28,11.18-19.34-.95-26.66-3.85-2.33-8.13-3.96-12.43-6.02,2.72-1.55,5.33-2.82,7.7-4.43,10.71-7.29,11.6-18.24,1.81-26.69-3.73-3.22-8.16-5.83-12.64-7.94-21.23-10.01-43.83-9.66-66.51-8.13-5.6.38-11.17,1.26-16.75,1.91.11-1.39.51-1.82.99-2.07,17.17-8.79,35.29-14.64,54.64-14.41,7.94.09,13.88-2.58,19.85-6.81,23.43-16.61,46.3-34.1,70.5-49.5,27.72-17.64,109.05-63.92,137.4-80.59,2.54-1.5,7.38-2.7,5.5-6.56-2.2-4.51-6.01-.77-8.73.5-32.21,15.08-115.03,63.84-144.58,83.55-11.25,7.5-22.48,15.04-33.76,22.59-.71-1.58-.92-3.11-1.8-3.86-3.67-3.13-2.64-6.47-1.31-10.3,8.33-23.99,19.08-46.84,31.32-69.07,13.03-23.66,53.08-77.1,71.36-96.97,3.27-3.56,9.74-11.91,4.83-12.87-3.46-1.29-5.19,1.28-6.73,3.4-12.09,16.71-54.81,67.72-65.83,85.11-17.27,27.28-31.44,56.2-42.02,86.83-2.36,6.83-2.69,12.74,1.73,18.62.74.98,1.14,2.22,1.77,3.49-10.18,7.76-20.02,15.52-30.21,22.8-2.03,1.45-5.38,1.34-8.14,1.42-18.65.54-36.31,5-53.07,13.14-1.3.63-2.63,1.22-3.94,1.83-.53.12-1.07.24-1.6.36.11-.4.23-.79.34-1.19,4.59-11.97,1.48-20.23-10.24-25.62-8.91-4.1-18.35-5.92-28.24-4.29-1.37.23-2.82.03-5.33.03,4.58-6.99,8.26-13.82,13.1-19.7,7.37-8.95,15.63-17.15,23.28-25.87,1.55-1.76,2.21-4.36,3.09-6.64,5.14-13.35,9.03-27.34,15.54-39.98,28.21-54.78,61.1-106.5,101.95-152.81-2.3-.24-4.61-.45-6.91-.62-.86,0-1.7-.05-2.53-.14-32.39,36.97-59.1,77.96-83.52,120.54-11.55,20.13-22.83,40.42-29.45,62.86-3.28,11.13-3.66,8.88-11.36,4.89-3.22-1.67-6.88-3.15-9.21-5.74-3.83-4.28-6.43-9.64-10.09-14.1-17.81-21.72-35.97-43.15-53.69-64.95-21.4-26.32-42.85-52.57-66.2-77.17-.1.03-.21.08-.31.11l-.2.09c-2.26,1.04-4.48,2.16-6.68,3.32,19.1,20.28,37.08,41.54,54.57,63.28,18.53,23.03,38.12,45.2,56.9,68.03,7.35,8.93,13.72,18.67,20.68,27.93,1.1,1.47,2.83,2.59,4.48,3.49,3.48,1.9,7.1,3.55,10.95,5.45-5.42,6.68-11,12.76-15.65,19.49-6.75,9.77-12.81,20.01-19.23,30.01-.53.83-1.43,1.64-2.34,1.99-22.62,8.69-42.36,21.84-59.87,38.47-.33.31-.78.48-2.21,1.34-2.48-9.45-5.74-18.37-7-27.57-1.3-9.5-.24-19.31-1.09-28.9-.3-3.32-2.77-6.79-5.03-9.55-32.25-39.18-62.51-79.87-91.56-121.44-3.83-5.48-7.42-11.12-10.94-16.81-1.46,1.5-2.91,3.01-4.36,4.52,11.37,17.38,22.6,34.87,34.87,51.59,22.15,30.2,45.54,59.49,68.3,89.25,1.03,1.35,1.65,3.55,1.43,5.22-1.95,14.72.41,28.92,4.62,42.95,1.12,3.72,2.08,7.48,3.39,12.2-2.48-1.3-3.91-2-5.29-2.78-39.49-22.11-78.93-44.3-118.47-66.31-12.2-6.79-24.6-13.22-37.06-19.51-1.52-.77-4,.34-6.03.58,1.05,1.55,1.74,3.71,3.2,4.55,33.75,19.32,67.54,38.55,101.4,57.67,21.41,12.09,42.92,24,64.41,35.96,3.58,1.99,6.74,2.6,8.11-2.69.33-1.28,1.51-2.49,2.58-3.4,6.16-5.21,12.11-10.74,18.67-15.38,15.45-10.92,31.35-21.2,50.28-25.11,5.14-1.06,10.5-1,15.76-1.46-5.51,6.4-6.83,12.95-5.2,19.85,1.74,7.4,7.53,10.55,14.94,11.82-10.08,4.63-20.21,8.68-30.31,12.79-2.94,1.2-7.78,1.39-6.41,6.09,1.35,4.62,5.36,2.11,8.22,1.26,28.92-8.64,58.11-15.5,88.61-14.01,14.08.68,27.93,2.53,41.32,9.09-6.18,1.87-9.35,6.15-11.51,11.36-2.27,5.49-1.05,10.6,2.53,15.8-2.21.22-3.77.5-5.33.51-14.85.12-29.69.09-44.53.44-1.82.04-3.59,2.01-5.39,3.08,1.52,1.4,2.82,3.48,4.6,4.03,2.86.88,6.04,1.05,9.07.99,12.92-.22,25.85-.94,38.76-.82,5.58.06,11.14,1.73,16.08,2.56-2.59,4.89-4.89,8.76-6.73,12.85-2.25,5.01,0,9.27,4.48,14.23-7.39,0-13.29.25-19.15-.05-12.74-.66-25.46-1.73-38.21-2.31-1.82-.08-3.72,1.62-5.58,2.49,1.46,1.44,2.71,3.72,4.43,4.16,3.85.98,7.92,1.2,11.92,1.46,12.73.82,25.46,1.92,38.21,2.1,6.45.09,11.92,2.14,16.32,3.86-2.62,4.66-5.86,8.76-7.27,13.41-1.57,5.21,1.41,9.81,5.8,13.72-2.37.57-4.04,1.03-5.74,1.38-14.4,2.94-28.63.43-42.86-1.5-8.63-1.17-17.2-2.77-25.85-3.82-1.47-.18-3.17,1.43-4.76,2.21.9,1.55,1.46,3.58,2.79,4.52,1.47,1.04,3.62,1.27,5.52,1.54,13.9,1.96,27.82,3.75,41.71,5.77,6.59.96,13.3,1.82,18.77,6.57-11.29,4.49-16.38,14.41-8.61,26.17-1.01.19-1.91.36-2.81.51-1.43.23-2.86.5-4.3.66-33.33,3.75-66.74,4.93-100.1.99-29.79-3.52-59.82-6.23-89.15-12.18-81.26-16.48-159.64-41.89-233.19-80.9-2.2-1.17-4.41-2.34-6.61-3.52.07,3.07.17,6.13.29,9.2,1.49.77,2.98,1.53,4.47,2.31,44.63,23.17,90.89,42.33,139.08,56.77,10.23,3.07,20.51,6,31.77,9.3-7.01,2.38-12.92,4.46-18.88,6.39-45.36,14.76-87.38,35.95-126.48,62.75.56,2.6,1.21,5.17,1.94,7.73,22.23-15.44,45.4-29.38,70.04-40.62,24.12-11,49.25-19.78,73.84-29.77,7.2-2.92,13.59-3.84,21.36-.4,7.3,3.23,15.84,3.73,23.89,5.17,22.31,3.98,44.64,7.78,66.94,11.82,1.49.27,2.79,1.83,4.06,2.92.44.38.37,1.36.81,1.72,8.47,6.77,7.65,16.89,9.55,26.07,1.3,6.29,2.98,12.51,4.57,19.09-8.73,3.7-17.66,5.12-26.86,3.14-5.95-1.28-11.41-.52-17.25,1.04-56.91,15.23-112.86,33.09-165.7,59.55-7.76,3.89-14.86,9.1-22.17,13.89,1.18,1.31,2.38,2.61,3.59,3.89,3.16-1.68,6.09-3.79,9.27-5.42,45.05-23.07,92.39-40.26,140.95-54.17,20.75-5.95,41.07-14.26,63.62-10.81,5.3.81,11.15-1.94,16.85-3.07,2.35,6.03,5.08,11.97,2.99,18.86-.83,2.74-.88,5.73-1.16,8.62-1.57,16.38-3.38,32.74-4.57,49.15-1.1,15.12-1.61,30.3-2.13,45.46-.05,1.42,1.69,2.91,2.6,4.36,1.54-1.09,3.4-1.93,4.5-3.36.76-.99.61-2.78.62-4.22.31-35.58,4.37-70.85,8.49-106.12.27-2.32-.09-4.86-.78-7.1-1.89-6.15-4.5-12.09-6.12-18.3-2.66-10.23-4.77-20.61-7.08-30.8,5.19-1.87,9.54-3.43,13.86-4.98-.25,15.02,12.18,23.46,32.57,16.28.07.48.21.95.2,1.41-.24,13.6,9.92,21.24,22.83,16.93,10.96-3.66,20.19-10.1,27.67-18.86,5.24-6.13,10.08-12.61,15.18-18.87.83-1.02,1.98-2.25,3.14-2.46,5.47-1.01,11.01-1.69,16.14-2.44,0,3.28-.79,6.58.19,9.23,1.45,3.94.34,7.21-.75,10.72-4.66,15.08-10.36,29.95-13.64,45.33-3.58,16.77-5.04,34-7.21,51.06-1.99,15.63-3.69,31.31-5.53,46.96-.73,6.23-1.75,12.45-2.08,18.7-.09,1.71,1.86,3.52,2.87,5.28,1.38-1.41,3.22-2.6,4.02-4.29.86-1.81.83-4.07,1.07-6.14,1.71-14.54,3.34-29.09,5.09-43.62,2.14-17.73,4.96-35.39,6.39-53.18,1.3-16.21,8.74-30.41,12.38-45.77,22.56,5.67,44.7,9.76,67.57,7.15,1.43-.16,3.09.68,4.47,1.4,46.57,24.09,90.48,52.38,131.84,84.57,8.94,6.96,17.52,14.39,26.08,21.83Zm-320.89-324.47c-10.27-.18-15.16-3.96-14.9-11.54.21-6.17,5.36-12.19,10.25-11.98,5.91.26,12.86,6.85,12.59,11.94-.24,4.42-5.18,11.62-7.94,11.58Zm13.58,7.74s-.46-.24-.94-.5c.64-.21,1.1-.37,1.55-.52-.19.35-.36.71-.61,1.02Zm83.47,37.85c-3.6.05-7.56-4.12-7.62-7.99-.08-6.11,6.12-12.22,12.45-12.24,3.47-.01,8.48,5.45,8.39,9.15-.1,4.11-8.34,11.02-13.23,11.08Zm1.95,29.1c.02-5.42,4.44-11.62,8.24-11.57,2.98.04,8.76,5.61,8.86,8.56.12,3.45-7.21,10.62-10.81,10.55-2.55-.05-6.3-4.55-6.29-7.54Zm5.67,37.06c.21-4.75,5.2-10.13,9.06-9.79,3.38.3,6.69,5.03,6.38,9.11-.33,4.26-4.19,8.48-7.59,8.29-5.33-.29-8.05-2.94-7.85-7.62Zm-155.02,63.47c6.19.59,11.95,1.14,18.27,1.75-6.17,4.5-14.36,3.79-18.27-1.75Zm43.2,18.24c-.71,1.23-3.1,1.5-4.71,2.21-5-.07-7.96-3.01-9.85-6.6-.93-1.78-.9-5.22.25-6.64,1.37-1.67,4.44-2.75,6.74-2.7,6.13.14,10.65,8.42,7.57,13.74Zm8.06-.46c-1.05-5.21-1.85-9.2-2.64-13.09h14.65c-4.48,4.88-8.02,8.75-12.01,13.09Zm18.07,18.47c-4.51-.07-8.34-3.81-8.41-8.23-.06-3.95,4.71-7.37,10.2-7.33,4.69.04,7.95,2.7,8.02,6.54.11,5.75-3.54,9.1-9.8,9.01Zm17.13-7.14c-1.93-12.85-7.3-16.1-22.16-13.32,2-3.4,3.76-6.63,5.79-9.68.48-.72,1.88-1.14,2.87-1.17,13.02-.5,26.04-.9,40.26-1.36-9.63,8.7-15.83,19.46-26.77,25.54Zm71.3-20.21c-.36,1.6-2.66,2.77-3.14,3.23-7.02-.21-9.36-2.06-9.36-5.99,0-3.77,2.16-5.58,5.63-5.63,3.38-.05,7.66,4.93,6.87,8.39Zm-19.26-27.12c-.14-4.94,4.71-10.02,9.75-10.22,3.29-.13,6.71,3.71,6.7,7.54,0,4.03-5.02,9.51-8.78,9.58-4.46.09-7.55-2.69-7.67-6.91Z"/>
  <g>
    <path class="cls-4" d="m884.41,866.52c1.68-1.72,3.35-3.44,5.01-5.18-14.91-12.67-29.79-25.41-45.42-37.15-34.63-26-71.44-48.66-109.62-69.17-8.03-4.31-15.87-4.11-24.2-4.24-10.09-.16-20.22-.49-30.24-1.53-7.81-.81-15.5-2.84-23.46-4.37,1.11-3.49,2.06-6.49,3.1-9.78,13.61,3.48,23.99-3.7,33.99-11.09,15.22-11.24,26.18-26.08,34.48-42.99,8.77-17.88,15.93-36.21,16.73-56.45.02-.41.4-.8.98-1.87,2.43,1.65,5.07,2.87,6.94,4.83,5.57,5.84,11.31,11.61,16.07,18.08,4.84,6.58,10.7,11.12,18.06,14.59,42.43,19.98,80.79,46.37,117.09,75.8,16.86,13.67,33.29,27.86,49.78,41.97,1.37-2.25,2.73-4.52,4.06-6.79-17.86-15.39-35.73-30.77-54.16-45.46-34.11-27.21-69.92-51.98-109.77-70.24-8.12-3.72-15.16-7.96-19.79-15.84-1.77-3.02-4.44-5.53-6.85-8.14-5.32-5.76-10.73-11.43-16.16-17.2.13-.11.55-.59,1.07-.95,35.49-24.64,129.52-91.19,162.69-118.74,7.08-5.88,14.16-11.78,21.14-17.78,1.84-1.58,4.92-3.51,2.4-6.14-.92-.96-4.63-.04-6.59.96-2.98,1.53-5.61,3.79-8.24,5.91-38.2,30.84-136.34,101.82-176.91,129.64-6.9,4.74-11.04,10.01-9.64,18.64.18,1.09-.03,2.27-.21,3.38-5.57,34.17-20.2,63.72-45.29,87.76-3.81,3.66-8.78,6.11-13.83,9.54-.78-8.32-5.28-12.17-11.82-14.57,5.66-5.09,12.34-10.31,9.05-18.27-2.67-6.46-8.17-11.75-12.4-17.55,1-.24,2.94-.42,4.63-1.18,5.25-2.35,10.92-4.21,15.49-7.55,11.9-8.69,10.68-22.84-2.2-29.82-3.34-1.81-6.93-3.15-10.75-4.86,3.1-1.89,6.07-3.46,8.78-5.4,11.53-8.28,11.18-19.34-.95-26.66-3.85-2.33-8.13-3.96-12.43-6.02,2.72-1.55,5.33-2.82,7.7-4.43,10.71-7.29,11.6-18.24,1.81-26.69-3.73-3.22-8.16-5.83-12.64-7.94-21.23-10.01-43.83-9.66-66.51-8.13-5.6.38-11.17,1.26-16.75,1.91.11-1.39.51-1.82.99-2.07,17.17-8.79,35.29-14.64,54.64-14.41,7.94.09,13.88-2.58,19.85-6.81,23.43-16.61,46.3-34.1,70.5-49.5,27.72-17.64,109.05-63.92,137.4-80.59,2.54-1.5,7.38-2.7,5.5-6.56-2.2-4.51-6.01-.77-8.73.5-32.21,15.08-115.03,63.84-144.58,83.55-11.25,7.5-22.48,15.04-33.76,22.59-.71-1.58-.92-3.11-1.8-3.86-3.67-3.13-2.64-6.47-1.31-10.3,8.33-23.99,19.08-46.84,31.32-69.07,13.03-23.66,53.08-77.1,71.36-96.97,3.27-3.56,9.74-11.91,4.83-12.87-3.46-1.29-5.19,1.28-6.73,3.4-12.09,16.71-54.81,67.72-65.83,85.11-17.27,27.28-31.44,56.2-42.02,86.83-2.36,6.83-2.69,12.74,1.73,18.62.74.98,1.14,2.22,1.77,3.49-10.18,7.76-20.02,15.52-30.21,22.8-2.03,1.45-5.38,1.34-8.14,1.42-18.65.54-36.31,5-53.07,13.14-1.3.63-2.63,1.22-3.94,1.83-.53.12-1.07.24-1.6.36.11-.4.23-.79.34-1.19,4.59-11.97,1.48-20.23-10.24-25.62-8.91-4.1-18.35-5.92-28.24-4.29-1.37.23-2.82.03-5.33.03,4.58-6.99,8.26-13.82,13.1-19.7,7.37-8.95,15.63-17.15,23.28-25.87,1.55-1.76,2.21-4.36,3.09-6.64,5.14-13.35,9.03-27.34,15.54-39.98,18.44-35.81,39.02-70.56,62.54-103.28,6.14-8.54,12.48-16.95,19.03-25.19,3.28-4.13,6.61-8.22,10-12.27,3.11-3.72,7.81-7.67,10-11.93-2.07-.81-4.84-.7-7.08-.76-.78-.02-1.58-.03-2.3.27-3.14,1.3-6.78,7.83-8.97,10.47-3.3,3.98-6.54,8-9.73,12.06-6.37,8.11-12.53,16.4-18.49,24.81-11.94,16.84-23.11,34.22-33.75,51.9-4.16,6.91-8.24,13.88-12.26,20.88-11.55,20.13-22.83,40.42-29.45,62.86-3.28,11.13-3.66,8.88-11.36,4.89-3.22-1.67-6.88-3.15-9.21-5.74-3.83-4.28-6.43-9.64-10.09-14.1-17.81-21.72-35.97-43.15-53.69-64.95-21.4-26.32-42.85-52.57-66.2-77.17-.1.03-.21.08-.31.11l-.2.09c-2.26,1.04-4.48,2.16-6.68,3.32,19.1,20.28,37.08,41.54,54.57,63.28,18.53,23.03,38.12,45.2,56.9,68.03,7.35,8.93,13.72,18.67,20.68,27.93,1.1,1.47,2.83,2.59,4.48,3.49,3.48,1.9,7.1,3.55,10.95,5.45-5.42,6.68-11,12.76-15.65,19.49-6.75,9.77-12.81,20.01-19.23,30.01-.53.83-1.43,1.64-2.34,1.99-22.62,8.69-42.36,21.84-59.87,38.47-.33.31-.78.48-2.21,1.34-2.48-9.45-5.74-18.37-7-27.57-1.3-9.5-.24-19.31-1.09-28.9-.3-3.32-2.77-6.79-5.03-9.55-32.25-39.18-62.51-79.87-91.56-121.44-3.83-5.48-7.42-11.12-10.94-16.81-1.46,1.5-2.91,3.01-4.36,4.52,11.37,17.38,22.6,34.87,34.87,51.59,22.15,30.2,45.54,59.49,68.3,89.25,1.03,1.35,1.65,3.55,1.43,5.22-1.95,14.72.41,28.92,4.62,42.95,1.12,3.72,2.08,7.48,3.39,12.2-2.48-1.3-3.91-2-5.29-2.78-39.49-22.11-78.93-44.3-118.47-66.31-12.2-6.79-24.6-13.22-37.06-19.51-1.52-.77-4,.34-6.03.58,1.05,1.55,1.74,3.71,3.2,4.55,33.75,19.32,67.54,38.55,101.4,57.67,21.41,12.09,42.92,24,64.41,35.96,3.58,1.99,6.74,2.6,8.11-2.69.33-1.28,1.51-2.49,2.58-3.4,6.16-5.21,12.11-10.74,18.67-15.38,15.45-10.92,31.35-21.2,50.28-25.11,5.14-1.06,10.5-1,15.76-1.46-5.51,6.4-6.83,12.95-5.2,19.85,1.74,7.4,7.53,10.55,14.94,11.82-10.08,4.63-20.21,8.68-30.31,12.79-2.94,1.2-7.78,1.39-6.41,6.09,1.35,4.62,5.36,2.11,8.22,1.26,28.92-8.64,58.11-15.5,88.61-14.01,14.08.68,27.93,2.53,41.32,9.09-6.18,1.87-9.35,6.15-11.51,11.36-2.27,5.49-1.05,10.6,2.53,15.8-2.21.22-3.77.5-5.33.51-14.85.12-29.69.09-44.53.44-1.82.04-3.59,2.01-5.39,3.08,1.52,1.4,2.82,3.48,4.6,4.03,2.86.88,6.04,1.05,9.07.99,12.92-.22,25.85-.94,38.76-.82,5.58.06,11.14,1.73,16.08,2.56-2.59,4.89-4.89,8.76-6.73,12.85-2.25,5.01,0,9.27,4.48,14.23-7.39,0-13.29.25-19.15-.05-12.74-.66-25.46-1.73-38.21-2.31-1.82-.08-3.72,1.62-5.58,2.49,1.46,1.44,2.71,3.72,4.43,4.16,3.85.98,7.92,1.2,11.92,1.46,12.73.82,25.46,1.92,38.21,2.1,6.45.09,11.92,2.14,16.32,3.86-2.62,4.66-5.86,8.76-7.27,13.41-1.57,5.21,1.41,9.81,5.8,13.72-2.37.57-4.04,1.03-5.74,1.38-14.4,2.94-28.63.43-42.86-1.5-8.63-1.17-17.2-2.77-25.85-3.82-1.47-.18-3.17,1.43-4.76,2.21.9,1.55,1.46,3.58,2.79,4.52,1.47,1.04,3.62,1.27,5.52,1.54,13.9,1.96,27.82,3.75,41.71,5.77,6.59.96,13.3,1.82,18.77,6.57-11.29,4.49-16.38,14.41-8.61,26.17-1.01.19-1.91.36-2.81.51-1.43.23-2.86.5-4.3.66-33.33,3.75-66.74,4.93-100.1.99-29.79-3.52-59.82-6.23-89.15-12.18-81.26-16.48-159.64-41.89-233.19-80.9-2.2-1.17-4.41-2.34-6.61-3.52.07,3.07.17,6.13.29,9.2,1.49.77,2.98,1.53,4.47,2.31,44.63,23.17,90.89,42.33,139.08,56.77,10.23,3.07,20.51,6,31.77,9.3-7.01,2.38-12.92,4.46-18.88,6.39-45.36,14.76-87.38,35.95-126.48,62.75.56,2.6,1.21,5.17,1.94,7.73,22.23-15.44,45.4-29.38,70.04-40.62,24.12-11,49.25-19.78,73.84-29.77,7.2-2.92,13.59-3.84,21.36-.4,7.3,3.23,15.84,3.73,23.89,5.17,22.31,3.98,44.64,7.78,66.94,11.82,1.49.27,2.79,1.83,4.06,2.92.44.38.37,1.36.81,1.72,8.47,6.77,7.65,16.89,9.55,26.07,1.3,6.29,2.98,12.51,4.57,19.09-8.73,3.7-17.66,5.12-26.86,3.14-5.95-1.28-11.41-.52-17.25,1.04-56.91,15.23-112.86,33.09-165.7,59.55-7.76,3.89-14.86,9.1-22.17,13.89,1.18,1.31,2.38,2.61,3.59,3.89,3.16-1.68,6.09-3.79,9.27-5.42,45.05-23.07,92.39-40.26,140.95-54.17,20.75-5.95,41.07-14.26,63.62-10.81,5.3.81,11.15-1.94,16.85-3.07,2.35,6.03,5.08,11.97,2.99,18.86-.83,2.74-.88,5.73-1.16,8.62-1.57,16.38-3.38,32.74-4.57,49.15-1.1,15.12-1.61,30.3-2.13,45.46-.05,1.42,1.69,2.91,2.6,4.36,1.54-1.09,3.4-1.93,4.5-3.36.76-.99.61-2.78.62-4.22.31-35.58,4.37-70.85,8.49-106.12.27-2.32-.09-4.86-.78-7.1-1.89-6.15-4.5-12.09-6.12-18.3-2.66-10.23-4.77-20.61-7.08-30.8,5.19-1.87,9.54-3.43,13.86-4.98-.25,15.02,12.18,23.46,32.57,16.28.07.48.21.95.2,1.41-.24,13.6,9.92,21.24,22.83,16.93,10.96-3.66,20.19-10.1,27.67-18.86,5.24-6.13,10.08-12.61,15.18-18.87.83-1.02,1.98-2.25,3.14-2.46,5.47-1.01,11.01-1.69,16.14-2.44,0,3.28-.79,6.58.19,9.23,1.45,3.94.34,7.21-.75,10.72-4.66,15.08-10.36,29.95-13.64,45.33-3.58,16.77-5.04,34-7.21,51.06-1.99,15.63-3.69,31.31-5.53,46.96-.73,6.23-1.75,12.45-2.08,18.7-.09,1.71,1.86,3.52,2.87,5.28,1.38-1.41,3.22-2.6,4.02-4.29.86-1.81.83-4.07,1.07-6.14,1.71-14.54,3.34-29.09,5.09-43.62,2.14-17.73,4.96-35.39,6.39-53.18,1.3-16.21,8.74-30.41,12.38-45.77,22.56,5.67,44.7,9.76,67.57,7.15,1.43-.16,3.09.68,4.47,1.4,46.57,24.09,90.48,52.38,131.84,84.57,8.94,6.96,17.52,14.39,26.08,21.83Zm-320.89-324.47c-10.27-.18-15.16-3.96-14.9-11.54.21-6.17,5.36-12.19,10.25-11.98,5.91.26,12.86,6.85,12.59,11.94-.24,4.42-5.18,11.62-7.94,11.58Zm13.58,7.74s-.46-.24-.94-.5c.64-.21,1.1-.37,1.55-.52-.19.35-.36.71-.61,1.02Zm83.47,37.85c-3.6.05-7.56-4.12-7.62-7.99-.08-6.11,6.12-12.22,12.45-12.24,3.47-.01,8.48,5.45,8.39,9.15-.1,4.11-8.34,11.02-13.23,11.08Zm1.95,29.1c.02-5.42,4.44-11.62,8.24-11.57,2.98.04,8.76,5.61,8.86,8.56.12,3.45-7.21,10.62-10.81,10.55-2.55-.05-6.3-4.55-6.29-7.54Zm5.67,37.06c.21-4.75,5.2-10.13,9.06-9.79,3.38.3,6.69,5.03,6.38,9.11-.33,4.26-4.19,8.48-7.59,8.29-5.33-.29-8.05-2.94-7.85-7.62Zm-155.02,63.47c6.19.59,11.95,1.14,18.27,1.75-6.17,4.5-14.36,3.79-18.27-1.75Zm43.2,18.24c-.71,1.23-3.1,1.5-4.71,2.21-5-.07-7.96-3.01-9.85-6.6-.93-1.78-.9-5.22.25-6.64,1.37-1.67,4.44-2.75,6.74-2.7,6.13.14,10.65,8.42,7.57,13.74Zm8.06-.46c-1.05-5.21-1.85-9.2-2.64-13.09h14.65c-4.48,4.88-8.02,8.75-12.01,13.09Zm18.07,18.47c-4.51-.07-8.34-3.81-8.41-8.23-.06-3.95,4.71-7.37,10.2-7.33,4.69.04,7.95,2.7,8.02,6.54.11,5.75-3.54,9.1-9.8,9.01Zm17.13-7.14c-1.93-12.85-7.3-16.1-22.16-13.32,2-3.4,3.76-6.63,5.79-9.68.48-.72,1.88-1.14,2.87-1.17,13.02-.5,26.04-.9,40.26-1.36-9.63,8.7-15.83,19.46-26.77,25.54Zm71.3-20.21c-.36,1.6-2.66,2.77-3.14,3.23-7.02-.21-9.36-2.06-9.36-5.99,0-3.77,2.16-5.58,5.63-5.63,3.38-.05,7.66,4.93,6.87,8.39Zm-19.26-27.12c-.14-4.94,4.71-10.02,9.75-10.22,3.29-.13,6.71,3.71,6.7,7.54,0,4.03-5.02,9.51-8.78,9.58-4.46.09-7.55-2.69-7.67-6.91Z"/>
    <path class="cls-3" d="m917.74,829.24c2.24-2.76,4.69-5.47,6.69-8.41-3.62,5.3.64-.85,1.4-1.86,1-1.32,1.99-2.64,2.97-3.97,4.59-6.21,9.04-12.52,13.34-18.93,3.99-5.95,7.84-11.98,11.56-18.09-16.49-14.12-32.93-28.3-49.78-41.97-36.29-29.43-74.66-55.83-117.09-75.8-7.36-3.47-13.22-8.01-18.06-14.59-4.76-6.47-10.51-12.24-16.07-18.08-1.87-1.96-4.51-3.18-6.94-4.83-.58,1.08-.97,1.47-.98,1.87-.8,20.23-7.96,38.57-16.73,56.45-8.3,16.91-19.26,31.75-34.48,42.99-10,7.39-20.38,14.57-33.99,11.09-1.04,3.29-2,6.3-3.1,9.78,7.97,1.53,15.65,3.55,23.46,4.37,10.03,1.04,20.15,1.37,30.24,1.53,8.34.13,16.18-.07,24.2,4.24,38.18,20.51,74.99,43.16,109.62,69.17,15.63,11.74,30.5,24.47,45.42,37.15,9.84-10.33,19.31-21.02,28.32-32.1Z"/>
    <path class="cls-3" d="m546.77,455.77c-1.65-.9-3.38-2.02-4.48-3.49-6.96-9.26-13.33-19-20.68-27.93-18.78-22.83-38.38-45-56.9-68.03-17.49-21.74-35.47-43-54.57-63.28-3.78,1.98-7.48,4.09-11.09,6.34-2.46,1.53-4.88,3.13-7.27,4.77-1.6,1.1-3.18,2.22-4.74,3.36-.86.63-2.46,2.4-3.43,2.59-.18.15-.37.29-.55.44-1.33,1.07-2.65,2.15-3.97,3.24-2.44,2.04-4.85,4.12-7.23,6.23-4.96,4.41-9.8,8.96-14.54,13.61-4.91,4.8-9.72,9.7-14.5,14.63,3.52,5.69,7.11,11.33,10.94,16.81,29.05,41.58,59.31,82.26,91.56,121.44,2.27,2.75,4.74,6.22,5.03,9.55.85,9.59-.21,19.4,1.09,28.9,1.26,9.2,4.51,18.12,7,27.57,1.43-.86,1.88-1.03,2.21-1.34,17.51-16.63,37.24-29.79,59.87-38.47.91-.35,1.8-1.16,2.34-1.99,6.42-10,12.48-20.25,19.23-30.01,4.65-6.72,10.23-12.8,15.65-19.49-3.85-1.89-7.47-3.54-10.95-5.45Z"/>
    <path class="cls-3" d="m515.8,746.61c-1.9-9.18-1.08-19.29-9.55-26.07-.44-.36-.38-1.34-.81-1.72-1.28-1.09-2.57-2.65-4.06-2.92-22.3-4.03-44.63-7.84-66.94-11.82-8.04-1.44-16.59-1.94-23.89-5.17-7.77-3.44-14.16-2.52-21.36.4-24.59,9.98-49.72,18.77-73.84,29.77-24.64,11.23-47.81,25.18-70.04,40.62.66,2.3,1.37,4.59,2.15,6.86.68,1.98,1.59,3.95,2.35,5.93-.25-1-.15-1.1.84,2.44.62,1.38,1.25,2.76,1.89,4.12,5.6,11.82,12.29,23.13,19.73,33.88,1.83,2.64,3.71,5.25,5.63,7.83.22.3.45.59.67.89.07.08.13.17.21.26.93,1.14,1.84,2.29,2.77,3.43,2.23,2.7,4.51,5.36,6.86,7.96,7.31-4.79,14.41-10,22.17-13.89,52.84-26.45,108.8-44.31,165.7-59.55,5.83-1.56,11.29-2.32,17.25-1.04,9.2,1.98,18.13.55,26.86-3.14-1.59-6.58-3.27-12.8-4.57-19.09Z"/>
    <path class="cls-1" d="m882.12,598.82c-2.05-6.11-6.15-10.9-11.99-14.22-8.92-5.06-19.04-.06-18.77,10.13.22,8.67,1.66,17.51,4.01,25.87,3.02,10.75,7.41,21.12,11.36,31.59,1.25,3.32,2.84,3.59,5.44,1.29,7.14-6.3,14.4-12.47,21.32-19.01,9.14-8.64,16.46-18.63,19.64-31.02.96-3.76,1.45-8,.75-11.76-1.81-9.75-11.56-13.27-19.14-6.8-4.64,3.96-8.3,9.07-12.61,13.91Z"/>
    <path class="cls-1" d="m429.34,848.76c2.31-3.24,4.5-6.58,6.97-9.7,3.27-4.13,7.81-5.44,12.57-3.65,4.6,1.73,7.5,5.34,7.99,10.58.75,8.08-1.2,15.33-6.25,21.72-6.2,7.85-12.35,15.75-18.6,23.56-3.59,4.48-4.67,4.71-8.22.48-8.75-10.45-18.79-20.08-22.93-33.68-2.14-7.01-2.6-13.97,1.36-20.55,5.38-8.94,16.25-9.13,21.67-.25,2.16,3.54,3.59,7.53,5.44,11.49Z"/>
    <path class="cls-1" d="m744.21,861.89c.6-4.42.47-9.1,1.96-13.19,2.39-6.54,8.77-7.6,12.65-1.86,4.45,6.61,8.34,13.84,11.08,21.31,4.52,12.32,7.96,25.05,11.74,37.64.3,1.01-.25,2.28-.41,3.43-1-.16-2.17-.03-2.99-.51-12.47-7.33-25.31-14.15-37.18-22.35-6.9-4.76-12.74-11.37-18.08-17.94-2.62-3.23-3.74-8.16-4.27-12.48-.62-5.04,3.72-8.28,8.54-6.38,3.9,1.54,7.36,4.38,10.77,6.96,2.14,1.63,3.83,3.85,5.72,5.81.16.43.33.86.49,1.29.14-.04.28-.08.42-.12-.14-.54-.29-1.07-.43-1.61Z"/>
    <path class="cls-1" d="m344.91,463.61c2.21-11.63,4.62-23.21,6.68-34.87,1.18-6.69,3.06-14.1.57-20.73-2.26-6.02-9.29-11.36-12.83-2.89-2.3,5.5-3.66,11.39-5.23,16.46-2.22-1.97-4.76-4.39-7.48-6.6-3.78-3.07-8.04-3.43-12.07-.81-3.79,2.47-4.8,6.32-3.4,10.63.74,2.27,1.24,4.87,2.69,6.62,8.12,9.76,16.45,19.36,24.86,28.88,1.07,1.21,3.01,1.65,6.21,3.3Z"/>
    <path class="cls-1" d="m545.77,415.46c-.95-2.71-2.17-5.35-2.8-8.13-3.21-14.32-5.92-28.77-9.51-42.99-2.36-9.36-6.03-18.38-8.88-27.62-.53-1.73.07-3.82.15-5.74,1.62,1.21,4.13,2.09,4.73,3.69,5.1,13.55,10.61,27.02,14.45,40.95,2.85,10.33,3.52,21.29,4.88,32,.3,2.4-.59,4.96-.93,7.45-.7.13-1.39.27-2.09.4Z"/>
    <path class="cls-1" d="m308.69,697.49c-2.8,1.27-5.5,2.84-8.41,3.76-15.51,4.88-31.11,9.49-46.61,14.42-7.51,2.39-14.82,5.42-22.33,7.84-1.64.53-3.71-.3-5.59-.5.97-1.8,1.51-4.59,2.98-5.22,8.56-3.68,17.17-7.47,26.09-10.08,15.13-4.41,30.49-8.03,45.8-11.82,2.37-.59,4.95-.34,7.43-.48.21.69.42,1.39.63,2.08Z"/>
    <path class="cls-1" d="m806.85,888.18c.97,13.07,1.63,26.16,2.35,39.25,2.06-1.88,4.15-3.72,6.29-5.52.34-6.88.53-13.75.08-20.57-.67-10.18-3.62-20.24-5.97-30.25-.31-1.32-3-2.09-4.59-3.11-.4,1.68-1.34,3.44-1.09,5.02.78,5.1,2.56,10.08,2.94,15.19Z"/>
    <path class="cls-1" d="m927.1,681.14c1.35-.46,2.69-1.27,4.06-1.33,17.42-.72,34.37,1.76,50.67,8,1.79.69,2.89,3.16,4.32,4.8-2.15.46-4.57,1.8-6.42,1.24-15.63-4.66-31.42-8.35-47.76-9.4-1.67-.11-3.28-1.28-4.92-1.95.02-.45.03-.91.05-1.36Z"/>
    <path class="cls-1" d="m936.14,659.9c-2.09,1.27-3.24,2.45-4.57,2.69-8.99,1.63-18,3.1-27.03,4.47-.8.12-1.77-.88-2.66-1.36.83-1.37,1.39-3.65,2.52-3.98,6.91-1.99,13.91-3.66,20.95-5.16,2.15-.46,4.54-.35,6.7.09,1.23.25,2.22,1.7,4.08,3.24Z"/>
    <path class="cls-1" d="m254.18,692.84c-1.78,1.09-2.82,2.1-4.04,2.4-5.31,1.31-10.66,2.49-16.03,3.52-.92.18-2.44-.26-2.89-.94-.42-.63-.12-2.24.45-2.94,2.9-3.53,17.08-5.24,22.51-2.05Z"/>
    <path class="cls-3" d="m578.4,539.65c-.53.12-1.07.24-1.6.36.11-.4.23-.79.34-1.19.42.28.84.56,1.26.83Z"/>
    <path class="cls-2" d="m744.21,861.89c.14.54.29,1.07.43,1.61-.14.04-.28.08-.42.12-.16-.43-.33-.86-.49-1.29.16-.15.32-.3.48-.44Z"/>
  </g>
</svg>