<?xml version="1.0" encoding="UTF-8"?>
<svg id="_圖層_1" data-name="圖層 1" xmlns="http://www.w3.org/2000/svg" viewBox="0 0 1200 1200">
  <path d="m839.16,879.94c-2.97-31.39-9.55-62.13-17.18-92.66-6.53-26.12-18.05-49.97-33.88-71.59-9.12-12.45-19.49-24-29.67-36.4,2.82-1.07,2.93-3.9,2.87-6.97-.34-18.22-.65-36.43-.87-54.65-.67-56.67-1.27-113.33-1.94-170-.39-32.61-.86-65.22-1.29-97.84-.1-8.02.06-16.05-.38-24.05-.22-4.03.14-8.59-4-12.27-.77,1.76-1.57,2.84-1.69,3.98-.39,3.8-.77,7.62-.74,11.43.16,20.4.46,40.8.69,61.21.53,47.38.98,94.76,1.6,142.14.6,45.73,1.37,91.45,2.06,137.18.03,2.23,0,4.45,0,6.71-13.39-10.4-26.28-20.41-38.59-29.98.97-2.25,2.59-4.43,2.8-6.74,1.03-11.45.66-22.89-1.11-34.28-.53-3.4-2.25-4.75-5.46-4.74-10.53.05-21.06.03-31.58.19-4.17.06-8.34.43-12.5.83-5.23.5-6.15,1.85-5.85,6.94.23,3.89.05,7.81.05,12.61-8.7-3.59-16.67-6.88-24.88-10.27-.08-.96-.18-2.18-.33-3.92,15.57-6.96,23.92-20.63,31.51-34.64,2.34.43,4.11,1.05,5.88,1.03,11.09-.15,22.18-.44,33.26-.71,2.73-.07,4.27-1.29,4.66-4.23,1.58-11.95,1.44-23.93.98-35.93-.01-.36-.15-.72-.15-1.08-.04-3.1-1.84-4.06-4.65-3.96-2.31.08-4.62.02-7.88.02,1.67-1.87,2.84-2.95,3.73-4.22,8.24-11.87,14.42-24.14,7.6-38.27.43-3.58,1.08-6.59,1.1-9.61.08-10.02-.17-20.05-.1-30.07.06-8.81-1.85-9.29-8.37-9.46-.3,0-.59-.37-.19-.1-2.24-9.8-4.34-19-6.44-28.2.27-.05.62-.18.98-.19,1.82-.01,3.64,0,5.46.01,4.68.03,5.92-.58,6.09-4.96.52-13.82.68-27.66.91-41.49.02-1.43-.24-2.95-.76-4.28-.43-1.1-1.24-2.44-2.22-2.84-2.48-1.02-5.15-2.18-7.76-2.22-15.29-.27-30.58-.43-45.86-.23-9.05.12-9.07.48-10.12,9.14-1.38-.5-2.75-.9-4.03-1.48-17.4-7.94-35.53-11.22-54.61-8.83-2.32.29-4.7.53-6.66-1.46-.54-.54-1.7-.7-2.56-.67-12.18.48-24.37.96-36.54,1.58-4.71.24-9.44.57-14.1,1.28-5.93.91-5.89,1.11-5.82,6.89.06,4.72.01,9.44.01,13.94-5.49,4.12-10.95,7.78-15.91,12.01-11.92,10.17-21.8,21.85-26.04,37.42-.71,2.6-1.17,5.12-.09,8.06,1.49-.82,2.53-1.4,3.17-1.76.85,3.34,1.69,6.63,2.61,10.29-5.11,0-10.17.01-15.22,0-9.45-.03-18.9-.14-28.35-.07-5.02.04-5.53.71-5.57,5.82,0,.73.03,1.46.07,2.19.71,12.53,1.4,25.07,2.17,37.6.31,5.07,1.58,6.2,6.95,6.09,7.78-.16,15.56-.49,24.05-.77-2.82,13.42,3.05,24.51,11.45,35.48-4.94,0-8.72-.1-12.49.02-9.09.28-18.2.32-27.25,1.09-6.67.57-7.29,1.67-7.12,8.32.27,10.74.65,21.47,1.07,32.21.28,7.05,1.5,8.2,8.66,7.78,11.44-.67,22.87-1.56,34.31-2.28,6.09-.38,8.19-2.07,8.64-8.16.44-5.98.46-12,.57-18,.08-4.78.02-9.57.02-14.69,4.12,2.39,7.74,4.87,11.67,6.66,3.9,1.77,8.12,2.85,12.35,4.28,7.1,30,23.21,53.42,51.93,67.82-.06,1.24-.13,2.78-.19,3.99-9.2,2.34-17.94,4.56-26.68,6.78q-1.71-9.68-4.89-11.1v12.66c-12.37,7.34-23.88,14.18-35.5,21.08-.47-9.29-.98-18.49-1.38-27.7-.24-5.56-.92-6.39-6.34-6.57-5.27-.18-10.55-.52-15.81-.32-9.08.34-18.15.91-27.2,1.66-4.43.37-5.55,1.65-5.53,5.87.08,13.84.25,27.68.56,41.52.1,4.24,2.34,6.34,6.59,6.27,6.72-.12,13.44-.61,20.15-.92,1.14-.05,2.28,0,3.41,0,.22.44.45.87.67,1.31-1.05.69-2.21,1.27-3.15,2.1-15.19,13.44-28.92,28.26-41.7,43.97-9.91,12.18-18.92,25.03-25.34,39.38-10.18,22.77-17.62,46.55-22.43,70.97-4.07,20.69-6.95,41.63-9.7,62.55-1.33,10.07-1.36,20.33-1.56,30.51-.1,4.96,2.95,8.41,7.62,9.02,7.72,1.02,15.5,2.28,23.26,2.28,18.56,0,37.12-.58,55.67-1.09,9.4-.26,18.78-.86,28.61-1.32-.22-3.01-.35-5.88-.65-8.74-1.3-12.48-2.85-24.94-3.93-37.44-.84-9.79-1.26-19.63-1.64-29.45-.83-21.84-2.27-43.69-.44-65.55.17-1.97.51-4.01,1.26-5.81.42-.99,1.86-1.54,3.95-3.13,0,51.88,2.62,102.11,9.48,152.04.68.25,1.17.48,1.68.6,12.08,2.9,24.4,3.94,36.74,4.19,17.67.37,35.35.1,53.03.27,29.68.28,59.37.87,88.87-3.36,17.06-2.44,34.1-5.06,51.82-7.7,0-3.36.04-6.24,0-9.11-.07-4.19-.18-8.38-.33-12.56-.6-16.38-.62-32.8-2-49.11-1.82-21.56-4.75-43.02-7.07-64.54-.2-1.89-1.12-4.43,2.25-5.99.72,1.46,1.66,2.75,2,4.18,1.58,6.69,3.36,13.37,4.36,20.16,1.52,10.26,1.99,20.68,3.75,30.89,3.77,21.82,4.39,43.82,4.62,65.86.08,7.42.01,14.85.01,22.55,3.9.56,7.11,1.08,10.33,1.48,8.1,1,16.19,2.17,24.31,2.86,9.06.78,18.16,1.1,27.23,1.65,13.87.84,27.67-.22,41.4-1.98,7.28-.93,9.06-2.63,8.88-9.87-.27-11.44-1.13-22.89-2.21-34.29Zm-359.55-315.98c-13.39,1.03-26.17,2.01-39.39,3.02-.91-12.44-2.45-24.44-1.06-36.8h40.44v33.78Zm1.11,90.1c-.82.61-1.93,1.09-2.93,1.14-9.99.45-19.98.81-29.97,1.16-.68.02-1.37-.22-2.51-.42-.39-13.52-.77-26.9-1.17-40.86,14.63-2,28.54-1.26,43.09-1.33.34,11.91.65,23.13.97,34.36-2.67,2.14-5.01,4.13-7.48,5.96Zm226.67-121.33c.49,11.42.77,22.38-.14,33.43-12.27.61-23.65,1.17-35.38,1.75,2.21-8.9,4.17-16.75,6.18-24.82,3.96-2.46,8.5-5.07,12.82-8.03,2.64-1.81,5.14-2.99,8.5-2.42,2.44.42,5.02.08,8.03.08Zm-2.2-91.29c2.6-.01,2.24,2.07,2.23,3.84-.04,8.35-.11,16.69-.17,25.04-.02,2.48,0,4.97,0,7.9-3.04-.92-5.55-1.68-7.36-2.23,1.82-11.85,3.55-23.17,5.3-34.55Zm-178.75-85.25c10.45-.68,20.97-1.36,31.49-2.05,0,.19.01.39.02.58-10.42,4.35-20.85,8.69-31.51,13.13v-11.67Zm22.97,65.13c.41-.18,1.02.1,1.75.2-1.54,3.15-3.02,6.15-4.36,8.89,2.15,2.86,3.52,1.13,4.9.07,9.81-7.52,20.85-12.51,32.87-15.03,8.67-1.82,17.49-3.56,26.29-3.86,7.86-.26,15.79,1.51,24.31,2.46,2.36-7.34,5.43-14.59,10.26-21.09,5-6.73,12.15-9.88,20.06-12.26-2.76-7.98-8.8-11.92-14.32-16.74-.24-1.88-.5-4-.87-6.91,18.37-.8,36.42-.25,54.34.98v42.69h-10.64c-2.88-3.31-5.96-6.63-8.79-10.15-4.84-6.03-10.65-8.23-18.19-5.55-13.48,4.78-22.87,13.7-28.01,27.05-.31.8-.14,1.79-.14,1.67,2.24,2.89,4.25,4.93,5.63,7.34,10.23,17.95,16.66,37.3,20.3,57.56.96,5.34.82,10.88,1.36,16.31.29,2.94-.93,4.79-3.33,6.24-2.33,1.4-4.54,2.98-7.16,4.72-4.01-12.7-11.58-21.35-26.05-20.23-12.17.94-18.39,9.06-21.66,19.46-3.79-.71-7.44-1.91-11.09-1.93-3.48-.01-6.96,1.21-11,2-2.8-12.59-11.46-19.73-24.92-20.47-9.99-.55-17.72,5.87-24.8,19.74-7.46-2.91-14.99-5.84-22.98-8.95-.46-8.08.33-16.35,1.49-24.59.62-4.45,1.62-8.86,2.65-13.24,4.21-17.83,15.89-29.13,32.11-36.38Zm100.36,88.47c-.07,10.9-8.34,19.67-18.47,19.55-9.72-.11-17.56-8.75-17.45-19.21.11-10.47,8.4-19.04,18.38-19.02,10.31.02,17.6,7.78,17.53,18.67Zm-69.91.33c-.2,11.11-8.66,19.6-19.32,19.37-10.18-.22-18.18-8.91-17.98-19.52.21-11.16,9.48-20.02,20.7-19.45,7.77.39,17.31,8.04,16.6,19.6Zm-57.53-81.86c-2.12,5.07-7.89,5.92-10.37,10-2.37,3.91-4.88,7.74-7.32,11.6-2.15-9.42,8.23-21.59,17.69-21.61Zm-19.55-2.26c.52,2.51-4.19,16.12-6.91,19.32-2.51-4.78,1.04-8.55,1.54-13.5-2.88,1.72-5.33,3.19-7.99,4.79.93-4.56,6.52-8.86,13.36-10.6Zm-59.11,55.91c-.96-12.41-1.95-25.2-2.95-38.25,1.06-.24,1.89-.62,2.72-.6,12.34.33,24.68.75,37.02,1.06,3.1.08,4.14,1.79,4.14,4.52.02,7.07,0,14.14,0,21.37-6.23,1.87-10.59,5.74-13.92,11.89h-27.02Zm163.44,415.17c-3.67.04-6.34-2.78-6.28-6.62.06-3.9,2.3-6.61,5.54-6.71,3.45-.1,6.15,2.82,6.17,6.68.02,4.01-2.11,6.62-5.43,6.65Zm69.77-191.6c-8.31,7.07-15.98,14.88-24.39,22.86,5.65,4.89,11.45,9.91,17.52,15.17-.99,2.23-1.7,4.04-2.59,5.77-12.07,23.37-23.9,46.86-36.36,70.02-6.87,12.77-14.68,25.05-22.35,37.38-2.76,4.43-5.05,3.94-8.12-.36-7.82-10.95-15.68-21.87-23.8-32.59-13.61-17.97-26.66-36.32-38.49-55.52-1.61-2.61-2.51-5.67-4.12-8.28-3.73-6.05-2.93-11.54,1.07-17.14,4.21-5.91,8.06-12.07,11.9-17.86-7.1-6.28-14.21-12.79-21.59-18.98-2.5-2.1-3.12-4.21-2.33-7.14,2.02-7.53,4.31-15.02,5.92-22.64,2.57-12.17,7.32-23.56,12.07-34.94,3.03-7.26,7.18-13.91,13.28-19.1,1.78-1.52,3.63-3.24,6.3-1.58,1.12,2.66-.8,3.91-2.34,5.45-2.44,2.43-5.17,4.74-6.98,7.6-2.19,3.46-3.97,7.31-5.2,11.22-5.71,18.23-11.18,36.53-16.91,55.39,8.08,7.96,17.09,15.19,26.87,21.45.47,2.78-.75,4.59-2.68,6.56-7.05,7.21-11.62,16.15-16.97,24.46,17.72,33.18,40.46,62.09,64.06,90.38.35-.15.71-.3,1.06-.46-.36-1.85-.87-3.68-1.04-5.55-.74-8-3.28-15.52-5.65-23.15-6.07-19.53-11.77-39.18-17.54-58.8-8.33-28.32-16.77-56.62-23.44-85.4-1.3-5.63-2.3-11.33-3.48-17.27,10.87-6.94,14.33-18.05,15.95-30.04.63-4.66.85-9.38,1.14-14.08.16-2.6-.96-4.44-3.52-5.52-19.2-8.16-32.21-22.45-40.85-41.15-3.6-7.8-6.33-15.82-8.02-24.24-.4-1.99-1.41-3.85-2.14-5.77-.61,0-1.22-.01-1.83-.02-.76,1.3-1.52,2.61-2.51,4.3-6.5-3.94-13.87-7.18-19.69-12.21-9.37-8.09-16.78-17.81-15.42-31.47.71-7.16,5.21-12.67,11.93-14.53,6.8-1.88,14.89,1.96,17.36,8.63,1.82,4.9,3.02,10.03,4.62,15.02.57,1.77,1.51,3.42,2.69,6.01,1.11-2.46,1.73-3.85,2.48-5.51,7.59,2.99,15.16,5.98,22.92,9.04.21,1.3.38,2.73.68,4.13,2.65,12.43,11.04,19.9,23.35,20.8,10.5.77,21.68-7.18,25.14-18.23.81-2.59,1.91-4.5,4.03-6.17,6.39-5.04,16.5-3.07,19.59,6.52,3.58,11.08,12.64,17.82,23.59,17.66,9.83-.15,19.32-7.53,22.24-17.95.97-3.45,2.72-5.69,5.55-7.52,1.83-1.18,3.51-2.58,5.23-3.87,1.42.99,2.8,1.96,3.69,2.57,3.98-6.25,7.35-11.97,11.15-17.39,3.13-4.48,7.68-7.12,13.1-8.12,10.5-1.94,17.42,5.02,15.98,14.63-1.45,9.66-4.84,18.36-12.77,24.51-7.43,5.76-15.2,11.09-23.18,16.88-1.93,20.5-11.14,38.41-26.06,53.45-3.41,3.43-7.67,6.13-11.85,8.64-2.85,1.71-4.19,3.55-4.05,6.93.4,9.33,1.52,18.52,6.08,26.79,1.96,3.56,4.69,6.97,7.81,9.54,3.22,2.65,4.41,5.43,3.94,9.36-1.27,10.65-2.1,21.36-3.77,31.94-2.78,17.58-5.38,35.23-9.34,52.56-4.96,21.76-11.17,43.23-16.93,64.8-2.9,10.86-6.17,21.62-8.96,32.5-.93,3.63-.91,7.51-.66,11.68,4.2-6.49,8.95-12.7,12.51-19.52,10.5-20.1,20.61-40.4,30.71-60.7,3.06-6.15,5.5-12.59,8.41-18.81,1.35-2.89.99-5.09-1.26-7.35-4.35-4.38-8.51-8.95-13.27-13.98,1.12-1.21,2.35-2.66,3.7-3.99,6.86-6.79,13.69-13.63,20.68-20.29,2.49-2.37,3.12-4.85,2.8-8.24-1.23-12.74-4.35-25.1-8.02-37.24-4.23-13.96-11.94-26.05-23.26-35.58-1.63-1.38-3.2-2.83-4.71-4.17,1.12-3.7,3.4-3.08,5.11-1.56,5.03,4.45,10.23,8.82,14.59,13.88,6.59,7.64,10.79,16.68,13.68,26.41,3.83,12.9,7.39,25.83,9.3,39.17.57,3.99.16,6.93-3.38,9.94Zm-118.63-74.14c-.14,4.29-.98,6.02-4.76,9.71-.12-4.26,2.01-7.02,4.76-9.71Zm82.63-4.95c5.9,3.4,8.62,7.76,8.4,15.06-5.4-4.29-7.02-9.21-8.4-15.06Zm72.34,13.45c-2.69,1.41-4.98,2.1-7.83.65-11.95-6.09-23.99-11.99-36.79-18.36-.19-3.69-.43-7.85-.59-12.02-.03-.68.29-1.38.54-2.43,14.39-2.22,28.87-1.19,44.05-1.75,1.13,11.49.34,22.67.62,33.91Z"/>
  <path d="m393.61,493.21c.15,75.82.23,151.64.4,227.46.01,6,.52,12,.75,18.01.07,1.79.51,3.7,2.53,3.36,1.14-.19,2.41-1.94,2.87-3.25.52-1.47.21-3.24.21-4.88.02-49.2.18-98.4.03-147.6-.27-90.94-.72-181.87-1.08-272.81,0-1.56.19-3.12.31-4.9,19.03-.78,37.57-1.66,56.13-2.28,18.03-.61,36.08-.76,54.1-1.48,15.28-.61,30.54-2.42,45.81-2.48,18.93-.08,37.87,1.2,56.8,1.71,17.3.47,34.6.75,51.91,1.04,25.32.41,50.64.76,75.95,1.12,3.22.05,6.43,0,10.21,0-.32-5.44-3.98-5.16-6.74-5.37-7.26-.56-14.54-.89-21.82-1.05-19.13-.41-38.25-.67-57.38-1.01-16.94-.3-33.89-.63-50.83-.93-24.4-.44-48.81-1.34-73.2-1.16-15.08.11-30.14,2.17-45.23,2.82-16.56.71-33.16.64-49.73,1.23-14.56.52-29.1,1.45-43.64,2.28-5.09.29-8.17,3.59-8.26,8.74-.24,13.3-.54,26.6-.57,39.9-.06,21.48.06,42.97.14,64.45.1,25.69.3,51.38.35,77.06Z"/>
  <path d="m1008.16,502.25c.15-4.69-.22-9.42-.57-14.11-.16-2.16-1.27-3.95-3.87-3.57-2.62.38-2.72,2.48-2.79,4.58-.34,11.46-.96,22.91-1.04,34.37-.17,26.05-.07,52.11-.11,78.16-.07,50.47-.28,100.94-.17,151.42.05,24.59.69,49.17,1.06,73.76.08,0,.16,0,.24,0,0,7.47-.12,14.94.12,22.4.04,1.27,1.6,2.5,2.46,3.74,1.27-1.08,3.17-1.94,3.64-3.29.69-1.98.46-4.31.44-6.49-.34-29.15-.81-58.29-1.02-87.44-.08-11.29.65-22.58.61-33.87-.13-44.09-.44-88.18-.64-132.26-.07-16.95-.21-33.9.07-50.84.2-12.19,1.16-24.37,1.55-36.55Z"/>
  <path d="m809.33,625.07c.03,4.11,1.23,7.48,5.13,10.44,4.59,0,9.3.05,14.02,0,23.49-.27,46.97-.61,70.46-.85,17.11-.18,34.22-.21,51.33-.38,6.84-.07,9.04-2.34,8.88-9.32-.14-6-.65-11.99-.95-17.98-.31-6.3-.9-7.1-7.38-7.47-9.61-.55-19.24-1.23-28.85-1.17-26.76.17-53.51.65-80.27,1.11-8.73.15-17.46.57-26.18,1.02-6.02.31-6.49.5-6.76,6.65-.27,5.97.53,11.98.57,17.97Zm142.89-20.74v23.32c-2.97.22-6.16.61-9.35.65-30.24.35-60.48.67-90.73.92-11.81.1-23.63.02-36.42.02-.41-8.16-.82-16.42-1.27-25.29,46.37.55,91.83-2.18,137.76.39Z"/>
  <path d="m945.44,663.87c-40.97.12-81.96-.56-122.87,2.42-2.32.17-4.61.82-6.9,1.32-2.71.6-3.91,2.43-3.94,5.11-.08,8.99-1.33,18.08,2.36,27.44,2.89.29,6.09.82,9.31.9,18.03.43,36.06.78,54.1,1.1,23.86.43,47.72.81,71.57,1.2,2.16.04,4.32,0,7.06,0,.43-2.24.91-3.63.94-5.03.13-7.65.27-15.3.17-22.94-.12-9.09-2.71-11.54-11.79-11.52Zm4.71,33.95c-44.27-.9-88.29-1.8-133.32-2.72v-24.73c45.04-.42,89.59-.83,134.63-1.25.16,9.95.71,19.12-1.31,28.7Z"/>
  <path d="m198.33,777.85c-.11-23.48.6-46.95.76-70.43.19-28.21.32-56.42.18-84.63-.07-13.1-.8-26.19-1.32-39.29-.08-1.98-.31-4.07-1.05-5.87-.44-1.08-2.02-1.68-4.11-3.28-.19,3.41-.42,5.35-.39,7.28.34,20.02.88,40.05,1.05,60.07.15,17.66.09,35.32-.21,52.98-.24,14.38-1.16,28.74-1.41,43.11-.16,9.09.37,18.2.56,27.3.41,20.01.87,40.03,1.15,60.04.2,14.17.15,28.35.19,42.53,0,2.91-.33,5.85-.05,8.73.11,1.11,1.31,2.69,2.33,3,1.92.57,2.94-.86,3.15-2.77.06-.54.14-1.09.15-1.63.22-13.46.76-26.93.57-40.38-.27-18.92-1.46-37.83-1.55-56.75Z"/>
  <path d="m242.96,737.37c10.73.19,21.45.63,32.17.9,18.92.49,37.85.93,56.77,1.39,0-.1,0-.2,0-.3,3.82-.25,7.63-.65,11.45-.72,5.81-.11,11.64.3,17.44-.05,7.67-.47,9.03-1.98,8.93-9.83-.09-7.27-.6-14.54-1.1-21.8-.25-3.55-2.09-5.36-5.8-5.99-2.5-.42-5.05-.72-7.58-.75-12.2-.13-24.41-.43-36.6-.14-19.64.46-39.27,1.3-58.9,2.07-5.44.21-10.86,1.01-16.3,1.04-5.37.04-6.27.34-6.15,5.57.19,8.19.81,16.36,1.15,24.54.13,3.02,1.58,4.01,4.51,4.06Zm120.02-31.39v26.59c-1.29.17-2.51.44-3.73.46-14.74.25-29.48.67-44.22.63-19.49-.05-38.97-.51-58.46-.7-3.8-.04-7.6.36-12.04.59-.47-8.77-.92-17.04-1.38-25.52,40.04-2.63,79.66-2.56,119.83-2.05Z"/>
  <path d="m988.74,474.64c-6.19-.18-12.38-.51-18.57-.54-25.33-.12-50.66-.26-75.99-.17-22.04.08-44.09.23-66.12.77-18.92.47-37.83,1.5-56.74,2.43-2.12.1-5.58-.13-5.43,3.09.16,3.53,3.7,2.28,5.72,2.26,8.74-.12,17.47-.8,26.2-.87,18.95-.15,37.9.08,56.85-.1,12.56-.12,25.12-.83,37.69-1.01,12.76-.18,25.52-.04,38.28-.04v-.2c19.29,0,38.59-.02,57.88.02,2.16,0,4.37-.13,4.51-2.73.16-2.79-2.2-2.86-4.27-2.93Z"/>
  <path d="m956.18,738.35c-10.33-.8-20.73-.82-31.1-.83-3.74,0-7.49.96-11.52,1.52-.14,1.96-.36,3.55-.36,5.15.04,14.75.06,29.51.23,44.26.06,5.46.41,10.92.84,16.36.33,4.18,1.8,5.57,5.77,5.69,12.19.39,24.37.78,36.56,1.03,5.06.1,7.38-1.95,8.13-6.93.49-3.23.94-6.5.97-9.76.12-15.3.15-30.6.1-45.9-.02-8.06-3.15-10.08-9.62-10.59Zm2.68,66.52h-38.3c-.72-20.31-1.43-40.25-2.16-60.62h40.72c0,10.04.03,20.13,0,30.22-.04,10.11.46,20.25-.25,30.4Z"/>
  <path d="m882.45,813.58c1.78.05,3.59-.35,5.36-.7,2.48-.5,3.65-2.16,3.79-4.64.24-4.17.75-8.34.71-12.51-.19-17.1-.53-34.19-.84-51.29-.02-1.25-.2-2.5-.34-4.29-2.49-.65-4.58-1.7-6.63-1.65-12.9.32-25.81.72-38.69,1.46-4.47.25-6.57,3.21-6.7,7.71-.61,20.02.83,39.96,2.07,59.91.27,4.3,1.57,5.17,5.94,5.14,6.88-.06,13.77-.05,20.65.11,4.9.11,9.79.62,14.7.77Zm-35.34-6.27c-.88-21.03-1.74-41.41-2.62-62.28h41.17v62.28h-38.55Z"/>
  <path d="m479.25,352.32c-5.23-.26-10.48-.1-15.71-.12-8.92-.02-17.84-.13-26.76-.03-4.65.05-5.72,1.24-5.75,5.94-.06,8.37-.15,16.75.08,25.11.17,6.14.86,12.26,1.34,18.69,1.37.4,2.05.78,2.73.78,13.44-.02,26.88-.06,40.33-.16,1.06,0,2.15-.39,3.17-.75,5.2-1.83,7.03-4.18,6.94-9.72-.18-11.45-.48-22.9-.86-34.35-.16-4.69-.57-5.15-5.51-5.39Zm-.88,43.44c-13.33.49-26.64.99-40.6,1.51-.61-12.94-3.89-25.15-.91-38.29,13.62.32,27.3-.65,41.51.92v35.86Z"/>
  <path d="m304.83,772.4c-1.02-4.41-2.56-5.55-7.16-5.76-7.07-.33-14.13-.97-21.2-1.09-10.5-.17-21.01-.12-31.51.11-4.22.09-5.29,1.47-5.32,5.86-.06,9.45-.06,18.91.09,28.36.09,5.61,2.09,7.52,7.63,7.57,8.54.08,17.09.02,25.63.02v-.2c8.18,0,16.36,0,24.54,0,6.24,0,7.65-1.28,7.73-7.65.1-8-.04-15.99-.11-23.99,0-1.08-.09-2.19-.33-3.24Zm-6.06,28.98h-53.42v-30.85c17.8-1.19,35.74,1.54,53.42,2.04v28.81Z"/>
  <path d="m301.77,564.33c22.01.06,43.97.8,65.86,3.33,2.7.31,5.46.22,8.18.17,2.22-.04,3.96-.79,3.68-3.65-2.94-2.95-6.8-1.82-10.29-2.13-12.12-1.08-24.23-2.34-36.37-2.97-13.44-.7-26.91-.87-40.38-1.08-8.73-.14-17.48-.25-26.2.15-17.05.78-34.09,1.9-51.13,2.93-6.79.41-13.57.91-20.36,1.38-.14.4-.28.79-.42,1.19.79.69,1.52,1.88,2.38,1.97,4.13.46,8.31.99,12.44.82,20.88-.84,41.74-2.11,62.63-2.76,9.98-.31,19.98.64,29.98.66Z"/>
  <path d="m240.59,635.85c13.64-.39,27.28-.72,40.93-.98,5.4-.1,6.9-1.12,7.26-6.53.35-5.26.38-10.56.18-15.82-.38-9.93-2.09-11.52-11.95-11.93-.36-.02-.73,0-1.09,0-9.47.01-18.95-.22-28.41.13-5.91.22-11.99.38-18.14,3.76.79,7.97,1.42,16.1,2.47,24.17.75,5.76,3.15,7.37,8.76,7.21Zm42.5-29.16v21.02c-15.05.44-29.85.87-45.34,1.31-1.01-7.21-2.08-14.85-3.21-22.97,16.19.18,32.13-.68,48.55.64Z"/>
  <path d="m246.2,682.95c14.35.29,28.69.71,43.04.89,5.67.07,6.98-.99,7.01-6.56.04-7.78-.49-15.57-.97-23.34-.14-2.37-1.58-4.02-4.18-4.25-4.5-.39-9.01-1.02-13.52-1.08-9.81-.12-19.63-.14-29.44.21-4.95.18-9.88,1.26-15.25,1.99.46,10.39.83,19.97,1.36,29.54.12,2.11,1.45,3.02,3.78,2.76,2.69-.3,5.43-.21,8.15-.16Zm-9.01-29.58c7.96,0,15.19,0,22.42,0,4.36,0,8.73-.19,13.07.02,5.58.27,11.14.87,17.14,1.36-.08,8.18.93,15.66-.65,23.62-17.17-.44-33.3-.85-50-1.28-.66-7.95-1.3-15.6-1.97-23.72Z"/>
  <path d="m312.52,681.8c17.29-.5,33.81-.95,50.33-1.46,3.66-.11,4.53-3.16,4.52-5.78-.02-7.07-.32-14.17-1.02-21.21-.45-4.51-2.32-5.79-6.98-5.87-6-.1-12.01-.15-18.01.01-9.94.27-19.89.64-30.65,2.82.68,10.25-1.55,20.45,1.82,31.5Zm47.17-28.94c2.17,7.24.86,14.11,1.46,21.37-14.81.59-29.13,1.16-44.19,1.76-.5-7.18-.98-14.16-1.51-21.92,15-.41,29.51-.8,44.25-1.21Z"/>
  <path d="m322.2,631.93c4.16-.27,8.34-.43,12.51-.37,8.7.12,17.4.42,26.1.66,2.76.07,4.34-1.03,4.85-3.95,1.39-7.97,1.06-15.9-.28-23.82-.46-2.73-2.46-3.86-5.1-4.01-6.51-.36-13.03-.72-18.22-1-8.94.83-16.52,1.49-24.09,2.25-3.92.39-6.24,2.83-6.14,6.74.14,5.08.66,10.14.91,15.22.35,7.22,2.14,8.76,9.46,8.28Zm37.35-25.91v19.5h-40.96c-.82-6.33-1.62-12.54-2.52-19.5h43.48Z"/>
  <path d="m367.51,773.56c-.07-3.76-1.49-5.2-5.33-5.61-7.02-.75-14.08-1.14-21.12-1.68,0,.18-.02.37-.03.55-5.09,0-10.19-.14-15.27.04-4.67.17-6.55,1.57-6.72,5.39-.39,8.71-.62,17.44-.53,26.16.05,4.71,2.93,6.75,7.57,6.39,3.43-.27,6.88-.61,10.31-.54,7.81.16,15.61.66,23.42.81,5.2.1,7.26-1.44,7.5-6.44.4-8.34.35-16.72.19-25.07Zm-6.36,25.38c-12.52-.56-24.43-1.09-36.89-1.65v-26.24c12.27.5,24.71,1,37.95,1.54-.38,9.52-.72,18-1.06,26.35Z"/>
  <path d="m936.6,569.13c4.71.11,9.42.39,14.13.39,2.39,0,5.1-.37,5.18-3.55.22-8.69.22-17.38.25-26.07.01-3.13-1.94-4.69-4.78-4.89-6.85-.49-13.72-.92-20.58-1.02-3-.04-6,.79-9.92,1.35-.33,10.01-.76,19.23-.89,28.46-.05,3.31,1.9,4.93,5.72,5.16,3.62.22,7.26.08,10.9.16Zm-10.77-29.02h23.96v22.69h-23.96v-22.69Z"/>
  <path d="m815.56,569.1c8.71.02,17.42,0,26.13-.08,3.4-.03,4.89-2.1,4.91-5.28.05-8,.15-16.01-.03-24.01-.09-4.11-1.33-5.28-5.47-6.2-1.76-.39-3.6-.72-5.39-.68-8.52.19-17.03.52-26.61.84.47,10.54.8,20.32,1.4,30.08.18,2.87,1.59,5.32,5.06,5.32Zm25.13-30.34v24.15h-25.17c-.47-8.56-.92-16.67-1.37-24.99,8.76.28,17.5.56,26.54.84Z"/>
  <path d="m901.2,568.85c.4-6.75.89-12.51,1.03-18.29.08-3.07-.45-6.15-.68-9.22-.19-2.59-1.6-4.06-4.14-4.18-9.08-.42-18.15-.77-27.23-1.1-2.73-.1-3.88,1.36-3.87,4.08.02,5.82-.1,11.65-.15,17.47-.02,3.24,0,6.47,0,10.45,11.74,3.11,22.96,1.87,35.03.79Zm-30.12-27.46c8.05.4,16.22.82,24.8,1.25v20.66c-8.61.43-16.49.82-24.8,1.23v-23.14Z"/>
  <path d="m952.27,859.69c-14.03-.12-28.05-.17-42.08-.3-16.75-.16-33.49-.4-50.24-.53-2.13-.02-4.4.18-5.62,3.56,1.9.61,3.62,1.44,5.41,1.66,2.88.35,5.82.33,8.73.39,17.11.37,34.21.83,51.32,1.03,11.09.13,22.18-.05,33.27-.28,1.96-.04,3.9-1.04,6.16-1.69-1.66-4.57-4.48-3.82-6.94-3.84Z"/>
  <path d="m855.22,840.45c1.94.33,3.73.88,5.53.9,6.73.08,13.46-.1,20.19-.04,18.55.17,37.1.48,55.66.6,5.27.04,10.55-.22,15.8-.66,1.05-.09,1.97-1.62,2.95-2.49-.88-.99-1.6-2.52-2.68-2.85-1.67-.52-3.6-.28-5.41-.26-12.18.12-24.37.25-36.55.41-16.54.21-33.08.43-49.62.69-2.27.04-4.89-.32-5.86,3.7Z"/>
  <path d="m303.38,856.32c-1.4-.65-3.14-.69-4.75-.75-9.99-.38-19.98-.93-29.97-.96-7.8-.02-15.63.36-23.39,1.11-2.76.26-6.26.63-7.76,4.92,2.03.22,3.73.56,5.43.56,7.64-.01,15.27-.32,22.91-.15,10.54.23,21.06.82,31.6,1.19,1.81.06,3.71.09,5.41-.41.96-.28,2.15-1.61,2.24-2.57.09-.96-.82-2.53-1.71-2.94Z"/>
  <path d="m256.27,835.65c8.7.42,17.41.69,26.11,1.1,4.89.23,9.78.66,14.67.93,3.9.22,4.55-.44,4.61-5.35-19.76-2.34-39.58-3.63-59.38-1.76-.88,3.18.55,4,2.62,4.19,3.79.34,7.58.71,11.38.89Z"/>
  <path d="m624.73,756.02c-2.25-13.18-4.62-26.34-7.08-39.49-2.25-12.04-4.72-24.04-6.96-36.08-.22-1.18.5-2.53.8-3.86,8.09,3.52,12.55,10.37,18.7,16.82,1.48-2.48,2.97-4.11,3.49-6,3.15-11.33,6.16-22.7,9-34.11.35-1.4-.56-3.12-.89-4.69-.56-.03-1.13-.06-1.69-.08-4.61,10.95-6.42,22.88-10.66,34.12-5.02-4.07-9.9-8.03-15.2-12.33,1.24-3.25,2.57-6.73,4.17-10.91-3.22-2.94-6.49-5.94-9.81-8.97,5.7-7.6,15.12-12.39,19.22-22.08-1.22-.39-1.84-.83-2.21-.68-10.43,4.23-15.91,14.68-25.37,20.5-1.78-.96-3.68-1.69-5.22-2.88-5.02-3.91-9.89-8.03-14.87-12-1.57-1.25-3.31-2.29-4.97-3.42-.36.36-.71.72-1.07,1.07,0,5.32,4.31,8.16,7.68,11.38,3.62,3.45,7.62,6.49,10.98,9.32-2.1,2.42-3.91,4.72-5.95,6.78-1.81,1.82-2.21,3.65-.9,5.84,1.39,2.31,2.8,4.6,4.11,6.75-3.13,4.45-6.24,8.87-9.83,13.98-7.27-11.31-14.32-22.27-21.37-33.22-.43.1-.85.2-1.28.3-.14,1.27-.67,2.66-.33,3.8.92,3.11,1.79,6.35,3.41,9.12,5.02,8.62,10.29,17.09,15.64,25.5,1.3,2.03,3.31,3.61,5.26,5.68,5.42-5.56,5.62-13.49,11.74-19.2-.43,5.1-.57,9.08-1.12,13-1.51,10.74-3.28,21.44-4.79,32.18-1.14,8.09-2.16,16.2-3.01,24.32-.43,4.09-1.42,8.52-.36,12.29,5.22,18.67,10.96,37.19,16.69,55.71,1.4,4.53,3.43,8.87,5.17,13.29,6.89-21.93,12.84-43.61,18.65-65.33.54-2.03.57-4.35.21-6.43Z"/>
  <path d="m609.01,582.89c10.68-1.91,19.91-6.74,27.03-15.1,1.25-1.47,2.26-3.31,2.81-5.15.25-.85-.61-2.43-1.44-3.07-.55-.43-2.08-.05-2.9.43-.89.52-1.5,1.54-2.17,2.39-3.69,4.64-8.19,8.32-13.65,10.59-20.41,8.46-39.01,4.87-56.02-8.72-1.79-1.43-3.57-2.86-5.36-4.29-.56.34-1.12.67-1.67,1.01.67,1.63.91,3.72,2.09,4.81,4.11,3.79,8.15,7.89,12.91,10.68,11.85,6.97,24.88,8.85,38.38,6.44Z"/>
  <path d="m686.03,517.49c3.17.31,5.62-1.19,6.24-3.95.69-3.1-.93-4.75-3.74-5.56-.49-.14-.93-.45-2.09-1.04,2.65-2.56,5.03-4.87,8.48-8.21-2.04-.17-3.75-.82-5.04-.33-4.09,1.53-8.71,9.21-8.57,13.62.1,3.36,1.68,5.19,4.73,5.48Zm2.46-5.19c.02.29.05.59.07.88-.95.1-1.9.19-2.84.29-.03-.39-.05-.78-.08-1.17h2.85Z"/>
  <path d="m492.92,495.96c-.81-.59-2.29-.26-4.37-.43,3.05,3.45,5.5,6.22,7.95,8.98-1.27.91-2.21,1.44-2.96,2.17-1.99,1.92-2.02,4.65-.73,6.42,1.01,1.39,3.66,2.33,5.5,2.21,2.74-.17,2.62-2.87,2.79-5.07.53-6.65-3.4-10.76-8.19-14.29Zm4.5,15.65c-.45.03-.9.06-1.36.09v-2.82c.33-.03.67-.06,1-.09.12.94.23,1.88.35,2.83Z"/>
  <path d="m601.41,549.55c1.89-.63,4.05-1.08,2.76-4.84-2.78,0-6.01.67-8.75-.19-2.69-.85-4.89-3.26-7.65-5.23-1.75,3.34.41,5.54,2.22,7.54,3.11,3.43,7.05,4.18,11.42,2.72Z"/>
  <path d="m564.24,473.7c3.85.96,7.58,2.41,11.41,3.47,1.12.31,2.39.05,3.6.05.18-.51.36-1.02.54-1.53-1.56-1.3-2.93-2.97-4.7-3.82-9.62-4.64-19.79-5.76-30.18-3.59-3.29.69-6.39,2.5-6.8,7.88,2.3-.57,3.85-.79,5.29-1.33,6.85-2.53,13.82-2.88,20.85-1.13Z"/>
  <path d="m562.48,500.98c-2.97-.07-4.83,1.97-4.79,5.24.04,3.1,1.59,4.72,4.59,4.81,2.95.08,5.32-2.06,5.38-4.86.05-2.64-2.43-5.13-5.17-5.19Z"/>
  <path d="m632.58,499.93c-2.64-.1-5.49,2.46-5.55,5-.06,2.47,2.34,4.97,4.84,5.05,2.88.09,4.74-2.01,4.79-5.4.04-2.98-1.32-4.53-4.08-4.64Z"/>
  <path d="m649.95,477.24c.27-.42.54-.84.81-1.27-6.5-10.84-32.82-12.46-39.08-.74,16.97-4.08,21.71-1.32,38.26,2Z"/>
</svg>