<?xml version="1.0" encoding="UTF-8"?>
<svg id="_圖層_1" data-name="圖層 1" xmlns="http://www.w3.org/2000/svg" viewBox="0 0 1200 1200">
  <path d="m1043.15,673.66c-20.41-48-53.3-95.23-106.6-107.83v-15.12c17.58-11.43,26.34-28.66,31.81-48.35,10.87,4.34,27.38-14.54,32.17-22.43,8.68-14.3,5.01-23.59-5.48-34.8-3.45-28.27-.49-61.22-19.8-84.74-8.22-10.01-19.14-11.89-29.98-17.57-13.27-6.96-25.94-12.14-41.11-13.06-27.78-1.69-56.04,8.46-75.18,28.86-13.41,14.29-32.36,46.85-23.73,67.12,6.93,3.54,6.27,16.9,7.14,23.61-16.97-6.35-27.82,7.09-24.28,23.97,3.8,18.1,20.57,28.3,37.43,31.85,9,20.19,22.37,36.69,43.28,45.44.83,6.16-.2,11.42-1.79,16.5-23.52,8.8-41.96,15.08-59.33,34.5-7.55,8.45-13.87,17.83-19.35,27.73-3.41,6.16-6.57,12.5-9.04,19.1-1.92,5.14-2.4,12.58-5.57,16.93-6.91-7.66-13.69-15.18-20.46-22.68,2.37-2.35,4.62-4.58,7.86-7.8-22.38-15.99-33.45-47.52-38.34-73.58-2.81-14.97-6-34.29-2.84-49.28,3.25-15.4,10.81-24.52-1.34-39.07,7.72-77.69-64.45-143.9-140.99-123.65-33.77,8.93-61.34,32.89-77.45,63.63-9.34,17.82-10.5,35.59-14.44,54.84-1.86,9.07-6.85,16.18-6.28,25.82.51,8.72,7.89,17.87,5.14,26.5,4.42,22.23-2.27,51.88-5.55,74.21-1.93,13.17-6.22,22.66-11.21,34.71-4.8,11.59-.43,13.88,9.31,20.93-7.61,7.42-15.13,14.75-22.7,22.14-9-16.73-18.48-31.63-29.8-46.88,21.99-23.12,17-51.18,2.97-77.03-7.43-13.68-16.36-26.33-10.17-42.33,4.76-12.3,13.17-20.93,14.49-34.72,2.54-26.5-16.24-37.39-26.3-58.57-11.14-23.47-17.59-45.17-38.5-62.47-38.84-32.15-92.9-25.73-124.16,13.43-7.54,9.44-10.7,21.66-18.54,30.67-9.96,11.44-26.77,18.32-30.25,34.4-1.25,5.79-.35,11.83.93,17.62,3.81,17.34,10.94,34.28,10.54,52.03-.29,12.85-4.68,25.57-12.37,35.86-6.47,8.66-15.1,15.5-21.72,24.04-10.28,13.24-8.45,26.99-8.42,42.63,4.74,10.5,12.28,19.68,22.77,26.59-21.42,32.35-37.88,64.16-46.82,102.24-8.31,35.41-14.99,78.65-7.86,114.69,1.73-.55,2.83-.9,4.1-1.3,0-61.73,5.36-124.46,35.48-179.73,13.97-25.63,34.1-45.68,58.1-62.06,5.86-4,11.87-7.76,18.21-10.95,5.56-2.79,13.42-4.04,17.73-8.71,8.31-8.99,8.58-26.75,5.84-37.8-41.65-23.42-45.92-66.68-28.49-100.33,2.27,5.42,3.08,11.26,6.92,15.66,6.87-4.31,6.47-14.38,11.77-20.35,1.55,5.2,2.83,9.5,4.12,13.84-9.44,9.71-14.96,21.5-5.93,33.78,5.65,7.69,15.44,10.6,24.68,8.24,12.04-3.08,18.74-14.78,15.8-26.74-3.61-14.66-15.3-18.99-28.86-17.66,1.18-4.36,2.2-8.11,3.14-11.56,6.72-1.91,11.99,2.25,18.79,2.8-3.45-6.51-9.5-6.82-14.7-8.98,9.86-12.78,25.82-17.14,34.83-30.35,8.19,12.43,24.28,16.39,34.76,26.62,11.37,11.11,10.96,23.04,17.37,36.02,5.33-4.44,3.72-10.93,6.29-15.91,14.9,32.65,1.3,81.27-33.09,97.12-4.78,13.02-2.14,33.99,11.24,39.31,15.23,6.06,27.91,12.53,41.49,21.92,25.2,17.42,47.37,41.38,58.12,70.54-10.44,15.36-20.52,30.2-30.72,45.21-2.76-6.42-11.25-31.74-20.5-28.67,1.05,6.05,5.45,10.99,8.1,16.36,3.21,6.5,5.7,13.61,8.52,20.32-10.95,29.82-24.93,56.99-32.02,88.37-3.81,16.87-6.63,33.94-7.69,51.21-.81,13.13-6.32,38.01.84,49.81,7.57,2.33,4.69-18.27,4.71-22.51.05-8.92.28-17.81,1.14-26.69,1.98-20.48,6.14-40.46,10.46-60.54,14.43,8.78,29.05,15.41,45.64,18.91,7.29,1.54,40.37,10.19,40.96-1.53-6.81-2.58-14.84-1.32-21.96-2.17-7.11-.85-14.47-2.35-21.46-3.92-14.89-3.35-28.06-9.42-41.77-15.88,5.36-18.04,11.19-35.68,19.28-52.7,12.17,11.44,25.95,19.96,41.67,25.72,5.98,2.19,35.26,12.63,32.79.22-27.58-5.96-49.11-13.93-72.43-30.4,7.43-16.31,16.35-32,26.57-46.62,3.75,4.01,50.19,52.81,54.87,40.93-.98-7.24-21.08-16.34-26.68-21.15-8.8-7.56-16.77-15.94-23.88-25.09,3.72-6.83,17.34-22.97,23.45-27.81,3.71,4.99,24.46,29.43,31.28,23.68,1.58-1.33-25.25-23.82-27.73-28.02,3.15-2.77,8.35-9.41,12.76-9.93,3.78-.45,12.38,3.43,16.37,3.95,13.31,1.74,26.17,2.59,38.89-2.41,26.41-10.38,35.31-33.42,37.29-60.26-14.61-6.16-28.26-17.11-37.81-29.81-5.18-6.89-8.67-14.83-11.49-22.93-1.4-4.01-2.81-20.41-7.94-20.82-.59,1.98-1.2,4.06-1.88,6.33-15.47-8.67-41.03-23.52-31.19-45.99,3.76-8.58,12.42-10.35,20.08-5.74,11.14,6.72,6.57,18.69,12.5,28.02.37-.03.75-.07,1.12-.1,2.91-16.68,13.69-37.69,29.15-45.93-1.64,3.9-2.98,7.08-4.62,10.97,12.77-1.86,23.74-11.33,34.06-18.34-2.3,4.54-4.81,8.57-9.34,11.16-4.9,2.8-9.77,1.79-11.83,8.35,5.62-1.13,11.4-3.17,17.19-2.82,4.51.27,8.65,2.7,13.23,2.44,1.24-4.7-3.56-4.44-4.66-6.95,19.98-6.19,36.09-18.25,50.76-32.75,10.79,10.1,20.87,20.08,30.2,31.57,10.02,12.34,12.63,24.08,15.64,39.52,5.95-7.45,25.98-44.35,37.51-19.61,10.8,23.17-20.97,41.14-35.59,51.03.97,21.75-18.24,53.41-38.84,63.85-10.76,30.8,18.44,57.37,46.05,60.84-1.8,2.89-7.09,3.09-5.16,8.35,6.75.94,10.13-4.82,15.21-7.59,16.25.11,31.57-4.32,46.07-12.27,7.05,6.9,13.59,13.86,18.85,21.87-3.86,4.32-33.8,23.8-32.54,26.91,9.72,6.18,30.41-15.55,36.93-21.16,10.74,10.72,17.79,23.17,24.63,36.25-7.63,8.54-16.88,13.51-26.57,19.33-3.71,2.23-24.94,10.02-24.75,14.94,8.66,3.86,21.86-5.75,29.42-9.8,6.53-3.5,19.37-16.58,25.55-17.35,7.41,14.02,13.58,28.68,19.21,43.57-11.85,8.44-23.73,16.6-36.81,23.09-4.25,2.11-35.32,11.66-34.04,15.32,11.29,3.98,29.51-5.68,39.38-10.58,12.17-6.03,23.24-13.66,34.3-21.48,4.8,15.7,9.35,30.58,13.76,45.01-8.99,10.16-26.35,16.48-39.03,20.2-6.24,1.83-41.49,4.21-41.55,10.11,26.43,6.23,61.11-6.52,82.06-22.17,3.72,14.59,6.21,28.83,7.89,42.89-10.3,11.56-27.93,16.2-42.43,19.63-8.44,2-17.06,3.33-25.71,3.93-3.5.25-18.68-2.07-16.53,4.68,27.35,6.05,63.13-2.63,85.78-18.76.57,9.29,1.07,18.5,1.18,27.8.07,5.78-2.14,15.03,6.25,13.04,1.73-22.56-.52-45.05-4.11-67.72,54.38-5.61,109.56,1.15,163.91-3.72,0-27.91-2.61-56.52-8.39-83.81-3.24-15.28-6.6-30.6-11.29-45.51-1.98-6.29-15.86-30.93-11.66-35.71,18.45,19.33,23.87,51.75,29.4,77,6.44,29.39,5.37,58.57,9.53,88.01h51.42c5.94-56.08-5.06-117.31-27.03-168.97Zm-749.12-201.28c.01,21.1-31.21,21.03-32.87.94-1.77-21.42,32.85-23.95,32.87-.94Zm536.39,239.5c-3.41,13.8-5.73,27.82-8.23,41.8l-.81.13c-6.12-14.96-2.11-27.71,1.97-43.08,1.22-4.6,8.19-35.4,15.7-32.76,4.18,3.72-7.27,28.39-8.64,33.91Zm39.34-139.47c1.63-1.24,3.05-2.33,4.33-3.31,2.68-9.11,2.96-15.9.78-23.36-21.51-9.44-31.96-24.58-43.09-44.61-14.87-5.75-34.82-11.46-37.9-30.07-3.9-23.62,17.01-15.76,28.72-8.4,2.31-12.17,2.52-28.66,10.68-38.67,2.13,5.74,2.36,11.42,5.89,17.01,7.13-12.12,20.48-23.36,33.64-28.51.9,8.68,1.78,17.08,2.68,25.79-3.72-1.47-31.95-3.12-25.04,6.82,12.46-4.7,15.56-4.31,27.9.75.67-8.82,24.2-25.7,31.19-30.29v13.02c6.26,4,29.98-19.2,38.04-21.28,7.57,20.95,11.72,41.41,17.7,62.8,5.46-9.34,13.54-25.96,27.12-18.07,14.86,8.64,1.48,27.81-7.48,35.21-5.68,4.69-12.11,5.36-18,8.95-6.53,3.98-7.19,10.13-9.89,17.24-5.42,14.3-13.8,24.78-26.3,33.67-.52,7.11-1.04,14.16-1.56,21.2,2.07,1.23,3.72,2.22,5.72,3.41-12.5,23.16-50.08,17.42-65.14.71Z"/>
  <path d="m515.88,908.19c4.25-6.89,41.25,5.28,49.31,6.07,17.29,1.69,34.97,2.63,52.34,2.35,34.14-.55,73.78-4.34,103.39-22.33,7.16,2.1-1.42,9.25-4.24,11.06-7.69,4.93-18.56,7.36-27.3,9.57-18.73,4.75-38.31,6.75-57.54,8.14-19.08,1.38-38.58.57-57.65-.89-10.49-.81-20.82-2.29-31.1-4.53-6.79-1.47-23.67-2.53-27.21-9.43Z"/>
  <path d="m509.49,810.38c3.61-6.77,39.05,4.72,46.49,5.82,20.17,2.99,40.38,3,60.69,1.81,18.92-1.11,37.75-2.35,56.44-5.69,6.71-1.2,44.31-14.36,46.86-8.36-.34,8.8-36.15,13.39-42.89,14.72-18.89,3.72-38.19,5.62-57.41,6.42-18.08.75-36.49.93-54.49-1.07-17.21-1.91-40.95-4-55.68-13.65Z"/>
  <path d="m510.76,859.75c16.17-.66,34.45,6.76,51.08,7.85,20.34,1.33,41.18,1.02,61.54.11,19.38-.87,38.8-2.71,57.82-6.62,5.81-1.19,39.4-13.99,39.96-8.38.89,8.98-37.64,14.84-43.78,15.96-19.37,3.53-39.05,5.22-58.71,6.04-19.7.82-39.52.63-59.18-1.04-9.43-.8-46.21-1.77-48.73-13.91Z"/>
  <path d="m719.29,700.19c-3.19,13.93-36.33,16.49-47.08,18.08-19.72,2.91-39.61,3.53-59.51,3.97-11.17.25-108.87-1.23-103.03-17.41,3.19-2.83,16.82,4.78,20.74,5.71,9.51,2.24,19.45,3.25,29.16,4.13,20.24,1.85,40.62,1.76,60.92,1.17,19.28-.57,38.57-1.81,57.59-5.18,7.93-1.4,16.27-2.82,23.88-5.56,5.45-1.96,13.04-10.65,17.34-4.91Z"/>
  <path d="m516.47,762.65c.66-1.91,1.19-3.45,1.74-5.07,37.79,10.53,79.31,10.85,118.22,8.69,19.52-1.09,39.25-2.65,58.42-6.64,9.15-1.9,17.75-4.64,26.44-7.98,3.43-1.32,13.86-6.36,9.86,1.92-2.15,4.45-17,7.62-21.05,8.77-9.12,2.59-18.45,4.26-27.81,5.67-19.56,2.95-39.3,4.49-59.08,5.02-34.69.92-73.73,2.05-106.74-10.37Z"/>
  <path d="m220.81,699.02c-8.02,24.58-18.63,46.61-22.22,72.69-1.03,7.5.25,69.36-4.02,69.99-7.56-2.1-4.98-32.06-4.81-38.27.36-13.11,1.9-26.34,3.78-39.31,1.18-8.1,14.61-69.57,27.27-65.1Z"/>
  <path d="m551.96,507.6c-.29-28.93,43.34-31.92,45.1-2.19,1.86,31.48-46.23,34.02-45.1,2.19Zm38.45-.02c.31-23.04-31.78-22.93-32.66-.83-.88,22.16,33.45,23.65,32.66.83Z"/>
  <path d="m358.47,471.91c-.39,29.56-44.21,31.48-44.4,1.14-.19-29.49,44.92-31.4,44.4-1.14Zm-6.31-.54c.68-20.87-27.96-20.51-31.27-1.61-4.07,23.16,31.51,25.04,31.27,1.61Z"/>
  <path d="m663.64,508.55c.12,29.95-45.19,29.92-46.08.21-.94-31.62,47.73-31.33,46.08-.21Zm-5.52-.67c.16-24.02-34.51-23.36-34.86-.34-.36,23.43,34.69,24.74,34.86.34Z"/>
  <path d="m556.15,671.88c38.22,8.33,70.63,9.93,107.18-5.26,11.95,13.26-46.73,19.08-52.24,19.21-5.9.14-62.42-4.39-54.94-13.95Z"/>
  <path d="m733.68,805.53c6.08,4.99,4.91,16.95,5.51,23.84.87,9.95,1.68,19.9,2.29,29.86,1.21,20.04,2.47,40.15.73,60.15-1.05.61-2.22,1.3-3.44,2.02-6.02-5.5-2.18-20.76-2.17-28.39,0-10.09-.6-20.2-1.03-30.28-.37-8.72-8.78-53.36-1.88-57.21Z"/>
  <path d="m495.14,919.57c-8.87,3.7-6.56-16.9-6.62-21.9-.16-12.47.01-24.96.09-37.44.07-11.02.06-22.06.47-33.07.24-6.62-1.47-19.22,4.61-23.37,6.12,37.09,1.45,78.17,1.45,115.78Z"/>
  <path d="m255.07,594.87c15.34,9.76,27.78,18.76,46.92,17.93,8.96-.39,18.26-2.54,26.46-6.22,4.45-2,17.55-15.9,21.76-13.83,4.75,6.54-12.58,16.73-16.59,18.83-9.94,5.21-21.56,8.04-32.75,8.04-12.42,0-48.5-7.2-45.8-24.75Z"/>
  <path d="m474.1,869.52c-2.02,9.83-37.07,4.07-44.24,3.25-15.44-1.78-34.22-4.14-46.41-14.49,3.67-6.1,37.04,6.35,44.29,7.26,7.47.94,43.51-2.41,46.36,3.98Z"/>
  <path d="m386.89,904.96c2.82-4.46,39.45,6.93,46.57,6.93,6.63,0,41.1-8.26,43.74-1.81-.34,13.38-91.25,11.88-90.31-5.12Z"/>
  <path d="m571.41,559.67c4.75-3.09,10.82,3.18,14.89,5.04,7.24,3.31,15.14,5.2,23.13,5.19,15.51-.02,25.31-7.17,35.2-18.01,15.41,6.7-23.61,23.82-30.14,24.39-15.9,1.37-32.69-4.46-43.09-16.6Z"/>
  <path d="m274.5,515.51c4.3-2.51,10.38,5.49,14.07,7.36,5.7,2.89,12.24,4.32,18.64,4.02,5.37-.25,11.57-1.62,16.05-4.76,2.16-1.51,7.37-10.55,10.37-9.26,9.12,23.33-62.58,29.24-59.14,2.64Z"/>
  <path d="m636.32,629.42c-7.59,22.65-53.79,5.16-50.27-.64,3.25-5.35,16.82,4.02,21.95,4.68,6.24.8,25.67-8.47,28.32-4.03Z"/>
  <path d="m656.43,474.58c-8.66-5.45-17.99-5.16-27.59-1.92-.16-.5-.33-1-.49-1.5,7.72-11.28,34.13-2.37,28.08,3.42Z"/>
  <path d="m351.96,440.39c-4.84-.18-8.85-3.11-13.7-3.13-5.41-.02-11.6,3.34-16.66,5.05,1.15-12.21,27.41-14.28,30.37-1.92Z"/>
  <path d="m707.39,493.82c-2.52,1.88-4.78,3.57-7.69,5.74,1.69,1.02,2.81,1.69,4.07,2.45,2.72,6.67-7.73,8.59-8.26.54-.33-5.04,7.26-11.92,11.87-8.73Z"/>
  <path d="m511.5,503.19c-2.82,5.23-5.11,5.64-8.83,1.05.87-1.64,1.86-3.48,3.07-5.75-1.76-1.16-3.77-2.5-6.72-4.45,6.15-1.5,11.42,2.65,12.48,9.15Z"/>
  <path d="m599.83,540.92c3.76-2.94,9.29-.84,13.85-.22-3.41,5.82-8.84,5.84-13.85.22Z"/>
  <path d="m300.19,504.8c2.97-1.81,5.8-3.53,8.67-5.28,5.1,4.26-4.41,9.15-8.67,5.28Z"/>
  <path d="m868.32,450.09c31.77-1.76,30.71,49.69-.59,49.99-31.44.3-29.79-49.45.59-49.99Zm17.63,22.67c-.01-25.91-42.53-16.31-34.08,8.97,7.49,22.41,32.87,9.23,34.08-8.97Z"/>
  <path d="m953.45,476.22c-.62,29.19-46.56,32.43-46.52,1.82.03-29.83,45.53-32.52,46.52-1.82Zm-40.1,1.96c2.93,9,7.24,17.01,18.14,15.54,8.44-1.13,15.75-8.86,15.57-17.45-.47-22.61-32.49-19.16-33.71,1.9Z"/>
  <path d="m871.53,515.61c4.32,2.31,5.76,7.7,10.38,10.46,4.74,2.83,11.08,3.92,16.51,4.09,6.25.2,12.6-.95,18.14-3.97,3.08-1.68,9.32-10.11,13.32-7.43,7.2,11.42-25.56,17.28-30.83,17.24-13.82-.09-26.13-5.42-28.87-19.64.45-.25.9-.5,1.34-.76Z"/>
  <path d="m917.97,443.86c4.85-12.62,25.24-10.87,30.27.79-.21.45-.42.91-.63,1.36-12.82-3.58-16.49-6.54-29.64-2.16Z"/>
  <path d="m817.23,486.23c-7.08-2.78-9.21-10.57-4.87-18.54.9.21,1.86.44,2.8.66-.7,2.82-.85,5.65-.47,8.51,2.15.19,4.1.36,5.89.51q1,6.39-3.34,8.85Z"/>
  <path d="m987.77,464.94c-3.49,3.27-6.44,6.03-10.01,9.37,10.04,3.89,1.06,11.3-2.9,4.74-4.1-6.81,7.64-14.07,12.91-14.11Z"/>
  <path d="m901.88,508.3c-5.35,3.08-11.22.96-9.74-5.63,3.12,1.8,6.05,3.5,9.74,5.63Z"/>
  <path d="m278.25,475.32c-4.74.33-5.55-7.65-.5-7.91,5.03-.26,5.39,7.57.5,7.91Z"/>
  <path d="m338.31,475.06c-4.74.33-5.55-7.65-.5-7.91,5.03-.26,5.39,7.57.5,7.91Z"/>
  <path d="m569.19,503.26c.73-6.78,11.17-5.46,8.68,1.63-1.63,4.65-9.31,4.25-8.68-1.63Z"/>
  <path d="m637.76,499.53c4.66-2.82,5.64-2.56,8.19,2.18-2.71,6.81-9.5,5.51-8.19-2.18Z"/>
  <path d="m934.05,475.12c-1.33,2.51-5.6,1.53-6.71-1.16-2.29-5.57,7.67-7.93,7.09-.27-.04.57-.18,1.04-.39,1.43Z"/>
  <path d="m872.81,472.15c-1.33,2.51-5.6,1.53-6.71-1.16-2.29-5.57,7.67-7.93,7.09-.27-.04.57-.18,1.04-.39,1.43Z"/>
</svg>