<?xml version="1.0" encoding="UTF-8"?>
<svg id="Layer_2" data-name="Layer 2" xmlns="http://www.w3.org/2000/svg" viewBox="0 0 215.94 49.07">
  <defs>
    <style>
      .cls-1 {
        fill: #e62870;
      }

      .cls-2 {
        fill: #fff;
      }
    </style>
  </defs>
  <g id="_圖層_1" data-name="圖層 1">
    <g>
      <g>
        <g>
          <path class="cls-2" d="m95.89,28.11c-3.26-.35-6.15.88-8.64,2.81-2.84,2.2-5.19,4.96-7.52,7.67-2.29,2.67-4.48,5.22-7.71,6.8-3.46,1.69-7.56,1.56-11.11.23-3.17-1.19-5.94-3.24-8.47-5.49-.63-.56-1.26-1.13-1.9-1.71-.18.17-.35.34-.53.51-.34.32-.69.62-1.04.92.98.87,1.98,1.72,2.95,2.61,1.37,1.26,3.08,2.53,4.66,3.54,2.82,1.79,6.08,2.99,9.44,3.06,4.31.09,8.5-1.81,11.63-4.7,2.89-2.66,5.16-5.96,7.91-8.77,2.39-2.44,5.87-5.39,9.71-5.23,3.92.16,3.05-2,.62-2.26Z"/>
          <path class="cls-2" d="m68.45,24.29c.5-.15.93-.48,1.33-.82,2.78-2.37,4.36-5.75,7.1-8.12,2.97-2.58,6.53-2.41,10.19-2.5.01,0,.03,0,.04,0,.35-.01.72-.05.97-.27.41-.36.33-1.09-.07-1.47-.28-.26-.67-.39-1.05-.46-1.44-.29-3.12-.2-4.57-.03-3.04.35-5.94,1.84-7.99,4.11-2.3,2.54-4.22,5.61-6.3,8.35-.15.19-.3.4-.34.63-.04.24.06.52.28.61.13.05.28.02.41-.02Z"/>
          <path class="cls-2" d="m85.66,16.67c-1.25.34-2.43.89-3.5,1.61-1.02.68-1.95,1.51-2.77,2.42-.67.74-1.82,1.85-2.02,2.87-.22,1.12.8.77,1.29.37.48-.39.86-.88,1.33-1.29.93-.81,1.89-1.59,2.93-2.26,1.55-.99,3.3-1.73,5.14-1.85.45-.03.92-.03,1.34-.23.28-.13.52-.37.59-.67.1-.42-.17-.86-.54-1.08-.39-.23-.88-.31-1.4-.31-.83,0-1.74.23-2.39.41Z"/>
          <path class="cls-2" d="m84.68,23.8c-.78.68-2.08,1.72-2.2,2.81-.02.23.02.51.23.61.17.08.38,0,.53-.11.27-.21.48-.5.74-.71.83-.69,1.72-1.31,2.66-1.83,1.18-.66,2.44-1.15,3.75-1.45.68-.16,1.38-.27,2.08-.32.2-.01.41-.02.61-.03.37-.03.74-.09,1.06-.31.24-.16.43-.43.4-.72-.03-.24-.21-.44-.4-.58-1.6-1.18-4.63-.19-6.23.54-1.17.54-2.26,1.25-3.24,2.1Z"/>
          <path class="cls-2" d="m47.41,38.43c-.63.58-1.27,1.15-1.9,1.71-2.52,2.25-5.3,4.3-8.47,5.49-3.55,1.33-7.65,1.46-11.11-.23-3.23-1.58-5.42-4.13-7.71-6.8-2.33-2.72-4.68-5.47-7.52-7.67-2.49-1.93-5.38-3.16-8.64-2.81-2.42.26-3.29,2.41.62,2.26,3.83-.15,7.32,2.8,9.71,5.23,2.75,2.81,5.02,6.1,7.91,8.77,3.13,2.89,7.32,4.79,11.63,4.7,3.36-.07,6.62-1.27,9.44-3.06,1.58-1.01,3.29-2.27,4.66-3.54.96-.89,1.96-1.74,2.95-2.61-.35-.31-.7-.61-1.04-.92-.18-.17-.35-.34-.53-.51Z"/>
          <path class="cls-2" d="m63.7,18.76c-1-4.03-5.41-6.37-9.33-5.25-2.12.6-4.08,2.11-5.39,3.97-1.31-1.86-3.27-3.36-5.39-3.97-3.93-1.11-8.33,1.22-9.33,5.25-.89,3.59,1.4,6.67,3.53,9.32,3,3.72,6.17,7.08,9.63,10.35.18.17.35.34.53.51.34.32.69.62,1.04.92.35-.31.7-.61,1.04-.92.18-.17.35-.34.53-.51,3.45-3.28,6.63-6.63,9.63-10.35,2.13-2.64,4.42-5.72,3.53-9.32Z"/>
          <path class="cls-2" d="m10.85,12.84s.03,0,.04,0c3.66.09,7.22-.07,10.19,2.5,2.74,2.38,4.33,5.75,7.1,8.12.4.34.83.67,1.33.82.13.04.28.06.41.02.23-.08.33-.37.28-.61-.04-.24-.2-.44-.34-.63-2.08-2.74-4.01-5.81-6.3-8.35-2.05-2.27-4.95-3.76-7.99-4.11-1.45-.17-3.13-.25-4.57.03-.38.08-.76.2-1.05.46-.4.38-.49,1.1-.07,1.47.26.23.63.26.97.27Z"/>
          <path class="cls-2" d="m8.56,18.32c.42.2.89.2,1.34.23,1.84.12,3.59.86,5.14,1.85,1.04.67,2,1.44,2.93,2.26.47.41.84.9,1.33,1.29.49.39,1.51.75,1.29-.37-.2-1.02-1.35-2.12-2.02-2.87-.82-.91-1.75-1.74-2.77-2.42-1.07-.72-2.25-1.27-3.5-1.61-.65-.18-1.56-.4-2.39-.41-.52,0-1.01.08-1.4.31-.37.22-.64.66-.54,1.08.07.3.31.54.59.67Z"/>
          <path class="cls-2" d="m3.81,22.46c.32.22.69.28,1.06.31.2.01.41.02.61.03.7.05,1.4.16,2.08.32,1.31.3,2.58.79,3.75,1.45.94.53,1.83,1.14,2.66,1.83.26.22.47.5.74.71.15.12.36.19.53.11.21-.1.26-.38.23-.61-.12-1.1-1.42-2.14-2.2-2.81-.97-.85-2.06-1.56-3.24-2.1-1.6-.73-4.63-1.72-6.23-.54-.2.14-.38.34-.4.58-.03.29.16.56.4.72Z"/>
          <path class="cls-1" d="m43.69,9.15c3.46.84,7.11.84,10.57-.02,2.03-.51,5.35-1.61,5.36-4.19h0s0-.02,0-.03c0-.02,0-.04,0-.06h0s0,0,0,0c-.15-2.63-3.29-3.68-5.46-4.21-3.46-.84-7.11-.84-10.57.02-2.03.51-5.35,1.61-5.36,4.19h0s0,.02,0,.03c0,.02,0,.04,0,.06h0s0,0,0,0c.15,2.63,3.29,3.68,5.46,4.21Zm5.21-6.94c1.9,0,8.59.56,8.52,2.68h0c.09,2.07-6.92,2.68-8.47,2.68-1.9,0-8.6-.56-8.52-2.68.07-2.07,6.92-2.68,8.47-2.68Z"/>
        </g>
        <path class="cls-1" d="m37.62,23.88c-.86-1.39-1.52-2.83-1.11-4.5.47-1.94,2.15-3.41,4.1-3.76,3.07-.54,5.91,1.9,7.4,4.43.22.38.55.52.87.53.04,0,.07,0,.11,0,.04,0,.07,0,.11,0,.32-.01.65-.16.87-.53,1.48-2.53,4.33-4.97,7.4-4.43,1.95.34,3.63,1.82,4.1,3.76.41,1.67-.24,3.11-1.11,4.5-3.02,4.86-7.12,9.14-11.36,13.09-4.24-3.95-8.34-8.23-11.36-13.09Z"/>
      </g>
      <g>
        <g>
          <path class="cls-2" d="m114.31,30.49h-1.8v-.92h4.77v.92h-1.82v5.08h-1.15v-5.08Z"/>
          <path class="cls-2" d="m120.39,35.58l-.08-.48h-.03c-.28.34-.75.58-1.34.58-.92,0-1.44-.63-1.44-1.29,0-1.09,1.02-1.65,2.7-1.64v-.07c0-.29-.12-.76-.92-.76-.45,0-.91.14-1.22.32l-.23-.71c.34-.2.93-.39,1.65-.39,1.46,0,1.88.88,1.88,1.83v1.56c0,.39.02.78.07,1.04h-1.04Zm-.15-2.12c-.81,0-1.59.15-1.59.81,0,.42.29.62.66.62.46,0,.79-.28.9-.6.02-.08.03-.16.03-.24v-.6Z"/>
          <path class="cls-2" d="m124.27,30.03c0,.33-.25.59-.66.59-.38,0-.63-.26-.63-.59,0-.33.26-.59.64-.59s.64.26.64.59Zm-1.22,5.55v-4.34h1.15v4.34h-1.15Z"/>
          <path class="cls-2" d="m126.6,31.24l.48,1.97c.11.46.21.93.29,1.41h.02c.09-.47.24-.95.37-1.4l.6-1.98h.93l.57,1.93c.14.5.27.98.36,1.45h.02c.07-.47.18-.94.3-1.45l.5-1.92h1.13l-1.43,4.34h-1.07l-.55-1.77c-.14-.45-.24-.86-.34-1.39h-.02c-.1.54-.21.96-.35,1.39l-.58,1.77h-1.07l-1.35-4.34h1.17Z"/>
          <path class="cls-2" d="m135.88,35.58l-.08-.48h-.03c-.28.34-.75.58-1.34.58-.92,0-1.44-.63-1.44-1.29,0-1.09,1.02-1.65,2.7-1.64v-.07c0-.29-.12-.76-.92-.76-.45,0-.91.14-1.22.32l-.23-.71c.34-.2.93-.39,1.65-.39,1.46,0,1.88.88,1.88,1.83v1.56c0,.39.02.78.07,1.04h-1.04Zm-.15-2.12c-.81,0-1.59.15-1.59.81,0,.42.29.62.66.62.46,0,.79-.28.9-.6.02-.08.03-.16.03-.24v-.6Z"/>
          <path class="cls-2" d="m138.54,32.53c0-.5-.02-.92-.04-1.29h1.01l.06.65h.03c.2-.34.69-.75,1.45-.75.79,0,1.62.49,1.62,1.86v2.58h-1.15v-2.45c0-.62-.24-1.1-.87-1.1-.46,0-.78.31-.9.64-.04.09-.05.22-.05.35v2.55h-1.15v-3.05Z"/>
          <path class="cls-2" d="m148.06,33.88l-.54,1.7h-1.19l2.02-6.01h1.47l2.05,6.01h-1.24l-.57-1.7h-2Zm1.81-.83l-.5-1.48c-.12-.37-.22-.78-.32-1.13h-.02c-.09.35-.19.77-.3,1.12l-.49,1.48h1.62Z"/>
          <path class="cls-2" d="m153.08,34.57c.25.15.75.32,1.16.32.51,0,.73-.2.73-.49s-.19-.44-.75-.63c-.89-.29-1.26-.75-1.26-1.27,0-.76.67-1.36,1.73-1.36.5,0,.94.12,1.21.26l-.23.77c-.19-.1-.56-.25-.96-.25s-.64.19-.64.46.22.41.79.61c.83.28,1.21.68,1.21,1.32,0,.79-.65,1.36-1.85,1.36-.55,0-1.05-.13-1.39-.3l.23-.8Z"/>
          <path class="cls-2" d="m157.44,34.57c.25.15.75.32,1.16.32.51,0,.73-.2.73-.49s-.19-.44-.75-.63c-.89-.29-1.26-.75-1.26-1.27,0-.76.67-1.36,1.73-1.36.5,0,.94.12,1.21.26l-.23.77c-.19-.1-.56-.25-.96-.25s-.64.19-.64.46.22.41.79.61c.83.28,1.21.68,1.21,1.32,0,.79-.65,1.36-1.85,1.36-.55,0-1.05-.13-1.39-.3l.23-.8Z"/>
          <path class="cls-2" d="m166.19,33.37c0,1.59-1.17,2.31-2.34,2.31-1.28,0-2.28-.84-2.28-2.23s.98-2.3,2.36-2.3,2.26.91,2.26,2.22Zm-3.43.05c0,.83.44,1.47,1.13,1.47s1.12-.61,1.12-1.48c0-.68-.32-1.46-1.11-1.46s-1.14.75-1.14,1.47Z"/>
          <path class="cls-2" d="m170.96,35.45c-.24.11-.71.22-1.29.22-1.43,0-2.35-.87-2.35-2.22s.93-2.31,2.53-2.31c.43,0,.85.09,1.11.2l-.21.82c-.18-.09-.46-.17-.87-.17-.88,0-1.4.61-1.39,1.41,0,.89.61,1.4,1.4,1.4.39,0,.68-.08.9-.17l.16.81Z"/>
          <path class="cls-2" d="m173.51,30.03c0,.33-.25.59-.66.59-.38,0-.63-.26-.63-.59,0-.33.26-.59.64-.59s.64.26.64.59Zm-1.22,5.55v-4.34h1.15v4.34h-1.15Z"/>
          <path class="cls-2" d="m177.71,35.58l-.08-.48h-.03c-.28.34-.75.58-1.34.58-.92,0-1.44-.63-1.44-1.29,0-1.09,1.02-1.65,2.7-1.64v-.07c0-.29-.12-.76-.92-.76-.45,0-.91.14-1.22.32l-.23-.71c.34-.2.93-.39,1.65-.39,1.46,0,1.88.88,1.88,1.83v1.56c0,.39.02.78.07,1.04h-1.04Zm-.15-2.12c-.81,0-1.59.15-1.59.81,0,.42.29.62.66.62.46,0,.79-.28.9-.6.02-.08.03-.16.03-.24v-.6Z"/>
          <path class="cls-2" d="m181.63,30v1.24h1.09v.82h-1.09v1.91c0,.53.15.8.59.8.2,0,.34-.02.45-.05l.02.83c-.17.06-.47.11-.84.11-.42,0-.78-.14-.99-.36-.25-.25-.36-.65-.36-1.22v-2.04h-.65v-.82h.65v-.98l1.13-.26Z"/>
          <path class="cls-2" d="m185.28,30.03c0,.33-.25.59-.66.59-.38,0-.63-.26-.63-.59,0-.33.26-.59.64-.59s.64.26.64.59Zm-1.22,5.55v-4.34h1.15v4.34h-1.15Z"/>
          <path class="cls-2" d="m191.25,33.37c0,1.59-1.17,2.31-2.34,2.31-1.28,0-2.28-.84-2.28-2.23s.98-2.3,2.36-2.3,2.26.91,2.26,2.22Zm-3.43.05c0,.83.44,1.47,1.13,1.47s1.12-.61,1.12-1.48c0-.68-.32-1.46-1.11-1.46s-1.14.75-1.14,1.47Z"/>
          <path class="cls-2" d="m192.66,32.53c0-.5-.02-.92-.04-1.29h1.01l.06.65h.03c.2-.34.69-.75,1.45-.75.79,0,1.62.49,1.62,1.86v2.58h-1.15v-2.45c0-.62-.24-1.1-.87-1.1-.46,0-.78.31-.9.64-.04.09-.05.22-.05.35v2.55h-1.15v-3.05Z"/>
          <path class="cls-2" d="m205.2,33.37c0,1.59-1.17,2.31-2.34,2.31-1.28,0-2.28-.84-2.28-2.23s.98-2.3,2.36-2.3,2.26.91,2.26,2.22Zm-3.43.05c0,.83.44,1.47,1.13,1.47s1.12-.61,1.12-1.48c0-.68-.32-1.46-1.11-1.46s-1.14.75-1.14,1.47Z"/>
          <path class="cls-2" d="m206.74,35.58v-3.52h-.62v-.82h.62v-.18c0-.56.16-1.13.55-1.48.34-.31.79-.42,1.19-.42.31,0,.55.05.73.11l-.08.84c-.12-.04-.28-.08-.49-.08-.57,0-.76.46-.76.99v.23h1v.82h-.99v3.52h-1.15Z"/>
          <path class="cls-2" d="m114.98,46.32l-2.46-7.23h1.51l1.04,3.29c.29.91.55,1.76.74,2.63h.02c.2-.85.48-1.74.77-2.61l1.11-3.31h1.48l-2.62,7.23h-1.59Z"/>
          <path class="cls-2" d="m125.3,43.66c0,1.92-1.42,2.78-2.82,2.78-1.55,0-2.74-1.02-2.74-2.69s1.18-2.77,2.84-2.77,2.72,1.09,2.72,2.68Zm-4.13.06c0,1,.53,1.76,1.36,1.76s1.35-.73,1.35-1.78c0-.82-.38-1.76-1.34-1.76s-1.37.9-1.37,1.78Z"/>
          <path class="cls-2" d="m127,38.7h1.39v7.62h-1.39v-7.62Z"/>
          <path class="cls-2" d="m135.36,44.76c0,.62.02,1.14.05,1.56h-1.21l-.07-.79h-.03c-.23.37-.77.91-1.76.91s-1.91-.57-1.91-2.28v-3.06h1.39v2.84c0,.87.29,1.42,1.02,1.42.55,0,.91-.37,1.06-.71.05-.11.08-.26.08-.41v-3.15h1.39v3.66Z"/>
          <path class="cls-2" d="m137.43,42.65c0-.6-.02-1.1-.04-1.55h1.21l.07.78h.03c.24-.41.84-.9,1.75-.9.96,0,1.95.59,1.95,2.24v3.1h-1.39v-2.95c0-.75-.29-1.32-1.05-1.32-.55,0-.93.37-1.08.77-.04.11-.06.27-.06.42v3.07h-1.39v-3.67Z"/>
          <path class="cls-2" d="m145.96,39.6v1.5h1.32v.98h-1.32v2.3c0,.64.18.96.71.96.24,0,.42-.03.54-.06l.03,1c-.21.07-.57.13-1.01.13-.51,0-.93-.16-1.19-.43-.3-.3-.43-.78-.43-1.46v-2.46h-.78v-.98h.78v-1.18l1.36-.31Z"/>
          <path class="cls-2" d="m149.79,44.07c.04.95.81,1.36,1.69,1.36.64,0,1.09-.1,1.51-.24l.21.91c-.47.19-1.12.33-1.92.33-1.78,0-2.82-1.05-2.82-2.65,0-1.44.92-2.8,2.68-2.8s2.36,1.4,2.36,2.54c0,.25-.02.44-.05.55h-3.67Zm2.41-.92c0-.48-.21-1.27-1.14-1.27-.85,0-1.21.74-1.27,1.27h2.41Z"/>
          <path class="cls-2" d="m156.17,44.07c.04.95.81,1.36,1.69,1.36.64,0,1.09-.1,1.51-.24l.21.91c-.47.19-1.12.33-1.92.33-1.78,0-2.82-1.05-2.82-2.65,0-1.44.92-2.8,2.68-2.8s2.36,1.4,2.36,2.54c0,.25-.02.44-.05.55h-3.67Zm2.41-.92c0-.48-.21-1.27-1.14-1.27-.85,0-1.21.74-1.27,1.27h2.41Z"/>
          <path class="cls-2" d="m161.56,42.78c0-.7-.01-1.21-.04-1.68h1.2l.05.99h.04c.27-.74.91-1.11,1.5-1.11.13,0,.21,0,.33.03v1.24c-.12-.02-.24-.04-.41-.04-.66,0-1.12.4-1.24,1-.02.12-.04.26-.04.4v2.71h-1.39v-3.54Z"/>
          <path class="cls-2" d="m167.61,39.64c0,.39-.3.71-.79.71-.46,0-.76-.32-.76-.71,0-.4.31-.71.78-.71s.77.31.77.71Zm-1.47,6.68v-5.22h1.39v5.22h-1.39Z"/>
          <path class="cls-2" d="m169.59,42.65c0-.6-.02-1.1-.04-1.55h1.21l.07.78h.03c.24-.41.84-.9,1.75-.9.96,0,1.95.59,1.95,2.24v3.1h-1.39v-2.95c0-.75-.29-1.32-1.05-1.32-.55,0-.93.37-1.08.77-.04.11-.06.27-.06.42v3.07h-1.39v-3.67Z"/>
          <path class="cls-2" d="m181.6,41.1c-.03.35-.05.79-.05,1.5v2.96c0,1.09-.23,1.87-.81,2.37-.57.48-1.37.63-2.12.63-.7,0-1.44-.14-1.91-.41l.3-1.01c.35.2.94.4,1.6.4.9,0,1.58-.45,1.58-1.58v-.45h-.02c-.31.46-.87.77-1.6.77-1.36,0-2.33-1.07-2.33-2.55,0-1.72,1.17-2.76,2.48-2.76.84,0,1.33.38,1.59.81h.02l.05-.7h1.21Zm-1.43,2.1c0-.13-.01-.25-.04-.36-.15-.49-.54-.85-1.13-.85-.77,0-1.35.64-1.35,1.71,0,.89.47,1.61,1.34,1.61.52,0,.96-.32,1.12-.8.04-.14.06-.32.06-.46v-.85Z"/>
          <path class="cls-2" d="m188.07,44.28l-.65,2.04h-1.43l2.44-7.23h1.77l2.47,7.23h-1.49l-.69-2.04h-2.41Zm2.18-1l-.6-1.78c-.15-.45-.27-.94-.39-1.36h-.03c-.11.42-.23.92-.36,1.35l-.59,1.79h1.96Z"/>
          <path class="cls-2" d="m194.16,42.65c0-.6-.02-1.1-.04-1.55h1.21l.07.78h.03c.24-.41.84-.9,1.75-.9s1.95.59,1.95,2.24v3.1h-1.39v-2.95c0-.75-.29-1.32-1.05-1.32-.55,0-.93.37-1.08.77-.04.11-.06.27-.06.42v3.07h-1.39v-3.67Z"/>
          <path class="cls-2" d="m206.18,41.1c-.03.35-.05.79-.05,1.5v2.96c0,1.09-.23,1.87-.81,2.37-.57.48-1.37.63-2.12.63-.7,0-1.44-.14-1.91-.41l.3-1.01c.35.2.94.4,1.6.4.9,0,1.58-.45,1.58-1.58v-.45h-.02c-.31.46-.87.77-1.6.77-1.36,0-2.33-1.07-2.33-2.55,0-1.72,1.17-2.76,2.48-2.76.84,0,1.33.38,1.59.81h.02l.05-.7h1.21Zm-1.43,2.1c0-.13-.01-.25-.04-.36-.15-.49-.54-.85-1.13-.85-.77,0-1.35.64-1.35,1.71,0,.89.47,1.61,1.34,1.61.52,0,.96-.32,1.12-.8.04-.14.06-.32.06-.46v-.85Z"/>
          <path class="cls-2" d="m209.15,44.07c.04.95.81,1.36,1.69,1.36.64,0,1.09-.1,1.51-.24l.21.91c-.47.19-1.12.33-1.92.33-1.78,0-2.82-1.05-2.82-2.65,0-1.44.92-2.8,2.68-2.8s2.36,1.4,2.36,2.54c0,.25-.02.44-.05.55h-3.67Zm2.41-.92c0-.48-.21-1.27-1.14-1.27-.85,0-1.21.74-1.27,1.27h2.41Z"/>
          <path class="cls-2" d="m214.55,38.7h1.39v7.62h-1.39v-7.62Z"/>
        </g>
        <g>
          <g>
            <path class="cls-2" d="m144.56,4.77h-.71c-.22,0-.42.14-.48.35-.65,2.2-1.98,5.64-4.27,8.44-.07.09-.11.2-.11.31v1.31c0,.27.34.4.52.2.95-1.03,1.77-2.17,2.46-3.34v10.36c0,.22.18.4.4.4h.65c.22,0,.4-.18.4-.4v-13.21h0c.68-1.56,1.14-2.99,1.44-4.05.05-.19-.09-.38-.29-.38Z"/>
            <path class="cls-2" d="m150.57,19.01c.76-1.2,1.22-2.74,1.48-4.16h4.82c.22,0,.4-.18.4-.4v-4.57c0-.22-.18-.4-.4-.4h-4.47c0-.62,0-1.23,0-1.79h4.9c.22,0,.4-.18.4-.4v-.67c0-.22-.18-.4-.4-.4h-4.89c0-.67,0-1.03,0-1.37,0-.22-.18-.4-.4-.4h-.67c-.22,0-.4.18-.4.4,0,.34,0,.7,0,1.37h-4.92c-.22,0-.4.18-.4.4v.67c0,.22.18.4.4.4h4.92c0,.57,0,1.17,0,1.79h-4.22c-.22,0-.4.18-.4.4v4.57c0,.22.18.4.4.4h3.85c-.22,1.08-.58,2.27-1.12,3.17-.54-.55-.94-1.07-1.21-1.48-.09-.14-.25-.22-.41-.22h-.91c-.23,0-.38.25-.26.45.31.54.92,1.46,1.91,2.44-.73.79-1.68,1.44-2.9,1.92-.19.08-.32.26-.32.47v.79c0,.2.2.35.4.29,1.71-.59,3-1.45,3.95-2.49,1.8,1.38,4.43,2.63,8.17,2.76.22,0,.41-.17.41-.4v-.93c.01-.22-.16-.4-.38-.4-3.37-.1-5.72-.98-7.31-2.21Zm5.06-8.11v2.53h-3.37c.09-.84.12-1.69.13-2.53h3.24Zm-7.68,2.53v-2.53h2.98c0,.86-.05,1.7-.14,2.53h-2.84Z"/>
          </g>
          <g>
            <path class="cls-2" d="m169.59,10.48v-4.79c0-.22-.18-.4-.4-.4h-.67c-.22,0-.4.18-.4.4v4.79h-1.81c-.22,0-.4.18-.4.4v.62c0,.22.18.4.4.4h1.81v10.5c0,.22.18.4.4.4h.67c.22,0,.4-.18.4-.4v-10.5h1.81c.22,0,.4-.18.4-.4v-.62c0-.22-.18-.4-.4-.4h-1.81Z"/>
            <g>
              <polygon class="cls-2" points="174.89 13 174.88 13 174.88 13 174.89 13"/>
              <path class="cls-2" d="m177.5,18.35c.11-.94.17-1.79.2-2.32.01-.24.02-.42.02-.5v-.34c.02-.23-.16-.41-.39-.41h-2.81c.02-.47.03-.84.03-1.23,0-.22-.18-.4-.4-.41h-.62c-.22,0-.4.17-.4.39,0,.4-.01.78-.04,1.25h-1.45c-.22,0-.4.18-.4.4v.65c0,.22.18.4.4.4h1.32c-.09,1.95-.67,3.98-2.47,5.96-.14.16-.03.42.19.41h1.1c.15,0,.3-.07.39-.19,1.61-2.01,2-4.19,2.23-6.18h1.83s.01,1.1-.25,2.45c-.15.77-.24,1.44-.63,2.22l-.62-.51c-.15-.13-.38-.07-.46.11-.11.24-.23.5-.34.72-.08.16-.04.36.09.48l1.37,1.21c.16.14.4.11.52-.06,1.08-1.65,1.43-3.48,1.59-4.5Z"/>
              <path class="cls-2" d="m184.43,14.78h-2.56c.04-.44.07-.8.08-1.23,0-.22-.17-.41-.4-.41h-.62c-.22,0-.4.17-.4.38-.02.44-.05.81-.09,1.26h-1.39c-.22,0-.4.18-.4.4v.65c0,.22.18.4.4.4h1.18c-.45,2.36-1.17,4.28-2.63,5.96-.14.16-.02.41.19.41h1.1c.16,0,.3-.07.4-.19,1.34-1.75,1.99-3.79,2.4-6.18h1.74c0,.28-.1,2.91-.94,4.43l-.55-.38c-.15-.1-.36-.05-.44.12-.13.28-.27.58-.4.84-.09.17-.04.39.12.5l1.54,1.14c.18.13.43.07.52-.12,1.23-2.58,1.4-5.21,1.52-6.76.02-.34.04-.62.04-.82,0-.23-.17-.41-.4-.41Z"/>
              <path class="cls-2" d="m176.56,12.47c.87-1.39,1.11-3.39,1.37-4.71h1.44s1,0,1,0c-.09.5-.22,1.38-.37,1.96-.08.31-.17.6-.25.84l-.64-.57c-.15-.13-.39-.09-.47.1-.1.23-.21.46-.33.69-.09.17-.05.37.09.49l1.67,1.44c.18.16.46.09.55-.14l.19-.47c.43-1.07.84-3.28,1.02-4.33.04-.25.1-.73.14-1.07.02-.21-.14-.39-.35-.39h-3.48c.06-.58.1-1.11.12-1.47.01-.23-.17-.42-.4-.42h-.63c-.21,0-.39.16-.4.37-.03.38-.07,1-.13,1.5h-1.42c-.22,0-.4.17-.4.39v.65c0,.22.18.4.4.4h1.17c-.29,1.33-.59,3.26-1.56,4.55-.12.17,0,.4.2.4h1.03c.17,0,.33-.08.42-.23Z"/>
            </g>
          </g>
          <path class="cls-2" d="m122.9,13.31h6.67c.22,0,.4-.18.4-.4v-.67c0-.22-.18-.4-.4-.4h-7.07s-.02,0-.02-.02v-1.33s0-.03,0-.05c.12-1.28.13-2.59.12-3.46,0-.01,0-.02.02-.02h6.35c.22,0,.4-.18.4-.4v-.62c0-.22-.18-.4-.4-.4h-13.95c-.22,0-.4.18-.4.4v.62c0,.22.18.4.4.4h6.09s.02,0,.02.02c.01.84,0,2.11-.11,3.33-.05.52-.12,1.02-.21,1.51,0,.01-.01.02-.02.02h-6.37c-.22,0-.4.18-.4.4v.67c0,.22.18.4.4.4h6.03s.03.01.02.03c-1.1,3.92-3.62,6.33-7.55,7.88-.19.08-.32.26-.32.46v1.18c0,.21.21.36.4.28,4.37-1.63,7.31-4.62,8.68-8.79,0-.01.02-.02.03,0,.89,2.25,3.15,6,8.71,8.72.2.1.43-.05.43-.27v-1.22c0-.19-.11-.36-.27-.44-5.25-2.72-7.09-6-7.7-7.81,0-.01,0-.03.02-.03Z"/>
          <g>
            <g>
              <g>
                <path class="cls-2" d="m201.95,4.39l-.21-.15c-.15-.11-.35-.1-.49.02l-.2.17c-2.48,2.06-6.76,4.36-8.82,5.42-.17.09-.27.26-.27.44v.93c0,.19.19.31.36.23,1.68-.84,6.29-3.24,9.23-5.54.98.69,2.08,1.38,3.19,2.05h.14v.08c2.55,1.52,5.09,2.84,6.09,3.35.17.08.36-.04.36-.22v-.94c0-.19-.1-.36-.27-.44-1.94-1.01-6.29-3.33-9.1-5.39Z"/>
                <path class="cls-2" d="m204.73,7.47s.09.06.14.08v-.08h-.14Z"/>
              </g>
              <path class="cls-2" d="m207.53,22.28v-5.26c0-.22-.18-.4-.4-.4h-10.97c-.22,0-.4.18-.4.4v5.26c0,.22.18.4.4.4h10.97c.22,0,.4-.18.4-.4Zm-10.34-4.24h8.92v.91h-8.92v-.91Zm0,2.33h8.92v.88h-8.92v-.88Z"/>
              <path class="cls-2" d="m195.07,10.68v4.36c0,.22.18.4.4.4h12.38c.22,0,.4-.18.4-.4v-4.36c0-.22-.18-.4-.4-.4h-12.38c-.22,0-.4.18-.4.4Zm5.88,3.34h-1.08c-.49-.44-.75-1.09-.88-1.56-.04-.13-.15-.22-.29-.22h-.82c-.16,0-.28.15-.24.31.09.39.26.93.56,1.47h-1.7v-2.32h4.46v2.32Zm5.88,0h-1.72c.3-.54.47-1.08.56-1.47.04-.16-.08-.31-.24-.31h-.82c-.13,0-.25.09-.29.22-.13.47-.39,1.12-.88,1.56h-1.06v-2.32h4.45v2.32Z"/>
            </g>
            <rect class="cls-2" x="198.47" y="7.66" width="6.35" height="1.41" rx=".4" ry=".4"/>
          </g>
        </g>
      </g>
    </g>
  </g>
</svg>