<?xml version="1.0" encoding="UTF-8"?>
<svg id="Layer_2" data-name="Layer 2" xmlns="http://www.w3.org/2000/svg" viewBox="0 0 204.68 49.07">
  <defs>
    <style>
      .cls-1 {
        fill: #e62870;
      }

      .cls-2 {
        fill: #231916;
      }
    </style>
  </defs>
  <g id="_圖層_1" data-name="圖層 1">
    <g>
      <g>
        <path class="cls-2" d="m116.73,17.55h-7.64v-3.91h20.25v3.91h-7.71v21.57h-4.89v-21.57Z"/>
        <path class="cls-2" d="m137.88,31.92l-2.28,7.2h-5.05l8.59-25.48h6.23l8.69,25.48h-5.25l-2.42-7.2h-8.5Zm7.69-3.52l-2.11-6.28c-.51-1.58-.96-3.31-1.36-4.79h-.09c-.39,1.5-.8,3.26-1.27,4.77l-2.07,6.3h6.89Z"/>
        <path class="cls-2" d="m164.61,39.12l-8.67-25.48h5.34l3.65,11.59c1.03,3.21,1.92,6.2,2.62,9.28h.09c.71-3.01,1.68-6.12,2.72-9.21l3.91-11.66h5.2l-9.25,25.48h-5.6Z"/>
        <path class="cls-2" d="m188.51,31.92l-2.28,7.2h-5.05l8.59-25.48h6.23l8.69,25.48h-5.25l-2.42-7.2h-8.5Zm7.69-3.52l-2.11-6.28c-.51-1.58-.96-3.31-1.36-4.79h-.09c-.39,1.5-.8,3.26-1.27,4.77l-2.07,6.3h6.89Z"/>
      </g>
      <g>
        <path class="cls-2" d="m95.89,28.11c-3.26-.35-6.15.88-8.64,2.81-2.84,2.2-5.19,4.96-7.52,7.67-2.29,2.67-4.48,5.22-7.71,6.8-3.46,1.69-7.56,1.56-11.11.23-3.17-1.19-5.94-3.24-8.47-5.49-.63-.56-1.26-1.13-1.9-1.71-.18.17-.35.34-.53.51-.34.32-.69.62-1.04.92.98.87,1.98,1.72,2.95,2.61,1.37,1.26,3.08,2.53,4.66,3.54,2.82,1.79,6.08,2.99,9.44,3.06,4.31.09,8.5-1.81,11.63-4.7,2.89-2.66,5.16-5.96,7.91-8.77,2.39-2.44,5.87-5.39,9.71-5.23,3.92.16,3.05-2,.62-2.26Z"/>
        <path class="cls-2" d="m68.45,24.29c.5-.15.93-.48,1.33-.82,2.78-2.37,4.36-5.75,7.1-8.12,2.97-2.58,6.53-2.41,10.19-2.5.01,0,.03,0,.04,0,.35-.01.72-.05.97-.27.42-.36.33-1.09-.07-1.47-.28-.26-.67-.39-1.05-.46-1.44-.29-3.12-.2-4.57-.03-3.04.35-5.94,1.84-7.99,4.11-2.3,2.54-4.22,5.61-6.3,8.35-.15.19-.3.4-.34.63-.04.24.06.52.28.61.13.05.28.02.41-.02Z"/>
        <path class="cls-2" d="m85.66,16.67c-1.25.34-2.43.89-3.5,1.61-1.02.68-1.95,1.51-2.77,2.42-.67.74-1.82,1.85-2.02,2.87-.22,1.12.8.77,1.29.37.48-.39.86-.88,1.33-1.29.93-.81,1.89-1.59,2.93-2.26,1.55-.99,3.3-1.73,5.14-1.85.45-.03.92-.03,1.34-.23.28-.13.52-.37.59-.67.1-.42-.17-.86-.54-1.08-.39-.23-.88-.31-1.4-.31-.83,0-1.74.23-2.39.41Z"/>
        <path class="cls-2" d="m84.68,23.8c-.78.68-2.08,1.72-2.2,2.81-.02.23.02.51.23.61.17.08.38,0,.53-.11.27-.21.48-.5.74-.71.83-.69,1.72-1.31,2.66-1.83,1.18-.66,2.44-1.15,3.75-1.45.68-.16,1.38-.27,2.08-.32.2-.01.41-.02.61-.03.37-.03.74-.09,1.06-.31.24-.16.43-.43.4-.72-.03-.24-.21-.44-.4-.58-1.6-1.18-4.63-.19-6.23.54-1.17.54-2.26,1.25-3.24,2.1Z"/>
        <path class="cls-2" d="m47.41,38.42c-.63.58-1.27,1.15-1.9,1.71-2.52,2.25-5.3,4.3-8.47,5.49-3.55,1.33-7.65,1.46-11.11-.23-3.23-1.58-5.42-4.13-7.71-6.8-2.33-2.72-4.68-5.47-7.52-7.67-2.49-1.93-5.38-3.16-8.64-2.81-2.42.26-3.29,2.41.62,2.26,3.83-.15,7.32,2.8,9.71,5.23,2.75,2.81,5.02,6.1,7.91,8.77,3.13,2.89,7.32,4.79,11.63,4.7,3.36-.07,6.62-1.26,9.44-3.06,1.58-1.01,3.29-2.27,4.66-3.54.96-.89,1.96-1.74,2.95-2.61-.35-.31-.7-.61-1.04-.92-.18-.17-.35-.34-.53-.51Z"/>
        <path class="cls-2" d="m63.7,18.76c-1-4.03-5.41-6.37-9.33-5.25-2.12.6-4.08,2.11-5.39,3.97-1.31-1.86-3.27-3.36-5.39-3.97-3.93-1.11-8.33,1.22-9.33,5.25-.89,3.59,1.4,6.67,3.53,9.32,3,3.72,6.17,7.08,9.63,10.35.18.17.35.34.53.51.34.32.69.62,1.04.92.35-.31.7-.61,1.04-.92.18-.17.35-.34.53-.51,3.45-3.28,6.63-6.63,9.63-10.35,2.13-2.64,4.42-5.72,3.53-9.32Z"/>
        <path class="cls-2" d="m10.85,12.84s.03,0,.04,0c3.66.09,7.22-.07,10.19,2.5,2.74,2.38,4.33,5.75,7.1,8.12.4.34.83.67,1.33.82.13.04.28.06.41.02.23-.08.33-.37.28-.61-.04-.24-.2-.44-.34-.63-2.08-2.74-4.01-5.81-6.3-8.35-2.05-2.27-4.95-3.76-7.99-4.11-1.45-.17-3.13-.25-4.57.03-.38.08-.76.2-1.05.46-.4.38-.49,1.1-.07,1.47.26.23.63.26.97.27Z"/>
        <path class="cls-2" d="m8.56,18.32c.42.2.89.2,1.34.23,1.84.12,3.59.86,5.14,1.85,1.04.67,2,1.45,2.93,2.26.47.41.84.9,1.33,1.29.49.39,1.51.75,1.29-.37-.2-1.02-1.35-2.12-2.02-2.87-.82-.91-1.75-1.74-2.77-2.42-1.07-.72-2.25-1.27-3.5-1.61-.65-.18-1.56-.4-2.39-.41-.52,0-1.01.08-1.4.31-.37.22-.64.66-.54,1.08.07.3.31.54.59.67Z"/>
        <path class="cls-2" d="m3.81,22.45c.32.22.69.28,1.06.31.2.01.41.02.61.03.7.05,1.4.16,2.08.32,1.31.3,2.58.79,3.75,1.45.94.53,1.83,1.14,2.66,1.83.26.22.47.5.74.71.15.12.36.19.53.11.21-.1.26-.38.23-.61-.12-1.1-1.42-2.14-2.2-2.81-.97-.85-2.06-1.56-3.24-2.1-1.6-.73-4.63-1.72-6.23-.54-.2.14-.38.34-.4.58-.03.29.16.56.4.72Z"/>
        <path class="cls-1" d="m43.69,9.15c3.46.84,7.11.84,10.57-.02,2.03-.51,5.35-1.61,5.36-4.19h0s0-.02,0-.03c0-.02,0-.04,0-.06h0s0,0,0,0c-.15-2.63-3.29-3.68-5.46-4.21-3.46-.84-7.11-.84-10.57.02-2.03.51-5.35,1.61-5.36,4.19h0s0,.02,0,.03c0,.02,0,.04,0,.06h0s0,0,0,0c.15,2.63,3.29,3.68,5.46,4.21Zm5.21-6.94c1.9,0,8.59.56,8.52,2.68h0c.09,2.07-6.92,2.68-8.47,2.68-1.9,0-8.6-.56-8.52-2.68.07-2.07,6.92-2.68,8.47-2.68Z"/>
      </g>
      <path class="cls-1" d="m37.62,23.88c-.86-1.39-1.52-2.83-1.11-4.5.47-1.94,2.15-3.41,4.1-3.76,3.07-.54,5.91,1.9,7.4,4.43.22.38.55.52.87.53.04,0,.07,0,.11,0,.04,0,.07,0,.11,0,.32-.01.65-.16.87-.53,1.48-2.53,4.33-4.97,7.4-4.43,1.95.34,3.63,1.82,4.1,3.76.41,1.67-.24,3.11-1.11,4.5-3.02,4.86-7.12,9.14-11.36,13.09-4.24-3.95-8.34-8.23-11.36-13.09Z"/>
    </g>
  </g>
</svg>