<?xml version="1.0" encoding="UTF-8"?>
<svg id="Layer_2" data-name="Layer 2" xmlns="http://www.w3.org/2000/svg" viewBox="0 0 245.08 68.94">
  <defs>
    <style>
      .cls-1 {
        fill: #e62870;
      }

      .cls-2 {
        fill: #fff;
      }
    </style>
  </defs>
  <g id="_圖層_1" data-name="圖層 1">
    <g>
      <g>
        <path class="cls-2" d="m2.88,60.27H.75v-1.09h5.64v1.09h-2.15v6.02h-1.36v-6.02Z"/>
        <path class="cls-2" d="m10.08,66.29l-.09-.57h-.03c-.33.41-.89.69-1.59.69-1.09,0-1.7-.74-1.7-1.53,0-1.29,1.21-1.95,3.2-1.94v-.08c0-.34-.14-.9-1.09-.89-.53,0-1.08.16-1.45.38l-.27-.84c.41-.24,1.1-.46,1.95-.46,1.73,0,2.22,1.04,2.22,2.16v1.85c0,.47.02.92.08,1.24h-1.23Zm-.18-2.51c-.96-.01-1.88.18-1.88.96,0,.5.35.74.78.74.54,0,.93-.33,1.07-.71.03-.09.04-.19.04-.28v-.71Z"/>
        <path class="cls-2" d="m14.66,59.72c0,.39-.29.7-.78.7-.45,0-.75-.31-.75-.7,0-.4.3-.7.76-.7s.76.3.76.7Zm-1.44,6.57v-5.13h1.36v5.13h-1.36Z"/>
        <path class="cls-2" d="m17.42,61.16l.56,2.33c.13.55.25,1.1.35,1.66h.03c.11-.55.28-1.13.43-1.65l.71-2.34h1.1l.67,2.28c.17.6.32,1.16.43,1.71h.03c.09-.55.21-1.12.36-1.71l.6-2.28h1.34l-1.69,5.13h-1.26l-.65-2.09c-.16-.54-.29-1.02-.41-1.64h-.02c-.12.63-.25,1.13-.41,1.64l-.68,2.09h-1.27l-1.59-5.13h1.39Z"/>
        <path class="cls-2" d="m28.41,66.29l-.09-.57h-.03c-.33.41-.89.69-1.59.69-1.09,0-1.7-.74-1.7-1.53,0-1.29,1.21-1.95,3.2-1.94v-.08c0-.34-.14-.9-1.09-.89-.53,0-1.08.16-1.45.38l-.27-.84c.41-.24,1.1-.46,1.95-.46,1.73,0,2.22,1.04,2.22,2.16v1.85c0,.47.02.92.08,1.24h-1.23Zm-.18-2.51c-.96-.01-1.88.18-1.88.96,0,.5.35.74.78.74.54,0,.93-.33,1.07-.71.03-.09.04-.19.04-.28v-.71Z"/>
        <path class="cls-2" d="m31.56,62.68c0-.59-.02-1.08-.04-1.53h1.19l.07.77h.03c.24-.4.82-.89,1.72-.89.94,0,1.92.58,1.92,2.2v3.05h-1.36v-2.9c0-.74-.28-1.3-1.03-1.3-.54,0-.92.36-1.06.76-.04.11-.06.26-.06.41v3.02h-1.36v-3.61Z"/>
        <path class="cls-2" d="m42.83,64.28l-.64,2.01h-1.41l2.39-7.11h1.73l2.42,7.11h-1.46l-.67-2.01h-2.37Zm2.14-.98l-.59-1.75c-.14-.44-.27-.92-.38-1.34h-.02c-.11.42-.22.91-.35,1.33l-.58,1.75h1.92Z"/>
        <path class="cls-2" d="m48.77,65.1c.3.18.89.37,1.37.37.6,0,.87-.24.87-.58s-.22-.52-.88-.75c-1.05-.34-1.49-.89-1.49-1.5,0-.9.79-1.61,2.04-1.61.59,0,1.11.14,1.43.31l-.27.91c-.23-.12-.66-.29-1.14-.29s-.75.23-.75.54.26.48.94.72c.98.33,1.43.81,1.44,1.56,0,.94-.77,1.61-2.19,1.61-.65,0-1.24-.15-1.64-.36l.27-.94Z"/>
        <path class="cls-2" d="m53.94,65.1c.3.18.89.37,1.37.37.6,0,.87-.24.87-.58s-.22-.52-.88-.75c-1.05-.34-1.49-.89-1.49-1.5,0-.9.79-1.61,2.04-1.61.59,0,1.11.14,1.43.31l-.27.91c-.23-.12-.66-.29-1.14-.29s-.75.23-.75.54.26.48.94.72c.98.33,1.43.81,1.44,1.56,0,.94-.76,1.61-2.19,1.61-.65,0-1.25-.15-1.64-.36l.27-.94Z"/>
        <path class="cls-2" d="m64.29,63.67c0,1.89-1.39,2.73-2.77,2.73-1.52,0-2.69-1-2.69-2.64s1.16-2.72,2.79-2.72,2.67,1.08,2.67,2.63Zm-4.06.06c0,.99.52,1.73,1.34,1.73s1.32-.72,1.32-1.75c0-.81-.37-1.73-1.31-1.73s-1.35.89-1.35,1.74Z"/>
        <path class="cls-2" d="m69.94,66.13c-.28.13-.84.26-1.52.26-1.69,0-2.78-1.03-2.78-2.62s1.1-2.73,3-2.73c.5,0,1,.1,1.32.23l-.24.98c-.22-.1-.55-.2-1.03-.2-1.04,0-1.65.72-1.65,1.66,0,1.05.73,1.66,1.65,1.66.47,0,.8-.1,1.07-.2l.18.96Z"/>
        <path class="cls-2" d="m72.95,59.72c0,.39-.29.7-.78.7-.45,0-.75-.31-.75-.7,0-.4.3-.7.76-.7s.75.3.76.7Zm-1.44,6.57v-5.13h1.36v5.13h-1.36Z"/>
        <path class="cls-2" d="m77.93,66.29l-.09-.57h-.03c-.33.41-.89.69-1.59.69-1.09,0-1.7-.74-1.7-1.53,0-1.29,1.21-1.95,3.19-1.94v-.08c0-.34-.14-.9-1.09-.89-.53,0-1.08.16-1.45.38l-.27-.84c.41-.24,1.1-.46,1.95-.46,1.73,0,2.22,1.04,2.22,2.16v1.85c0,.47.02.92.08,1.24h-1.23Zm-.18-2.51c-.96-.01-1.88.18-1.88.96,0,.5.35.74.78.74.54,0,.94-.33,1.07-.71.03-.09.04-.19.04-.28v-.71Z"/>
        <path class="cls-2" d="m82.56,59.69v1.47h1.29v.97h-1.29v2.26c0,.63.17.95.7.95.23,0,.41-.03.53-.06l.03.99c-.21.07-.56.13-.99.13-.5,0-.92-.16-1.17-.42-.29-.3-.43-.77-.43-1.44v-2.41h-.77v-.97h.77v-1.16l1.34-.31Z"/>
        <path class="cls-2" d="m86.89,59.72c0,.39-.29.7-.78.7-.45,0-.75-.31-.75-.7,0-.4.3-.7.76-.7s.76.3.76.7Zm-1.44,6.57v-5.13h1.36v5.13h-1.36Z"/>
        <path class="cls-2" d="m93.95,63.67c0,1.89-1.39,2.73-2.77,2.73-1.52,0-2.7-1-2.7-2.64s1.16-2.72,2.79-2.72,2.67,1.08,2.67,2.63Zm-4.06.06c0,.99.52,1.73,1.34,1.73s1.32-.72,1.32-1.75c0-.81-.38-1.73-1.31-1.73s-1.35.89-1.35,1.74Z"/>
        <path class="cls-2" d="m95.62,62.68c0-.59-.02-1.08-.04-1.53h1.19l.07.77h.03c.24-.4.82-.89,1.72-.89.94,0,1.91.58,1.91,2.2v3.05h-1.36v-2.9c0-.74-.28-1.3-1.03-1.3-.54,0-.92.36-1.06.76-.04.11-.06.26-.06.41v3.02h-1.36v-3.61Z"/>
        <path class="cls-2" d="m110.47,63.67c0,1.89-1.39,2.73-2.77,2.73-1.52,0-2.7-1-2.7-2.64s1.16-2.72,2.79-2.72,2.67,1.08,2.67,2.63Zm-4.06.06c0,.99.52,1.73,1.34,1.73s1.32-.72,1.32-1.75c0-.81-.38-1.73-1.31-1.73s-1.35.89-1.35,1.74Z"/>
        <path class="cls-2" d="m112.3,66.29v-4.17h-.73v-.97h.73v-.22c0-.66.19-1.33.65-1.75.4-.36.94-.5,1.41-.5.36,0,.65.06.86.13l-.1,1c-.15-.05-.33-.09-.58-.09-.67,0-.9.54-.9,1.17v.27h1.18v.97h-1.17v4.17h-1.36Z"/>
        <path class="cls-2" d="m124.18,66.29l-2.91-8.56h1.79l1.22,3.89c.35,1.08.65,2.08.88,3.12h.03c.24-1.01.56-2.05.91-3.09l1.31-3.91h1.75l-3.1,8.56h-1.88Z"/>
        <path class="cls-2" d="m136.4,63.14c0,2.27-1.67,3.29-3.33,3.29-1.83,0-3.25-1.2-3.25-3.18s1.4-3.28,3.36-3.28,3.22,1.3,3.22,3.17Zm-4.89.07c0,1.19.62,2.09,1.61,2.09s1.59-.86,1.59-2.11c0-.97-.45-2.08-1.58-2.08s-1.62,1.07-1.62,2.1Z"/>
        <path class="cls-2" d="m138.42,57.28h1.64v9.01h-1.64v-9.01Z"/>
        <path class="cls-2" d="m148.32,64.44c0,.73.02,1.35.05,1.85h-1.43l-.08-.93h-.04c-.27.43-.91,1.07-2.08,1.07s-2.26-.68-2.26-2.7v-3.62h1.64v3.36c0,1.03.34,1.68,1.21,1.68.66,0,1.08-.44,1.25-.83.05-.13.09-.3.09-.48v-3.73h1.64v4.33Z"/>
        <path class="cls-2" d="m150.76,61.95c0-.71-.02-1.3-.05-1.84h1.43l.08.93h.04c.29-.48.99-1.07,2.07-1.07,1.13,0,2.31.69,2.31,2.65v3.67h-1.64v-3.49c0-.89-.34-1.56-1.24-1.56-.65,0-1.1.44-1.28.92-.05.13-.08.32-.08.5v3.64h-1.64v-4.34Z"/>
        <path class="cls-2" d="m160.86,58.34v1.77h1.56v1.16h-1.56v2.73c0,.76.21,1.14.84,1.14.28,0,.49-.03.64-.07l.03,1.19c-.25.09-.68.16-1.19.16-.6,0-1.1-.2-1.41-.51-.35-.35-.51-.92-.51-1.73v-2.91h-.92v-1.16h.92v-1.4l1.61-.37Z"/>
        <path class="cls-2" d="m165.4,63.63c.04,1.12.95,1.61,2,1.61.75,0,1.29-.11,1.79-.29l.24,1.08c-.56.22-1.33.39-2.27.39-2.11,0-3.34-1.24-3.34-3.13,0-1.71,1.09-3.32,3.17-3.32s2.79,1.65,2.79,3.01c0,.29-.03.52-.06.66h-4.34Zm2.85-1.09c0-.57-.25-1.51-1.35-1.51-1.01,0-1.43.87-1.5,1.51h2.85Z"/>
        <path class="cls-2" d="m172.95,63.63c.04,1.12.95,1.61,2,1.61.75,0,1.29-.11,1.79-.29l.24,1.08c-.56.22-1.33.39-2.27.39-2.11,0-3.34-1.24-3.34-3.13,0-1.71,1.09-3.32,3.17-3.32s2.79,1.65,2.79,3.01c0,.29-.03.52-.06.66h-4.34Zm2.85-1.09c0-.57-.25-1.51-1.35-1.51-1.01,0-1.43.87-1.5,1.51h2.85Z"/>
        <path class="cls-2" d="m179.33,62.1c0-.83-.02-1.44-.05-1.99h1.42l.06,1.17h.05c.32-.87,1.08-1.31,1.77-1.31.16,0,.25,0,.39.03v1.47c-.14-.03-.28-.04-.48-.04-.78,0-1.32.47-1.47,1.18-.03.14-.04.3-.04.47v3.21h-1.64v-4.19Z"/>
        <path class="cls-2" d="m186.49,58.38c0,.47-.35.84-.93.84-.54,0-.9-.38-.9-.84,0-.48.37-.84.92-.84s.91.36.91.84Zm-1.74,7.91v-6.18h1.64v6.18h-1.64Z"/>
        <path class="cls-2" d="m188.83,61.95c0-.71-.02-1.3-.05-1.84h1.43l.08.93h.04c.29-.48.99-1.07,2.07-1.07,1.13,0,2.31.69,2.31,2.65v3.67h-1.64v-3.49c0-.89-.34-1.56-1.24-1.56-.65,0-1.1.44-1.28.92-.05.13-.08.32-.08.5v3.64h-1.64v-4.34Z"/>
        <path class="cls-2" d="m203.05,60.11c-.03.42-.06.93-.06,1.78v3.51c0,1.3-.28,2.22-.96,2.8-.68.57-1.62.75-2.51.75-.82,0-1.7-.17-2.26-.49l.35-1.19c.42.24,1.11.48,1.89.48,1.07,0,1.86-.54,1.86-1.87v-.53h-.03c-.37.54-1.03.91-1.89.91-1.61,0-2.75-1.27-2.75-3.01,0-2.04,1.38-3.27,2.93-3.27,1,0,1.58.45,1.89.96h.03l.06-.82h1.43Zm-1.69,2.48c0-.15-.01-.29-.05-.42-.17-.57-.64-1-1.34-1-.91,0-1.59.76-1.59,2.02,0,1.05.56,1.9,1.58,1.9.62,0,1.14-.38,1.33-.95.05-.16.07-.37.07-.55v-1Z"/>
        <path class="cls-2" d="m210.71,63.87l-.77,2.42h-1.7l2.88-8.56h2.09l2.92,8.56h-1.76l-.81-2.42h-2.85Zm2.58-1.18l-.71-2.11c-.17-.53-.32-1.11-.46-1.61h-.03c-.13.5-.27,1.09-.43,1.6l-.69,2.11h2.31Z"/>
        <path class="cls-2" d="m217.92,61.95c0-.71-.02-1.3-.05-1.84h1.43l.08.93h.04c.29-.48.99-1.07,2.07-1.07s2.3.69,2.3,2.65v3.67h-1.64v-3.49c0-.89-.34-1.56-1.24-1.56-.65,0-1.1.44-1.28.92-.05.13-.08.32-.08.5v3.64h-1.64v-4.34Z"/>
        <path class="cls-2" d="m232.14,60.11c-.03.42-.05.93-.05,1.78v3.51c0,1.3-.28,2.22-.96,2.8-.68.57-1.62.75-2.51.75-.82,0-1.7-.17-2.26-.49l.35-1.19c.42.24,1.11.48,1.89.48,1.07,0,1.86-.54,1.86-1.87v-.53h-.03c-.37.54-1.03.91-1.89.91-1.61,0-2.75-1.27-2.75-3.01,0-2.04,1.38-3.27,2.93-3.27,1,0,1.58.45,1.89.96h.03l.06-.82h1.43Zm-1.69,2.48c0-.15-.01-.29-.05-.42-.17-.57-.64-1-1.34-1-.91,0-1.59.76-1.59,2.02,0,1.05.56,1.9,1.59,1.9.62,0,1.14-.38,1.33-.95.05-.16.07-.37.07-.55v-1Z"/>
        <path class="cls-2" d="m235.67,63.63c.04,1.12.95,1.61,2,1.61.75,0,1.29-.11,1.79-.29l.24,1.08c-.56.22-1.33.39-2.27.39-2.11,0-3.34-1.24-3.34-3.13,0-1.71,1.09-3.32,3.17-3.32s2.79,1.65,2.79,3.01c0,.29-.03.52-.06.66h-4.34Zm2.85-1.09c0-.57-.25-1.51-1.35-1.51-1.01,0-1.43.87-1.5,1.51h2.85Z"/>
        <path class="cls-2" d="m242.06,57.28h1.64v9.01h-1.64v-9.01Z"/>
      </g>
      <g>
        <path class="cls-2" d="m95.89,28.11c-3.26-.35-6.15.88-8.64,2.81-2.84,2.2-5.19,4.96-7.52,7.67-2.29,2.67-4.48,5.22-7.71,6.8-3.46,1.69-7.56,1.56-11.11.23-3.17-1.19-5.94-3.24-8.47-5.49-.63-.56-1.26-1.13-1.9-1.71-.18.17-.35.34-.53.51-.34.32-.69.62-1.04.92.98.87,1.98,1.72,2.95,2.61,1.37,1.26,3.08,2.53,4.66,3.54,2.82,1.79,6.08,2.99,9.44,3.06,4.31.09,8.5-1.81,11.63-4.7,2.89-2.66,5.16-5.96,7.91-8.77,2.39-2.44,5.87-5.39,9.71-5.23,3.92.16,3.05-2,.62-2.26Z"/>
        <path class="cls-2" d="m68.45,24.29c.5-.15.93-.48,1.33-.82,2.78-2.37,4.36-5.75,7.1-8.12,2.97-2.58,6.53-2.41,10.19-2.5.01,0,.03,0,.04,0,.35-.01.72-.05.97-.27.41-.36.33-1.09-.07-1.47-.28-.26-.67-.39-1.05-.46-1.44-.29-3.12-.2-4.57-.03-3.04.35-5.94,1.84-7.99,4.11-2.3,2.54-4.22,5.61-6.3,8.35-.15.19-.3.4-.34.63-.04.24.06.52.28.61.13.05.28.02.41-.02Z"/>
        <path class="cls-2" d="m85.66,16.67c-1.25.34-2.43.89-3.5,1.61-1.02.68-1.95,1.51-2.77,2.42-.67.74-1.82,1.85-2.02,2.87-.22,1.12.8.77,1.29.37.48-.39.86-.88,1.33-1.29.93-.81,1.89-1.59,2.93-2.26,1.55-.99,3.3-1.73,5.14-1.85.45-.03.92-.03,1.34-.23.28-.13.52-.37.59-.67.1-.42-.17-.86-.54-1.08-.39-.23-.88-.31-1.4-.31-.83,0-1.74.23-2.39.41Z"/>
        <path class="cls-2" d="m84.68,23.8c-.78.68-2.08,1.72-2.2,2.81-.02.23.02.51.23.61.17.08.38,0,.53-.11.27-.21.48-.5.74-.71.83-.69,1.72-1.31,2.66-1.83,1.18-.66,2.44-1.15,3.75-1.45.68-.16,1.38-.27,2.08-.32.2-.01.41-.02.61-.03.37-.03.74-.09,1.06-.31.24-.16.43-.43.4-.72-.03-.24-.21-.44-.4-.58-1.6-1.18-4.63-.19-6.23.54-1.17.54-2.26,1.25-3.24,2.1Z"/>
        <path class="cls-2" d="m47.41,38.43c-.63.58-1.27,1.15-1.9,1.71-2.52,2.25-5.3,4.3-8.47,5.49-3.55,1.33-7.65,1.46-11.11-.23-3.23-1.58-5.42-4.13-7.71-6.8-2.33-2.72-4.68-5.47-7.52-7.67-2.49-1.93-5.38-3.16-8.64-2.81-2.42.26-3.29,2.41.62,2.26,3.83-.15,7.32,2.8,9.71,5.23,2.75,2.81,5.02,6.1,7.91,8.77,3.13,2.89,7.32,4.79,11.63,4.7,3.36-.07,6.62-1.26,9.44-3.06,1.58-1.01,3.29-2.27,4.66-3.54.96-.89,1.96-1.74,2.95-2.61-.35-.31-.7-.61-1.04-.92-.18-.17-.35-.34-.53-.51Z"/>
        <path class="cls-2" d="m63.7,18.76c-1-4.03-5.41-6.37-9.33-5.25-2.12.6-4.08,2.11-5.39,3.97-1.31-1.86-3.27-3.36-5.39-3.97-3.93-1.11-8.33,1.22-9.33,5.25-.89,3.59,1.4,6.67,3.53,9.32,3,3.72,6.17,7.08,9.63,10.35.18.17.35.34.53.51.34.32.69.62,1.04.92.35-.31.7-.61,1.04-.92.18-.17.35-.34.53-.51,3.45-3.28,6.63-6.63,9.63-10.35,2.13-2.64,4.42-5.72,3.53-9.32Z"/>
        <path class="cls-2" d="m10.85,12.84s.03,0,.04,0c3.66.09,7.22-.07,10.19,2.5,2.74,2.38,4.33,5.75,7.1,8.12.4.34.83.67,1.33.82.13.04.28.06.41.02.23-.08.33-.37.28-.61-.04-.24-.2-.44-.34-.63-2.08-2.74-4.01-5.81-6.3-8.35-2.05-2.27-4.95-3.76-7.99-4.11-1.45-.17-3.13-.25-4.57.03-.38.08-.76.2-1.05.46-.4.38-.49,1.1-.07,1.47.26.23.63.26.97.27Z"/>
        <path class="cls-2" d="m8.56,18.32c.42.2.89.2,1.34.23,1.84.12,3.59.86,5.14,1.85,1.04.67,2,1.45,2.93,2.26.47.41.84.9,1.33,1.29.49.39,1.51.75,1.29-.37-.2-1.02-1.35-2.12-2.02-2.87-.82-.91-1.75-1.74-2.77-2.42-1.07-.72-2.25-1.27-3.5-1.61-.65-.18-1.56-.4-2.39-.41-.52,0-1.01.08-1.4.31-.37.22-.64.66-.54,1.08.07.3.31.54.59.67Z"/>
        <path class="cls-2" d="m3.81,22.46c.32.22.69.28,1.06.31.2.01.41.02.61.03.7.05,1.4.16,2.08.32,1.31.3,2.58.79,3.75,1.45.94.53,1.83,1.14,2.66,1.83.26.22.47.5.74.71.15.12.36.19.53.11.21-.1.26-.38.23-.61-.12-1.1-1.42-2.14-2.2-2.81-.97-.85-2.06-1.56-3.24-2.1-1.6-.73-4.63-1.72-6.23-.54-.2.14-.38.34-.4.58-.03.29.16.56.4.72Z"/>
        <path class="cls-1" d="m43.69,9.15c3.46.84,7.11.84,10.57-.02,2.03-.51,5.35-1.61,5.36-4.19h0s0-.02,0-.03c0-.02,0-.04,0-.06h0s0,0,0,0c-.15-2.63-3.29-3.68-5.46-4.21-3.46-.84-7.11-.84-10.57.02-2.03.51-5.35,1.61-5.36,4.19h0s0,.02,0,.03c0,.02,0,.04,0,.06h0c.15,2.63,3.29,3.68,5.46,4.21Zm5.21-6.94c1.9,0,8.59.56,8.52,2.68h0c.09,2.07-6.92,2.68-8.47,2.68-1.9,0-8.6-.56-8.52-2.68.07-2.07,6.92-2.68,8.47-2.68Z"/>
      </g>
      <path class="cls-1" d="m37.62,23.88c-.86-1.39-1.52-2.83-1.11-4.5.47-1.94,2.15-3.41,4.1-3.76,3.07-.54,5.91,1.9,7.4,4.43.22.38.55.52.87.53.04,0,.07,0,.11,0,.04,0,.07,0,.11,0,.32-.01.65-.16.87-.53,1.48-2.53,4.33-4.97,7.4-4.43,1.95.34,3.63,1.82,4.1,3.76.41,1.67-.24,3.11-1.11,4.5-3.02,4.86-7.12,9.14-11.36,13.09-4.24-3.95-8.34-8.23-11.36-13.09Z"/>
      <g>
        <g>
          <path class="cls-2" d="m161.69,17.15h-.89c-.27,0-.52.18-.6.44-.82,2.75-2.47,7.04-5.33,10.54-.09.11-.14.25-.14.39v1.63c0,.34.42.5.65.25,1.19-1.28,2.21-2.71,3.07-4.17v12.94c0,.28.22.5.5.5h.81c.28,0,.5-.22.5-.5v-16.51h0c.84-1.95,1.42-3.73,1.8-5.05.07-.24-.11-.47-.36-.47Z"/>
          <path class="cls-2" d="m169.2,34.94c.95-1.5,1.52-3.42,1.85-5.2h6.02c.28,0,.5-.22.5-.5v-5.71c0-.28-.22-.5-.5-.5h-5.58c0-.78,0-1.53,0-2.24h6.12c.28,0,.5-.22.5-.5v-.83c0-.28-.22-.5-.5-.5h-6.11c0-.83,0-1.29,0-1.71,0-.28-.22-.5-.5-.5h-.83c-.28,0-.5.22-.5.5,0,.43,0,.88,0,1.71h-6.14c-.28,0-.5.22-.5.5v.83c0,.28.22.5.5.5h6.14c0,.71,0,1.46,0,2.24h-5.26c-.28,0-.5.22-.5.5v5.71c0,.28.22.5.5.5h4.8c-.28,1.35-.72,2.84-1.39,3.96-.67-.69-1.17-1.34-1.52-1.85-.12-.17-.31-.27-.52-.27h-1.13c-.29,0-.47.31-.33.56.39.67,1.15,1.83,2.39,3.05-.91.98-2.1,1.8-3.63,2.4-.24.1-.4.32-.4.58v.99c0,.26.25.44.49.36,2.14-.74,3.74-1.81,4.93-3.11,2.24,1.73,5.54,3.29,10.21,3.45.28,0,.51-.22.52-.5v-1.16c.02-.27-.2-.49-.48-.5-4.21-.13-7.15-1.23-9.14-2.76Zm6.32-10.14v3.16h-4.21c.11-1.05.15-2.11.16-3.16h4.04Zm-9.6,3.16v-3.16h3.72c-.01,1.07-.06,2.13-.18,3.16h-3.54Z"/>
        </g>
        <g>
          <path class="cls-2" d="m192.95,24.29v-5.98c0-.28-.22-.5-.5-.5h-.83c-.28,0-.5.22-.5.5v5.98h-2.26c-.28,0-.5.22-.5.5v.78c0,.28.22.5.5.5h2.26v13.12c0,.28.22.5.5.5h.83c.28,0,.5-.22.5-.5v-13.12h2.26c.28,0,.5-.22.5-.5v-.78c0-.28-.22-.5-.5-.5h-2.26Z"/>
          <g>
            <polygon class="cls-2" points="199.57 27.43 199.57 27.43 199.57 27.43 199.57 27.43"/>
            <path class="cls-2" d="m202.84,34.12c.14-1.17.22-2.24.25-2.89.02-.3.03-.52.03-.63v-.42c.02-.28-.2-.52-.49-.52h-3.51c.03-.59.04-1.05.04-1.54,0-.28-.22-.5-.5-.51h-.78c-.28,0-.5.21-.5.49,0,.51-.02.97-.05,1.56h-1.81c-.28,0-.5.22-.5.5v.81c0,.28.22.5.5.5h1.66c-.11,2.43-.84,4.97-3.08,7.44-.18.2-.04.52.23.52h1.37c.19,0,.37-.09.49-.24,2.01-2.51,2.49-5.24,2.78-7.72h2.28s.02,1.38-.31,3.06c-.19.97-.3,1.8-.79,2.77l-.78-.64c-.19-.16-.48-.09-.58.13-.14.3-.29.62-.43.9-.1.2-.06.45.12.6l1.71,1.51c.2.17.51.14.65-.08,1.35-2.06,1.78-4.34,1.99-5.62Z"/>
            <path class="cls-2" d="m211.49,29.66h-3.19c.05-.55.09-1.01.1-1.53,0-.28-.22-.51-.5-.52h-.78c-.27,0-.49.21-.5.48-.02.55-.06,1.01-.12,1.57h-1.73c-.28,0-.5.22-.5.5v.81c0,.28.22.5.5.5h1.47c-.56,2.94-1.47,5.35-3.29,7.44-.18.2-.03.51.24.51h1.38c.19,0,.38-.09.5-.24,1.67-2.18,2.49-4.74,3-7.71h2.18c0,.35-.13,3.63-1.18,5.54l-.69-.47c-.19-.13-.46-.06-.55.15-.16.35-.34.73-.5,1.05-.11.22-.05.48.15.63l1.93,1.43c.22.16.54.09.65-.16,1.54-3.22,1.75-6.5,1.89-8.44.03-.42.05-.77.05-1.03,0-.28-.22-.51-.5-.51Z"/>
            <path class="cls-2" d="m201.66,26.77c1.08-1.74,1.39-4.24,1.71-5.88h1.8s1.25,0,1.25,0c-.11.62-.28,1.73-.46,2.45-.1.38-.21.75-.31,1.05l-.8-.72c-.19-.17-.49-.11-.59.13-.13.29-.27.58-.41.86-.11.21-.06.46.11.61l2.09,1.8c.23.2.58.11.69-.17l.24-.59c.53-1.34,1.05-4.09,1.28-5.41.05-.31.13-.91.17-1.33.03-.26-.17-.48-.43-.49h-4.35c.08-.72.13-1.39.15-1.83.02-.29-.21-.53-.5-.53h-.78c-.26,0-.48.2-.5.47-.03.48-.09,1.25-.16,1.87h-1.77c-.28,0-.5.22-.5.49v.81c0,.28.22.5.5.5h1.47c-.36,1.66-.74,4.07-1.95,5.68-.15.21-.01.5.25.5h1.28c.21,0,.42-.1.53-.29Z"/>
          </g>
        </g>
        <path class="cls-2" d="m134.63,27.83h8.33c.28,0,.5-.22.5-.5v-.83c0-.28-.22-.5-.5-.5h-8.83s-.03-.01-.03-.03v-1.66s0-.04,0-.06c.15-1.6.16-3.23.14-4.32,0-.02.01-.03.03-.03h7.93c.28,0,.5-.22.5-.5v-.78c0-.28-.22-.5-.5-.5h-17.42c-.28,0-.5.22-.5.5v.78c0,.28.22.5.5.5h7.6s.03.01.03.03c.01,1.05,0,2.64-.14,4.16-.06.65-.15,1.28-.26,1.89,0,.01-.01.02-.03.02h-7.96c-.28,0-.5.22-.5.5v.83c0,.28.22.5.5.5h7.53s.03.02.03.04c-1.37,4.9-4.53,7.9-9.42,9.85-.24.09-.4.32-.4.58v1.48c0,.26.26.45.51.35,5.46-2.03,9.13-5.77,10.84-10.98,0-.02.03-.02.04,0,1.12,2.81,3.94,7.49,10.87,10.89.25.12.54-.06.54-.34v-1.52c0-.23-.13-.45-.34-.55-6.55-3.4-8.85-7.49-9.62-9.75,0-.02,0-.04.03-.04Z"/>
        <g>
          <g>
            <g>
              <path class="cls-2" d="m233.38,16.69l-.26-.19c-.19-.14-.44-.13-.61.02l-.25.21c-3.1,2.58-8.44,5.45-11.02,6.78-.21.11-.34.32-.34.55v1.17c0,.23.24.39.45.28,2.09-1.05,7.86-4.05,11.52-6.92,1.22.86,2.6,1.73,3.98,2.56h.18v.1c3.18,1.9,6.35,3.54,7.6,4.18.21.11.45-.05.45-.28v-1.17c0-.23-.13-.45-.33-.55-2.42-1.26-7.85-4.16-11.37-6.73Z"/>
              <path class="cls-2" d="m236.85,20.53c.06.04.12.07.18.1v-.1h-.18Z"/>
            </g>
            <path class="cls-2" d="m240.35,39.03v-6.57c0-.28-.22-.5-.5-.5h-13.7c-.28,0-.5.22-.5.5v6.57c0,.28.22.5.5.5h13.7c.28,0,.5-.22.5-.5Zm-12.92-5.29h11.14v1.13h-11.14v-1.13Zm0,2.91h11.14v1.1h-11.14v-1.1Z"/>
            <path class="cls-2" d="m224.78,24.53v5.45c0,.28.22.5.5.5h15.46c.28,0,.5-.22.5-.5v-5.45c0-.28-.22-.5-.5-.5h-15.46c-.28,0-.5.22-.5.5Zm7.34,4.17h-1.35c-.61-.55-.94-1.36-1.1-1.94-.04-.16-.19-.27-.36-.27h-1.02c-.2,0-.35.19-.31.38.11.48.32,1.16.7,1.83h-2.12v-2.9h5.56v2.9Zm7.34,0h-2.15c.38-.68.59-1.35.7-1.83.05-.2-.1-.38-.31-.38h-1.02c-.17,0-.31.11-.36.27-.16.59-.49,1.4-1.1,1.94h-1.33v-2.9h5.56v2.9Z"/>
          </g>
          <rect class="cls-2" x="229.02" y="20.76" width="7.93" height="1.76" rx=".5" ry=".5"/>
        </g>
      </g>
    </g>
  </g>
</svg>